  0
SECTION
  2
HEADER
  9
$ANGBASE
  50
0.0
  9
$ANGDIR
  70
1
  9
$MEASUREMENT
  70
0
  0
ENDSEC
  0
SECTION
  2
TABLES
  0
TABLE
  2
LTYPE
  70
4
  0
LTYPE
  5
40F
  2
CONTINUOUS
  70
0
  3
Solid line
  72
65
  73
0
  40
0.0
  0
LTYPE
  5
410
  2
DASHDOT
 70
0
  3
Dash Dot ____ _ ____ _
 72
65
 73
4
 40
2.0
 49
1.25
 49
-0.25
 49
0.25
 49
-0.25
  0
LTYPE
  5
411
  2
DASHED
 70
0
  3
Dashed __ __ __ __ __
 72
65
 73
2
 40
0.75
 49
0.5
 49
-0.25
  0
LTYPE
  5
43B
  2
DOTTED
 70
0
  3
Dotted .  .  .  .
 72
65
 73
2
 40
0.2
 49
0.0
 49
-0.2
  0
ENDTAB
  0
TABLE
  2
STYLE
  70
4
  0
STYLE
  2
KICAD
  70
0
  40
0
  41
1
  42
1
  50
0
  71
0
  3
isocp.shx
  0
STYLE
  2
KICADB
  70
0
  40
0
  41
1
  42
1
  50
0
  71
0
  3
isocp.shx
  0
STYLE
  2
KICADI
  70
0
  40
0
  41
1
  42
1
  50
15
  71
0
  3
isocp.shx
  0
STYLE
  2
KICADBI
  70
0
  40
0
  41
1
  42
1
  50
15
  71
0
  3
isocp.shx
  0
ENDTAB
  0
TABLE
  2
LAYER
  70
1
  0
LAYER
  2
BLACK
  70
0
  62
7
  6
CONTINUOUS
  0
ENDTAB
  0
ENDSEC
  0
SECTION
  2
ENTITIES
0
LINE
8
BLACK
6
CONTINUOUS
10
0.2205096456692913
20
-0.0836841338582677
11
0.2338744094488189
21
-0.0868516141732283
0
LINE
8
BLACK
6
CONTINUOUS
10
0.2338744094488189
20
-0.0868516141732283
11
0.246781062992126
21
-0.0915492913385827
0
LINE
8
BLACK
6
CONTINUOUS
10
0.246781062992126
20
-0.0915492913385827
11
0.2590551181102362
21
-0.0977135433070866
0
LINE
8
BLACK
6
CONTINUOUS
10
0.2590551181102362
20
-0.0977135433070866
11
0.2705305511811024
21
-0.1052610236220472
0
LINE
8
BLACK
6
CONTINUOUS
10
0.2705305511811024
20
-0.1052610236220472
11
0.2810521653543307
21
-0.1140897244094488
0
LINE
8
BLACK
6
CONTINUOUS
10
0.2810521653543307
20
-0.1140897244094488
11
0.2904776771653543
21
-0.1240801968503937
0
LINE
8
BLACK
6
CONTINUOUS
10
0.2904776771653543
20
-0.1240801968503937
11
0.2986796456692913
21
-0.1350973622047244
0
LINE
8
BLACK
6
CONTINUOUS
10
0.2986796456692913
20
-0.1350973622047244
11
0.3055471653543307
21
-0.1469922047244094
0
LINE
8
BLACK
6
CONTINUOUS
10
0.3055471653543307
20
-0.1469922047244094
11
0.3109873228346456
21
-0.159603937007874
0
LINE
8
BLACK
6
CONTINUOUS
10
0.3109873228346456
20
-0.159603937007874
11
0.3149265748031496
21
-0.1727618897637795
0
LINE
8
BLACK
6
CONTINUOUS
10
0.3149265748031496
20
-0.1727618897637795
11
0.3173116141732283
21
-0.1862882283464567
0
LINE
8
BLACK
6
CONTINUOUS
10
0.3173116141732283
20
-0.1862882283464567
11
0.3181102362204724
21
-0.2
0
LINE
8
BLACK
6
CONTINUOUS
10
0.3181102362204724
20
-0.2
11
0.3173116141732283
21
-0.2137117716535433
0
LINE
8
BLACK
6
CONTINUOUS
10
0.3173116141732283
20
-0.2137117716535433
11
0.3149265748031496
21
-0.2272381102362205
0
LINE
8
BLACK
6
CONTINUOUS
10
0.3149265748031496
20
-0.2272381102362205
11
0.3109873228346456
21
-0.240396062992126
0
LINE
8
BLACK
6
CONTINUOUS
10
0.3109873228346456
20
-0.240396062992126
11
0.3055471653543307
21
-0.2530077952755905
0
LINE
8
BLACK
6
CONTINUOUS
10
0.3055471653543307
20
-0.2530077952755905
11
0.2986796456692913
21
-0.2649026377952756
0
LINE
8
BLACK
6
CONTINUOUS
10
0.2986796456692913
20
-0.2649026377952756
11
0.2904776771653543
21
-0.2759198031496063
0
LINE
8
BLACK
6
CONTINUOUS
10
0.2904776771653543
20
-0.2759198031496063
11
0.2810521653543307
21
-0.2859102755905512
0
LINE
8
BLACK
6
CONTINUOUS
10
0.2810521653543307
20
-0.2859102755905512
11
0.2705305511811024
21
-0.2947389763779528
0
LINE
8
BLACK
6
CONTINUOUS
10
0.2705305511811024
20
-0.2947389763779528
11
0.2590551181102362
21
-0.3022864566929134
0
LINE
8
BLACK
6
CONTINUOUS
10
0.2590551181102362
20
-0.3022864566929134
11
0.246781062992126
21
-0.3084507086614173
0
LINE
8
BLACK
6
CONTINUOUS
10
0.246781062992126
20
-0.3084507086614173
11
0.2338744094488189
21
-0.3131483858267716
0
LINE
8
BLACK
6
CONTINUOUS
10
0.2338744094488189
20
-0.3131483858267716
11
0.2205096456692913
21
-0.3163158661417323
0
LINE
8
BLACK
6
CONTINUOUS
10
0.2205096456692913
20
-0.3163158661417323
11
0.2068674803149606
21
-0.3179103937007874
0
LINE
8
BLACK
6
CONTINUOUS
10
0.2068674803149606
20
-0.3179103937007874
11
0.1931325196850394
21
-0.3179103937007874
0
LINE
8
BLACK
6
CONTINUOUS
10
0.1931325196850394
20
-0.3179103937007874
11
0.1794903543307086
21
-0.3163158661417323
0
LINE
8
BLACK
6
CONTINUOUS
10
0.1794903543307086
20
-0.3163158661417323
11
0.1661255905511811
21
-0.3131483858267716
0
LINE
8
BLACK
6
CONTINUOUS
10
0.1661255905511811
20
-0.3131483858267716
11
0.153218937007874
21
-0.3084507086614173
0
LINE
8
BLACK
6
CONTINUOUS
10
0.153218937007874
20
-0.3084507086614173
11
0.1409448818897638
21
-0.3022864566929134
0
LINE
8
BLACK
6
CONTINUOUS
10
0.1409448818897638
20
-0.3022864566929134
11
0.1294694488188976
21
-0.2947389763779528
0
LINE
8
BLACK
6
CONTINUOUS
10
0.1294694488188976
20
-0.2947389763779528
11
0.1189478346456693
21
-0.2859102755905512
0
LINE
8
BLACK
6
CONTINUOUS
10
0.1189478346456693
20
-0.2859102755905512
11
0.1095223228346457
21
-0.2759198031496063
0
LINE
8
BLACK
6
CONTINUOUS
10
0.1095223228346457
20
-0.2759198031496063
11
0.1013203543307087
21
-0.2649026377952756
0
LINE
8
BLACK
6
CONTINUOUS
10
0.1013203543307087
20
-0.2649026377952756
11
0.0944528346456693
21
-0.2530077952755905
0
LINE
8
BLACK
6
CONTINUOUS
10
0.0944528346456693
20
-0.2530077952755905
11
0.0890126771653543
21
-0.240396062992126
0
LINE
8
BLACK
6
CONTINUOUS
10
0.0890126771653543
20
-0.240396062992126
11
0.0850734251968504
21
-0.2272381102362205
0
LINE
8
BLACK
6
CONTINUOUS
10
0.0850734251968504
20
-0.2272381102362205
11
0.0826883858267717
21
-0.2137117716535433
0
LINE
8
BLACK
6
CONTINUOUS
10
0.0826883858267717
20
-0.2137117716535433
11
0.0818897637795276
21
-0.2
0
LINE
8
BLACK
6
CONTINUOUS
10
0.0818897637795276
20
-0.2
11
0.0826883858267717
21
-0.1862882283464567
0
LINE
8
BLACK
6
CONTINUOUS
10
0.0826883858267717
20
-0.1862882283464567
11
0.0850734251968504
21
-0.1727618897637795
0
LINE
8
BLACK
6
CONTINUOUS
10
0.0850734251968504
20
-0.1727618897637795
11
0.0890126771653543
21
-0.159603937007874
0
LINE
8
BLACK
6
CONTINUOUS
10
0.0890126771653543
20
-0.159603937007874
11
0.0944528346456693
21
-0.1469922047244094
0
LINE
8
BLACK
6
CONTINUOUS
10
0.0944528346456693
20
-0.1469922047244094
11
0.1013203543307087
21
-0.1350973622047244
0
LINE
8
BLACK
6
CONTINUOUS
10
0.1013203543307087
20
-0.1350973622047244
11
0.1095223228346457
21
-0.1240801968503937
0
LINE
8
BLACK
6
CONTINUOUS
10
0.1095223228346457
20
-0.1240801968503937
11
0.1189478346456693
21
-0.1140897244094488
0
LINE
8
BLACK
6
CONTINUOUS
10
0.1189478346456693
20
-0.1140897244094488
11
0.1294694488188976
21
-0.1052610236220472
0
LINE
8
BLACK
6
CONTINUOUS
10
0.1294694488188976
20
-0.1052610236220472
11
0.1409448818897638
21
-0.0977135433070866
0
LINE
8
BLACK
6
CONTINUOUS
10
0.1409448818897638
20
-0.0977135433070866
11
0.153218937007874
21
-0.0915492913385827
0
LINE
8
BLACK
6
CONTINUOUS
10
0.153218937007874
20
-0.0915492913385827
11
0.1661255905511811
21
-0.0868516141732283
0
LINE
8
BLACK
6
CONTINUOUS
10
0.1661255905511811
20
-0.0868516141732283
11
0.1794903543307086
21
-0.0836841338582677
0
LINE
8
BLACK
6
CONTINUOUS
10
0.1794903543307086
20
-0.0836841338582677
11
0.1931325196850394
21
-0.0820896062992126
0
LINE
8
BLACK
6
CONTINUOUS
10
0.1931325196850394
20
-0.0820896062992126
11
0.2068674803149606
21
-0.0820896062992126
0
LINE
8
BLACK
6
CONTINUOUS
10
0.2068674803149606
20
-0.0820896062992126
11
0.2205096456692913
21
-0.0836841338582677
0
LINE
8
BLACK
6
CONTINUOUS
10
1.4205096456692914
20
-0.0836841338582677
11
1.4338744094488189
21
-0.0868516141732283
0
LINE
8
BLACK
6
CONTINUOUS
10
1.4338744094488189
20
-0.0868516141732283
11
1.4467810629921261
21
-0.0915492913385827
0
LINE
8
BLACK
6
CONTINUOUS
10
1.4467810629921261
20
-0.0915492913385827
11
1.4590551181102362
21
-0.0977135433070866
0
LINE
8
BLACK
6
CONTINUOUS
10
1.4590551181102362
20
-0.0977135433070866
11
1.4705305511811024
21
-0.1052610236220472
0
LINE
8
BLACK
6
CONTINUOUS
10
1.4705305511811024
20
-0.1052610236220472
11
1.4810521653543307
21
-0.1140897244094488
0
LINE
8
BLACK
6
CONTINUOUS
10
1.4810521653543307
20
-0.1140897244094488
11
1.4904776771653543
21
-0.1240801968503937
0
LINE
8
BLACK
6
CONTINUOUS
10
1.4904776771653543
20
-0.1240801968503937
11
1.4986796456692912
21
-0.1350973622047244
0
LINE
8
BLACK
6
CONTINUOUS
10
1.4986796456692912
20
-0.1350973622047244
11
1.5055471653543306
21
-0.1469922047244094
0
LINE
8
BLACK
6
CONTINUOUS
10
1.5055471653543306
20
-0.1469922047244094
11
1.5109873228346455
21
-0.159603937007874
0
LINE
8
BLACK
6
CONTINUOUS
10
1.5109873228346455
20
-0.159603937007874
11
1.5149265748031495
21
-0.1727618897637795
0
LINE
8
BLACK
6
CONTINUOUS
10
1.5149265748031495
20
-0.1727618897637795
11
1.5173116141732284
21
-0.1862882283464567
0
LINE
8
BLACK
6
CONTINUOUS
10
1.5173116141732284
20
-0.1862882283464567
11
1.5181102362204724
21
-0.2
0
LINE
8
BLACK
6
CONTINUOUS
10
1.5181102362204724
20
-0.2
11
1.5173116141732284
21
-0.2137117716535433
0
LINE
8
BLACK
6
CONTINUOUS
10
1.5173116141732284
20
-0.2137117716535433
11
1.5149265748031495
21
-0.2272381102362205
0
LINE
8
BLACK
6
CONTINUOUS
10
1.5149265748031495
20
-0.2272381102362205
11
1.5109873228346455
21
-0.240396062992126
0
LINE
8
BLACK
6
CONTINUOUS
10
1.5109873228346455
20
-0.240396062992126
11
1.5055471653543306
21
-0.2530077952755905
0
LINE
8
BLACK
6
CONTINUOUS
10
1.5055471653543306
20
-0.2530077952755905
11
1.4986796456692912
21
-0.2649026377952756
0
LINE
8
BLACK
6
CONTINUOUS
10
1.4986796456692912
20
-0.2649026377952756
11
1.4904776771653543
21
-0.2759198031496063
0
LINE
8
BLACK
6
CONTINUOUS
10
1.4904776771653543
20
-0.2759198031496063
11
1.4810521653543307
21
-0.2859102755905512
0
LINE
8
BLACK
6
CONTINUOUS
10
1.4810521653543307
20
-0.2859102755905512
11
1.4705305511811024
21
-0.2947389763779528
0
LINE
8
BLACK
6
CONTINUOUS
10
1.4705305511811024
20
-0.2947389763779528
11
1.4590551181102362
21
-0.3022864566929134
0
LINE
8
BLACK
6
CONTINUOUS
10
1.4590551181102362
20
-0.3022864566929134
11
1.4467810629921261
21
-0.3084507086614173
0
LINE
8
BLACK
6
CONTINUOUS
10
1.4467810629921261
20
-0.3084507086614173
11
1.4338744094488189
21
-0.3131483858267716
0
LINE
8
BLACK
6
CONTINUOUS
10
1.4338744094488189
20
-0.3131483858267716
11
1.4205096456692914
21
-0.3163158661417323
0
LINE
8
BLACK
6
CONTINUOUS
10
1.4205096456692914
20
-0.3163158661417323
11
1.4068674803149606
21
-0.3179103937007874
0
LINE
8
BLACK
6
CONTINUOUS
10
1.4068674803149606
20
-0.3179103937007874
11
1.3931325196850393
21
-0.3179103937007874
0
LINE
8
BLACK
6
CONTINUOUS
10
1.3931325196850393
20
-0.3179103937007874
11
1.3794903543307087
21
-0.3163158661417323
0
LINE
8
BLACK
6
CONTINUOUS
10
1.3794903543307087
20
-0.3163158661417323
11
1.3661255905511811
21
-0.3131483858267716
0
LINE
8
BLACK
6
CONTINUOUS
10
1.3661255905511811
20
-0.3131483858267716
11
1.353218937007874
21
-0.3084507086614173
0
LINE
8
BLACK
6
CONTINUOUS
10
1.353218937007874
20
-0.3084507086614173
11
1.3409448818897638
21
-0.3022864566929134
0
LINE
8
BLACK
6
CONTINUOUS
10
1.3409448818897638
20
-0.3022864566929134
11
1.3294694488188976
21
-0.2947389763779528
0
LINE
8
BLACK
6
CONTINUOUS
10
1.3294694488188976
20
-0.2947389763779528
11
1.3189478346456693
21
-0.2859102755905512
0
LINE
8
BLACK
6
CONTINUOUS
10
1.3189478346456693
20
-0.2859102755905512
11
1.3095223228346455
21
-0.2759198031496063
0
LINE
8
BLACK
6
CONTINUOUS
10
1.3095223228346455
20
-0.2759198031496063
11
1.3013203543307086
21
-0.2649026377952756
0
LINE
8
BLACK
6
CONTINUOUS
10
1.3013203543307086
20
-0.2649026377952756
11
1.2944528346456692
21
-0.2530077952755905
0
LINE
8
BLACK
6
CONTINUOUS
10
1.2944528346456692
20
-0.2530077952755905
11
1.2890126771653543
21
-0.240396062992126
0
LINE
8
BLACK
6
CONTINUOUS
10
1.2890126771653543
20
-0.240396062992126
11
1.2850734251968503
21
-0.2272381102362205
0
LINE
8
BLACK
6
CONTINUOUS
10
1.2850734251968503
20
-0.2272381102362205
11
1.2826883858267717
21
-0.2137117716535433
0
LINE
8
BLACK
6
CONTINUOUS
10
1.2826883858267717
20
-0.2137117716535433
11
1.2818897637795275
21
-0.2
0
LINE
8
BLACK
6
CONTINUOUS
10
1.2818897637795275
20
-0.2
11
1.2826883858267717
21
-0.1862882283464567
0
LINE
8
BLACK
6
CONTINUOUS
10
1.2826883858267717
20
-0.1862882283464567
11
1.2850734251968503
21
-0.1727618897637795
0
LINE
8
BLACK
6
CONTINUOUS
10
1.2850734251968503
20
-0.1727618897637795
11
1.2890126771653543
21
-0.159603937007874
0
LINE
8
BLACK
6
CONTINUOUS
10
1.2890126771653543
20
-0.159603937007874
11
1.2944528346456692
21
-0.1469922047244094
0
LINE
8
BLACK
6
CONTINUOUS
10
1.2944528346456692
20
-0.1469922047244094
11
1.3013203543307086
21
-0.1350973622047244
0
LINE
8
BLACK
6
CONTINUOUS
10
1.3013203543307086
20
-0.1350973622047244
11
1.3095223228346455
21
-0.1240801968503937
0
LINE
8
BLACK
6
CONTINUOUS
10
1.3095223228346455
20
-0.1240801968503937
11
1.3189478346456693
21
-0.1140897244094488
0
LINE
8
BLACK
6
CONTINUOUS
10
1.3189478346456693
20
-0.1140897244094488
11
1.3294694488188976
21
-0.1052610236220472
0
LINE
8
BLACK
6
CONTINUOUS
10
1.3294694488188976
20
-0.1052610236220472
11
1.3409448818897638
21
-0.0977135433070866
0
LINE
8
BLACK
6
CONTINUOUS
10
1.3409448818897638
20
-0.0977135433070866
11
1.353218937007874
21
-0.0915492913385827
0
LINE
8
BLACK
6
CONTINUOUS
10
1.353218937007874
20
-0.0915492913385827
11
1.3661255905511811
21
-0.0868516141732283
0
LINE
8
BLACK
6
CONTINUOUS
10
1.3661255905511811
20
-0.0868516141732283
11
1.3794903543307087
21
-0.0836841338582677
0
LINE
8
BLACK
6
CONTINUOUS
10
1.3794903543307087
20
-0.0836841338582677
11
1.3931325196850393
21
-0.0820896062992126
0
LINE
8
BLACK
6
CONTINUOUS
10
1.3931325196850393
20
-0.0820896062992126
11
1.4068674803149606
21
-0.0820896062992126
0
LINE
8
BLACK
6
CONTINUOUS
10
1.4068674803149606
20
-0.0820896062992126
11
1.4205096456692914
21
-0.0836841338582677
0
LINE
8
BLACK
6
CONTINUOUS
10
0.4825
20
-0.1325
11
0.4175
21
-0.1325
0
LINE
8
BLACK
6
CONTINUOUS
10
0.4175
20
-0.1325
11
0.4175
21
-0.0675
0
LINE
8
BLACK
6
CONTINUOUS
10
0.4175
20
-0.0675
11
0.4825
21
-0.0675
0
LINE
8
BLACK
6
CONTINUOUS
10
0.4825
20
-0.0675
11
0.4825
21
-0.1325
0
LINE
8
BLACK
6
CONTINUOUS
10
0.5825
20
-0.1325
11
0.5175
21
-0.1325
0
LINE
8
BLACK
6
CONTINUOUS
10
0.5175
20
-0.1325
11
0.5175
21
-0.0675
0
LINE
8
BLACK
6
CONTINUOUS
10
0.5175
20
-0.0675
11
0.5825
21
-0.0675
0
LINE
8
BLACK
6
CONTINUOUS
10
0.5825
20
-0.0675
11
0.5825
21
-0.1325
0
LINE
8
BLACK
6
CONTINUOUS
10
0.6825
20
-0.1325
11
0.6174999999999999
21
-0.1325
0
LINE
8
BLACK
6
CONTINUOUS
10
0.6174999999999999
20
-0.1325
11
0.6174999999999999
21
-0.0675
0
LINE
8
BLACK
6
CONTINUOUS
10
0.6174999999999999
20
-0.0675
11
0.6825
21
-0.0675
0
LINE
8
BLACK
6
CONTINUOUS
10
0.6825
20
-0.0675
11
0.6825
21
-0.1325
0
LINE
8
BLACK
6
CONTINUOUS
10
0.7825
20
-0.1325
11
0.7175
21
-0.1325
0
LINE
8
BLACK
6
CONTINUOUS
10
0.7175
20
-0.1325
11
0.7175
21
-0.0675
0
LINE
8
BLACK
6
CONTINUOUS
10
0.7175
20
-0.0675
11
0.7825
21
-0.0675
0
LINE
8
BLACK
6
CONTINUOUS
10
0.7825
20
-0.0675
11
0.7825
21
-0.1325
0
LINE
8
BLACK
6
CONTINUOUS
10
0.8825
20
-0.1325
11
0.8175
21
-0.1325
0
LINE
8
BLACK
6
CONTINUOUS
10
0.8175
20
-0.1325
11
0.8175
21
-0.0675
0
LINE
8
BLACK
6
CONTINUOUS
10
0.8175
20
-0.0675
11
0.8825
21
-0.0675
0
LINE
8
BLACK
6
CONTINUOUS
10
0.8825
20
-0.0675
11
0.8825
21
-0.1325
0
LINE
8
BLACK
6
CONTINUOUS
10
0.9824999999999999
20
-0.1325
11
0.9175
21
-0.1325
0
LINE
8
BLACK
6
CONTINUOUS
10
0.9175
20
-0.1325
11
0.9175
21
-0.0675
0
LINE
8
BLACK
6
CONTINUOUS
10
0.9175
20
-0.0675
11
0.9824999999999999
21
-0.0675
0
LINE
8
BLACK
6
CONTINUOUS
10
0.9824999999999999
20
-0.0675
11
0.9824999999999999
21
-0.1325
0
LINE
8
BLACK
6
CONTINUOUS
10
1.0825
20
-0.1325
11
1.0175000000000001
21
-0.1325
0
LINE
8
BLACK
6
CONTINUOUS
10
1.0175000000000001
20
-0.1325
11
1.0175000000000001
21
-0.0675
0
LINE
8
BLACK
6
CONTINUOUS
10
1.0175000000000001
20
-0.0675
11
1.0825
21
-0.0675
0
LINE
8
BLACK
6
CONTINUOUS
10
1.0825
20
-0.0675
11
1.0825
21
-0.1325
0
LINE
8
BLACK
6
CONTINUOUS
10
1.1824999999999999
20
-0.1325
11
1.1174999999999999
21
-0.1325
0
LINE
8
BLACK
6
CONTINUOUS
10
1.1174999999999999
20
-0.1325
11
1.1174999999999999
21
-0.0675
0
LINE
8
BLACK
6
CONTINUOUS
10
1.1174999999999999
20
-0.0675
11
1.1824999999999999
21
-0.0675
0
LINE
8
BLACK
6
CONTINUOUS
10
1.1824999999999999
20
-0.0675
11
1.1824999999999999
21
-0.1325
0
LINE
8
BLACK
6
CONTINUOUS
10
0.4825
20
-0.0325
11
0.4175
21
-0.0325
0
LINE
8
BLACK
6
CONTINUOUS
10
0.4175
20
-0.0325
11
0.4175
21
0.0325
0
LINE
8
BLACK
6
CONTINUOUS
10
0.4175
20
0.0325
11
0.4825
21
0.0325
0
LINE
8
BLACK
6
CONTINUOUS
10
0.4825
20
0.0325
11
0.4825
21
-0.0325
0
LINE
8
BLACK
6
CONTINUOUS
10
0.5825
20
-0.0325
11
0.5175
21
-0.0325
0
LINE
8
BLACK
6
CONTINUOUS
10
0.5175
20
-0.0325
11
0.5175
21
0.0325
0
LINE
8
BLACK
6
CONTINUOUS
10
0.5175
20
0.0325
11
0.5825
21
0.0325
0
LINE
8
BLACK
6
CONTINUOUS
10
0.5825
20
0.0325
11
0.5825
21
-0.0325
0
LINE
8
BLACK
6
CONTINUOUS
10
0.6825
20
-0.0325
11
0.6174999999999999
21
-0.0325
0
LINE
8
BLACK
6
CONTINUOUS
10
0.6174999999999999
20
-0.0325
11
0.6174999999999999
21
0.0325
0
LINE
8
BLACK
6
CONTINUOUS
10
0.6174999999999999
20
0.0325
11
0.6825
21
0.0325
0
LINE
8
BLACK
6
CONTINUOUS
10
0.6825
20
0.0325
11
0.6825
21
-0.0325
0
LINE
8
BLACK
6
CONTINUOUS
10
0.7825
20
-0.0325
11
0.7175
21
-0.0325
0
LINE
8
BLACK
6
CONTINUOUS
10
0.7175
20
-0.0325
11
0.7175
21
0.0325
0
LINE
8
BLACK
6
CONTINUOUS
10
0.7175
20
0.0325
11
0.7825
21
0.0325
0
LINE
8
BLACK
6
CONTINUOUS
10
0.7825
20
0.0325
11
0.7825
21
-0.0325
0
LINE
8
BLACK
6
CONTINUOUS
10
0.8825
20
-0.0325
11
0.8175
21
-0.0325
0
LINE
8
BLACK
6
CONTINUOUS
10
0.8175
20
-0.0325
11
0.8175
21
0.0325
0
LINE
8
BLACK
6
CONTINUOUS
10
0.8175
20
0.0325
11
0.8825
21
0.0325
0
LINE
8
BLACK
6
CONTINUOUS
10
0.8825
20
0.0325
11
0.8825
21
-0.0325
0
LINE
8
BLACK
6
CONTINUOUS
10
0.9824999999999999
20
-0.0325
11
0.9175
21
-0.0325
0
LINE
8
BLACK
6
CONTINUOUS
10
0.9175
20
-0.0325
11
0.9175
21
0.0325
0
LINE
8
BLACK
6
CONTINUOUS
10
0.9175
20
0.0325
11
0.9824999999999999
21
0.0325
0
LINE
8
BLACK
6
CONTINUOUS
10
0.9824999999999999
20
0.0325
11
0.9824999999999999
21
-0.0325
0
LINE
8
BLACK
6
CONTINUOUS
10
1.0825
20
-0.0325
11
1.0175000000000001
21
-0.0325
0
LINE
8
BLACK
6
CONTINUOUS
10
1.0175000000000001
20
-0.0325
11
1.0175000000000001
21
0.0325
0
LINE
8
BLACK
6
CONTINUOUS
10
1.0175000000000001
20
0.0325
11
1.0825
21
0.0325
0
LINE
8
BLACK
6
CONTINUOUS
10
1.0825
20
0.0325
11
1.0825
21
-0.0325
0
LINE
8
BLACK
6
CONTINUOUS
10
1.1824999999999999
20
-0.0325
11
1.1174999999999999
21
-0.0325
0
LINE
8
BLACK
6
CONTINUOUS
10
1.1174999999999999
20
-0.0325
11
1.1174999999999999
21
0.0325
0
LINE
8
BLACK
6
CONTINUOUS
10
1.1174999999999999
20
0.0325
11
1.1824999999999999
21
0.0325
0
LINE
8
BLACK
6
CONTINUOUS
10
1.1824999999999999
20
0.0325
11
1.1824999999999999
21
-0.0325
0
LINE
8
BLACK
6
CONTINUOUS
10
0.1825
20
0.0175
11
0.1175
21
0.0175
0
LINE
8
BLACK
6
CONTINUOUS
10
0.1175
20
0.0175
11
0.1175
21
0.0825
0
LINE
8
BLACK
6
CONTINUOUS
10
0.1175
20
0.0825
11
0.1825
21
0.0825
0
LINE
8
BLACK
6
CONTINUOUS
10
0.1825
20
0.0825
11
0.1825
21
0.0175
0
LINE
8
BLACK
6
CONTINUOUS
10
0.2825
20
0.0175
11
0.2175
21
0.0175
0
LINE
8
BLACK
6
CONTINUOUS
10
0.2175
20
0.0175
11
0.2175
21
0.0825
0
LINE
8
BLACK
6
CONTINUOUS
10
0.2175
20
0.0825
11
0.2825
21
0.0825
0
LINE
8
BLACK
6
CONTINUOUS
10
0.2825
20
0.0825
11
0.2825
21
0.0175
0
LINE
8
BLACK
6
CONTINUOUS
10
1.3374999999999999
20
0.1125
11
1.2725
21
0.1125
0
LINE
8
BLACK
6
CONTINUOUS
10
1.2725
20
0.1125
11
1.2725
21
0.1775
0
LINE
8
BLACK
6
CONTINUOUS
10
1.2725
20
0.1775
11
1.3374999999999999
21
0.1775
0
LINE
8
BLACK
6
CONTINUOUS
10
1.3374999999999999
20
0.1775
11
1.3374999999999999
21
0.1125
0
LINE
8
BLACK
6
CONTINUOUS
10
1.4375
20
0.1125
11
1.3725000000000001
21
0.1125
0
LINE
8
BLACK
6
CONTINUOUS
10
1.3725000000000001
20
0.1125
11
1.3725000000000001
21
0.1775
0
LINE
8
BLACK
6
CONTINUOUS
10
1.3725000000000001
20
0.1775
11
1.4375
21
0.1775
0
LINE
8
BLACK
6
CONTINUOUS
10
1.4375
20
0.1775
11
1.4375
21
0.1125
0
LINE
8
BLACK
6
CONTINUOUS
10
0.1825
20
0.1175
11
0.1175
21
0.1175
0
LINE
8
BLACK
6
CONTINUOUS
10
0.1175
20
0.1175
11
0.1175
21
0.1825
0
LINE
8
BLACK
6
CONTINUOUS
10
0.1175
20
0.1825
11
0.1825
21
0.1825
0
LINE
8
BLACK
6
CONTINUOUS
10
0.1825
20
0.1825
11
0.1825
21
0.1175
0
LINE
8
BLACK
6
CONTINUOUS
10
0.2825
20
0.1175
11
0.2175
21
0.1175
0
LINE
8
BLACK
6
CONTINUOUS
10
0.2175
20
0.1175
11
0.2175
21
0.1825
0
LINE
8
BLACK
6
CONTINUOUS
10
0.2175
20
0.1825
11
0.2825
21
0.1825
0
LINE
8
BLACK
6
CONTINUOUS
10
0.2825
20
0.1825
11
0.2825
21
0.1175
0
LINE
8
BLACK
6
CONTINUOUS
10
1.3374999999999999
20
0.2125
11
1.2725
21
0.2125
0
LINE
8
BLACK
6
CONTINUOUS
10
1.2725
20
0.2125
11
1.2725
21
0.2775
0
LINE
8
BLACK
6
CONTINUOUS
10
1.2725
20
0.2775
11
1.3374999999999999
21
0.2775
0
LINE
8
BLACK
6
CONTINUOUS
10
1.3374999999999999
20
0.2775
11
1.3374999999999999
21
0.2125
0
LINE
8
BLACK
6
CONTINUOUS
10
1.4375
20
0.2125
11
1.3725000000000001
21
0.2125
0
LINE
8
BLACK
6
CONTINUOUS
10
1.3725000000000001
20
0.2125
11
1.3725000000000001
21
0.2775
0
LINE
8
BLACK
6
CONTINUOUS
10
1.3725000000000001
20
0.2775
11
1.4375
21
0.2775
0
LINE
8
BLACK
6
CONTINUOUS
10
1.4375
20
0.2775
11
1.4375
21
0.2125
0
LINE
8
BLACK
6
CONTINUOUS
10
0.1825
20
0.2175
11
0.1175
21
0.2175
0
LINE
8
BLACK
6
CONTINUOUS
10
0.1175
20
0.2175
11
0.1175
21
0.2825
0
LINE
8
BLACK
6
CONTINUOUS
10
0.1175
20
0.2825
11
0.1825
21
0.2825
0
LINE
8
BLACK
6
CONTINUOUS
10
0.1825
20
0.2825
11
0.1825
21
0.2175
0
LINE
8
BLACK
6
CONTINUOUS
10
0.2825
20
0.2175
11
0.2175
21
0.2175
0
LINE
8
BLACK
6
CONTINUOUS
10
0.2175
20
0.2175
11
0.2175
21
0.2825
0
LINE
8
BLACK
6
CONTINUOUS
10
0.2175
20
0.2825
11
0.2825
21
0.2825
0
LINE
8
BLACK
6
CONTINUOUS
10
0.2825
20
0.2825
11
0.2825
21
0.2175
0
LINE
8
BLACK
6
CONTINUOUS
10
0.4825
20
0.2575
11
0.4175
21
0.2575
0
LINE
8
BLACK
6
CONTINUOUS
10
0.4175
20
0.2575
11
0.4175
21
0.3225
0
LINE
8
BLACK
6
CONTINUOUS
10
0.4175
20
0.3225
11
0.4825
21
0.3225
0
LINE
8
BLACK
6
CONTINUOUS
10
0.4825
20
0.3225
11
0.4825
21
0.2575
0
LINE
8
BLACK
6
CONTINUOUS
10
0.5825
20
0.2575
11
0.5175
21
0.2575
0
LINE
8
BLACK
6
CONTINUOUS
10
0.5175
20
0.2575
11
0.5175
21
0.3225
0
LINE
8
BLACK
6
CONTINUOUS
10
0.5175
20
0.3225
11
0.5825
21
0.3225
0
LINE
8
BLACK
6
CONTINUOUS
10
0.5825
20
0.3225
11
0.5825
21
0.2575
0
LINE
8
BLACK
6
CONTINUOUS
10
0.1825
20
0.3175
11
0.1175
21
0.3175
0
LINE
8
BLACK
6
CONTINUOUS
10
0.1175
20
0.3175
11
0.1175
21
0.3825
0
LINE
8
BLACK
6
CONTINUOUS
10
0.1175
20
0.3825
11
0.1825
21
0.3825
0
LINE
8
BLACK
6
CONTINUOUS
10
0.1825
20
0.3825
11
0.1825
21
0.3175
0
LINE
8
BLACK
6
CONTINUOUS
10
0.2825
20
0.3175
11
0.2175
21
0.3175
0
LINE
8
BLACK
6
CONTINUOUS
10
0.2175
20
0.3175
11
0.2175
21
0.3825
0
LINE
8
BLACK
6
CONTINUOUS
10
0.2175
20
0.3825
11
0.2825
21
0.3825
0
LINE
8
BLACK
6
CONTINUOUS
10
0.2825
20
0.3825
11
0.2825
21
0.3175
0
LINE
8
BLACK
6
CONTINUOUS
10
0.4825
20
0.3575
11
0.4175
21
0.3575
0
LINE
8
BLACK
6
CONTINUOUS
10
0.4175
20
0.3575
11
0.4175
21
0.4225
0
LINE
8
BLACK
6
CONTINUOUS
10
0.4175
20
0.4225
11
0.4825
21
0.4225
0
LINE
8
BLACK
6
CONTINUOUS
10
0.4825
20
0.4225
11
0.4825
21
0.3575
0
LINE
8
BLACK
6
CONTINUOUS
10
0.5825
20
0.3575
11
0.5175
21
0.3575
0
LINE
8
BLACK
6
CONTINUOUS
10
0.5175
20
0.3575
11
0.5175
21
0.4225
0
LINE
8
BLACK
6
CONTINUOUS
10
0.5175
20
0.4225
11
0.5825
21
0.4225
0
LINE
8
BLACK
6
CONTINUOUS
10
0.5825
20
0.4225
11
0.5825
21
0.3575
0
LINE
8
BLACK
6
CONTINUOUS
10
0.1825
20
0.4175
11
0.1175
21
0.4175
0
LINE
8
BLACK
6
CONTINUOUS
10
0.1175
20
0.4175
11
0.1175
21
0.4825
0
LINE
8
BLACK
6
CONTINUOUS
10
0.1175
20
0.4825
11
0.1825
21
0.4825
0
LINE
8
BLACK
6
CONTINUOUS
10
0.1825
20
0.4825
11
0.1825
21
0.4175
0
LINE
8
BLACK
6
CONTINUOUS
10
0.2825
20
0.4175
11
0.2175
21
0.4175
0
LINE
8
BLACK
6
CONTINUOUS
10
0.2175
20
0.4175
11
0.2175
21
0.4825
0
LINE
8
BLACK
6
CONTINUOUS
10
0.2175
20
0.4825
11
0.2825
21
0.4825
0
LINE
8
BLACK
6
CONTINUOUS
10
0.2825
20
0.4825
11
0.2825
21
0.4175
0
LINE
8
BLACK
6
CONTINUOUS
10
1.3825000000000001
20
0.4675
11
1.3174999999999999
21
0.4675
0
LINE
8
BLACK
6
CONTINUOUS
10
1.3174999999999999
20
0.4675
11
1.3174999999999999
21
0.5325
0
LINE
8
BLACK
6
CONTINUOUS
10
1.3174999999999999
20
0.5325
11
1.3825000000000001
21
0.5325
0
LINE
8
BLACK
6
CONTINUOUS
10
1.3825000000000001
20
0.5325
11
1.3825000000000001
21
0.4675
0
LINE
8
BLACK
6
CONTINUOUS
10
1.4824999999999999
20
0.4675
11
1.4175
21
0.4675
0
LINE
8
BLACK
6
CONTINUOUS
10
1.4175
20
0.4675
11
1.4175
21
0.5325
0
LINE
8
BLACK
6
CONTINUOUS
10
1.4175
20
0.5325
11
1.4824999999999999
21
0.5325
0
LINE
8
BLACK
6
CONTINUOUS
10
1.4824999999999999
20
0.5325
11
1.4824999999999999
21
0.4675
0
LINE
8
BLACK
6
CONTINUOUS
10
0.1825
20
0.5675
11
0.1175
21
0.5675
0
LINE
8
BLACK
6
CONTINUOUS
10
0.1175
20
0.5675
11
0.1175
21
0.6325
0
LINE
8
BLACK
6
CONTINUOUS
10
0.1175
20
0.6325
11
0.1825
21
0.6325
0
LINE
8
BLACK
6
CONTINUOUS
10
0.1825
20
0.6325
11
0.1825
21
0.5675
0
LINE
8
BLACK
6
CONTINUOUS
10
0.2825
20
0.5675
11
0.2175
21
0.5675
0
LINE
8
BLACK
6
CONTINUOUS
10
0.2175
20
0.5675
11
0.2175
21
0.6325
0
LINE
8
BLACK
6
CONTINUOUS
10
0.2175
20
0.6325
11
0.2825
21
0.6325
0
LINE
8
BLACK
6
CONTINUOUS
10
0.2825
20
0.6325
11
0.2825
21
0.5675
0
LINE
8
BLACK
6
CONTINUOUS
10
1.3825000000000001
20
0.5675
11
1.3174999999999999
21
0.5675
0
LINE
8
BLACK
6
CONTINUOUS
10
1.3174999999999999
20
0.5675
11
1.3174999999999999
21
0.6325
0
LINE
8
BLACK
6
CONTINUOUS
10
1.3174999999999999
20
0.6325
11
1.3825000000000001
21
0.6325
0
LINE
8
BLACK
6
CONTINUOUS
10
1.3825000000000001
20
0.6325
11
1.3825000000000001
21
0.5675
0
LINE
8
BLACK
6
CONTINUOUS
10
1.4824999999999999
20
0.5675
11
1.4175
21
0.5675
0
LINE
8
BLACK
6
CONTINUOUS
10
1.4175
20
0.5675
11
1.4175
21
0.6325
0
LINE
8
BLACK
6
CONTINUOUS
10
1.4175
20
0.6325
11
1.4824999999999999
21
0.6325
0
LINE
8
BLACK
6
CONTINUOUS
10
1.4824999999999999
20
0.6325
11
1.4824999999999999
21
0.5675
0
LINE
8
BLACK
6
CONTINUOUS
10
0.1825
20
0.6675
11
0.1175
21
0.6675
0
LINE
8
BLACK
6
CONTINUOUS
10
0.1175
20
0.6675
11
0.1175
21
0.7324999999999999
0
LINE
8
BLACK
6
CONTINUOUS
10
0.1175
20
0.7324999999999999
11
0.1825
21
0.7324999999999999
0
LINE
8
BLACK
6
CONTINUOUS
10
0.1825
20
0.7324999999999999
11
0.1825
21
0.6675
0
LINE
8
BLACK
6
CONTINUOUS
10
0.2825
20
0.6675
11
0.2175
21
0.6675
0
LINE
8
BLACK
6
CONTINUOUS
10
0.2175
20
0.6675
11
0.2175
21
0.7324999999999999
0
LINE
8
BLACK
6
CONTINUOUS
10
0.2175
20
0.7324999999999999
11
0.2825
21
0.7324999999999999
0
LINE
8
BLACK
6
CONTINUOUS
10
0.2825
20
0.7324999999999999
11
0.2825
21
0.6675
0
LINE
8
BLACK
6
CONTINUOUS
10
1.3825000000000001
20
0.6675
11
1.3174999999999999
21
0.6675
0
LINE
8
BLACK
6
CONTINUOUS
10
1.3174999999999999
20
0.6675
11
1.3174999999999999
21
0.7324999999999999
0
LINE
8
BLACK
6
CONTINUOUS
10
1.3174999999999999
20
0.7324999999999999
11
1.3825000000000001
21
0.7324999999999999
0
LINE
8
BLACK
6
CONTINUOUS
10
1.3825000000000001
20
0.7324999999999999
11
1.3825000000000001
21
0.6675
0
LINE
8
BLACK
6
CONTINUOUS
10
1.4824999999999999
20
0.6675
11
1.4175
21
0.6675
0
LINE
8
BLACK
6
CONTINUOUS
10
1.4175
20
0.6675
11
1.4175
21
0.7324999999999999
0
LINE
8
BLACK
6
CONTINUOUS
10
1.4175
20
0.7324999999999999
11
1.4824999999999999
21
0.7324999999999999
0
LINE
8
BLACK
6
CONTINUOUS
10
1.4824999999999999
20
0.7324999999999999
11
1.4824999999999999
21
0.6675
0
LINE
8
BLACK
6
CONTINUOUS
10
0.4825
20
0.7675
11
0.4175
21
0.7675
0
LINE
8
BLACK
6
CONTINUOUS
10
0.4175
20
0.7675
11
0.4175
21
0.8325
0
LINE
8
BLACK
6
CONTINUOUS
10
0.4175
20
0.8325
11
0.4825
21
0.8325
0
LINE
8
BLACK
6
CONTINUOUS
10
0.4825
20
0.8325
11
0.4825
21
0.7675
0
LINE
8
BLACK
6
CONTINUOUS
10
0.5825
20
0.7675
11
0.5175
21
0.7675
0
LINE
8
BLACK
6
CONTINUOUS
10
0.5175
20
0.7675
11
0.5175
21
0.8325
0
LINE
8
BLACK
6
CONTINUOUS
10
0.5175
20
0.8325
11
0.5825
21
0.8325
0
LINE
8
BLACK
6
CONTINUOUS
10
0.5825
20
0.8325
11
0.5825
21
0.7675
0
LINE
8
BLACK
6
CONTINUOUS
10
0.6825
20
0.7675
11
0.6174999999999999
21
0.7675
0
LINE
8
BLACK
6
CONTINUOUS
10
0.6174999999999999
20
0.7675
11
0.6174999999999999
21
0.8325
0
LINE
8
BLACK
6
CONTINUOUS
10
0.6174999999999999
20
0.8325
11
0.6825
21
0.8325
0
LINE
8
BLACK
6
CONTINUOUS
10
0.6825
20
0.8325
11
0.6825
21
0.7675
0
LINE
8
BLACK
6
CONTINUOUS
10
0.7825
20
0.7675
11
0.7175
21
0.7675
0
LINE
8
BLACK
6
CONTINUOUS
10
0.7175
20
0.7675
11
0.7175
21
0.8325
0
LINE
8
BLACK
6
CONTINUOUS
10
0.7175
20
0.8325
11
0.7825
21
0.8325
0
LINE
8
BLACK
6
CONTINUOUS
10
0.7825
20
0.8325
11
0.7825
21
0.7675
0
LINE
8
BLACK
6
CONTINUOUS
10
0.8825
20
0.7675
11
0.8175
21
0.7675
0
LINE
8
BLACK
6
CONTINUOUS
10
0.8175
20
0.7675
11
0.8175
21
0.8325
0
LINE
8
BLACK
6
CONTINUOUS
10
0.8175
20
0.8325
11
0.8825
21
0.8325
0
LINE
8
BLACK
6
CONTINUOUS
10
0.8825
20
0.8325
11
0.8825
21
0.7675
0
LINE
8
BLACK
6
CONTINUOUS
10
0.9824999999999999
20
0.7675
11
0.9175
21
0.7675
0
LINE
8
BLACK
6
CONTINUOUS
10
0.9175
20
0.7675
11
0.9175
21
0.8325
0
LINE
8
BLACK
6
CONTINUOUS
10
0.9175
20
0.8325
11
0.9824999999999999
21
0.8325
0
LINE
8
BLACK
6
CONTINUOUS
10
0.9824999999999999
20
0.8325
11
0.9824999999999999
21
0.7675
0
LINE
8
BLACK
6
CONTINUOUS
10
1.0825
20
0.7675
11
1.0175000000000001
21
0.7675
0
LINE
8
BLACK
6
CONTINUOUS
10
1.0175000000000001
20
0.7675
11
1.0175000000000001
21
0.8325
0
LINE
8
BLACK
6
CONTINUOUS
10
1.0175000000000001
20
0.8325
11
1.0825
21
0.8325
0
LINE
8
BLACK
6
CONTINUOUS
10
1.0825
20
0.8325
11
1.0825
21
0.7675
0
LINE
8
BLACK
6
CONTINUOUS
10
1.1824999999999999
20
0.7675
11
1.1174999999999999
21
0.7675
0
LINE
8
BLACK
6
CONTINUOUS
10
1.1174999999999999
20
0.7675
11
1.1174999999999999
21
0.8325
0
LINE
8
BLACK
6
CONTINUOUS
10
1.1174999999999999
20
0.8325
11
1.1824999999999999
21
0.8325
0
LINE
8
BLACK
6
CONTINUOUS
10
1.1824999999999999
20
0.8325
11
1.1824999999999999
21
0.7675
0
LINE
8
BLACK
6
CONTINUOUS
10
0.4825
20
0.8674999999999999
11
0.4175
21
0.8674999999999999
0
LINE
8
BLACK
6
CONTINUOUS
10
0.4175
20
0.8674999999999999
11
0.4175
21
0.9325
0
LINE
8
BLACK
6
CONTINUOUS
10
0.4175
20
0.9325
11
0.4825
21
0.9325
0
LINE
8
BLACK
6
CONTINUOUS
10
0.4825
20
0.9325
11
0.4825
21
0.8674999999999999
0
LINE
8
BLACK
6
CONTINUOUS
10
0.5825
20
0.8674999999999999
11
0.5175
21
0.8674999999999999
0
LINE
8
BLACK
6
CONTINUOUS
10
0.5175
20
0.8674999999999999
11
0.5175
21
0.9325
0
LINE
8
BLACK
6
CONTINUOUS
10
0.5175
20
0.9325
11
0.5825
21
0.9325
0
LINE
8
BLACK
6
CONTINUOUS
10
0.5825
20
0.9325
11
0.5825
21
0.8674999999999999
0
LINE
8
BLACK
6
CONTINUOUS
10
0.6825
20
0.8674999999999999
11
0.6174999999999999
21
0.8674999999999999
0
LINE
8
BLACK
6
CONTINUOUS
10
0.6174999999999999
20
0.8674999999999999
11
0.6174999999999999
21
0.9325
0
LINE
8
BLACK
6
CONTINUOUS
10
0.6174999999999999
20
0.9325
11
0.6825
21
0.9325
0
LINE
8
BLACK
6
CONTINUOUS
10
0.6825
20
0.9325
11
0.6825
21
0.8674999999999999
0
LINE
8
BLACK
6
CONTINUOUS
10
0.7825
20
0.8674999999999999
11
0.7175
21
0.8674999999999999
0
LINE
8
BLACK
6
CONTINUOUS
10
0.7175
20
0.8674999999999999
11
0.7175
21
0.9325
0
LINE
8
BLACK
6
CONTINUOUS
10
0.7175
20
0.9325
11
0.7825
21
0.9325
0
LINE
8
BLACK
6
CONTINUOUS
10
0.7825
20
0.9325
11
0.7825
21
0.8674999999999999
0
LINE
8
BLACK
6
CONTINUOUS
10
0.8825
20
0.8674999999999999
11
0.8175
21
0.8674999999999999
0
LINE
8
BLACK
6
CONTINUOUS
10
0.8175
20
0.8674999999999999
11
0.8175
21
0.9325
0
LINE
8
BLACK
6
CONTINUOUS
10
0.8175
20
0.9325
11
0.8825
21
0.9325
0
LINE
8
BLACK
6
CONTINUOUS
10
0.8825
20
0.9325
11
0.8825
21
0.8674999999999999
0
LINE
8
BLACK
6
CONTINUOUS
10
0.9824999999999999
20
0.8674999999999999
11
0.9175
21
0.8674999999999999
0
LINE
8
BLACK
6
CONTINUOUS
10
0.9175
20
0.8674999999999999
11
0.9175
21
0.9325
0
LINE
8
BLACK
6
CONTINUOUS
10
0.9175
20
0.9325
11
0.9824999999999999
21
0.9325
0
LINE
8
BLACK
6
CONTINUOUS
10
0.9824999999999999
20
0.9325
11
0.9824999999999999
21
0.8674999999999999
0
LINE
8
BLACK
6
CONTINUOUS
10
1.0825
20
0.8674999999999999
11
1.0175000000000001
21
0.8674999999999999
0
LINE
8
BLACK
6
CONTINUOUS
10
1.0175000000000001
20
0.8674999999999999
11
1.0175000000000001
21
0.9325
0
LINE
8
BLACK
6
CONTINUOUS
10
1.0175000000000001
20
0.9325
11
1.0825
21
0.9325
0
LINE
8
BLACK
6
CONTINUOUS
10
1.0825
20
0.9325
11
1.0825
21
0.8674999999999999
0
LINE
8
BLACK
6
CONTINUOUS
10
1.1824999999999999
20
0.8674999999999999
11
1.1174999999999999
21
0.8674999999999999
0
LINE
8
BLACK
6
CONTINUOUS
10
1.1174999999999999
20
0.8674999999999999
11
1.1174999999999999
21
0.9325
0
LINE
8
BLACK
6
CONTINUOUS
10
1.1174999999999999
20
0.9325
11
1.1824999999999999
21
0.9325
0
LINE
8
BLACK
6
CONTINUOUS
10
1.1824999999999999
20
0.9325
11
1.1824999999999999
21
0.8674999999999999
0
LINE
8
BLACK
6
CONTINUOUS
10
0.2193285433070866
20
1.1163158661417323
11
0.2326933070866142
21
1.1131483858267717
0
LINE
8
BLACK
6
CONTINUOUS
10
0.2326933070866142
20
1.1131483858267717
11
0.2455999606299213
21
1.1084507086614173
0
LINE
8
BLACK
6
CONTINUOUS
10
0.2455999606299213
20
1.1084507086614173
11
0.2578740157480315
21
1.1022864566929134
0
LINE
8
BLACK
6
CONTINUOUS
10
0.2578740157480315
20
1.1022864566929134
11
0.2693494488188976
21
1.0947389763779527
0
LINE
8
BLACK
6
CONTINUOUS
10
0.2693494488188976
20
1.0947389763779527
11
0.279871062992126
21
1.0859102755905512
0
LINE
8
BLACK
6
CONTINUOUS
10
0.279871062992126
20
1.0859102755905512
11
0.2892965748031496
21
1.0759198031496062
0
LINE
8
BLACK
6
CONTINUOUS
10
0.2892965748031496
20
1.0759198031496062
11
0.2974985433070866
21
1.0649026377952755
0
LINE
8
BLACK
6
CONTINUOUS
10
0.2974985433070866
20
1.0649026377952755
11
0.304366062992126
21
1.0530077952755905
0
LINE
8
BLACK
6
CONTINUOUS
10
0.304366062992126
20
1.0530077952755905
11
0.3098062204724409
21
1.0403960629921261
0
LINE
8
BLACK
6
CONTINUOUS
10
0.3098062204724409
20
1.0403960629921261
11
0.3137454724409449
21
1.0272381102362205
0
LINE
8
BLACK
6
CONTINUOUS
10
0.3137454724409449
20
1.0272381102362205
11
0.3161305118110236
21
1.0137117716535433
0
LINE
8
BLACK
6
CONTINUOUS
10
0.3161305118110236
20
1.0137117716535433
11
0.3169291338582677
21
1.
0
LINE
8
BLACK
6
CONTINUOUS
10
0.3169291338582677
20
1.
11
0.3161305118110236
21
0.9862882283464567
0
LINE
8
BLACK
6
CONTINUOUS
10
0.3161305118110236
20
0.9862882283464567
11
0.3137454724409449
21
0.9727618897637795
0
LINE
8
BLACK
6
CONTINUOUS
10
0.3137454724409449
20
0.9727618897637795
11
0.3098062204724409
21
0.9596039370078739
0
LINE
8
BLACK
6
CONTINUOUS
10
0.3098062204724409
20
0.9596039370078739
11
0.304366062992126
21
0.9469922047244095
0
LINE
8
BLACK
6
CONTINUOUS
10
0.304366062992126
20
0.9469922047244095
11
0.2974985433070866
21
0.9350973622047244
0
LINE
8
BLACK
6
CONTINUOUS
10
0.2974985433070866
20
0.9350973622047244
11
0.2892965748031496
21
0.9240801968503937
0
LINE
8
BLACK
6
CONTINUOUS
10
0.2892965748031496
20
0.9240801968503937
11
0.279871062992126
21
0.9140897244094488
0
LINE
8
BLACK
6
CONTINUOUS
10
0.279871062992126
20
0.9140897244094488
11
0.2693494488188976
21
0.9052610236220472
0
LINE
8
BLACK
6
CONTINUOUS
10
0.2693494488188976
20
0.9052610236220472
11
0.2578740157480315
21
0.8977135433070866
0
LINE
8
BLACK
6
CONTINUOUS
10
0.2578740157480315
20
0.8977135433070866
11
0.2455999606299213
21
0.8915492913385826
0
LINE
8
BLACK
6
CONTINUOUS
10
0.2455999606299213
20
0.8915492913385826
11
0.2326933070866142
21
0.8868516141732283
0
LINE
8
BLACK
6
CONTINUOUS
10
0.2326933070866142
20
0.8868516141732283
11
0.2193285433070866
21
0.8836841338582677
0
LINE
8
BLACK
6
CONTINUOUS
10
0.2193285433070866
20
0.8836841338582677
11
0.2056863779527559
21
0.8820896062992126
0
LINE
8
BLACK
6
CONTINUOUS
10
0.2056863779527559
20
0.8820896062992126
11
0.1919514173228346
21
0.8820896062992126
0
LINE
8
BLACK
6
CONTINUOUS
10
0.1919514173228346
20
0.8820896062992126
11
0.1783092519685039
21
0.8836841338582677
0
LINE
8
BLACK
6
CONTINUOUS
10
0.1783092519685039
20
0.8836841338582677
11
0.1649444881889764
21
0.8868516141732283
0
LINE
8
BLACK
6
CONTINUOUS
10
0.1649444881889764
20
0.8868516141732283
11
0.1520378346456693
21
0.8915492913385826
0
LINE
8
BLACK
6
CONTINUOUS
10
0.1520378346456693
20
0.8915492913385826
11
0.1397637795275591
21
0.8977135433070866
0
LINE
8
BLACK
6
CONTINUOUS
10
0.1397637795275591
20
0.8977135433070866
11
0.1282883464566929
21
0.9052610236220472
0
LINE
8
BLACK
6
CONTINUOUS
10
0.1282883464566929
20
0.9052610236220472
11
0.1177667322834646
21
0.9140897244094488
0
LINE
8
BLACK
6
CONTINUOUS
10
0.1177667322834646
20
0.9140897244094488
11
0.1083412204724409
21
0.9240801968503937
0
LINE
8
BLACK
6
CONTINUOUS
10
0.1083412204724409
20
0.9240801968503937
11
0.1001392519685039
21
0.9350973622047244
0
LINE
8
BLACK
6
CONTINUOUS
10
0.1001392519685039
20
0.9350973622047244
11
0.0932717322834646
21
0.9469922047244095
0
LINE
8
BLACK
6
CONTINUOUS
10
0.0932717322834646
20
0.9469922047244095
11
0.0878315748031496
21
0.9596039370078739
0
LINE
8
BLACK
6
CONTINUOUS
10
0.0878315748031496
20
0.9596039370078739
11
0.0838923228346457
21
0.9727618897637795
0
LINE
8
BLACK
6
CONTINUOUS
10
0.0838923228346457
20
0.9727618897637795
11
0.0815072834645669
21
0.9862882283464567
0
LINE
8
BLACK
6
CONTINUOUS
10
0.0815072834645669
20
0.9862882283464567
11
0.0807086614173228
21
1.
0
LINE
8
BLACK
6
CONTINUOUS
10
0.0807086614173228
20
1.
11
0.0815072834645669
21
1.0137117716535433
0
LINE
8
BLACK
6
CONTINUOUS
10
0.0815072834645669
20
1.0137117716535433
11
0.0838923228346457
21
1.0272381102362205
0
LINE
8
BLACK
6
CONTINUOUS
10
0.0838923228346457
20
1.0272381102362205
11
0.0878315748031496
21
1.0403960629921261
0
LINE
8
BLACK
6
CONTINUOUS
10
0.0878315748031496
20
1.0403960629921261
11
0.0932717322834646
21
1.0530077952755905
0
LINE
8
BLACK
6
CONTINUOUS
10
0.0932717322834646
20
1.0530077952755905
11
0.1001392519685039
21
1.0649026377952755
0
LINE
8
BLACK
6
CONTINUOUS
10
0.1001392519685039
20
1.0649026377952755
11
0.1083412204724409
21
1.0759198031496062
0
LINE
8
BLACK
6
CONTINUOUS
10
0.1083412204724409
20
1.0759198031496062
11
0.1177667322834646
21
1.0859102755905512
0
LINE
8
BLACK
6
CONTINUOUS
10
0.1177667322834646
20
1.0859102755905512
11
0.1282883464566929
21
1.0947389763779527
0
LINE
8
BLACK
6
CONTINUOUS
10
0.1282883464566929
20
1.0947389763779527
11
0.1397637795275591
21
1.1022864566929134
0
LINE
8
BLACK
6
CONTINUOUS
10
0.1397637795275591
20
1.1022864566929134
11
0.1520378346456693
21
1.1084507086614173
0
LINE
8
BLACK
6
CONTINUOUS
10
0.1520378346456693
20
1.1084507086614173
11
0.1649444881889764
21
1.1131483858267717
0
LINE
8
BLACK
6
CONTINUOUS
10
0.1649444881889764
20
1.1131483858267717
11
0.1783092519685039
21
1.1163158661417323
0
LINE
8
BLACK
6
CONTINUOUS
10
0.1783092519685039
20
1.1163158661417323
11
0.1919514173228346
21
1.1179103937007875
0
LINE
8
BLACK
6
CONTINUOUS
10
0.1919514173228346
20
1.1179103937007875
11
0.2056863779527559
21
1.1179103937007875
0
LINE
8
BLACK
6
CONTINUOUS
10
0.2056863779527559
20
1.1179103937007875
11
0.2193285433070866
21
1.1163158661417323
0
LINE
8
BLACK
6
CONTINUOUS
10
1.4205096456692914
20
1.1163158661417323
11
1.4338744094488189
21
1.1131483858267717
0
LINE
8
BLACK
6
CONTINUOUS
10
1.4338744094488189
20
1.1131483858267717
11
1.4467810629921261
21
1.1084507086614173
0
LINE
8
BLACK
6
CONTINUOUS
10
1.4467810629921261
20
1.1084507086614173
11
1.4590551181102362
21
1.1022864566929134
0
LINE
8
BLACK
6
CONTINUOUS
10
1.4590551181102362
20
1.1022864566929134
11
1.4705305511811024
21
1.0947389763779527
0
LINE
8
BLACK
6
CONTINUOUS
10
1.4705305511811024
20
1.0947389763779527
11
1.4810521653543307
21
1.0859102755905512
0
LINE
8
BLACK
6
CONTINUOUS
10
1.4810521653543307
20
1.0859102755905512
11
1.4904776771653543
21
1.0759198031496062
0
LINE
8
BLACK
6
CONTINUOUS
10
1.4904776771653543
20
1.0759198031496062
11
1.4986796456692912
21
1.0649026377952755
0
LINE
8
BLACK
6
CONTINUOUS
10
1.4986796456692912
20
1.0649026377952755
11
1.5055471653543306
21
1.0530077952755905
0
LINE
8
BLACK
6
CONTINUOUS
10
1.5055471653543306
20
1.0530077952755905
11
1.5109873228346455
21
1.0403960629921261
0
LINE
8
BLACK
6
CONTINUOUS
10
1.5109873228346455
20
1.0403960629921261
11
1.5149265748031495
21
1.0272381102362205
0
LINE
8
BLACK
6
CONTINUOUS
10
1.5149265748031495
20
1.0272381102362205
11
1.5173116141732284
21
1.0137117716535433
0
LINE
8
BLACK
6
CONTINUOUS
10
1.5173116141732284
20
1.0137117716535433
11
1.5181102362204724
21
1.
0
LINE
8
BLACK
6
CONTINUOUS
10
1.5181102362204724
20
1.
11
1.5173116141732284
21
0.9862882283464567
0
LINE
8
BLACK
6
CONTINUOUS
10
1.5173116141732284
20
0.9862882283464567
11
1.5149265748031495
21
0.9727618897637795
0
LINE
8
BLACK
6
CONTINUOUS
10
1.5149265748031495
20
0.9727618897637795
11
1.5109873228346455
21
0.9596039370078739
0
LINE
8
BLACK
6
CONTINUOUS
10
1.5109873228346455
20
0.9596039370078739
11
1.5055471653543306
21
0.9469922047244095
0
LINE
8
BLACK
6
CONTINUOUS
10
1.5055471653543306
20
0.9469922047244095
11
1.4986796456692912
21
0.9350973622047244
0
LINE
8
BLACK
6
CONTINUOUS
10
1.4986796456692912
20
0.9350973622047244
11
1.4904776771653543
21
0.9240801968503937
0
LINE
8
BLACK
6
CONTINUOUS
10
1.4904776771653543
20
0.9240801968503937
11
1.4810521653543307
21
0.9140897244094488
0
LINE
8
BLACK
6
CONTINUOUS
10
1.4810521653543307
20
0.9140897244094488
11
1.4705305511811024
21
0.9052610236220472
0
LINE
8
BLACK
6
CONTINUOUS
10
1.4705305511811024
20
0.9052610236220472
11
1.4590551181102362
21
0.8977135433070866
0
LINE
8
BLACK
6
CONTINUOUS
10
1.4590551181102362
20
0.8977135433070866
11
1.4467810629921261
21
0.8915492913385826
0
LINE
8
BLACK
6
CONTINUOUS
10
1.4467810629921261
20
0.8915492913385826
11
1.4338744094488189
21
0.8868516141732283
0
LINE
8
BLACK
6
CONTINUOUS
10
1.4338744094488189
20
0.8868516141732283
11
1.4205096456692914
21
0.8836841338582677
0
LINE
8
BLACK
6
CONTINUOUS
10
1.4205096456692914
20
0.8836841338582677
11
1.4068674803149606
21
0.8820896062992126
0
LINE
8
BLACK
6
CONTINUOUS
10
1.4068674803149606
20
0.8820896062992126
11
1.3931325196850393
21
0.8820896062992126
0
LINE
8
BLACK
6
CONTINUOUS
10
1.3931325196850393
20
0.8820896062992126
11
1.3794903543307087
21
0.8836841338582677
0
LINE
8
BLACK
6
CONTINUOUS
10
1.3794903543307087
20
0.8836841338582677
11
1.3661255905511811
21
0.8868516141732283
0
LINE
8
BLACK
6
CONTINUOUS
10
1.3661255905511811
20
0.8868516141732283
11
1.353218937007874
21
0.8915492913385826
0
LINE
8
BLACK
6
CONTINUOUS
10
1.353218937007874
20
0.8915492913385826
11
1.3409448818897638
21
0.8977135433070866
0
LINE
8
BLACK
6
CONTINUOUS
10
1.3409448818897638
20
0.8977135433070866
11
1.3294694488188976
21
0.9052610236220472
0
LINE
8
BLACK
6
CONTINUOUS
10
1.3294694488188976
20
0.9052610236220472
11
1.3189478346456693
21
0.9140897244094488
0
LINE
8
BLACK
6
CONTINUOUS
10
1.3189478346456693
20
0.9140897244094488
11
1.3095223228346455
21
0.9240801968503937
0
LINE
8
BLACK
6
CONTINUOUS
10
1.3095223228346455
20
0.9240801968503937
11
1.3013203543307086
21
0.9350973622047244
0
LINE
8
BLACK
6
CONTINUOUS
10
1.3013203543307086
20
0.9350973622047244
11
1.2944528346456692
21
0.9469922047244095
0
LINE
8
BLACK
6
CONTINUOUS
10
1.2944528346456692
20
0.9469922047244095
11
1.2890126771653543
21
0.9596039370078739
0
LINE
8
BLACK
6
CONTINUOUS
10
1.2890126771653543
20
0.9596039370078739
11
1.2850734251968503
21
0.9727618897637795
0
LINE
8
BLACK
6
CONTINUOUS
10
1.2850734251968503
20
0.9727618897637795
11
1.2826883858267717
21
0.9862882283464567
0
LINE
8
BLACK
6
CONTINUOUS
10
1.2826883858267717
20
0.9862882283464567
11
1.2818897637795275
21
1.
0
LINE
8
BLACK
6
CONTINUOUS
10
1.2818897637795275
20
1.
11
1.2826883858267717
21
1.0137117716535433
0
LINE
8
BLACK
6
CONTINUOUS
10
1.2826883858267717
20
1.0137117716535433
11
1.2850734251968503
21
1.0272381102362205
0
LINE
8
BLACK
6
CONTINUOUS
10
1.2850734251968503
20
1.0272381102362205
11
1.2890126771653543
21
1.0403960629921261
0
LINE
8
BLACK
6
CONTINUOUS
10
1.2890126771653543
20
1.0403960629921261
11
1.2944528346456692
21
1.0530077952755905
0
LINE
8
BLACK
6
CONTINUOUS
10
1.2944528346456692
20
1.0530077952755905
11
1.3013203543307086
21
1.0649026377952755
0
LINE
8
BLACK
6
CONTINUOUS
10
1.3013203543307086
20
1.0649026377952755
11
1.3095223228346455
21
1.0759198031496062
0
LINE
8
BLACK
6
CONTINUOUS
10
1.3095223228346455
20
1.0759198031496062
11
1.3189478346456693
21
1.0859102755905512
0
LINE
8
BLACK
6
CONTINUOUS
10
1.3189478346456693
20
1.0859102755905512
11
1.3294694488188976
21
1.0947389763779527
0
LINE
8
BLACK
6
CONTINUOUS
10
1.3294694488188976
20
1.0947389763779527
11
1.3409448818897638
21
1.1022864566929134
0
LINE
8
BLACK
6
CONTINUOUS
10
1.3409448818897638
20
1.1022864566929134
11
1.353218937007874
21
1.1084507086614173
0
LINE
8
BLACK
6
CONTINUOUS
10
1.353218937007874
20
1.1084507086614173
11
1.3661255905511811
21
1.1131483858267717
0
LINE
8
BLACK
6
CONTINUOUS
10
1.3661255905511811
20
1.1131483858267717
11
1.3794903543307087
21
1.1163158661417323
0
LINE
8
BLACK
6
CONTINUOUS
10
1.3794903543307087
20
1.1163158661417323
11
1.3931325196850393
21
1.1179103937007875
0
LINE
8
BLACK
6
CONTINUOUS
10
1.3931325196850393
20
1.1179103937007875
11
1.4068674803149606
21
1.1179103937007875
0
LINE
8
BLACK
6
CONTINUOUS
10
1.4068674803149606
20
1.1179103937007875
11
1.4205096456692914
21
1.1163158661417323
  0
ENDSEC
  0
EOF
