  0
SECTION
  2
HEADER
  9
$ANGBASE
  50
0.0
  9
$ANGDIR
  70
1
  9
$MEASUREMENT
  70
0
  0
ENDSEC
  0
SECTION
  2
TABLES
  0
TABLE
  2
LTYPE
  70
4
  0
LTYPE
  5
40F
  2
CONTINUOUS
  70
0
  3
Solid line
  72
65
  73
0
  40
0.0
  0
LTYPE
  5
410
  2
DASHDOT
 70
0
  3
Dash Dot ____ _ ____ _
 72
65
 73
4
 40
2.0
 49
1.25
 49
-0.25
 49
0.25
 49
-0.25
  0
LTYPE
  5
411
  2
DASHED
 70
0
  3
Dashed __ __ __ __ __
 72
65
 73
2
 40
0.75
 49
0.5
 49
-0.25
  0
LTYPE
  5
43B
  2
DOTTED
 70
0
  3
Dotted .  .  .  .
 72
65
 73
2
 40
0.2
 49
0.0
 49
-0.2
  0
ENDTAB
  0
TABLE
  2
STYLE
  70
4
  0
STYLE
  2
KICAD
  70
0
  40
0
  41
1
  42
1
  50
0
  71
0
  3
isocp.shx
  0
STYLE
  2
KICADB
  70
0
  40
0
  41
1
  42
1
  50
0
  71
0
  3
isocp.shx
  0
STYLE
  2
KICADI
  70
0
  40
0
  41
1
  42
1
  50
15
  71
0
  3
isocp.shx
  0
STYLE
  2
KICADBI
  70
0
  40
0
  41
1
  42
1
  50
15
  71
0
  3
isocp.shx
  0
ENDTAB
  0
TABLE
  2
LAYER
  70
1
  0
LAYER
  2
BLACK
  70
0
  62
7
  6
CONTINUOUS
  0
ENDTAB
  0
ENDSEC
  0
SECTION
  2
ENTITIES
0
LINE
8
BLACK
6
CONTINUOUS
10
1.5906745669291338
20
1.1917399212598425
11
1.5917399212598424
21
1.1906745669291339
0
LINE
8
BLACK
6
CONTINUOUS
10
1.5917399212598424
20
1.1906745669291339
11
1.5918897637795275
21
-0.3899212598425197
0
LINE
8
BLACK
6
CONTINUOUS
10
1.5918897637795275
20
-0.3899212598425197
11
1.5917399212598424
21
-0.3906745669291338
0
LINE
8
BLACK
6
CONTINUOUS
10
1.5917399212598424
20
-0.3906745669291338
11
1.5906745669291338
21
-0.3917399212598425
0
LINE
8
BLACK
6
CONTINUOUS
10
1.5906745669291338
20
-0.3917399212598425
11
0.0100787401574803
21
-0.3918897637795276
0
LINE
8
BLACK
6
CONTINUOUS
10
0.0100787401574803
20
-0.3918897637795276
11
0.0093254330708661
21
-0.3917399212598425
0
LINE
8
BLACK
6
CONTINUOUS
10
0.0093254330708661
20
-0.3917399212598425
11
0.0082600787401575
21
-0.3906745669291338
0
LINE
8
BLACK
6
CONTINUOUS
10
0.0082600787401575
20
-0.3906745669291338
11
0.0081102362204724
21
1.1899212598425197
0
LINE
8
BLACK
6
CONTINUOUS
10
0.0081102362204724
20
1.1899212598425197
11
0.0082600787401575
21
1.1906745669291339
0
LINE
8
BLACK
6
CONTINUOUS
10
0.0082600787401575
20
1.1906745669291339
11
0.0093254330708661
21
1.1917399212598425
0
LINE
8
BLACK
6
CONTINUOUS
10
0.0093254330708661
20
1.1917399212598425
11
1.5899212598425196
21
1.1918897637795276
0
LINE
8
BLACK
6
CONTINUOUS
10
1.5899212598425196
20
1.1918897637795276
11
1.5906745669291338
21
1.1917399212598425
0
LINE
8
BLACK
6
CONTINUOUS
10
0.0118976377952756
20
1.1879529133858266
11
0.0120470472440945
21
-0.3881023228346457
0
LINE
8
BLACK
6
CONTINUOUS
10
0.0120470472440945
20
-0.3881023228346457
11
1.5881023228346456
21
-0.3879529133858268
0
LINE
8
BLACK
6
CONTINUOUS
10
1.5881023228346456
20
-0.3879529133858268
11
1.5879529133858268
21
1.1881023228346457
0
LINE
8
BLACK
6
CONTINUOUS
10
1.5879529133858268
20
1.1881023228346457
11
0.0118976377952756
21
1.1879529133858266
  0
ENDSEC
  0
EOF
