  0
SECTION
  2
HEADER
  9
$ANGBASE
  50
0.0
  9
$ANGDIR
  70
1
  9
$MEASUREMENT
  70
0
  0
ENDSEC
  0
SECTION
  2
TABLES
  0
TABLE
  2
LTYPE
  70
4
  0
LTYPE
  5
40F
  2
CONTINUOUS
  70
0
  3
Solid line
  72
65
  73
0
  40
0.0
  0
LTYPE
  5
410
  2
DASHDOT
 70
0
  3
Dash Dot ____ _ ____ _
 72
65
 73
4
 40
2.0
 49
1.25
 49
-0.25
 49
0.25
 49
-0.25
  0
LTYPE
  5
411
  2
DASHED
 70
0
  3
Dashed __ __ __ __ __
 72
65
 73
2
 40
0.75
 49
0.5
 49
-0.25
  0
LTYPE
  5
43B
  2
DOTTED
 70
0
  3
Dotted .  .  .  .
 72
65
 73
2
 40
0.2
 49
0.0
 49
-0.2
  0
ENDTAB
  0
TABLE
  2
STYLE
  70
4
  0
STYLE
  2
KICAD
  70
0
  40
0
  41
1
  42
1
  50
0
  71
0
  3
isocp.shx
  0
STYLE
  2
KICADB
  70
0
  40
0
  41
1
  42
1
  50
0
  71
0
  3
isocp.shx
  0
STYLE
  2
KICADI
  70
0
  40
0
  41
1
  42
1
  50
15
  71
0
  3
isocp.shx
  0
STYLE
  2
KICADBI
  70
0
  40
0
  41
1
  42
1
  50
15
  71
0
  3
isocp.shx
  0
ENDTAB
  0
TABLE
  2
LAYER
  70
1
  0
LAYER
  2
BLACK
  70
0
  62
7
  6
CONTINUOUS
  0
ENDTAB
  0
ENDSEC
  0
SECTION
  2
ENTITIES
0
LINE
8
BLACK
6
CONTINUOUS
10
1.1775
20
-0.3125
11
1.1225000000000001
21
-0.3125
0
LINE
8
BLACK
6
CONTINUOUS
10
1.1225000000000001
20
-0.3125
11
1.1225000000000001
21
-0.2775
0
LINE
8
BLACK
6
CONTINUOUS
10
1.1225000000000001
20
-0.2775
11
1.1775
21
-0.2775
0
LINE
8
BLACK
6
CONTINUOUS
10
1.1775
20
-0.2775
11
1.1775
21
-0.3125
0
LINE
8
BLACK
6
CONTINUOUS
10
0.4775
20
-0.31
11
0.4225
21
-0.31
0
LINE
8
BLACK
6
CONTINUOUS
10
0.4225
20
-0.31
11
0.4225
21
-0.275
0
LINE
8
BLACK
6
CONTINUOUS
10
0.4225
20
-0.275
11
0.4775
21
-0.275
0
LINE
8
BLACK
6
CONTINUOUS
10
0.4775
20
-0.275
11
0.4775
21
-0.31
0
LINE
8
BLACK
6
CONTINUOUS
10
0.5775
20
-0.31
11
0.5225
21
-0.31
0
LINE
8
BLACK
6
CONTINUOUS
10
0.5225
20
-0.31
11
0.5225
21
-0.275
0
LINE
8
BLACK
6
CONTINUOUS
10
0.5225
20
-0.275
11
0.5775
21
-0.275
0
LINE
8
BLACK
6
CONTINUOUS
10
0.5775
20
-0.275
11
0.5775
21
-0.31
0
LINE
8
BLACK
6
CONTINUOUS
10
0.6775
20
-0.31
11
0.6224999999999999
21
-0.31
0
LINE
8
BLACK
6
CONTINUOUS
10
0.6224999999999999
20
-0.31
11
0.6224999999999999
21
-0.275
0
LINE
8
BLACK
6
CONTINUOUS
10
0.6224999999999999
20
-0.275
11
0.6775
21
-0.275
0
LINE
8
BLACK
6
CONTINUOUS
10
0.6775
20
-0.275
11
0.6775
21
-0.31
0
LINE
8
BLACK
6
CONTINUOUS
10
0.7775
20
-0.31
11
0.7225
21
-0.31
0
LINE
8
BLACK
6
CONTINUOUS
10
0.7225
20
-0.31
11
0.7225
21
-0.275
0
LINE
8
BLACK
6
CONTINUOUS
10
0.7225
20
-0.275
11
0.7775
21
-0.275
0
LINE
8
BLACK
6
CONTINUOUS
10
0.7775
20
-0.275
11
0.7775
21
-0.31
0
LINE
8
BLACK
6
CONTINUOUS
10
0.8774999999999999
20
-0.31
11
0.8225
21
-0.31
0
LINE
8
BLACK
6
CONTINUOUS
10
0.8225
20
-0.31
11
0.8225
21
-0.275
0
LINE
8
BLACK
6
CONTINUOUS
10
0.8225
20
-0.275
11
0.8774999999999999
21
-0.275
0
LINE
8
BLACK
6
CONTINUOUS
10
0.8774999999999999
20
-0.275
11
0.8774999999999999
21
-0.31
0
LINE
8
BLACK
6
CONTINUOUS
10
0.9774999999999999
20
-0.31
11
0.9225
21
-0.31
0
LINE
8
BLACK
6
CONTINUOUS
10
0.9225
20
-0.31
11
0.9225
21
-0.275
0
LINE
8
BLACK
6
CONTINUOUS
10
0.9225
20
-0.275
11
0.9774999999999999
21
-0.275
0
LINE
8
BLACK
6
CONTINUOUS
10
0.9774999999999999
20
-0.275
11
0.9774999999999999
21
-0.31
0
LINE
8
BLACK
6
CONTINUOUS
10
1.0774999999999999
20
-0.31
11
1.0225
21
-0.31
0
LINE
8
BLACK
6
CONTINUOUS
10
1.0225
20
-0.31
11
1.0225
21
-0.275
0
LINE
8
BLACK
6
CONTINUOUS
10
1.0225
20
-0.275
11
1.0774999999999999
21
-0.275
0
LINE
8
BLACK
6
CONTINUOUS
10
1.0774999999999999
20
-0.275
11
1.0774999999999999
21
-0.31
0
LINE
8
BLACK
6
CONTINUOUS
10
0.4775
20
-0.235
11
0.4225
21
-0.235
0
LINE
8
BLACK
6
CONTINUOUS
10
0.4225
20
-0.235
11
0.4225
21
-0.2
0
LINE
8
BLACK
6
CONTINUOUS
10
0.4225
20
-0.2
11
0.4775
21
-0.2
0
LINE
8
BLACK
6
CONTINUOUS
10
0.4775
20
-0.2
11
0.4775
21
-0.235
0
LINE
8
BLACK
6
CONTINUOUS
10
0.5775
20
-0.235
11
0.5225
21
-0.235
0
LINE
8
BLACK
6
CONTINUOUS
10
0.5225
20
-0.235
11
0.5225
21
-0.2
0
LINE
8
BLACK
6
CONTINUOUS
10
0.5225
20
-0.2
11
0.5775
21
-0.2
0
LINE
8
BLACK
6
CONTINUOUS
10
0.5775
20
-0.2
11
0.5775
21
-0.235
0
LINE
8
BLACK
6
CONTINUOUS
10
0.6775
20
-0.235
11
0.6224999999999999
21
-0.235
0
LINE
8
BLACK
6
CONTINUOUS
10
0.6224999999999999
20
-0.235
11
0.6224999999999999
21
-0.2
0
LINE
8
BLACK
6
CONTINUOUS
10
0.6224999999999999
20
-0.2
11
0.6775
21
-0.2
0
LINE
8
BLACK
6
CONTINUOUS
10
0.6775
20
-0.2
11
0.6775
21
-0.235
0
LINE
8
BLACK
6
CONTINUOUS
10
0.7775
20
-0.235
11
0.7225
21
-0.235
0
LINE
8
BLACK
6
CONTINUOUS
10
0.7225
20
-0.235
11
0.7225
21
-0.2
0
LINE
8
BLACK
6
CONTINUOUS
10
0.7225
20
-0.2
11
0.7775
21
-0.2
0
LINE
8
BLACK
6
CONTINUOUS
10
0.7775
20
-0.2
11
0.7775
21
-0.235
0
LINE
8
BLACK
6
CONTINUOUS
10
0.8774999999999999
20
-0.235
11
0.8225
21
-0.235
0
LINE
8
BLACK
6
CONTINUOUS
10
0.8225
20
-0.235
11
0.8225
21
-0.2
0
LINE
8
BLACK
6
CONTINUOUS
10
0.8225
20
-0.2
11
0.8774999999999999
21
-0.2
0
LINE
8
BLACK
6
CONTINUOUS
10
0.8774999999999999
20
-0.2
11
0.8774999999999999
21
-0.235
0
LINE
8
BLACK
6
CONTINUOUS
10
0.9774999999999999
20
-0.235
11
0.9225
21
-0.235
0
LINE
8
BLACK
6
CONTINUOUS
10
0.9225
20
-0.235
11
0.9225
21
-0.2
0
LINE
8
BLACK
6
CONTINUOUS
10
0.9225
20
-0.2
11
0.9774999999999999
21
-0.2
0
LINE
8
BLACK
6
CONTINUOUS
10
0.9774999999999999
20
-0.2
11
0.9774999999999999
21
-0.235
0
LINE
8
BLACK
6
CONTINUOUS
10
1.0774999999999999
20
-0.235
11
1.0225
21
-0.235
0
LINE
8
BLACK
6
CONTINUOUS
10
1.0225
20
-0.235
11
1.0225
21
-0.2
0
LINE
8
BLACK
6
CONTINUOUS
10
1.0225
20
-0.2
11
1.0774999999999999
21
-0.2
0
LINE
8
BLACK
6
CONTINUOUS
10
1.0774999999999999
20
-0.2
11
1.0774999999999999
21
-0.235
0
LINE
8
BLACK
6
CONTINUOUS
10
1.1775
20
-0.235
11
1.1225000000000001
21
-0.235
0
LINE
8
BLACK
6
CONTINUOUS
10
1.1225000000000001
20
-0.235
11
1.1225000000000001
21
-0.2
0
LINE
8
BLACK
6
CONTINUOUS
10
1.1225000000000001
20
-0.2
11
1.1775
21
-0.2
0
LINE
8
BLACK
6
CONTINUOUS
10
1.1775
20
-0.2
11
1.1775
21
-0.235
0
LINE
8
BLACK
6
CONTINUOUS
10
0.3775
20
0.1
11
0.3225
21
0.1
0
LINE
8
BLACK
6
CONTINUOUS
10
0.3225
20
0.1
11
0.3225
21
0.135
0
LINE
8
BLACK
6
CONTINUOUS
10
0.3225
20
0.135
11
0.3775
21
0.135
0
LINE
8
BLACK
6
CONTINUOUS
10
0.3775
20
0.135
11
0.3775
21
0.1
0
LINE
8
BLACK
6
CONTINUOUS
10
0.3775
20
0.175
11
0.3225
21
0.175
0
LINE
8
BLACK
6
CONTINUOUS
10
0.3225
20
0.175
11
0.3225
21
0.21
0
LINE
8
BLACK
6
CONTINUOUS
10
0.3225
20
0.21
11
0.3775
21
0.21
0
LINE
8
BLACK
6
CONTINUOUS
10
0.3775
20
0.21
11
0.3775
21
0.175
0
LINE
8
BLACK
6
CONTINUOUS
10
0.6719499999999999
20
0.23085
11
0.65545
21
0.23085
0
LINE
8
BLACK
6
CONTINUOUS
10
0.65545
20
0.23085
11
0.65545
21
0.28875
0
LINE
8
BLACK
6
CONTINUOUS
10
0.65545
20
0.28875
11
0.6719499999999999
21
0.28875
0
LINE
8
BLACK
6
CONTINUOUS
10
0.6719499999999999
20
0.28875
11
0.6719499999999999
21
0.23085
0
LINE
8
BLACK
6
CONTINUOUS
10
0.69755
20
0.23085
11
0.6810499999999999
21
0.23085
0
LINE
8
BLACK
6
CONTINUOUS
10
0.6810499999999999
20
0.23085
11
0.6810499999999999
21
0.28875
0
LINE
8
BLACK
6
CONTINUOUS
10
0.6810499999999999
20
0.28875
11
0.69755
21
0.28875
0
LINE
8
BLACK
6
CONTINUOUS
10
0.69755
20
0.28875
11
0.69755
21
0.23085
0
LINE
8
BLACK
6
CONTINUOUS
10
0.72305
20
0.23085
11
0.70655
21
0.23085
0
LINE
8
BLACK
6
CONTINUOUS
10
0.70655
20
0.23085
11
0.70655
21
0.28875
0
LINE
8
BLACK
6
CONTINUOUS
10
0.70655
20
0.28875
11
0.72305
21
0.28875
0
LINE
8
BLACK
6
CONTINUOUS
10
0.72305
20
0.28875
11
0.72305
21
0.23085
0
LINE
8
BLACK
6
CONTINUOUS
10
0.7998499999999999
20
0.23085
11
0.78335
21
0.23085
0
LINE
8
BLACK
6
CONTINUOUS
10
0.78335
20
0.23085
11
0.78335
21
0.28875
0
LINE
8
BLACK
6
CONTINUOUS
10
0.78335
20
0.28875
11
0.7998499999999999
21
0.28875
0
LINE
8
BLACK
6
CONTINUOUS
10
0.7998499999999999
20
0.28875
11
0.7998499999999999
21
0.23085
0
LINE
8
BLACK
6
CONTINUOUS
10
0.82545
20
0.23085
11
0.8089499999999999
21
0.23085
0
LINE
8
BLACK
6
CONTINUOUS
10
0.8089499999999999
20
0.23085
11
0.8089499999999999
21
0.28875
0
LINE
8
BLACK
6
CONTINUOUS
10
0.8089499999999999
20
0.28875
11
0.82545
21
0.28875
0
LINE
8
BLACK
6
CONTINUOUS
10
0.82545
20
0.28875
11
0.82545
21
0.23085
0
LINE
8
BLACK
6
CONTINUOUS
10
0.85105
20
0.23085
11
0.83455
21
0.23085
0
LINE
8
BLACK
6
CONTINUOUS
10
0.83455
20
0.23085
11
0.83455
21
0.28875
0
LINE
8
BLACK
6
CONTINUOUS
10
0.83455
20
0.28875
11
0.85105
21
0.28875
0
LINE
8
BLACK
6
CONTINUOUS
10
0.85105
20
0.28875
11
0.85105
21
0.23085
0
LINE
8
BLACK
6
CONTINUOUS
10
0.8766499999999999
20
0.23085
11
0.86015
21
0.23085
0
LINE
8
BLACK
6
CONTINUOUS
10
0.86015
20
0.23085
11
0.86015
21
0.28875
0
LINE
8
BLACK
6
CONTINUOUS
10
0.86015
20
0.28875
11
0.8766499999999999
21
0.28875
0
LINE
8
BLACK
6
CONTINUOUS
10
0.8766499999999999
20
0.28875
11
0.8766499999999999
21
0.23085
0
LINE
8
BLACK
6
CONTINUOUS
10
0.90225
20
0.23085
11
0.8857499999999999
21
0.23085
0
LINE
8
BLACK
6
CONTINUOUS
10
0.8857499999999999
20
0.23085
11
0.8857499999999999
21
0.28875
0
LINE
8
BLACK
6
CONTINUOUS
10
0.8857499999999999
20
0.28875
11
0.90225
21
0.28875
0
LINE
8
BLACK
6
CONTINUOUS
10
0.90225
20
0.28875
11
0.90225
21
0.23085
0
LINE
8
BLACK
6
CONTINUOUS
10
0.92785
20
0.23085
11
0.91135
21
0.23085
0
LINE
8
BLACK
6
CONTINUOUS
10
0.91135
20
0.23085
11
0.91135
21
0.28875
0
LINE
8
BLACK
6
CONTINUOUS
10
0.91135
20
0.28875
11
0.92785
21
0.28875
0
LINE
8
BLACK
6
CONTINUOUS
10
0.92785
20
0.28875
11
0.92785
21
0.23085
0
LINE
8
BLACK
6
CONTINUOUS
10
0.95345
20
0.23085
11
0.9369499999999999
21
0.23085
0
LINE
8
BLACK
6
CONTINUOUS
10
0.9369499999999999
20
0.23085
11
0.9369499999999999
21
0.28875
0
LINE
8
BLACK
6
CONTINUOUS
10
0.9369499999999999
20
0.28875
11
0.95345
21
0.28875
0
LINE
8
BLACK
6
CONTINUOUS
10
0.95345
20
0.28875
11
0.95345
21
0.23085
0
LINE
8
BLACK
6
CONTINUOUS
10
0.74905
20
0.23105
11
0.73255
21
0.23105
0
LINE
8
BLACK
6
CONTINUOUS
10
0.73255
20
0.23105
11
0.73255
21
0.28895
0
LINE
8
BLACK
6
CONTINUOUS
10
0.73255
20
0.28895
11
0.74905
21
0.28895
0
LINE
8
BLACK
6
CONTINUOUS
10
0.74905
20
0.28895
11
0.74905
21
0.23105
0
LINE
8
BLACK
6
CONTINUOUS
10
0.77425
20
0.23105
11
0.75775
21
0.23105
0
LINE
8
BLACK
6
CONTINUOUS
10
0.75775
20
0.23105
11
0.75775
21
0.28895
0
LINE
8
BLACK
6
CONTINUOUS
10
0.75775
20
0.28895
11
0.77425
21
0.28895
0
LINE
8
BLACK
6
CONTINUOUS
10
0.77425
20
0.28895
11
0.77425
21
0.23105
0
LINE
8
BLACK
6
CONTINUOUS
10
1.0974999999999999
20
0.235
11
1.0425
21
0.235
0
LINE
8
BLACK
6
CONTINUOUS
10
1.0425
20
0.235
11
1.0425
21
0.27
0
LINE
8
BLACK
6
CONTINUOUS
10
1.0425
20
0.27
11
1.0974999999999999
21
0.27
0
LINE
8
BLACK
6
CONTINUOUS
10
1.0974999999999999
20
0.27
11
1.0974999999999999
21
0.235
0
LINE
8
BLACK
6
CONTINUOUS
10
0.3775
20
0.245
11
0.3225
21
0.245
0
LINE
8
BLACK
6
CONTINUOUS
10
0.3225
20
0.245
11
0.3225
21
0.28
0
LINE
8
BLACK
6
CONTINUOUS
10
0.3225
20
0.28
11
0.3775
21
0.28
0
LINE
8
BLACK
6
CONTINUOUS
10
0.3775
20
0.28
11
0.3775
21
0.245
0
LINE
8
BLACK
6
CONTINUOUS
10
1.0974999999999999
20
0.31
11
1.0425
21
0.31
0
LINE
8
BLACK
6
CONTINUOUS
10
1.0425
20
0.31
11
1.0425
21
0.345
0
LINE
8
BLACK
6
CONTINUOUS
10
1.0425
20
0.345
11
1.0974999999999999
21
0.345
0
LINE
8
BLACK
6
CONTINUOUS
10
1.0974999999999999
20
0.345
11
1.0974999999999999
21
0.31
0
LINE
8
BLACK
6
CONTINUOUS
10
0.3775
20
0.32
11
0.3225
21
0.32
0
LINE
8
BLACK
6
CONTINUOUS
10
0.3225
20
0.32
11
0.3225
21
0.355
0
LINE
8
BLACK
6
CONTINUOUS
10
0.3225
20
0.355
11
0.3775
21
0.355
0
LINE
8
BLACK
6
CONTINUOUS
10
0.3775
20
0.355
11
0.3775
21
0.32
0
LINE
8
BLACK
6
CONTINUOUS
10
1.0974999999999999
20
0.385
11
1.0425
21
0.385
0
LINE
8
BLACK
6
CONTINUOUS
10
1.0425
20
0.385
11
1.0425
21
0.42
0
LINE
8
BLACK
6
CONTINUOUS
10
1.0425
20
0.42
11
1.0974999999999999
21
0.42
0
LINE
8
BLACK
6
CONTINUOUS
10
1.0974999999999999
20
0.42
11
1.0974999999999999
21
0.385
0
LINE
8
BLACK
6
CONTINUOUS
10
1.2075
20
0.385
11
1.1525000000000001
21
0.385
0
LINE
8
BLACK
6
CONTINUOUS
10
1.1525000000000001
20
0.385
11
1.1525000000000001
21
0.42
0
LINE
8
BLACK
6
CONTINUOUS
10
1.1525000000000001
20
0.42
11
1.2075
21
0.42
0
LINE
8
BLACK
6
CONTINUOUS
10
1.2075
20
0.42
11
1.2075
21
0.385
0
LINE
8
BLACK
6
CONTINUOUS
10
0.6719499999999999
20
0.45125
11
0.65545
21
0.45125
0
LINE
8
BLACK
6
CONTINUOUS
10
0.65545
20
0.45125
11
0.65545
21
0.50915
0
LINE
8
BLACK
6
CONTINUOUS
10
0.65545
20
0.50915
11
0.6719499999999999
21
0.50915
0
LINE
8
BLACK
6
CONTINUOUS
10
0.6719499999999999
20
0.50915
11
0.6719499999999999
21
0.45125
0
LINE
8
BLACK
6
CONTINUOUS
10
0.69755
20
0.45125
11
0.6810499999999999
21
0.45125
0
LINE
8
BLACK
6
CONTINUOUS
10
0.6810499999999999
20
0.45125
11
0.6810499999999999
21
0.50915
0
LINE
8
BLACK
6
CONTINUOUS
10
0.6810499999999999
20
0.50915
11
0.69755
21
0.50915
0
LINE
8
BLACK
6
CONTINUOUS
10
0.69755
20
0.50915
11
0.69755
21
0.45125
0
LINE
8
BLACK
6
CONTINUOUS
10
0.72305
20
0.45125
11
0.70655
21
0.45125
0
LINE
8
BLACK
6
CONTINUOUS
10
0.70655
20
0.45125
11
0.70655
21
0.50915
0
LINE
8
BLACK
6
CONTINUOUS
10
0.70655
20
0.50915
11
0.72305
21
0.50915
0
LINE
8
BLACK
6
CONTINUOUS
10
0.72305
20
0.50915
11
0.72305
21
0.45125
0
LINE
8
BLACK
6
CONTINUOUS
10
0.74865
20
0.45125
11
0.73215
21
0.45125
0
LINE
8
BLACK
6
CONTINUOUS
10
0.73215
20
0.45125
11
0.73215
21
0.50915
0
LINE
8
BLACK
6
CONTINUOUS
10
0.73215
20
0.50915
11
0.74865
21
0.50915
0
LINE
8
BLACK
6
CONTINUOUS
10
0.74865
20
0.50915
11
0.74865
21
0.45125
0
LINE
8
BLACK
6
CONTINUOUS
10
0.77425
20
0.45125
11
0.75775
21
0.45125
0
LINE
8
BLACK
6
CONTINUOUS
10
0.75775
20
0.45125
11
0.75775
21
0.50915
0
LINE
8
BLACK
6
CONTINUOUS
10
0.75775
20
0.50915
11
0.77425
21
0.50915
0
LINE
8
BLACK
6
CONTINUOUS
10
0.77425
20
0.50915
11
0.77425
21
0.45125
0
LINE
8
BLACK
6
CONTINUOUS
10
0.7998499999999999
20
0.45125
11
0.78335
21
0.45125
0
LINE
8
BLACK
6
CONTINUOUS
10
0.78335
20
0.45125
11
0.78335
21
0.50915
0
LINE
8
BLACK
6
CONTINUOUS
10
0.78335
20
0.50915
11
0.7998499999999999
21
0.50915
0
LINE
8
BLACK
6
CONTINUOUS
10
0.7998499999999999
20
0.50915
11
0.7998499999999999
21
0.45125
0
LINE
8
BLACK
6
CONTINUOUS
10
0.82545
20
0.45125
11
0.8089499999999999
21
0.45125
0
LINE
8
BLACK
6
CONTINUOUS
10
0.8089499999999999
20
0.45125
11
0.8089499999999999
21
0.50915
0
LINE
8
BLACK
6
CONTINUOUS
10
0.8089499999999999
20
0.50915
11
0.82545
21
0.50915
0
LINE
8
BLACK
6
CONTINUOUS
10
0.82545
20
0.50915
11
0.82545
21
0.45125
0
LINE
8
BLACK
6
CONTINUOUS
10
0.85105
20
0.45125
11
0.83455
21
0.45125
0
LINE
8
BLACK
6
CONTINUOUS
10
0.83455
20
0.45125
11
0.83455
21
0.50915
0
LINE
8
BLACK
6
CONTINUOUS
10
0.83455
20
0.50915
11
0.85105
21
0.50915
0
LINE
8
BLACK
6
CONTINUOUS
10
0.85105
20
0.50915
11
0.85105
21
0.45125
0
LINE
8
BLACK
6
CONTINUOUS
10
0.8766499999999999
20
0.45125
11
0.86015
21
0.45125
0
LINE
8
BLACK
6
CONTINUOUS
10
0.86015
20
0.45125
11
0.86015
21
0.50915
0
LINE
8
BLACK
6
CONTINUOUS
10
0.86015
20
0.50915
11
0.8766499999999999
21
0.50915
0
LINE
8
BLACK
6
CONTINUOUS
10
0.8766499999999999
20
0.50915
11
0.8766499999999999
21
0.45125
0
LINE
8
BLACK
6
CONTINUOUS
10
0.90225
20
0.45125
11
0.8857499999999999
21
0.45125
0
LINE
8
BLACK
6
CONTINUOUS
10
0.8857499999999999
20
0.45125
11
0.8857499999999999
21
0.50915
0
LINE
8
BLACK
6
CONTINUOUS
10
0.8857499999999999
20
0.50915
11
0.90225
21
0.50915
0
LINE
8
BLACK
6
CONTINUOUS
10
0.90225
20
0.50915
11
0.90225
21
0.45125
0
LINE
8
BLACK
6
CONTINUOUS
10
0.92785
20
0.45125
11
0.91135
21
0.45125
0
LINE
8
BLACK
6
CONTINUOUS
10
0.91135
20
0.45125
11
0.91135
21
0.50915
0
LINE
8
BLACK
6
CONTINUOUS
10
0.91135
20
0.50915
11
0.92785
21
0.50915
0
LINE
8
BLACK
6
CONTINUOUS
10
0.92785
20
0.50915
11
0.92785
21
0.45125
0
LINE
8
BLACK
6
CONTINUOUS
10
0.95345
20
0.45125
11
0.9369499999999999
21
0.45125
0
LINE
8
BLACK
6
CONTINUOUS
10
0.9369499999999999
20
0.45125
11
0.9369499999999999
21
0.50915
0
LINE
8
BLACK
6
CONTINUOUS
10
0.9369499999999999
20
0.50915
11
0.95345
21
0.50915
0
LINE
8
BLACK
6
CONTINUOUS
10
0.95345
20
0.50915
11
0.95345
21
0.45125
0
LINE
8
BLACK
6
CONTINUOUS
10
1.0974999999999999
20
0.46
11
1.0425
21
0.46
0
LINE
8
BLACK
6
CONTINUOUS
10
1.0425
20
0.46
11
1.0425
21
0.495
0
LINE
8
BLACK
6
CONTINUOUS
10
1.0425
20
0.495
11
1.0974999999999999
21
0.495
0
LINE
8
BLACK
6
CONTINUOUS
10
1.0974999999999999
20
0.495
11
1.0974999999999999
21
0.46
0
LINE
8
BLACK
6
CONTINUOUS
10
1.2075
20
0.46
11
1.1525000000000001
21
0.46
0
LINE
8
BLACK
6
CONTINUOUS
10
1.1525000000000001
20
0.46
11
1.1525000000000001
21
0.495
0
LINE
8
BLACK
6
CONTINUOUS
10
1.1525000000000001
20
0.495
11
1.2075
21
0.495
0
LINE
8
BLACK
6
CONTINUOUS
10
1.2075
20
0.495
11
1.2075
21
0.46
0
LINE
8
BLACK
6
CONTINUOUS
10
0.4725
20
0.47
11
0.4175
21
0.47
0
LINE
8
BLACK
6
CONTINUOUS
10
0.4175
20
0.47
11
0.4175
21
0.505
0
LINE
8
BLACK
6
CONTINUOUS
10
0.4175
20
0.505
11
0.4725
21
0.505
0
LINE
8
BLACK
6
CONTINUOUS
10
0.4725
20
0.505
11
0.4725
21
0.47
0
LINE
8
BLACK
6
CONTINUOUS
10
0.5675
20
0.47
11
0.5125
21
0.47
0
LINE
8
BLACK
6
CONTINUOUS
10
0.5125
20
0.47
11
0.5125
21
0.505
0
LINE
8
BLACK
6
CONTINUOUS
10
0.5125
20
0.505
11
0.5675
21
0.505
0
LINE
8
BLACK
6
CONTINUOUS
10
0.5675
20
0.505
11
0.5675
21
0.47
0
LINE
8
BLACK
6
CONTINUOUS
10
0.4725
20
0.545
11
0.4175
21
0.545
0
LINE
8
BLACK
6
CONTINUOUS
10
0.4175
20
0.545
11
0.4175
21
0.58
0
LINE
8
BLACK
6
CONTINUOUS
10
0.4175
20
0.58
11
0.4725
21
0.58
0
LINE
8
BLACK
6
CONTINUOUS
10
0.4725
20
0.58
11
0.4725
21
0.545
0
LINE
8
BLACK
6
CONTINUOUS
10
0.5675
20
0.545
11
0.5125
21
0.545
0
LINE
8
BLACK
6
CONTINUOUS
10
0.5125
20
0.545
11
0.5125
21
0.58
0
LINE
8
BLACK
6
CONTINUOUS
10
0.5125
20
0.58
11
0.5675
21
0.58
0
LINE
8
BLACK
6
CONTINUOUS
10
0.5675
20
0.58
11
0.5675
21
0.545
0
LINE
8
BLACK
6
CONTINUOUS
10
1.1367
20
0.59655
11
1.0854999999999999
21
0.59655
0
LINE
8
BLACK
6
CONTINUOUS
10
1.0854999999999999
20
0.59655
11
1.0854999999999999
21
0.66345
0
LINE
8
BLACK
6
CONTINUOUS
10
1.0854999999999999
20
0.66345
11
1.1367
21
0.66345
0
LINE
8
BLACK
6
CONTINUOUS
10
1.1367
20
0.66345
11
1.1367
21
0.59655
0
LINE
8
BLACK
6
CONTINUOUS
10
1.2745
20
0.59655
11
1.2233000000000001
21
0.59655
0
LINE
8
BLACK
6
CONTINUOUS
10
1.2233000000000001
20
0.59655
11
1.2233000000000001
21
0.66345
0
LINE
8
BLACK
6
CONTINUOUS
10
1.2233000000000001
20
0.66345
11
1.2745
21
0.66345
0
LINE
8
BLACK
6
CONTINUOUS
10
1.2745
20
0.66345
11
1.2745
21
0.59655
0
LINE
8
BLACK
6
CONTINUOUS
10
0.4775
20
0.995
11
0.4225
21
0.995
0
LINE
8
BLACK
6
CONTINUOUS
10
0.4225
20
0.995
11
0.4225
21
1.03
0
LINE
8
BLACK
6
CONTINUOUS
10
0.4225
20
1.03
11
0.4775
21
1.03
0
LINE
8
BLACK
6
CONTINUOUS
10
0.4775
20
1.03
11
0.4775
21
0.995
0
LINE
8
BLACK
6
CONTINUOUS
10
0.5775
20
0.995
11
0.5225
21
0.995
0
LINE
8
BLACK
6
CONTINUOUS
10
0.5225
20
0.995
11
0.5225
21
1.03
0
LINE
8
BLACK
6
CONTINUOUS
10
0.5225
20
1.03
11
0.5775
21
1.03
0
LINE
8
BLACK
6
CONTINUOUS
10
0.5775
20
1.03
11
0.5775
21
0.995
0
LINE
8
BLACK
6
CONTINUOUS
10
0.6775
20
0.995
11
0.6224999999999999
21
0.995
0
LINE
8
BLACK
6
CONTINUOUS
10
0.6224999999999999
20
0.995
11
0.6224999999999999
21
1.03
0
LINE
8
BLACK
6
CONTINUOUS
10
0.6224999999999999
20
1.03
11
0.6775
21
1.03
0
LINE
8
BLACK
6
CONTINUOUS
10
0.6775
20
1.03
11
0.6775
21
0.995
0
LINE
8
BLACK
6
CONTINUOUS
10
0.7775
20
0.995
11
0.7225
21
0.995
0
LINE
8
BLACK
6
CONTINUOUS
10
0.7225
20
0.995
11
0.7225
21
1.03
0
LINE
8
BLACK
6
CONTINUOUS
10
0.7225
20
1.03
11
0.7775
21
1.03
0
LINE
8
BLACK
6
CONTINUOUS
10
0.7775
20
1.03
11
0.7775
21
0.995
0
LINE
8
BLACK
6
CONTINUOUS
10
0.8774999999999999
20
0.995
11
0.8225
21
0.995
0
LINE
8
BLACK
6
CONTINUOUS
10
0.8225
20
0.995
11
0.8225
21
1.03
0
LINE
8
BLACK
6
CONTINUOUS
10
0.8225
20
1.03
11
0.8774999999999999
21
1.03
0
LINE
8
BLACK
6
CONTINUOUS
10
0.8774999999999999
20
1.03
11
0.8774999999999999
21
0.995
0
LINE
8
BLACK
6
CONTINUOUS
10
0.9774999999999999
20
0.995
11
0.9225
21
0.995
0
LINE
8
BLACK
6
CONTINUOUS
10
0.9225
20
0.995
11
0.9225
21
1.03
0
LINE
8
BLACK
6
CONTINUOUS
10
0.9225
20
1.03
11
0.9774999999999999
21
1.03
0
LINE
8
BLACK
6
CONTINUOUS
10
0.9774999999999999
20
1.03
11
0.9774999999999999
21
0.995
0
LINE
8
BLACK
6
CONTINUOUS
10
1.0774999999999999
20
0.995
11
1.0225
21
0.995
0
LINE
8
BLACK
6
CONTINUOUS
10
1.0225
20
0.995
11
1.0225
21
1.03
0
LINE
8
BLACK
6
CONTINUOUS
10
1.0225
20
1.03
11
1.0774999999999999
21
1.03
0
LINE
8
BLACK
6
CONTINUOUS
10
1.0774999999999999
20
1.03
11
1.0774999999999999
21
0.995
0
LINE
8
BLACK
6
CONTINUOUS
10
1.1775
20
0.995
11
1.1225000000000001
21
0.995
0
LINE
8
BLACK
6
CONTINUOUS
10
1.1225000000000001
20
0.995
11
1.1225000000000001
21
1.03
0
LINE
8
BLACK
6
CONTINUOUS
10
1.1225000000000001
20
1.03
11
1.1775
21
1.03
0
LINE
8
BLACK
6
CONTINUOUS
10
1.1775
20
1.03
11
1.1775
21
0.995
0
LINE
8
BLACK
6
CONTINUOUS
10
0.4775
20
1.0700000000000001
11
0.4225
21
1.0700000000000001
0
LINE
8
BLACK
6
CONTINUOUS
10
0.4225
20
1.0700000000000001
11
0.4225
21
1.105
0
LINE
8
BLACK
6
CONTINUOUS
10
0.4225
20
1.105
11
0.4775
21
1.105
0
LINE
8
BLACK
6
CONTINUOUS
10
0.4775
20
1.105
11
0.4775
21
1.0700000000000001
0
LINE
8
BLACK
6
CONTINUOUS
10
0.5775
20
1.0700000000000001
11
0.5225
21
1.0700000000000001
0
LINE
8
BLACK
6
CONTINUOUS
10
0.5225
20
1.0700000000000001
11
0.5225
21
1.105
0
LINE
8
BLACK
6
CONTINUOUS
10
0.5225
20
1.105
11
0.5775
21
1.105
0
LINE
8
BLACK
6
CONTINUOUS
10
0.5775
20
1.105
11
0.5775
21
1.0700000000000001
0
LINE
8
BLACK
6
CONTINUOUS
10
0.6775
20
1.0700000000000001
11
0.6224999999999999
21
1.0700000000000001
0
LINE
8
BLACK
6
CONTINUOUS
10
0.6224999999999999
20
1.0700000000000001
11
0.6224999999999999
21
1.105
0
LINE
8
BLACK
6
CONTINUOUS
10
0.6224999999999999
20
1.105
11
0.6775
21
1.105
0
LINE
8
BLACK
6
CONTINUOUS
10
0.6775
20
1.105
11
0.6775
21
1.0700000000000001
0
LINE
8
BLACK
6
CONTINUOUS
10
0.7775
20
1.0700000000000001
11
0.7225
21
1.0700000000000001
0
LINE
8
BLACK
6
CONTINUOUS
10
0.7225
20
1.0700000000000001
11
0.7225
21
1.105
0
LINE
8
BLACK
6
CONTINUOUS
10
0.7225
20
1.105
11
0.7775
21
1.105
0
LINE
8
BLACK
6
CONTINUOUS
10
0.7775
20
1.105
11
0.7775
21
1.0700000000000001
0
LINE
8
BLACK
6
CONTINUOUS
10
0.8774999999999999
20
1.0700000000000001
11
0.8225
21
1.0700000000000001
0
LINE
8
BLACK
6
CONTINUOUS
10
0.8225
20
1.0700000000000001
11
0.8225
21
1.105
0
LINE
8
BLACK
6
CONTINUOUS
10
0.8225
20
1.105
11
0.8774999999999999
21
1.105
0
LINE
8
BLACK
6
CONTINUOUS
10
0.8774999999999999
20
1.105
11
0.8774999999999999
21
1.0700000000000001
0
LINE
8
BLACK
6
CONTINUOUS
10
0.9774999999999999
20
1.0700000000000001
11
0.9225
21
1.0700000000000001
0
LINE
8
BLACK
6
CONTINUOUS
10
0.9225
20
1.0700000000000001
11
0.9225
21
1.105
0
LINE
8
BLACK
6
CONTINUOUS
10
0.9225
20
1.105
11
0.9774999999999999
21
1.105
0
LINE
8
BLACK
6
CONTINUOUS
10
0.9774999999999999
20
1.105
11
0.9774999999999999
21
1.0700000000000001
0
LINE
8
BLACK
6
CONTINUOUS
10
1.0774999999999999
20
1.0700000000000001
11
1.0225
21
1.0700000000000001
0
LINE
8
BLACK
6
CONTINUOUS
10
1.0225
20
1.0700000000000001
11
1.0225
21
1.105
0
LINE
8
BLACK
6
CONTINUOUS
10
1.0225
20
1.105
11
1.0774999999999999
21
1.105
0
LINE
8
BLACK
6
CONTINUOUS
10
1.0774999999999999
20
1.105
11
1.0774999999999999
21
1.0700000000000001
0
LINE
8
BLACK
6
CONTINUOUS
10
1.1775
20
1.0700000000000001
11
1.1225000000000001
21
1.0700000000000001
0
LINE
8
BLACK
6
CONTINUOUS
10
1.1225000000000001
20
1.0700000000000001
11
1.1225000000000001
21
1.105
0
LINE
8
BLACK
6
CONTINUOUS
10
1.1225000000000001
20
1.105
11
1.1775
21
1.105
0
LINE
8
BLACK
6
CONTINUOUS
10
1.1775
20
1.105
11
1.1775
21
1.0700000000000001
  0
ENDSEC
  0
EOF
