%TF.GenerationSoftware,KiCad,Pcbnew,8.0.3+1*%
%TF.CreationDate,2024-07-16T01:17:04+00:00*%
%TF.ProjectId,I2CIO01,49324349-4f30-4312-9e6b-696361645f70,rev?*%
%TF.SameCoordinates,Original*%
%TF.FileFunction,Legend,Top*%
%TF.FilePolarity,Positive*%
%FSLAX46Y46*%
G04 Gerber Fmt 4.6, Leading zero omitted, Abs format (unit mm)*
G04 Created by KiCad (PCBNEW 8.0.3+1) date 2024-07-16 01:17:04*
%MOMM*%
%LPD*%
G01*
G04 APERTURE LIST*
%ADD10C,0.200000*%
%ADD11C,0.300000*%
%ADD12C,0.254000*%
%ADD13R,1.651000X1.651000*%
G04 APERTURE END LIST*
D10*
X8509000Y7112000D02*
X10033000Y7112000D01*
X7747000Y6350000D02*
X8509000Y7112000D01*
X23654143Y13168495D02*
X24130333Y13168495D01*
X23558905Y12882780D02*
X23892238Y13882780D01*
X23892238Y13882780D02*
X24225571Y12882780D01*
X24558905Y12882780D02*
X24558905Y13882780D01*
X24558905Y13882780D02*
X24797000Y13882780D01*
X24797000Y13882780D02*
X24939857Y13835161D01*
X24939857Y13835161D02*
X25035095Y13739923D01*
X25035095Y13739923D02*
X25082714Y13644685D01*
X25082714Y13644685D02*
X25130333Y13454209D01*
X25130333Y13454209D02*
X25130333Y13311352D01*
X25130333Y13311352D02*
X25082714Y13120876D01*
X25082714Y13120876D02*
X25035095Y13025638D01*
X25035095Y13025638D02*
X24939857Y12930400D01*
X24939857Y12930400D02*
X24797000Y12882780D01*
X24797000Y12882780D02*
X24558905Y12882780D01*
X25558905Y12882780D02*
X25558905Y13882780D01*
X25558905Y13882780D02*
X25797000Y13882780D01*
X25797000Y13882780D02*
X25939857Y13835161D01*
X25939857Y13835161D02*
X26035095Y13739923D01*
X26035095Y13739923D02*
X26082714Y13644685D01*
X26082714Y13644685D02*
X26130333Y13454209D01*
X26130333Y13454209D02*
X26130333Y13311352D01*
X26130333Y13311352D02*
X26082714Y13120876D01*
X26082714Y13120876D02*
X26035095Y13025638D01*
X26035095Y13025638D02*
X25939857Y12930400D01*
X25939857Y12930400D02*
X25797000Y12882780D01*
X25797000Y12882780D02*
X25558905Y12882780D01*
X27130333Y12882780D02*
X26797000Y13358971D01*
X26558905Y12882780D02*
X26558905Y13882780D01*
X26558905Y13882780D02*
X26939857Y13882780D01*
X26939857Y13882780D02*
X27035095Y13835161D01*
X27035095Y13835161D02*
X27082714Y13787542D01*
X27082714Y13787542D02*
X27130333Y13692304D01*
X27130333Y13692304D02*
X27130333Y13549447D01*
X27130333Y13549447D02*
X27082714Y13454209D01*
X27082714Y13454209D02*
X27035095Y13406590D01*
X27035095Y13406590D02*
X26939857Y13358971D01*
X26939857Y13358971D02*
X26558905Y13358971D01*
X27558905Y13406590D02*
X27892238Y13406590D01*
X28035095Y12882780D02*
X27558905Y12882780D01*
X27558905Y12882780D02*
X27558905Y13882780D01*
X27558905Y13882780D02*
X28035095Y13882780D01*
X28416048Y12930400D02*
X28558905Y12882780D01*
X28558905Y12882780D02*
X28797000Y12882780D01*
X28797000Y12882780D02*
X28892238Y12930400D01*
X28892238Y12930400D02*
X28939857Y12978019D01*
X28939857Y12978019D02*
X28987476Y13073257D01*
X28987476Y13073257D02*
X28987476Y13168495D01*
X28987476Y13168495D02*
X28939857Y13263733D01*
X28939857Y13263733D02*
X28892238Y13311352D01*
X28892238Y13311352D02*
X28797000Y13358971D01*
X28797000Y13358971D02*
X28606524Y13406590D01*
X28606524Y13406590D02*
X28511286Y13454209D01*
X28511286Y13454209D02*
X28463667Y13501828D01*
X28463667Y13501828D02*
X28416048Y13597066D01*
X28416048Y13597066D02*
X28416048Y13692304D01*
X28416048Y13692304D02*
X28463667Y13787542D01*
X28463667Y13787542D02*
X28511286Y13835161D01*
X28511286Y13835161D02*
X28606524Y13882780D01*
X28606524Y13882780D02*
X28844619Y13882780D01*
X28844619Y13882780D02*
X28987476Y13835161D01*
X29368429Y12930400D02*
X29511286Y12882780D01*
X29511286Y12882780D02*
X29749381Y12882780D01*
X29749381Y12882780D02*
X29844619Y12930400D01*
X29844619Y12930400D02*
X29892238Y12978019D01*
X29892238Y12978019D02*
X29939857Y13073257D01*
X29939857Y13073257D02*
X29939857Y13168495D01*
X29939857Y13168495D02*
X29892238Y13263733D01*
X29892238Y13263733D02*
X29844619Y13311352D01*
X29844619Y13311352D02*
X29749381Y13358971D01*
X29749381Y13358971D02*
X29558905Y13406590D01*
X29558905Y13406590D02*
X29463667Y13454209D01*
X29463667Y13454209D02*
X29416048Y13501828D01*
X29416048Y13501828D02*
X29368429Y13597066D01*
X29368429Y13597066D02*
X29368429Y13692304D01*
X29368429Y13692304D02*
X29416048Y13787542D01*
X29416048Y13787542D02*
X29463667Y13835161D01*
X29463667Y13835161D02*
X29558905Y13882780D01*
X29558905Y13882780D02*
X29797000Y13882780D01*
X29797000Y13882780D02*
X29939857Y13835161D01*
X10755219Y3401816D02*
X11755219Y3735149D01*
X11755219Y3735149D02*
X10755219Y4068482D01*
X11707600Y4830387D02*
X11755219Y4735149D01*
X11755219Y4735149D02*
X11755219Y4544673D01*
X11755219Y4544673D02*
X11707600Y4449435D01*
X11707600Y4449435D02*
X11659980Y4401816D01*
X11659980Y4401816D02*
X11564742Y4354197D01*
X11564742Y4354197D02*
X11279028Y4354197D01*
X11279028Y4354197D02*
X11183790Y4401816D01*
X11183790Y4401816D02*
X11136171Y4449435D01*
X11136171Y4449435D02*
X11088552Y4544673D01*
X11088552Y4544673D02*
X11088552Y4735149D01*
X11088552Y4735149D02*
X11136171Y4830387D01*
X11707600Y5687530D02*
X11755219Y5592292D01*
X11755219Y5592292D02*
X11755219Y5401816D01*
X11755219Y5401816D02*
X11707600Y5306578D01*
X11707600Y5306578D02*
X11659980Y5258959D01*
X11659980Y5258959D02*
X11564742Y5211340D01*
X11564742Y5211340D02*
X11279028Y5211340D01*
X11279028Y5211340D02*
X11183790Y5258959D01*
X11183790Y5258959D02*
X11136171Y5306578D01*
X11136171Y5306578D02*
X11088552Y5401816D01*
X11088552Y5401816D02*
X11088552Y5592292D01*
X11088552Y5592292D02*
X11136171Y5687530D01*
X8704054Y15454447D02*
X9418339Y15454447D01*
X8989768Y15883019D02*
X8704054Y14597304D01*
X9323101Y15025876D02*
X8608816Y15025876D01*
X9037387Y14597304D02*
X9323101Y15883019D01*
X9751673Y14787780D02*
X9751673Y15787780D01*
X10227863Y14787780D02*
X10227863Y15787780D01*
X10227863Y15787780D02*
X10799291Y14787780D01*
X10799291Y14787780D02*
X10799291Y15787780D01*
X11132625Y15787780D02*
X11704053Y15787780D01*
X11418339Y14787780D02*
X11418339Y15787780D01*
X22042219Y25261673D02*
X21042219Y25261673D01*
X21042219Y25261673D02*
X21042219Y25642625D01*
X21042219Y25642625D02*
X21089838Y25737863D01*
X21089838Y25737863D02*
X21137457Y25785482D01*
X21137457Y25785482D02*
X21232695Y25833101D01*
X21232695Y25833101D02*
X21375552Y25833101D01*
X21375552Y25833101D02*
X21470790Y25785482D01*
X21470790Y25785482D02*
X21518409Y25737863D01*
X21518409Y25737863D02*
X21566028Y25642625D01*
X21566028Y25642625D02*
X21566028Y25261673D01*
X21042219Y26452149D02*
X21042219Y26547387D01*
X21042219Y26547387D02*
X21089838Y26642625D01*
X21089838Y26642625D02*
X21137457Y26690244D01*
X21137457Y26690244D02*
X21232695Y26737863D01*
X21232695Y26737863D02*
X21423171Y26785482D01*
X21423171Y26785482D02*
X21661266Y26785482D01*
X21661266Y26785482D02*
X21851742Y26737863D01*
X21851742Y26737863D02*
X21946980Y26690244D01*
X21946980Y26690244D02*
X21994600Y26642625D01*
X21994600Y26642625D02*
X22042219Y26547387D01*
X22042219Y26547387D02*
X22042219Y26452149D01*
X22042219Y26452149D02*
X21994600Y26356911D01*
X21994600Y26356911D02*
X21946980Y26309292D01*
X21946980Y26309292D02*
X21851742Y26261673D01*
X21851742Y26261673D02*
X21661266Y26214054D01*
X21661266Y26214054D02*
X21423171Y26214054D01*
X21423171Y26214054D02*
X21232695Y26261673D01*
X21232695Y26261673D02*
X21137457Y26309292D01*
X21137457Y26309292D02*
X21089838Y26356911D01*
X21089838Y26356911D02*
X21042219Y26452149D01*
X21375552Y27642625D02*
X22042219Y27642625D01*
X20994600Y27404530D02*
X21708885Y27166435D01*
X21708885Y27166435D02*
X21708885Y27785482D01*
X27122219Y-7370244D02*
X26122219Y-7370244D01*
X26122219Y-7370244D02*
X26122219Y-6989292D01*
X26122219Y-6989292D02*
X26169838Y-6894054D01*
X26169838Y-6894054D02*
X26217457Y-6846435D01*
X26217457Y-6846435D02*
X26312695Y-6798816D01*
X26312695Y-6798816D02*
X26455552Y-6798816D01*
X26455552Y-6798816D02*
X26550790Y-6846435D01*
X26550790Y-6846435D02*
X26598409Y-6894054D01*
X26598409Y-6894054D02*
X26646028Y-6989292D01*
X26646028Y-6989292D02*
X26646028Y-7370244D01*
X27122219Y-5846435D02*
X27122219Y-6417863D01*
X27122219Y-6132149D02*
X26122219Y-6132149D01*
X26122219Y-6132149D02*
X26265076Y-6227387D01*
X26265076Y-6227387D02*
X26360314Y-6322625D01*
X26360314Y-6322625D02*
X26407933Y-6417863D01*
X27122219Y-4894054D02*
X27122219Y-5465482D01*
X27122219Y-5179768D02*
X26122219Y-5179768D01*
X26122219Y-5179768D02*
X26265076Y-5275006D01*
X26265076Y-5275006D02*
X26360314Y-5370244D01*
X26360314Y-5370244D02*
X26407933Y-5465482D01*
X29662219Y-7370244D02*
X28662219Y-7370244D01*
X28662219Y-7370244D02*
X28662219Y-6989292D01*
X28662219Y-6989292D02*
X28709838Y-6894054D01*
X28709838Y-6894054D02*
X28757457Y-6846435D01*
X28757457Y-6846435D02*
X28852695Y-6798816D01*
X28852695Y-6798816D02*
X28995552Y-6798816D01*
X28995552Y-6798816D02*
X29090790Y-6846435D01*
X29090790Y-6846435D02*
X29138409Y-6894054D01*
X29138409Y-6894054D02*
X29186028Y-6989292D01*
X29186028Y-6989292D02*
X29186028Y-7370244D01*
X29662219Y-5846435D02*
X29662219Y-6417863D01*
X29662219Y-6132149D02*
X28662219Y-6132149D01*
X28662219Y-6132149D02*
X28805076Y-6227387D01*
X28805076Y-6227387D02*
X28900314Y-6322625D01*
X28900314Y-6322625D02*
X28947933Y-6417863D01*
X28662219Y-5227387D02*
X28662219Y-5132149D01*
X28662219Y-5132149D02*
X28709838Y-5036911D01*
X28709838Y-5036911D02*
X28757457Y-4989292D01*
X28757457Y-4989292D02*
X28852695Y-4941673D01*
X28852695Y-4941673D02*
X29043171Y-4894054D01*
X29043171Y-4894054D02*
X29281266Y-4894054D01*
X29281266Y-4894054D02*
X29471742Y-4941673D01*
X29471742Y-4941673D02*
X29566980Y-4989292D01*
X29566980Y-4989292D02*
X29614600Y-5036911D01*
X29614600Y-5036911D02*
X29662219Y-5132149D01*
X29662219Y-5132149D02*
X29662219Y-5227387D01*
X29662219Y-5227387D02*
X29614600Y-5322625D01*
X29614600Y-5322625D02*
X29566980Y-5370244D01*
X29566980Y-5370244D02*
X29471742Y-5417863D01*
X29471742Y-5417863D02*
X29281266Y-5465482D01*
X29281266Y-5465482D02*
X29043171Y-5465482D01*
X29043171Y-5465482D02*
X28852695Y-5417863D01*
X28852695Y-5417863D02*
X28757457Y-5370244D01*
X28757457Y-5370244D02*
X28709838Y-5322625D01*
X28709838Y-5322625D02*
X28662219Y-5227387D01*
X19502219Y-7370244D02*
X18502219Y-7370244D01*
X18502219Y-7370244D02*
X18502219Y-6989292D01*
X18502219Y-6989292D02*
X18549838Y-6894054D01*
X18549838Y-6894054D02*
X18597457Y-6846435D01*
X18597457Y-6846435D02*
X18692695Y-6798816D01*
X18692695Y-6798816D02*
X18835552Y-6798816D01*
X18835552Y-6798816D02*
X18930790Y-6846435D01*
X18930790Y-6846435D02*
X18978409Y-6894054D01*
X18978409Y-6894054D02*
X19026028Y-6989292D01*
X19026028Y-6989292D02*
X19026028Y-7370244D01*
X19502219Y-5846435D02*
X19502219Y-6417863D01*
X19502219Y-6132149D02*
X18502219Y-6132149D01*
X18502219Y-6132149D02*
X18645076Y-6227387D01*
X18645076Y-6227387D02*
X18740314Y-6322625D01*
X18740314Y-6322625D02*
X18787933Y-6417863D01*
X18835552Y-4989292D02*
X19502219Y-4989292D01*
X18454600Y-5227387D02*
X19168885Y-5465482D01*
X19168885Y-5465482D02*
X19168885Y-4846435D01*
X30273667Y6770780D02*
X30940333Y5770780D01*
X30940333Y6770780D02*
X30273667Y5770780D01*
X14422219Y-7370244D02*
X13422219Y-7370244D01*
X13422219Y-7370244D02*
X13422219Y-6989292D01*
X13422219Y-6989292D02*
X13469838Y-6894054D01*
X13469838Y-6894054D02*
X13517457Y-6846435D01*
X13517457Y-6846435D02*
X13612695Y-6798816D01*
X13612695Y-6798816D02*
X13755552Y-6798816D01*
X13755552Y-6798816D02*
X13850790Y-6846435D01*
X13850790Y-6846435D02*
X13898409Y-6894054D01*
X13898409Y-6894054D02*
X13946028Y-6989292D01*
X13946028Y-6989292D02*
X13946028Y-7370244D01*
X14422219Y-5846435D02*
X14422219Y-6417863D01*
X14422219Y-6132149D02*
X13422219Y-6132149D01*
X13422219Y-6132149D02*
X13565076Y-6227387D01*
X13565076Y-6227387D02*
X13660314Y-6322625D01*
X13660314Y-6322625D02*
X13707933Y-6417863D01*
X13422219Y-4989292D02*
X13422219Y-5179768D01*
X13422219Y-5179768D02*
X13469838Y-5275006D01*
X13469838Y-5275006D02*
X13517457Y-5322625D01*
X13517457Y-5322625D02*
X13660314Y-5417863D01*
X13660314Y-5417863D02*
X13850790Y-5465482D01*
X13850790Y-5465482D02*
X14231742Y-5465482D01*
X14231742Y-5465482D02*
X14326980Y-5417863D01*
X14326980Y-5417863D02*
X14374600Y-5370244D01*
X14374600Y-5370244D02*
X14422219Y-5275006D01*
X14422219Y-5275006D02*
X14422219Y-5084530D01*
X14422219Y-5084530D02*
X14374600Y-4989292D01*
X14374600Y-4989292D02*
X14326980Y-4941673D01*
X14326980Y-4941673D02*
X14231742Y-4894054D01*
X14231742Y-4894054D02*
X13993647Y-4894054D01*
X13993647Y-4894054D02*
X13898409Y-4941673D01*
X13898409Y-4941673D02*
X13850790Y-4989292D01*
X13850790Y-4989292D02*
X13803171Y-5084530D01*
X13803171Y-5084530D02*
X13803171Y-5275006D01*
X13803171Y-5275006D02*
X13850790Y-5370244D01*
X13850790Y-5370244D02*
X13898409Y-5417863D01*
X13898409Y-5417863D02*
X13993647Y-5465482D01*
X16962219Y25261673D02*
X15962219Y25261673D01*
X15962219Y25261673D02*
X15962219Y25642625D01*
X15962219Y25642625D02*
X16009838Y25737863D01*
X16009838Y25737863D02*
X16057457Y25785482D01*
X16057457Y25785482D02*
X16152695Y25833101D01*
X16152695Y25833101D02*
X16295552Y25833101D01*
X16295552Y25833101D02*
X16390790Y25785482D01*
X16390790Y25785482D02*
X16438409Y25737863D01*
X16438409Y25737863D02*
X16486028Y25642625D01*
X16486028Y25642625D02*
X16486028Y25261673D01*
X15962219Y26452149D02*
X15962219Y26547387D01*
X15962219Y26547387D02*
X16009838Y26642625D01*
X16009838Y26642625D02*
X16057457Y26690244D01*
X16057457Y26690244D02*
X16152695Y26737863D01*
X16152695Y26737863D02*
X16343171Y26785482D01*
X16343171Y26785482D02*
X16581266Y26785482D01*
X16581266Y26785482D02*
X16771742Y26737863D01*
X16771742Y26737863D02*
X16866980Y26690244D01*
X16866980Y26690244D02*
X16914600Y26642625D01*
X16914600Y26642625D02*
X16962219Y26547387D01*
X16962219Y26547387D02*
X16962219Y26452149D01*
X16962219Y26452149D02*
X16914600Y26356911D01*
X16914600Y26356911D02*
X16866980Y26309292D01*
X16866980Y26309292D02*
X16771742Y26261673D01*
X16771742Y26261673D02*
X16581266Y26214054D01*
X16581266Y26214054D02*
X16343171Y26214054D01*
X16343171Y26214054D02*
X16152695Y26261673D01*
X16152695Y26261673D02*
X16057457Y26309292D01*
X16057457Y26309292D02*
X16009838Y26356911D01*
X16009838Y26356911D02*
X15962219Y26452149D01*
X16057457Y27166435D02*
X16009838Y27214054D01*
X16009838Y27214054D02*
X15962219Y27309292D01*
X15962219Y27309292D02*
X15962219Y27547387D01*
X15962219Y27547387D02*
X16009838Y27642625D01*
X16009838Y27642625D02*
X16057457Y27690244D01*
X16057457Y27690244D02*
X16152695Y27737863D01*
X16152695Y27737863D02*
X16247933Y27737863D01*
X16247933Y27737863D02*
X16390790Y27690244D01*
X16390790Y27690244D02*
X16962219Y27118816D01*
X16962219Y27118816D02*
X16962219Y27737863D01*
X24582219Y-7370244D02*
X23582219Y-7370244D01*
X23582219Y-7370244D02*
X23582219Y-6989292D01*
X23582219Y-6989292D02*
X23629838Y-6894054D01*
X23629838Y-6894054D02*
X23677457Y-6846435D01*
X23677457Y-6846435D02*
X23772695Y-6798816D01*
X23772695Y-6798816D02*
X23915552Y-6798816D01*
X23915552Y-6798816D02*
X24010790Y-6846435D01*
X24010790Y-6846435D02*
X24058409Y-6894054D01*
X24058409Y-6894054D02*
X24106028Y-6989292D01*
X24106028Y-6989292D02*
X24106028Y-7370244D01*
X24582219Y-5846435D02*
X24582219Y-6417863D01*
X24582219Y-6132149D02*
X23582219Y-6132149D01*
X23582219Y-6132149D02*
X23725076Y-6227387D01*
X23725076Y-6227387D02*
X23820314Y-6322625D01*
X23820314Y-6322625D02*
X23867933Y-6417863D01*
X23677457Y-5465482D02*
X23629838Y-5417863D01*
X23629838Y-5417863D02*
X23582219Y-5322625D01*
X23582219Y-5322625D02*
X23582219Y-5084530D01*
X23582219Y-5084530D02*
X23629838Y-4989292D01*
X23629838Y-4989292D02*
X23677457Y-4941673D01*
X23677457Y-4941673D02*
X23772695Y-4894054D01*
X23772695Y-4894054D02*
X23867933Y-4894054D01*
X23867933Y-4894054D02*
X24010790Y-4941673D01*
X24010790Y-4941673D02*
X24582219Y-5513101D01*
X24582219Y-5513101D02*
X24582219Y-4894054D01*
X21280219Y7040953D02*
X20280219Y7040953D01*
X20375457Y7469524D02*
X20327838Y7517143D01*
X20327838Y7517143D02*
X20280219Y7612381D01*
X20280219Y7612381D02*
X20280219Y7850476D01*
X20280219Y7850476D02*
X20327838Y7945714D01*
X20327838Y7945714D02*
X20375457Y7993333D01*
X20375457Y7993333D02*
X20470695Y8040952D01*
X20470695Y8040952D02*
X20565933Y8040952D01*
X20565933Y8040952D02*
X20708790Y7993333D01*
X20708790Y7993333D02*
X21280219Y7421905D01*
X21280219Y7421905D02*
X21280219Y8040952D01*
X21184980Y9040952D02*
X21232600Y8993333D01*
X21232600Y8993333D02*
X21280219Y8850476D01*
X21280219Y8850476D02*
X21280219Y8755238D01*
X21280219Y8755238D02*
X21232600Y8612381D01*
X21232600Y8612381D02*
X21137361Y8517143D01*
X21137361Y8517143D02*
X21042123Y8469524D01*
X21042123Y8469524D02*
X20851647Y8421905D01*
X20851647Y8421905D02*
X20708790Y8421905D01*
X20708790Y8421905D02*
X20518314Y8469524D01*
X20518314Y8469524D02*
X20423076Y8517143D01*
X20423076Y8517143D02*
X20327838Y8612381D01*
X20327838Y8612381D02*
X20280219Y8755238D01*
X20280219Y8755238D02*
X20280219Y8850476D01*
X20280219Y8850476D02*
X20327838Y8993333D01*
X20327838Y8993333D02*
X20375457Y9040952D01*
X21280219Y9469524D02*
X20280219Y9469524D01*
X20280219Y10136190D02*
X20280219Y10326666D01*
X20280219Y10326666D02*
X20327838Y10421904D01*
X20327838Y10421904D02*
X20423076Y10517142D01*
X20423076Y10517142D02*
X20613552Y10564761D01*
X20613552Y10564761D02*
X20946885Y10564761D01*
X20946885Y10564761D02*
X21137361Y10517142D01*
X21137361Y10517142D02*
X21232600Y10421904D01*
X21232600Y10421904D02*
X21280219Y10326666D01*
X21280219Y10326666D02*
X21280219Y10136190D01*
X21280219Y10136190D02*
X21232600Y10040952D01*
X21232600Y10040952D02*
X21137361Y9945714D01*
X21137361Y9945714D02*
X20946885Y9898095D01*
X20946885Y9898095D02*
X20613552Y9898095D01*
X20613552Y9898095D02*
X20423076Y9945714D01*
X20423076Y9945714D02*
X20327838Y10040952D01*
X20327838Y10040952D02*
X20280219Y10136190D01*
X20280219Y11183809D02*
X20280219Y11279047D01*
X20280219Y11279047D02*
X20327838Y11374285D01*
X20327838Y11374285D02*
X20375457Y11421904D01*
X20375457Y11421904D02*
X20470695Y11469523D01*
X20470695Y11469523D02*
X20661171Y11517142D01*
X20661171Y11517142D02*
X20899266Y11517142D01*
X20899266Y11517142D02*
X21089742Y11469523D01*
X21089742Y11469523D02*
X21184980Y11421904D01*
X21184980Y11421904D02*
X21232600Y11374285D01*
X21232600Y11374285D02*
X21280219Y11279047D01*
X21280219Y11279047D02*
X21280219Y11183809D01*
X21280219Y11183809D02*
X21232600Y11088571D01*
X21232600Y11088571D02*
X21184980Y11040952D01*
X21184980Y11040952D02*
X21089742Y10993333D01*
X21089742Y10993333D02*
X20899266Y10945714D01*
X20899266Y10945714D02*
X20661171Y10945714D01*
X20661171Y10945714D02*
X20470695Y10993333D01*
X20470695Y10993333D02*
X20375457Y11040952D01*
X20375457Y11040952D02*
X20327838Y11088571D01*
X20327838Y11088571D02*
X20280219Y11183809D01*
X21280219Y12469523D02*
X21280219Y11898095D01*
X21280219Y12183809D02*
X20280219Y12183809D01*
X20280219Y12183809D02*
X20423076Y12088571D01*
X20423076Y12088571D02*
X20518314Y11993333D01*
X20518314Y11993333D02*
X20565933Y11898095D01*
X20994504Y12850476D02*
X20994504Y13326666D01*
X21280219Y12755238D02*
X20280219Y13088571D01*
X20280219Y13088571D02*
X21280219Y13421904D01*
X11402816Y12993780D02*
X11736149Y11993780D01*
X11736149Y11993780D02*
X12069482Y12993780D01*
X12402816Y11993780D02*
X12402816Y12993780D01*
X12402816Y12993780D02*
X12640911Y12993780D01*
X12640911Y12993780D02*
X12783768Y12946161D01*
X12783768Y12946161D02*
X12879006Y12850923D01*
X12879006Y12850923D02*
X12926625Y12755685D01*
X12926625Y12755685D02*
X12974244Y12565209D01*
X12974244Y12565209D02*
X12974244Y12422352D01*
X12974244Y12422352D02*
X12926625Y12231876D01*
X12926625Y12231876D02*
X12879006Y12136638D01*
X12879006Y12136638D02*
X12783768Y12041400D01*
X12783768Y12041400D02*
X12640911Y11993780D01*
X12640911Y11993780D02*
X12402816Y11993780D01*
X13402816Y11993780D02*
X13402816Y12993780D01*
X13402816Y12993780D02*
X13640911Y12993780D01*
X13640911Y12993780D02*
X13783768Y12946161D01*
X13783768Y12946161D02*
X13879006Y12850923D01*
X13879006Y12850923D02*
X13926625Y12755685D01*
X13926625Y12755685D02*
X13974244Y12565209D01*
X13974244Y12565209D02*
X13974244Y12422352D01*
X13974244Y12422352D02*
X13926625Y12231876D01*
X13926625Y12231876D02*
X13879006Y12136638D01*
X13879006Y12136638D02*
X13783768Y12041400D01*
X13783768Y12041400D02*
X13640911Y11993780D01*
X13640911Y11993780D02*
X13402816Y11993780D01*
X11882219Y-7370244D02*
X10882219Y-7370244D01*
X10882219Y-7370244D02*
X10882219Y-6989292D01*
X10882219Y-6989292D02*
X10929838Y-6894054D01*
X10929838Y-6894054D02*
X10977457Y-6846435D01*
X10977457Y-6846435D02*
X11072695Y-6798816D01*
X11072695Y-6798816D02*
X11215552Y-6798816D01*
X11215552Y-6798816D02*
X11310790Y-6846435D01*
X11310790Y-6846435D02*
X11358409Y-6894054D01*
X11358409Y-6894054D02*
X11406028Y-6989292D01*
X11406028Y-6989292D02*
X11406028Y-7370244D01*
X11882219Y-5846435D02*
X11882219Y-6417863D01*
X11882219Y-6132149D02*
X10882219Y-6132149D01*
X10882219Y-6132149D02*
X11025076Y-6227387D01*
X11025076Y-6227387D02*
X11120314Y-6322625D01*
X11120314Y-6322625D02*
X11167933Y-6417863D01*
X10882219Y-5513101D02*
X10882219Y-4846435D01*
X10882219Y-4846435D02*
X11882219Y-5275006D01*
X33591714Y452542D02*
X33639333Y500161D01*
X33639333Y500161D02*
X33734571Y547780D01*
X33734571Y547780D02*
X33972666Y547780D01*
X33972666Y547780D02*
X34067904Y500161D01*
X34067904Y500161D02*
X34115523Y452542D01*
X34115523Y452542D02*
X34163142Y357304D01*
X34163142Y357304D02*
X34163142Y262066D01*
X34163142Y262066D02*
X34115523Y119209D01*
X34115523Y119209D02*
X33544095Y-452219D01*
X33544095Y-452219D02*
X34163142Y-452219D01*
X34782190Y547780D02*
X34877428Y547780D01*
X34877428Y547780D02*
X34972666Y500161D01*
X34972666Y500161D02*
X35020285Y452542D01*
X35020285Y452542D02*
X35067904Y357304D01*
X35067904Y357304D02*
X35115523Y166828D01*
X35115523Y166828D02*
X35115523Y-71266D01*
X35115523Y-71266D02*
X35067904Y-261742D01*
X35067904Y-261742D02*
X35020285Y-356980D01*
X35020285Y-356980D02*
X34972666Y-404600D01*
X34972666Y-404600D02*
X34877428Y-452219D01*
X34877428Y-452219D02*
X34782190Y-452219D01*
X34782190Y-452219D02*
X34686952Y-404600D01*
X34686952Y-404600D02*
X34639333Y-356980D01*
X34639333Y-356980D02*
X34591714Y-261742D01*
X34591714Y-261742D02*
X34544095Y-71266D01*
X34544095Y-71266D02*
X34544095Y166828D01*
X34544095Y166828D02*
X34591714Y357304D01*
X34591714Y357304D02*
X34639333Y452542D01*
X34639333Y452542D02*
X34686952Y500161D01*
X34686952Y500161D02*
X34782190Y547780D01*
X36067904Y-452219D02*
X35496476Y-452219D01*
X35782190Y-452219D02*
X35782190Y547780D01*
X35782190Y547780D02*
X35686952Y404923D01*
X35686952Y404923D02*
X35591714Y309685D01*
X35591714Y309685D02*
X35496476Y262066D01*
X36972666Y547780D02*
X36496476Y547780D01*
X36496476Y547780D02*
X36448857Y71590D01*
X36448857Y71590D02*
X36496476Y119209D01*
X36496476Y119209D02*
X36591714Y166828D01*
X36591714Y166828D02*
X36829809Y166828D01*
X36829809Y166828D02*
X36925047Y119209D01*
X36925047Y119209D02*
X36972666Y71590D01*
X36972666Y71590D02*
X37020285Y-23647D01*
X37020285Y-23647D02*
X37020285Y-261742D01*
X37020285Y-261742D02*
X36972666Y-356980D01*
X36972666Y-356980D02*
X36925047Y-404600D01*
X36925047Y-404600D02*
X36829809Y-452219D01*
X36829809Y-452219D02*
X36591714Y-452219D01*
X36591714Y-452219D02*
X36496476Y-404600D01*
X36496476Y-404600D02*
X36448857Y-356980D01*
X24582219Y25261673D02*
X23582219Y25261673D01*
X23582219Y25261673D02*
X23582219Y25642625D01*
X23582219Y25642625D02*
X23629838Y25737863D01*
X23629838Y25737863D02*
X23677457Y25785482D01*
X23677457Y25785482D02*
X23772695Y25833101D01*
X23772695Y25833101D02*
X23915552Y25833101D01*
X23915552Y25833101D02*
X24010790Y25785482D01*
X24010790Y25785482D02*
X24058409Y25737863D01*
X24058409Y25737863D02*
X24106028Y25642625D01*
X24106028Y25642625D02*
X24106028Y25261673D01*
X23582219Y26452149D02*
X23582219Y26547387D01*
X23582219Y26547387D02*
X23629838Y26642625D01*
X23629838Y26642625D02*
X23677457Y26690244D01*
X23677457Y26690244D02*
X23772695Y26737863D01*
X23772695Y26737863D02*
X23963171Y26785482D01*
X23963171Y26785482D02*
X24201266Y26785482D01*
X24201266Y26785482D02*
X24391742Y26737863D01*
X24391742Y26737863D02*
X24486980Y26690244D01*
X24486980Y26690244D02*
X24534600Y26642625D01*
X24534600Y26642625D02*
X24582219Y26547387D01*
X24582219Y26547387D02*
X24582219Y26452149D01*
X24582219Y26452149D02*
X24534600Y26356911D01*
X24534600Y26356911D02*
X24486980Y26309292D01*
X24486980Y26309292D02*
X24391742Y26261673D01*
X24391742Y26261673D02*
X24201266Y26214054D01*
X24201266Y26214054D02*
X23963171Y26214054D01*
X23963171Y26214054D02*
X23772695Y26261673D01*
X23772695Y26261673D02*
X23677457Y26309292D01*
X23677457Y26309292D02*
X23629838Y26356911D01*
X23629838Y26356911D02*
X23582219Y26452149D01*
X23582219Y27690244D02*
X23582219Y27214054D01*
X23582219Y27214054D02*
X24058409Y27166435D01*
X24058409Y27166435D02*
X24010790Y27214054D01*
X24010790Y27214054D02*
X23963171Y27309292D01*
X23963171Y27309292D02*
X23963171Y27547387D01*
X23963171Y27547387D02*
X24010790Y27642625D01*
X24010790Y27642625D02*
X24058409Y27690244D01*
X24058409Y27690244D02*
X24153647Y27737863D01*
X24153647Y27737863D02*
X24391742Y27737863D01*
X24391742Y27737863D02*
X24486980Y27690244D01*
X24486980Y27690244D02*
X24534600Y27642625D01*
X24534600Y27642625D02*
X24582219Y27547387D01*
X24582219Y27547387D02*
X24582219Y27309292D01*
X24582219Y27309292D02*
X24534600Y27214054D01*
X24534600Y27214054D02*
X24486980Y27166435D01*
X27122219Y25261673D02*
X26122219Y25261673D01*
X26122219Y25261673D02*
X26122219Y25642625D01*
X26122219Y25642625D02*
X26169838Y25737863D01*
X26169838Y25737863D02*
X26217457Y25785482D01*
X26217457Y25785482D02*
X26312695Y25833101D01*
X26312695Y25833101D02*
X26455552Y25833101D01*
X26455552Y25833101D02*
X26550790Y25785482D01*
X26550790Y25785482D02*
X26598409Y25737863D01*
X26598409Y25737863D02*
X26646028Y25642625D01*
X26646028Y25642625D02*
X26646028Y25261673D01*
X26122219Y26452149D02*
X26122219Y26547387D01*
X26122219Y26547387D02*
X26169838Y26642625D01*
X26169838Y26642625D02*
X26217457Y26690244D01*
X26217457Y26690244D02*
X26312695Y26737863D01*
X26312695Y26737863D02*
X26503171Y26785482D01*
X26503171Y26785482D02*
X26741266Y26785482D01*
X26741266Y26785482D02*
X26931742Y26737863D01*
X26931742Y26737863D02*
X27026980Y26690244D01*
X27026980Y26690244D02*
X27074600Y26642625D01*
X27074600Y26642625D02*
X27122219Y26547387D01*
X27122219Y26547387D02*
X27122219Y26452149D01*
X27122219Y26452149D02*
X27074600Y26356911D01*
X27074600Y26356911D02*
X27026980Y26309292D01*
X27026980Y26309292D02*
X26931742Y26261673D01*
X26931742Y26261673D02*
X26741266Y26214054D01*
X26741266Y26214054D02*
X26503171Y26214054D01*
X26503171Y26214054D02*
X26312695Y26261673D01*
X26312695Y26261673D02*
X26217457Y26309292D01*
X26217457Y26309292D02*
X26169838Y26356911D01*
X26169838Y26356911D02*
X26122219Y26452149D01*
X26122219Y27642625D02*
X26122219Y27452149D01*
X26122219Y27452149D02*
X26169838Y27356911D01*
X26169838Y27356911D02*
X26217457Y27309292D01*
X26217457Y27309292D02*
X26360314Y27214054D01*
X26360314Y27214054D02*
X26550790Y27166435D01*
X26550790Y27166435D02*
X26931742Y27166435D01*
X26931742Y27166435D02*
X27026980Y27214054D01*
X27026980Y27214054D02*
X27074600Y27261673D01*
X27074600Y27261673D02*
X27122219Y27356911D01*
X27122219Y27356911D02*
X27122219Y27547387D01*
X27122219Y27547387D02*
X27074600Y27642625D01*
X27074600Y27642625D02*
X27026980Y27690244D01*
X27026980Y27690244D02*
X26931742Y27737863D01*
X26931742Y27737863D02*
X26693647Y27737863D01*
X26693647Y27737863D02*
X26598409Y27690244D01*
X26598409Y27690244D02*
X26550790Y27642625D01*
X26550790Y27642625D02*
X26503171Y27547387D01*
X26503171Y27547387D02*
X26503171Y27356911D01*
X26503171Y27356911D02*
X26550790Y27261673D01*
X26550790Y27261673D02*
X26598409Y27214054D01*
X26598409Y27214054D02*
X26693647Y27166435D01*
D11*
X19220328Y5838571D02*
X17720328Y5838571D01*
X17720328Y5838571D02*
X18791757Y6338571D01*
X18791757Y6338571D02*
X17720328Y6838571D01*
X17720328Y6838571D02*
X19220328Y6838571D01*
X19220328Y8267143D02*
X19220328Y7552857D01*
X19220328Y7552857D02*
X17720328Y7552857D01*
X18791757Y8695715D02*
X18791757Y9410001D01*
X19220328Y8552858D02*
X17720328Y9052858D01*
X17720328Y9052858D02*
X19220328Y9552858D01*
X18434614Y10552857D02*
X18506042Y10767143D01*
X18506042Y10767143D02*
X18577471Y10838572D01*
X18577471Y10838572D02*
X18720328Y10910000D01*
X18720328Y10910000D02*
X18934614Y10910000D01*
X18934614Y10910000D02*
X19077471Y10838572D01*
X19077471Y10838572D02*
X19148900Y10767143D01*
X19148900Y10767143D02*
X19220328Y10624286D01*
X19220328Y10624286D02*
X19220328Y10052857D01*
X19220328Y10052857D02*
X17720328Y10052857D01*
X17720328Y10052857D02*
X17720328Y10552857D01*
X17720328Y10552857D02*
X17791757Y10695715D01*
X17791757Y10695715D02*
X17863185Y10767143D01*
X17863185Y10767143D02*
X18006042Y10838572D01*
X18006042Y10838572D02*
X18148900Y10838572D01*
X18148900Y10838572D02*
X18291757Y10767143D01*
X18291757Y10767143D02*
X18363185Y10695715D01*
X18363185Y10695715D02*
X18434614Y10552857D01*
X18434614Y10552857D02*
X18434614Y10052857D01*
X19077471Y11552857D02*
X19148900Y11624286D01*
X19148900Y11624286D02*
X19220328Y11552857D01*
X19220328Y11552857D02*
X19148900Y11481429D01*
X19148900Y11481429D02*
X19077471Y11552857D01*
X19077471Y11552857D02*
X19220328Y11552857D01*
X19077471Y13124286D02*
X19148900Y13052858D01*
X19148900Y13052858D02*
X19220328Y12838572D01*
X19220328Y12838572D02*
X19220328Y12695715D01*
X19220328Y12695715D02*
X19148900Y12481429D01*
X19148900Y12481429D02*
X19006042Y12338572D01*
X19006042Y12338572D02*
X18863185Y12267143D01*
X18863185Y12267143D02*
X18577471Y12195715D01*
X18577471Y12195715D02*
X18363185Y12195715D01*
X18363185Y12195715D02*
X18077471Y12267143D01*
X18077471Y12267143D02*
X17934614Y12338572D01*
X17934614Y12338572D02*
X17791757Y12481429D01*
X17791757Y12481429D02*
X17720328Y12695715D01*
X17720328Y12695715D02*
X17720328Y12838572D01*
X17720328Y12838572D02*
X17791757Y13052858D01*
X17791757Y13052858D02*
X17863185Y13124286D01*
X17720328Y13624286D02*
X17720328Y14624286D01*
X17720328Y14624286D02*
X19220328Y13624286D01*
X19220328Y13624286D02*
X19220328Y14624286D01*
D10*
X33250476Y19867780D02*
X33250476Y20867780D01*
X33250476Y20867780D02*
X33631428Y20867780D01*
X33631428Y20867780D02*
X33726666Y20820161D01*
X33726666Y20820161D02*
X33774285Y20772542D01*
X33774285Y20772542D02*
X33821904Y20677304D01*
X33821904Y20677304D02*
X33821904Y20534447D01*
X33821904Y20534447D02*
X33774285Y20439209D01*
X33774285Y20439209D02*
X33726666Y20391590D01*
X33726666Y20391590D02*
X33631428Y20343971D01*
X33631428Y20343971D02*
X33250476Y20343971D01*
X34440952Y20867780D02*
X34631428Y20867780D01*
X34631428Y20867780D02*
X34726666Y20820161D01*
X34726666Y20820161D02*
X34821904Y20724923D01*
X34821904Y20724923D02*
X34869523Y20534447D01*
X34869523Y20534447D02*
X34869523Y20201114D01*
X34869523Y20201114D02*
X34821904Y20010638D01*
X34821904Y20010638D02*
X34726666Y19915400D01*
X34726666Y19915400D02*
X34631428Y19867780D01*
X34631428Y19867780D02*
X34440952Y19867780D01*
X34440952Y19867780D02*
X34345714Y19915400D01*
X34345714Y19915400D02*
X34250476Y20010638D01*
X34250476Y20010638D02*
X34202857Y20201114D01*
X34202857Y20201114D02*
X34202857Y20534447D01*
X34202857Y20534447D02*
X34250476Y20724923D01*
X34250476Y20724923D02*
X34345714Y20820161D01*
X34345714Y20820161D02*
X34440952Y20867780D01*
X35202857Y20867780D02*
X35440952Y19867780D01*
X35440952Y19867780D02*
X35631428Y20582066D01*
X35631428Y20582066D02*
X35821904Y19867780D01*
X35821904Y19867780D02*
X36060000Y20867780D01*
X36440952Y20391590D02*
X36774285Y20391590D01*
X36917142Y19867780D02*
X36440952Y19867780D01*
X36440952Y19867780D02*
X36440952Y20867780D01*
X36440952Y20867780D02*
X36917142Y20867780D01*
X37917142Y19867780D02*
X37583809Y20343971D01*
X37345714Y19867780D02*
X37345714Y20867780D01*
X37345714Y20867780D02*
X37726666Y20867780D01*
X37726666Y20867780D02*
X37821904Y20820161D01*
X37821904Y20820161D02*
X37869523Y20772542D01*
X37869523Y20772542D02*
X37917142Y20677304D01*
X37917142Y20677304D02*
X37917142Y20534447D01*
X37917142Y20534447D02*
X37869523Y20439209D01*
X37869523Y20439209D02*
X37821904Y20391590D01*
X37821904Y20391590D02*
X37726666Y20343971D01*
X37726666Y20343971D02*
X37345714Y20343971D01*
X39822219Y12255905D02*
X38822219Y12255905D01*
X38822219Y12255905D02*
X39536504Y12589238D01*
X39536504Y12589238D02*
X38822219Y12922571D01*
X38822219Y12922571D02*
X39822219Y12922571D01*
X39536504Y13351143D02*
X39536504Y13827333D01*
X39822219Y13255905D02*
X38822219Y13589238D01*
X38822219Y13589238D02*
X39822219Y13922571D01*
X38822219Y14160667D02*
X39822219Y14827333D01*
X38822219Y14827333D02*
X39822219Y14160667D01*
X38822219Y15874953D02*
X38822219Y16494000D01*
X38822219Y16494000D02*
X39203171Y16160667D01*
X39203171Y16160667D02*
X39203171Y16303524D01*
X39203171Y16303524D02*
X39250790Y16398762D01*
X39250790Y16398762D02*
X39298409Y16446381D01*
X39298409Y16446381D02*
X39393647Y16494000D01*
X39393647Y16494000D02*
X39631742Y16494000D01*
X39631742Y16494000D02*
X39726980Y16446381D01*
X39726980Y16446381D02*
X39774600Y16398762D01*
X39774600Y16398762D02*
X39822219Y16303524D01*
X39822219Y16303524D02*
X39822219Y16017810D01*
X39822219Y16017810D02*
X39774600Y15922572D01*
X39774600Y15922572D02*
X39726980Y15874953D01*
X39726980Y16922572D02*
X39774600Y16970191D01*
X39774600Y16970191D02*
X39822219Y16922572D01*
X39822219Y16922572D02*
X39774600Y16874953D01*
X39774600Y16874953D02*
X39726980Y16922572D01*
X39726980Y16922572D02*
X39822219Y16922572D01*
X38822219Y17827333D02*
X38822219Y17636857D01*
X38822219Y17636857D02*
X38869838Y17541619D01*
X38869838Y17541619D02*
X38917457Y17494000D01*
X38917457Y17494000D02*
X39060314Y17398762D01*
X39060314Y17398762D02*
X39250790Y17351143D01*
X39250790Y17351143D02*
X39631742Y17351143D01*
X39631742Y17351143D02*
X39726980Y17398762D01*
X39726980Y17398762D02*
X39774600Y17446381D01*
X39774600Y17446381D02*
X39822219Y17541619D01*
X39822219Y17541619D02*
X39822219Y17732095D01*
X39822219Y17732095D02*
X39774600Y17827333D01*
X39774600Y17827333D02*
X39726980Y17874952D01*
X39726980Y17874952D02*
X39631742Y17922571D01*
X39631742Y17922571D02*
X39393647Y17922571D01*
X39393647Y17922571D02*
X39298409Y17874952D01*
X39298409Y17874952D02*
X39250790Y17827333D01*
X39250790Y17827333D02*
X39203171Y17732095D01*
X39203171Y17732095D02*
X39203171Y17541619D01*
X39203171Y17541619D02*
X39250790Y17446381D01*
X39250790Y17446381D02*
X39298409Y17398762D01*
X39298409Y17398762D02*
X39393647Y17351143D01*
X38822219Y18208286D02*
X39822219Y18541619D01*
X39822219Y18541619D02*
X38822219Y18874952D01*
X1801600Y1846054D02*
X1849219Y1988911D01*
X1849219Y1988911D02*
X1849219Y2227006D01*
X1849219Y2227006D02*
X1801600Y2322244D01*
X1801600Y2322244D02*
X1753980Y2369863D01*
X1753980Y2369863D02*
X1658742Y2417482D01*
X1658742Y2417482D02*
X1563504Y2417482D01*
X1563504Y2417482D02*
X1468266Y2369863D01*
X1468266Y2369863D02*
X1420647Y2322244D01*
X1420647Y2322244D02*
X1373028Y2227006D01*
X1373028Y2227006D02*
X1325409Y2036530D01*
X1325409Y2036530D02*
X1277790Y1941292D01*
X1277790Y1941292D02*
X1230171Y1893673D01*
X1230171Y1893673D02*
X1134933Y1846054D01*
X1134933Y1846054D02*
X1039695Y1846054D01*
X1039695Y1846054D02*
X944457Y1893673D01*
X944457Y1893673D02*
X896838Y1941292D01*
X896838Y1941292D02*
X849219Y2036530D01*
X849219Y2036530D02*
X849219Y2274625D01*
X849219Y2274625D02*
X896838Y2417482D01*
X1753980Y3417482D02*
X1801600Y3369863D01*
X1801600Y3369863D02*
X1849219Y3227006D01*
X1849219Y3227006D02*
X1849219Y3131768D01*
X1849219Y3131768D02*
X1801600Y2988911D01*
X1801600Y2988911D02*
X1706361Y2893673D01*
X1706361Y2893673D02*
X1611123Y2846054D01*
X1611123Y2846054D02*
X1420647Y2798435D01*
X1420647Y2798435D02*
X1277790Y2798435D01*
X1277790Y2798435D02*
X1087314Y2846054D01*
X1087314Y2846054D02*
X992076Y2893673D01*
X992076Y2893673D02*
X896838Y2988911D01*
X896838Y2988911D02*
X849219Y3131768D01*
X849219Y3131768D02*
X849219Y3227006D01*
X849219Y3227006D02*
X896838Y3369863D01*
X896838Y3369863D02*
X944457Y3417482D01*
X1849219Y4322244D02*
X1849219Y3846054D01*
X1849219Y3846054D02*
X849219Y3846054D01*
X16962219Y-7370244D02*
X15962219Y-7370244D01*
X15962219Y-7370244D02*
X15962219Y-6989292D01*
X15962219Y-6989292D02*
X16009838Y-6894054D01*
X16009838Y-6894054D02*
X16057457Y-6846435D01*
X16057457Y-6846435D02*
X16152695Y-6798816D01*
X16152695Y-6798816D02*
X16295552Y-6798816D01*
X16295552Y-6798816D02*
X16390790Y-6846435D01*
X16390790Y-6846435D02*
X16438409Y-6894054D01*
X16438409Y-6894054D02*
X16486028Y-6989292D01*
X16486028Y-6989292D02*
X16486028Y-7370244D01*
X16962219Y-5846435D02*
X16962219Y-6417863D01*
X16962219Y-6132149D02*
X15962219Y-6132149D01*
X15962219Y-6132149D02*
X16105076Y-6227387D01*
X16105076Y-6227387D02*
X16200314Y-6322625D01*
X16200314Y-6322625D02*
X16247933Y-6417863D01*
X15962219Y-4941673D02*
X15962219Y-5417863D01*
X15962219Y-5417863D02*
X16438409Y-5465482D01*
X16438409Y-5465482D02*
X16390790Y-5417863D01*
X16390790Y-5417863D02*
X16343171Y-5322625D01*
X16343171Y-5322625D02*
X16343171Y-5084530D01*
X16343171Y-5084530D02*
X16390790Y-4989292D01*
X16390790Y-4989292D02*
X16438409Y-4941673D01*
X16438409Y-4941673D02*
X16533647Y-4894054D01*
X16533647Y-4894054D02*
X16771742Y-4894054D01*
X16771742Y-4894054D02*
X16866980Y-4941673D01*
X16866980Y-4941673D02*
X16914600Y-4989292D01*
X16914600Y-4989292D02*
X16962219Y-5084530D01*
X16962219Y-5084530D02*
X16962219Y-5322625D01*
X16962219Y-5322625D02*
X16914600Y-5417863D01*
X16914600Y-5417863D02*
X16866980Y-5465482D01*
X8704054Y17994447D02*
X9418339Y17994447D01*
X8989768Y18423019D02*
X8704054Y17137304D01*
X9323101Y17565876D02*
X8608816Y17565876D01*
X9037387Y17137304D02*
X9323101Y18423019D01*
X10323101Y17327780D02*
X9989768Y17803971D01*
X9751673Y17327780D02*
X9751673Y18327780D01*
X9751673Y18327780D02*
X10132625Y18327780D01*
X10132625Y18327780D02*
X10227863Y18280161D01*
X10227863Y18280161D02*
X10275482Y18232542D01*
X10275482Y18232542D02*
X10323101Y18137304D01*
X10323101Y18137304D02*
X10323101Y17994447D01*
X10323101Y17994447D02*
X10275482Y17899209D01*
X10275482Y17899209D02*
X10227863Y17851590D01*
X10227863Y17851590D02*
X10132625Y17803971D01*
X10132625Y17803971D02*
X9751673Y17803971D01*
X10751673Y17851590D02*
X11085006Y17851590D01*
X11227863Y17327780D02*
X10751673Y17327780D01*
X10751673Y17327780D02*
X10751673Y18327780D01*
X10751673Y18327780D02*
X11227863Y18327780D01*
X11608816Y17375400D02*
X11751673Y17327780D01*
X11751673Y17327780D02*
X11989768Y17327780D01*
X11989768Y17327780D02*
X12085006Y17375400D01*
X12085006Y17375400D02*
X12132625Y17423019D01*
X12132625Y17423019D02*
X12180244Y17518257D01*
X12180244Y17518257D02*
X12180244Y17613495D01*
X12180244Y17613495D02*
X12132625Y17708733D01*
X12132625Y17708733D02*
X12085006Y17756352D01*
X12085006Y17756352D02*
X11989768Y17803971D01*
X11989768Y17803971D02*
X11799292Y17851590D01*
X11799292Y17851590D02*
X11704054Y17899209D01*
X11704054Y17899209D02*
X11656435Y17946828D01*
X11656435Y17946828D02*
X11608816Y18042066D01*
X11608816Y18042066D02*
X11608816Y18137304D01*
X11608816Y18137304D02*
X11656435Y18232542D01*
X11656435Y18232542D02*
X11704054Y18280161D01*
X11704054Y18280161D02*
X11799292Y18327780D01*
X11799292Y18327780D02*
X12037387Y18327780D01*
X12037387Y18327780D02*
X12180244Y18280161D01*
X19502219Y25261673D02*
X18502219Y25261673D01*
X18502219Y25261673D02*
X18502219Y25642625D01*
X18502219Y25642625D02*
X18549838Y25737863D01*
X18549838Y25737863D02*
X18597457Y25785482D01*
X18597457Y25785482D02*
X18692695Y25833101D01*
X18692695Y25833101D02*
X18835552Y25833101D01*
X18835552Y25833101D02*
X18930790Y25785482D01*
X18930790Y25785482D02*
X18978409Y25737863D01*
X18978409Y25737863D02*
X19026028Y25642625D01*
X19026028Y25642625D02*
X19026028Y25261673D01*
X18502219Y26452149D02*
X18502219Y26547387D01*
X18502219Y26547387D02*
X18549838Y26642625D01*
X18549838Y26642625D02*
X18597457Y26690244D01*
X18597457Y26690244D02*
X18692695Y26737863D01*
X18692695Y26737863D02*
X18883171Y26785482D01*
X18883171Y26785482D02*
X19121266Y26785482D01*
X19121266Y26785482D02*
X19311742Y26737863D01*
X19311742Y26737863D02*
X19406980Y26690244D01*
X19406980Y26690244D02*
X19454600Y26642625D01*
X19454600Y26642625D02*
X19502219Y26547387D01*
X19502219Y26547387D02*
X19502219Y26452149D01*
X19502219Y26452149D02*
X19454600Y26356911D01*
X19454600Y26356911D02*
X19406980Y26309292D01*
X19406980Y26309292D02*
X19311742Y26261673D01*
X19311742Y26261673D02*
X19121266Y26214054D01*
X19121266Y26214054D02*
X18883171Y26214054D01*
X18883171Y26214054D02*
X18692695Y26261673D01*
X18692695Y26261673D02*
X18597457Y26309292D01*
X18597457Y26309292D02*
X18549838Y26356911D01*
X18549838Y26356911D02*
X18502219Y26452149D01*
X18502219Y27118816D02*
X18502219Y27737863D01*
X18502219Y27737863D02*
X18883171Y27404530D01*
X18883171Y27404530D02*
X18883171Y27547387D01*
X18883171Y27547387D02*
X18930790Y27642625D01*
X18930790Y27642625D02*
X18978409Y27690244D01*
X18978409Y27690244D02*
X19073647Y27737863D01*
X19073647Y27737863D02*
X19311742Y27737863D01*
X19311742Y27737863D02*
X19406980Y27690244D01*
X19406980Y27690244D02*
X19454600Y27642625D01*
X19454600Y27642625D02*
X19502219Y27547387D01*
X19502219Y27547387D02*
X19502219Y27261673D01*
X19502219Y27261673D02*
X19454600Y27166435D01*
X19454600Y27166435D02*
X19406980Y27118816D01*
X8135838Y11053482D02*
X8088219Y10958244D01*
X8088219Y10958244D02*
X8088219Y10815387D01*
X8088219Y10815387D02*
X8135838Y10672530D01*
X8135838Y10672530D02*
X8231076Y10577292D01*
X8231076Y10577292D02*
X8326314Y10529673D01*
X8326314Y10529673D02*
X8516790Y10482054D01*
X8516790Y10482054D02*
X8659647Y10482054D01*
X8659647Y10482054D02*
X8850123Y10529673D01*
X8850123Y10529673D02*
X8945361Y10577292D01*
X8945361Y10577292D02*
X9040600Y10672530D01*
X9040600Y10672530D02*
X9088219Y10815387D01*
X9088219Y10815387D02*
X9088219Y10910625D01*
X9088219Y10910625D02*
X9040600Y11053482D01*
X9040600Y11053482D02*
X8992980Y11101101D01*
X8992980Y11101101D02*
X8659647Y11101101D01*
X8659647Y11101101D02*
X8659647Y10910625D01*
X9088219Y11529673D02*
X8088219Y11529673D01*
X8088219Y11529673D02*
X9088219Y12101101D01*
X9088219Y12101101D02*
X8088219Y12101101D01*
X9088219Y12577292D02*
X8088219Y12577292D01*
X8088219Y12577292D02*
X8088219Y12815387D01*
X8088219Y12815387D02*
X8135838Y12958244D01*
X8135838Y12958244D02*
X8231076Y13053482D01*
X8231076Y13053482D02*
X8326314Y13101101D01*
X8326314Y13101101D02*
X8516790Y13148720D01*
X8516790Y13148720D02*
X8659647Y13148720D01*
X8659647Y13148720D02*
X8850123Y13101101D01*
X8850123Y13101101D02*
X8945361Y13053482D01*
X8945361Y13053482D02*
X9040600Y12958244D01*
X9040600Y12958244D02*
X9088219Y12815387D01*
X9088219Y12815387D02*
X9088219Y12577292D01*
X3246666Y20867780D02*
X3246666Y20153495D01*
X3246666Y20153495D02*
X3199047Y20010638D01*
X3199047Y20010638D02*
X3103809Y19915400D01*
X3103809Y19915400D02*
X2960952Y19867780D01*
X2960952Y19867780D02*
X2865714Y19867780D01*
X3675238Y20153495D02*
X4151428Y20153495D01*
X3580000Y19867780D02*
X3913333Y20867780D01*
X3913333Y20867780D02*
X4246666Y19867780D01*
X5151428Y19963019D02*
X5103809Y19915400D01*
X5103809Y19915400D02*
X4960952Y19867780D01*
X4960952Y19867780D02*
X4865714Y19867780D01*
X4865714Y19867780D02*
X4722857Y19915400D01*
X4722857Y19915400D02*
X4627619Y20010638D01*
X4627619Y20010638D02*
X4580000Y20105876D01*
X4580000Y20105876D02*
X4532381Y20296352D01*
X4532381Y20296352D02*
X4532381Y20439209D01*
X4532381Y20439209D02*
X4580000Y20629685D01*
X4580000Y20629685D02*
X4627619Y20724923D01*
X4627619Y20724923D02*
X4722857Y20820161D01*
X4722857Y20820161D02*
X4865714Y20867780D01*
X4865714Y20867780D02*
X4960952Y20867780D01*
X4960952Y20867780D02*
X5103809Y20820161D01*
X5103809Y20820161D02*
X5151428Y20772542D01*
X5580000Y19867780D02*
X5580000Y20867780D01*
X5580000Y20391590D02*
X6151428Y20391590D01*
X6151428Y19867780D02*
X6151428Y20867780D01*
X6818095Y20867780D02*
X7008571Y20867780D01*
X7008571Y20867780D02*
X7103809Y20820161D01*
X7103809Y20820161D02*
X7199047Y20724923D01*
X7199047Y20724923D02*
X7246666Y20534447D01*
X7246666Y20534447D02*
X7246666Y20201114D01*
X7246666Y20201114D02*
X7199047Y20010638D01*
X7199047Y20010638D02*
X7103809Y19915400D01*
X7103809Y19915400D02*
X7008571Y19867780D01*
X7008571Y19867780D02*
X6818095Y19867780D01*
X6818095Y19867780D02*
X6722857Y19915400D01*
X6722857Y19915400D02*
X6627619Y20010638D01*
X6627619Y20010638D02*
X6580000Y20201114D01*
X6580000Y20201114D02*
X6580000Y20534447D01*
X6580000Y20534447D02*
X6627619Y20724923D01*
X6627619Y20724923D02*
X6722857Y20820161D01*
X6722857Y20820161D02*
X6818095Y20867780D01*
X23344524Y9676019D02*
X23392143Y9628400D01*
X23392143Y9628400D02*
X23344524Y9580780D01*
X23344524Y9580780D02*
X23296905Y9628400D01*
X23296905Y9628400D02*
X23344524Y9676019D01*
X23344524Y9676019D02*
X23344524Y9580780D01*
X23344524Y10199828D02*
X23392143Y10152209D01*
X23392143Y10152209D02*
X23344524Y10104590D01*
X23344524Y10104590D02*
X23296905Y10152209D01*
X23296905Y10152209D02*
X23344524Y10199828D01*
X23344524Y10199828D02*
X23344524Y10104590D01*
X23725476Y10580780D02*
X24392142Y9580780D01*
X24392142Y10580780D02*
X23725476Y9580780D01*
X25725476Y10580780D02*
X25820714Y10580780D01*
X25820714Y10580780D02*
X25915952Y10533161D01*
X25915952Y10533161D02*
X25963571Y10485542D01*
X25963571Y10485542D02*
X26011190Y10390304D01*
X26011190Y10390304D02*
X26058809Y10199828D01*
X26058809Y10199828D02*
X26058809Y9961733D01*
X26058809Y9961733D02*
X26011190Y9771257D01*
X26011190Y9771257D02*
X25963571Y9676019D01*
X25963571Y9676019D02*
X25915952Y9628400D01*
X25915952Y9628400D02*
X25820714Y9580780D01*
X25820714Y9580780D02*
X25725476Y9580780D01*
X25725476Y9580780D02*
X25630238Y9628400D01*
X25630238Y9628400D02*
X25582619Y9676019D01*
X25582619Y9676019D02*
X25535000Y9771257D01*
X25535000Y9771257D02*
X25487381Y9961733D01*
X25487381Y9961733D02*
X25487381Y10199828D01*
X25487381Y10199828D02*
X25535000Y10390304D01*
X25535000Y10390304D02*
X25582619Y10485542D01*
X25582619Y10485542D02*
X25630238Y10533161D01*
X25630238Y10533161D02*
X25725476Y10580780D01*
X26392143Y9580780D02*
X26915952Y10247447D01*
X26392143Y10247447D02*
X26915952Y9580780D01*
X27249286Y10485542D02*
X27296905Y10533161D01*
X27296905Y10533161D02*
X27392143Y10580780D01*
X27392143Y10580780D02*
X27630238Y10580780D01*
X27630238Y10580780D02*
X27725476Y10533161D01*
X27725476Y10533161D02*
X27773095Y10485542D01*
X27773095Y10485542D02*
X27820714Y10390304D01*
X27820714Y10390304D02*
X27820714Y10295066D01*
X27820714Y10295066D02*
X27773095Y10152209D01*
X27773095Y10152209D02*
X27201667Y9580780D01*
X27201667Y9580780D02*
X27820714Y9580780D01*
X28154048Y10580780D02*
X28773095Y10580780D01*
X28773095Y10580780D02*
X28439762Y10199828D01*
X28439762Y10199828D02*
X28582619Y10199828D01*
X28582619Y10199828D02*
X28677857Y10152209D01*
X28677857Y10152209D02*
X28725476Y10104590D01*
X28725476Y10104590D02*
X28773095Y10009352D01*
X28773095Y10009352D02*
X28773095Y9771257D01*
X28773095Y9771257D02*
X28725476Y9676019D01*
X28725476Y9676019D02*
X28677857Y9628400D01*
X28677857Y9628400D02*
X28582619Y9580780D01*
X28582619Y9580780D02*
X28296905Y9580780D01*
X28296905Y9580780D02*
X28201667Y9628400D01*
X28201667Y9628400D02*
X28154048Y9676019D01*
X23090523Y7008971D02*
X23090523Y6532780D01*
X22757190Y7532780D02*
X23090523Y7008971D01*
X23090523Y7008971D02*
X23423856Y7532780D01*
X23661952Y7532780D02*
X24328618Y6532780D01*
X24328618Y7532780D02*
X23661952Y6532780D01*
X25661952Y7532780D02*
X25757190Y7532780D01*
X25757190Y7532780D02*
X25852428Y7485161D01*
X25852428Y7485161D02*
X25900047Y7437542D01*
X25900047Y7437542D02*
X25947666Y7342304D01*
X25947666Y7342304D02*
X25995285Y7151828D01*
X25995285Y7151828D02*
X25995285Y6913733D01*
X25995285Y6913733D02*
X25947666Y6723257D01*
X25947666Y6723257D02*
X25900047Y6628019D01*
X25900047Y6628019D02*
X25852428Y6580400D01*
X25852428Y6580400D02*
X25757190Y6532780D01*
X25757190Y6532780D02*
X25661952Y6532780D01*
X25661952Y6532780D02*
X25566714Y6580400D01*
X25566714Y6580400D02*
X25519095Y6628019D01*
X25519095Y6628019D02*
X25471476Y6723257D01*
X25471476Y6723257D02*
X25423857Y6913733D01*
X25423857Y6913733D02*
X25423857Y7151828D01*
X25423857Y7151828D02*
X25471476Y7342304D01*
X25471476Y7342304D02*
X25519095Y7437542D01*
X25519095Y7437542D02*
X25566714Y7485161D01*
X25566714Y7485161D02*
X25661952Y7532780D01*
X26328619Y6532780D02*
X26852428Y7199447D01*
X26328619Y7199447D02*
X26852428Y6532780D01*
X27185762Y7437542D02*
X27233381Y7485161D01*
X27233381Y7485161D02*
X27328619Y7532780D01*
X27328619Y7532780D02*
X27566714Y7532780D01*
X27566714Y7532780D02*
X27661952Y7485161D01*
X27661952Y7485161D02*
X27709571Y7437542D01*
X27709571Y7437542D02*
X27757190Y7342304D01*
X27757190Y7342304D02*
X27757190Y7247066D01*
X27757190Y7247066D02*
X27709571Y7104209D01*
X27709571Y7104209D02*
X27138143Y6532780D01*
X27138143Y6532780D02*
X27757190Y6532780D01*
X28138143Y7437542D02*
X28185762Y7485161D01*
X28185762Y7485161D02*
X28281000Y7532780D01*
X28281000Y7532780D02*
X28519095Y7532780D01*
X28519095Y7532780D02*
X28614333Y7485161D01*
X28614333Y7485161D02*
X28661952Y7437542D01*
X28661952Y7437542D02*
X28709571Y7342304D01*
X28709571Y7342304D02*
X28709571Y7247066D01*
X28709571Y7247066D02*
X28661952Y7104209D01*
X28661952Y7104209D02*
X28090524Y6532780D01*
X28090524Y6532780D02*
X28709571Y6532780D01*
X14422219Y25261673D02*
X13422219Y25261673D01*
X13422219Y25261673D02*
X13422219Y25642625D01*
X13422219Y25642625D02*
X13469838Y25737863D01*
X13469838Y25737863D02*
X13517457Y25785482D01*
X13517457Y25785482D02*
X13612695Y25833101D01*
X13612695Y25833101D02*
X13755552Y25833101D01*
X13755552Y25833101D02*
X13850790Y25785482D01*
X13850790Y25785482D02*
X13898409Y25737863D01*
X13898409Y25737863D02*
X13946028Y25642625D01*
X13946028Y25642625D02*
X13946028Y25261673D01*
X13422219Y26452149D02*
X13422219Y26547387D01*
X13422219Y26547387D02*
X13469838Y26642625D01*
X13469838Y26642625D02*
X13517457Y26690244D01*
X13517457Y26690244D02*
X13612695Y26737863D01*
X13612695Y26737863D02*
X13803171Y26785482D01*
X13803171Y26785482D02*
X14041266Y26785482D01*
X14041266Y26785482D02*
X14231742Y26737863D01*
X14231742Y26737863D02*
X14326980Y26690244D01*
X14326980Y26690244D02*
X14374600Y26642625D01*
X14374600Y26642625D02*
X14422219Y26547387D01*
X14422219Y26547387D02*
X14422219Y26452149D01*
X14422219Y26452149D02*
X14374600Y26356911D01*
X14374600Y26356911D02*
X14326980Y26309292D01*
X14326980Y26309292D02*
X14231742Y26261673D01*
X14231742Y26261673D02*
X14041266Y26214054D01*
X14041266Y26214054D02*
X13803171Y26214054D01*
X13803171Y26214054D02*
X13612695Y26261673D01*
X13612695Y26261673D02*
X13517457Y26309292D01*
X13517457Y26309292D02*
X13469838Y26356911D01*
X13469838Y26356911D02*
X13422219Y26452149D01*
X14422219Y27737863D02*
X14422219Y27166435D01*
X14422219Y27452149D02*
X13422219Y27452149D01*
X13422219Y27452149D02*
X13565076Y27356911D01*
X13565076Y27356911D02*
X13660314Y27261673D01*
X13660314Y27261673D02*
X13707933Y27166435D01*
X13422219Y1948517D02*
X14422219Y2281850D01*
X14422219Y2281850D02*
X13422219Y2615183D01*
X14326980Y3519945D02*
X14374600Y3472326D01*
X14374600Y3472326D02*
X14422219Y3329469D01*
X14422219Y3329469D02*
X14422219Y3234231D01*
X14422219Y3234231D02*
X14374600Y3091374D01*
X14374600Y3091374D02*
X14279361Y2996136D01*
X14279361Y2996136D02*
X14184123Y2948517D01*
X14184123Y2948517D02*
X13993647Y2900898D01*
X13993647Y2900898D02*
X13850790Y2900898D01*
X13850790Y2900898D02*
X13660314Y2948517D01*
X13660314Y2948517D02*
X13565076Y2996136D01*
X13565076Y2996136D02*
X13469838Y3091374D01*
X13469838Y3091374D02*
X13422219Y3234231D01*
X13422219Y3234231D02*
X13422219Y3329469D01*
X13422219Y3329469D02*
X13469838Y3472326D01*
X13469838Y3472326D02*
X13517457Y3519945D01*
X14326980Y4519945D02*
X14374600Y4472326D01*
X14374600Y4472326D02*
X14422219Y4329469D01*
X14422219Y4329469D02*
X14422219Y4234231D01*
X14422219Y4234231D02*
X14374600Y4091374D01*
X14374600Y4091374D02*
X14279361Y3996136D01*
X14279361Y3996136D02*
X14184123Y3948517D01*
X14184123Y3948517D02*
X13993647Y3900898D01*
X13993647Y3900898D02*
X13850790Y3900898D01*
X13850790Y3900898D02*
X13660314Y3948517D01*
X13660314Y3948517D02*
X13565076Y3996136D01*
X13565076Y3996136D02*
X13469838Y4091374D01*
X13469838Y4091374D02*
X13422219Y4234231D01*
X13422219Y4234231D02*
X13422219Y4329469D01*
X13422219Y4329469D02*
X13469838Y4472326D01*
X13469838Y4472326D02*
X13517457Y4519945D01*
X14422219Y4948517D02*
X13422219Y4948517D01*
X13422219Y4948517D02*
X13422219Y5329469D01*
X13422219Y5329469D02*
X13469838Y5424707D01*
X13469838Y5424707D02*
X13517457Y5472326D01*
X13517457Y5472326D02*
X13612695Y5519945D01*
X13612695Y5519945D02*
X13755552Y5519945D01*
X13755552Y5519945D02*
X13850790Y5472326D01*
X13850790Y5472326D02*
X13898409Y5424707D01*
X13898409Y5424707D02*
X13946028Y5329469D01*
X13946028Y5329469D02*
X13946028Y4948517D01*
X11882219Y25261673D02*
X10882219Y25261673D01*
X10882219Y25261673D02*
X10882219Y25642625D01*
X10882219Y25642625D02*
X10929838Y25737863D01*
X10929838Y25737863D02*
X10977457Y25785482D01*
X10977457Y25785482D02*
X11072695Y25833101D01*
X11072695Y25833101D02*
X11215552Y25833101D01*
X11215552Y25833101D02*
X11310790Y25785482D01*
X11310790Y25785482D02*
X11358409Y25737863D01*
X11358409Y25737863D02*
X11406028Y25642625D01*
X11406028Y25642625D02*
X11406028Y25261673D01*
X10882219Y26452149D02*
X10882219Y26547387D01*
X10882219Y26547387D02*
X10929838Y26642625D01*
X10929838Y26642625D02*
X10977457Y26690244D01*
X10977457Y26690244D02*
X11072695Y26737863D01*
X11072695Y26737863D02*
X11263171Y26785482D01*
X11263171Y26785482D02*
X11501266Y26785482D01*
X11501266Y26785482D02*
X11691742Y26737863D01*
X11691742Y26737863D02*
X11786980Y26690244D01*
X11786980Y26690244D02*
X11834600Y26642625D01*
X11834600Y26642625D02*
X11882219Y26547387D01*
X11882219Y26547387D02*
X11882219Y26452149D01*
X11882219Y26452149D02*
X11834600Y26356911D01*
X11834600Y26356911D02*
X11786980Y26309292D01*
X11786980Y26309292D02*
X11691742Y26261673D01*
X11691742Y26261673D02*
X11501266Y26214054D01*
X11501266Y26214054D02*
X11263171Y26214054D01*
X11263171Y26214054D02*
X11072695Y26261673D01*
X11072695Y26261673D02*
X10977457Y26309292D01*
X10977457Y26309292D02*
X10929838Y26356911D01*
X10929838Y26356911D02*
X10882219Y26452149D01*
X10882219Y27404530D02*
X10882219Y27499768D01*
X10882219Y27499768D02*
X10929838Y27595006D01*
X10929838Y27595006D02*
X10977457Y27642625D01*
X10977457Y27642625D02*
X11072695Y27690244D01*
X11072695Y27690244D02*
X11263171Y27737863D01*
X11263171Y27737863D02*
X11501266Y27737863D01*
X11501266Y27737863D02*
X11691742Y27690244D01*
X11691742Y27690244D02*
X11786980Y27642625D01*
X11786980Y27642625D02*
X11834600Y27595006D01*
X11834600Y27595006D02*
X11882219Y27499768D01*
X11882219Y27499768D02*
X11882219Y27404530D01*
X11882219Y27404530D02*
X11834600Y27309292D01*
X11834600Y27309292D02*
X11786980Y27261673D01*
X11786980Y27261673D02*
X11691742Y27214054D01*
X11691742Y27214054D02*
X11501266Y27166435D01*
X11501266Y27166435D02*
X11263171Y27166435D01*
X11263171Y27166435D02*
X11072695Y27214054D01*
X11072695Y27214054D02*
X10977457Y27261673D01*
X10977457Y27261673D02*
X10929838Y27309292D01*
X10929838Y27309292D02*
X10882219Y27404530D01*
X1928600Y7053054D02*
X1976219Y7195911D01*
X1976219Y7195911D02*
X1976219Y7434006D01*
X1976219Y7434006D02*
X1928600Y7529244D01*
X1928600Y7529244D02*
X1880980Y7576863D01*
X1880980Y7576863D02*
X1785742Y7624482D01*
X1785742Y7624482D02*
X1690504Y7624482D01*
X1690504Y7624482D02*
X1595266Y7576863D01*
X1595266Y7576863D02*
X1547647Y7529244D01*
X1547647Y7529244D02*
X1500028Y7434006D01*
X1500028Y7434006D02*
X1452409Y7243530D01*
X1452409Y7243530D02*
X1404790Y7148292D01*
X1404790Y7148292D02*
X1357171Y7100673D01*
X1357171Y7100673D02*
X1261933Y7053054D01*
X1261933Y7053054D02*
X1166695Y7053054D01*
X1166695Y7053054D02*
X1071457Y7100673D01*
X1071457Y7100673D02*
X1023838Y7148292D01*
X1023838Y7148292D02*
X976219Y7243530D01*
X976219Y7243530D02*
X976219Y7481625D01*
X976219Y7481625D02*
X1023838Y7624482D01*
X1976219Y8053054D02*
X976219Y8053054D01*
X976219Y8053054D02*
X976219Y8291149D01*
X976219Y8291149D02*
X1023838Y8434006D01*
X1023838Y8434006D02*
X1119076Y8529244D01*
X1119076Y8529244D02*
X1214314Y8576863D01*
X1214314Y8576863D02*
X1404790Y8624482D01*
X1404790Y8624482D02*
X1547647Y8624482D01*
X1547647Y8624482D02*
X1738123Y8576863D01*
X1738123Y8576863D02*
X1833361Y8529244D01*
X1833361Y8529244D02*
X1928600Y8434006D01*
X1928600Y8434006D02*
X1976219Y8291149D01*
X1976219Y8291149D02*
X1976219Y8053054D01*
X1690504Y9005435D02*
X1690504Y9481625D01*
X1976219Y8910197D02*
X976219Y9243530D01*
X976219Y9243530D02*
X1976219Y9576863D01*
X29662219Y25261673D02*
X28662219Y25261673D01*
X28662219Y25261673D02*
X28662219Y25642625D01*
X28662219Y25642625D02*
X28709838Y25737863D01*
X28709838Y25737863D02*
X28757457Y25785482D01*
X28757457Y25785482D02*
X28852695Y25833101D01*
X28852695Y25833101D02*
X28995552Y25833101D01*
X28995552Y25833101D02*
X29090790Y25785482D01*
X29090790Y25785482D02*
X29138409Y25737863D01*
X29138409Y25737863D02*
X29186028Y25642625D01*
X29186028Y25642625D02*
X29186028Y25261673D01*
X28662219Y26452149D02*
X28662219Y26547387D01*
X28662219Y26547387D02*
X28709838Y26642625D01*
X28709838Y26642625D02*
X28757457Y26690244D01*
X28757457Y26690244D02*
X28852695Y26737863D01*
X28852695Y26737863D02*
X29043171Y26785482D01*
X29043171Y26785482D02*
X29281266Y26785482D01*
X29281266Y26785482D02*
X29471742Y26737863D01*
X29471742Y26737863D02*
X29566980Y26690244D01*
X29566980Y26690244D02*
X29614600Y26642625D01*
X29614600Y26642625D02*
X29662219Y26547387D01*
X29662219Y26547387D02*
X29662219Y26452149D01*
X29662219Y26452149D02*
X29614600Y26356911D01*
X29614600Y26356911D02*
X29566980Y26309292D01*
X29566980Y26309292D02*
X29471742Y26261673D01*
X29471742Y26261673D02*
X29281266Y26214054D01*
X29281266Y26214054D02*
X29043171Y26214054D01*
X29043171Y26214054D02*
X28852695Y26261673D01*
X28852695Y26261673D02*
X28757457Y26309292D01*
X28757457Y26309292D02*
X28709838Y26356911D01*
X28709838Y26356911D02*
X28662219Y26452149D01*
X28662219Y27118816D02*
X28662219Y27785482D01*
X28662219Y27785482D02*
X29662219Y27356911D01*
X4318095Y-515838D02*
X4222857Y-468219D01*
X4222857Y-468219D02*
X4080000Y-468219D01*
X4080000Y-468219D02*
X3937143Y-515838D01*
X3937143Y-515838D02*
X3841905Y-611076D01*
X3841905Y-611076D02*
X3794286Y-706314D01*
X3794286Y-706314D02*
X3746667Y-896790D01*
X3746667Y-896790D02*
X3746667Y-1039647D01*
X3746667Y-1039647D02*
X3794286Y-1230123D01*
X3794286Y-1230123D02*
X3841905Y-1325361D01*
X3841905Y-1325361D02*
X3937143Y-1420600D01*
X3937143Y-1420600D02*
X4080000Y-1468219D01*
X4080000Y-1468219D02*
X4175238Y-1468219D01*
X4175238Y-1468219D02*
X4318095Y-1420600D01*
X4318095Y-1420600D02*
X4365714Y-1372980D01*
X4365714Y-1372980D02*
X4365714Y-1039647D01*
X4365714Y-1039647D02*
X4175238Y-1039647D01*
X4794286Y-1468219D02*
X4794286Y-468219D01*
X4794286Y-468219D02*
X5365714Y-1468219D01*
X5365714Y-1468219D02*
X5365714Y-468219D01*
X5841905Y-1468219D02*
X5841905Y-468219D01*
X5841905Y-468219D02*
X6080000Y-468219D01*
X6080000Y-468219D02*
X6222857Y-515838D01*
X6222857Y-515838D02*
X6318095Y-611076D01*
X6318095Y-611076D02*
X6365714Y-706314D01*
X6365714Y-706314D02*
X6413333Y-896790D01*
X6413333Y-896790D02*
X6413333Y-1039647D01*
X6413333Y-1039647D02*
X6365714Y-1230123D01*
X6365714Y-1230123D02*
X6318095Y-1325361D01*
X6318095Y-1325361D02*
X6222857Y-1420600D01*
X6222857Y-1420600D02*
X6080000Y-1468219D01*
X6080000Y-1468219D02*
X5841905Y-1468219D01*
X30607000Y3706971D02*
X30607000Y3230780D01*
X30273667Y4230780D02*
X30607000Y3706971D01*
X30607000Y3706971D02*
X30940333Y4230780D01*
X23582619Y8532971D02*
X23582619Y8056780D01*
X23249286Y9056780D02*
X23582619Y8532971D01*
X23582619Y8532971D02*
X23915952Y9056780D01*
X24249286Y8152019D02*
X24296905Y8104400D01*
X24296905Y8104400D02*
X24249286Y8056780D01*
X24249286Y8056780D02*
X24201667Y8104400D01*
X24201667Y8104400D02*
X24249286Y8152019D01*
X24249286Y8152019D02*
X24249286Y8056780D01*
X24249286Y8675828D02*
X24296905Y8628209D01*
X24296905Y8628209D02*
X24249286Y8580590D01*
X24249286Y8580590D02*
X24201667Y8628209D01*
X24201667Y8628209D02*
X24249286Y8675828D01*
X24249286Y8675828D02*
X24249286Y8580590D01*
X25677857Y9056780D02*
X25773095Y9056780D01*
X25773095Y9056780D02*
X25868333Y9009161D01*
X25868333Y9009161D02*
X25915952Y8961542D01*
X25915952Y8961542D02*
X25963571Y8866304D01*
X25963571Y8866304D02*
X26011190Y8675828D01*
X26011190Y8675828D02*
X26011190Y8437733D01*
X26011190Y8437733D02*
X25963571Y8247257D01*
X25963571Y8247257D02*
X25915952Y8152019D01*
X25915952Y8152019D02*
X25868333Y8104400D01*
X25868333Y8104400D02*
X25773095Y8056780D01*
X25773095Y8056780D02*
X25677857Y8056780D01*
X25677857Y8056780D02*
X25582619Y8104400D01*
X25582619Y8104400D02*
X25535000Y8152019D01*
X25535000Y8152019D02*
X25487381Y8247257D01*
X25487381Y8247257D02*
X25439762Y8437733D01*
X25439762Y8437733D02*
X25439762Y8675828D01*
X25439762Y8675828D02*
X25487381Y8866304D01*
X25487381Y8866304D02*
X25535000Y8961542D01*
X25535000Y8961542D02*
X25582619Y9009161D01*
X25582619Y9009161D02*
X25677857Y9056780D01*
X26344524Y8056780D02*
X26868333Y8723447D01*
X26344524Y8723447D02*
X26868333Y8056780D01*
X27201667Y8961542D02*
X27249286Y9009161D01*
X27249286Y9009161D02*
X27344524Y9056780D01*
X27344524Y9056780D02*
X27582619Y9056780D01*
X27582619Y9056780D02*
X27677857Y9009161D01*
X27677857Y9009161D02*
X27725476Y8961542D01*
X27725476Y8961542D02*
X27773095Y8866304D01*
X27773095Y8866304D02*
X27773095Y8771066D01*
X27773095Y8771066D02*
X27725476Y8628209D01*
X27725476Y8628209D02*
X27154048Y8056780D01*
X27154048Y8056780D02*
X27773095Y8056780D01*
X28630238Y9056780D02*
X28439762Y9056780D01*
X28439762Y9056780D02*
X28344524Y9009161D01*
X28344524Y9009161D02*
X28296905Y8961542D01*
X28296905Y8961542D02*
X28201667Y8818685D01*
X28201667Y8818685D02*
X28154048Y8628209D01*
X28154048Y8628209D02*
X28154048Y8247257D01*
X28154048Y8247257D02*
X28201667Y8152019D01*
X28201667Y8152019D02*
X28249286Y8104400D01*
X28249286Y8104400D02*
X28344524Y8056780D01*
X28344524Y8056780D02*
X28535000Y8056780D01*
X28535000Y8056780D02*
X28630238Y8104400D01*
X28630238Y8104400D02*
X28677857Y8152019D01*
X28677857Y8152019D02*
X28725476Y8247257D01*
X28725476Y8247257D02*
X28725476Y8485352D01*
X28725476Y8485352D02*
X28677857Y8580590D01*
X28677857Y8580590D02*
X28630238Y8628209D01*
X28630238Y8628209D02*
X28535000Y8675828D01*
X28535000Y8675828D02*
X28344524Y8675828D01*
X28344524Y8675828D02*
X28249286Y8628209D01*
X28249286Y8628209D02*
X28201667Y8580590D01*
X28201667Y8580590D02*
X28154048Y8485352D01*
X31615428Y8231400D02*
X31758285Y8183780D01*
X31758285Y8183780D02*
X31996380Y8183780D01*
X31996380Y8183780D02*
X32091618Y8231400D01*
X32091618Y8231400D02*
X32139237Y8279019D01*
X32139237Y8279019D02*
X32186856Y8374257D01*
X32186856Y8374257D02*
X32186856Y8469495D01*
X32186856Y8469495D02*
X32139237Y8564733D01*
X32139237Y8564733D02*
X32091618Y8612352D01*
X32091618Y8612352D02*
X31996380Y8659971D01*
X31996380Y8659971D02*
X31805904Y8707590D01*
X31805904Y8707590D02*
X31710666Y8755209D01*
X31710666Y8755209D02*
X31663047Y8802828D01*
X31663047Y8802828D02*
X31615428Y8898066D01*
X31615428Y8898066D02*
X31615428Y8993304D01*
X31615428Y8993304D02*
X31663047Y9088542D01*
X31663047Y9088542D02*
X31710666Y9136161D01*
X31710666Y9136161D02*
X31805904Y9183780D01*
X31805904Y9183780D02*
X32043999Y9183780D01*
X32043999Y9183780D02*
X32186856Y9136161D01*
X32615428Y8707590D02*
X32948761Y8707590D01*
X33091618Y8183780D02*
X32615428Y8183780D01*
X32615428Y8183780D02*
X32615428Y9183780D01*
X32615428Y9183780D02*
X33091618Y9183780D01*
X33377333Y9183780D02*
X33948761Y9183780D01*
X33663047Y8183780D02*
X33663047Y9183780D01*
X34996381Y8469495D02*
X35472571Y8469495D01*
X34901143Y8183780D02*
X35234476Y9183780D01*
X35234476Y9183780D02*
X35567809Y8183780D01*
X35901143Y8183780D02*
X35901143Y9183780D01*
X35901143Y9183780D02*
X36139238Y9183780D01*
X36139238Y9183780D02*
X36282095Y9136161D01*
X36282095Y9136161D02*
X36377333Y9040923D01*
X36377333Y9040923D02*
X36424952Y8945685D01*
X36424952Y8945685D02*
X36472571Y8755209D01*
X36472571Y8755209D02*
X36472571Y8612352D01*
X36472571Y8612352D02*
X36424952Y8421876D01*
X36424952Y8421876D02*
X36377333Y8326638D01*
X36377333Y8326638D02*
X36282095Y8231400D01*
X36282095Y8231400D02*
X36139238Y8183780D01*
X36139238Y8183780D02*
X35901143Y8183780D01*
X37472571Y8183780D02*
X37139238Y8659971D01*
X36901143Y8183780D02*
X36901143Y9183780D01*
X36901143Y9183780D02*
X37282095Y9183780D01*
X37282095Y9183780D02*
X37377333Y9136161D01*
X37377333Y9136161D02*
X37424952Y9088542D01*
X37424952Y9088542D02*
X37472571Y8993304D01*
X37472571Y8993304D02*
X37472571Y8850447D01*
X37472571Y8850447D02*
X37424952Y8755209D01*
X37424952Y8755209D02*
X37377333Y8707590D01*
X37377333Y8707590D02*
X37282095Y8659971D01*
X37282095Y8659971D02*
X36901143Y8659971D01*
X24157755Y4638991D02*
X24205374Y4591372D01*
X24205374Y4591372D02*
X24157755Y4543752D01*
X24157755Y4543752D02*
X24110136Y4591372D01*
X24110136Y4591372D02*
X24157755Y4638991D01*
X24157755Y4638991D02*
X24157755Y4543752D01*
X24157755Y5162800D02*
X24205374Y5115181D01*
X24205374Y5115181D02*
X24157755Y5067562D01*
X24157755Y5067562D02*
X24110136Y5115181D01*
X24110136Y5115181D02*
X24157755Y5162800D01*
X24157755Y5162800D02*
X24157755Y5067562D01*
X25586326Y5543752D02*
X25681564Y5543752D01*
X25681564Y5543752D02*
X25776802Y5496133D01*
X25776802Y5496133D02*
X25824421Y5448514D01*
X25824421Y5448514D02*
X25872040Y5353276D01*
X25872040Y5353276D02*
X25919659Y5162800D01*
X25919659Y5162800D02*
X25919659Y4924705D01*
X25919659Y4924705D02*
X25872040Y4734229D01*
X25872040Y4734229D02*
X25824421Y4638991D01*
X25824421Y4638991D02*
X25776802Y4591372D01*
X25776802Y4591372D02*
X25681564Y4543752D01*
X25681564Y4543752D02*
X25586326Y4543752D01*
X25586326Y4543752D02*
X25491088Y4591372D01*
X25491088Y4591372D02*
X25443469Y4638991D01*
X25443469Y4638991D02*
X25395850Y4734229D01*
X25395850Y4734229D02*
X25348231Y4924705D01*
X25348231Y4924705D02*
X25348231Y5162800D01*
X25348231Y5162800D02*
X25395850Y5353276D01*
X25395850Y5353276D02*
X25443469Y5448514D01*
X25443469Y5448514D02*
X25491088Y5496133D01*
X25491088Y5496133D02*
X25586326Y5543752D01*
X26252993Y4543752D02*
X26776802Y5210419D01*
X26252993Y5210419D02*
X26776802Y4543752D01*
X27110136Y5448514D02*
X27157755Y5496133D01*
X27157755Y5496133D02*
X27252993Y5543752D01*
X27252993Y5543752D02*
X27491088Y5543752D01*
X27491088Y5543752D02*
X27586326Y5496133D01*
X27586326Y5496133D02*
X27633945Y5448514D01*
X27633945Y5448514D02*
X27681564Y5353276D01*
X27681564Y5353276D02*
X27681564Y5258038D01*
X27681564Y5258038D02*
X27633945Y5115181D01*
X27633945Y5115181D02*
X27062517Y4543752D01*
X27062517Y4543752D02*
X27681564Y4543752D01*
X28633945Y4543752D02*
X28062517Y4543752D01*
X28348231Y4543752D02*
X28348231Y5543752D01*
X28348231Y5543752D02*
X28252993Y5400895D01*
X28252993Y5400895D02*
X28157755Y5305657D01*
X28157755Y5305657D02*
X28062517Y5258038D01*
X23967278Y3409999D02*
X23967278Y2933808D01*
X23633945Y3933808D02*
X23967278Y3409999D01*
X23967278Y3409999D02*
X24300611Y3933808D01*
X25586326Y3933808D02*
X25681564Y3933808D01*
X25681564Y3933808D02*
X25776802Y3886189D01*
X25776802Y3886189D02*
X25824421Y3838570D01*
X25824421Y3838570D02*
X25872040Y3743332D01*
X25872040Y3743332D02*
X25919659Y3552856D01*
X25919659Y3552856D02*
X25919659Y3314761D01*
X25919659Y3314761D02*
X25872040Y3124285D01*
X25872040Y3124285D02*
X25824421Y3029047D01*
X25824421Y3029047D02*
X25776802Y2981428D01*
X25776802Y2981428D02*
X25681564Y2933808D01*
X25681564Y2933808D02*
X25586326Y2933808D01*
X25586326Y2933808D02*
X25491088Y2981428D01*
X25491088Y2981428D02*
X25443469Y3029047D01*
X25443469Y3029047D02*
X25395850Y3124285D01*
X25395850Y3124285D02*
X25348231Y3314761D01*
X25348231Y3314761D02*
X25348231Y3552856D01*
X25348231Y3552856D02*
X25395850Y3743332D01*
X25395850Y3743332D02*
X25443469Y3838570D01*
X25443469Y3838570D02*
X25491088Y3886189D01*
X25491088Y3886189D02*
X25586326Y3933808D01*
X26252993Y2933808D02*
X26776802Y3600475D01*
X26252993Y3600475D02*
X26776802Y2933808D01*
X27110136Y3838570D02*
X27157755Y3886189D01*
X27157755Y3886189D02*
X27252993Y3933808D01*
X27252993Y3933808D02*
X27491088Y3933808D01*
X27491088Y3933808D02*
X27586326Y3886189D01*
X27586326Y3886189D02*
X27633945Y3838570D01*
X27633945Y3838570D02*
X27681564Y3743332D01*
X27681564Y3743332D02*
X27681564Y3648094D01*
X27681564Y3648094D02*
X27633945Y3505237D01*
X27633945Y3505237D02*
X27062517Y2933808D01*
X27062517Y2933808D02*
X27681564Y2933808D01*
X28300612Y3933808D02*
X28395850Y3933808D01*
X28395850Y3933808D02*
X28491088Y3886189D01*
X28491088Y3886189D02*
X28538707Y3838570D01*
X28538707Y3838570D02*
X28586326Y3743332D01*
X28586326Y3743332D02*
X28633945Y3552856D01*
X28633945Y3552856D02*
X28633945Y3314761D01*
X28633945Y3314761D02*
X28586326Y3124285D01*
X28586326Y3124285D02*
X28538707Y3029047D01*
X28538707Y3029047D02*
X28491088Y2981428D01*
X28491088Y2981428D02*
X28395850Y2933808D01*
X28395850Y2933808D02*
X28300612Y2933808D01*
X28300612Y2933808D02*
X28205374Y2981428D01*
X28205374Y2981428D02*
X28157755Y3029047D01*
X28157755Y3029047D02*
X28110136Y3124285D01*
X28110136Y3124285D02*
X28062517Y3314761D01*
X28062517Y3314761D02*
X28062517Y3552856D01*
X28062517Y3552856D02*
X28110136Y3743332D01*
X28110136Y3743332D02*
X28157755Y3838570D01*
X28157755Y3838570D02*
X28205374Y3886189D01*
X28205374Y3886189D02*
X28300612Y3933808D01*
X22042219Y-7370244D02*
X21042219Y-7370244D01*
X21042219Y-7370244D02*
X21042219Y-6989292D01*
X21042219Y-6989292D02*
X21089838Y-6894054D01*
X21089838Y-6894054D02*
X21137457Y-6846435D01*
X21137457Y-6846435D02*
X21232695Y-6798816D01*
X21232695Y-6798816D02*
X21375552Y-6798816D01*
X21375552Y-6798816D02*
X21470790Y-6846435D01*
X21470790Y-6846435D02*
X21518409Y-6894054D01*
X21518409Y-6894054D02*
X21566028Y-6989292D01*
X21566028Y-6989292D02*
X21566028Y-7370244D01*
X22042219Y-5846435D02*
X22042219Y-6417863D01*
X22042219Y-6132149D02*
X21042219Y-6132149D01*
X21042219Y-6132149D02*
X21185076Y-6227387D01*
X21185076Y-6227387D02*
X21280314Y-6322625D01*
X21280314Y-6322625D02*
X21327933Y-6417863D01*
X21042219Y-5513101D02*
X21042219Y-4894054D01*
X21042219Y-4894054D02*
X21423171Y-5227387D01*
X21423171Y-5227387D02*
X21423171Y-5084530D01*
X21423171Y-5084530D02*
X21470790Y-4989292D01*
X21470790Y-4989292D02*
X21518409Y-4941673D01*
X21518409Y-4941673D02*
X21613647Y-4894054D01*
X21613647Y-4894054D02*
X21851742Y-4894054D01*
X21851742Y-4894054D02*
X21946980Y-4941673D01*
X21946980Y-4941673D02*
X21994600Y-4989292D01*
X21994600Y-4989292D02*
X22042219Y-5084530D01*
X22042219Y-5084530D02*
X22042219Y-5370244D01*
X22042219Y-5370244D02*
X21994600Y-5465482D01*
X21994600Y-5465482D02*
X21946980Y-5513101D01*
X23836619Y11200019D02*
X23884238Y11152400D01*
X23884238Y11152400D02*
X23836619Y11104780D01*
X23836619Y11104780D02*
X23789000Y11152400D01*
X23789000Y11152400D02*
X23836619Y11200019D01*
X23836619Y11200019D02*
X23836619Y11104780D01*
X23836619Y11723828D02*
X23884238Y11676209D01*
X23884238Y11676209D02*
X23836619Y11628590D01*
X23836619Y11628590D02*
X23789000Y11676209D01*
X23789000Y11676209D02*
X23836619Y11723828D01*
X23836619Y11723828D02*
X23836619Y11628590D01*
X24312809Y11200019D02*
X24360428Y11152400D01*
X24360428Y11152400D02*
X24312809Y11104780D01*
X24312809Y11104780D02*
X24265190Y11152400D01*
X24265190Y11152400D02*
X24312809Y11200019D01*
X24312809Y11200019D02*
X24312809Y11104780D01*
X24312809Y11723828D02*
X24360428Y11676209D01*
X24360428Y11676209D02*
X24312809Y11628590D01*
X24312809Y11628590D02*
X24265190Y11676209D01*
X24265190Y11676209D02*
X24312809Y11723828D01*
X24312809Y11723828D02*
X24312809Y11628590D01*
X25741380Y12104780D02*
X25836618Y12104780D01*
X25836618Y12104780D02*
X25931856Y12057161D01*
X25931856Y12057161D02*
X25979475Y12009542D01*
X25979475Y12009542D02*
X26027094Y11914304D01*
X26027094Y11914304D02*
X26074713Y11723828D01*
X26074713Y11723828D02*
X26074713Y11485733D01*
X26074713Y11485733D02*
X26027094Y11295257D01*
X26027094Y11295257D02*
X25979475Y11200019D01*
X25979475Y11200019D02*
X25931856Y11152400D01*
X25931856Y11152400D02*
X25836618Y11104780D01*
X25836618Y11104780D02*
X25741380Y11104780D01*
X25741380Y11104780D02*
X25646142Y11152400D01*
X25646142Y11152400D02*
X25598523Y11200019D01*
X25598523Y11200019D02*
X25550904Y11295257D01*
X25550904Y11295257D02*
X25503285Y11485733D01*
X25503285Y11485733D02*
X25503285Y11723828D01*
X25503285Y11723828D02*
X25550904Y11914304D01*
X25550904Y11914304D02*
X25598523Y12009542D01*
X25598523Y12009542D02*
X25646142Y12057161D01*
X25646142Y12057161D02*
X25741380Y12104780D01*
X26408047Y11104780D02*
X26931856Y11771447D01*
X26408047Y11771447D02*
X26931856Y11104780D01*
X27265190Y12009542D02*
X27312809Y12057161D01*
X27312809Y12057161D02*
X27408047Y12104780D01*
X27408047Y12104780D02*
X27646142Y12104780D01*
X27646142Y12104780D02*
X27741380Y12057161D01*
X27741380Y12057161D02*
X27788999Y12009542D01*
X27788999Y12009542D02*
X27836618Y11914304D01*
X27836618Y11914304D02*
X27836618Y11819066D01*
X27836618Y11819066D02*
X27788999Y11676209D01*
X27788999Y11676209D02*
X27217571Y11104780D01*
X27217571Y11104780D02*
X27836618Y11104780D01*
X28169952Y12104780D02*
X28836618Y12104780D01*
X28836618Y12104780D02*
X28408047Y11104780D01*
D12*
%TO.C,J8*%
X10160000Y6096000D02*
X12700000Y6096000D01*
X10160000Y6096000D02*
X10160000Y8636000D01*
X12700000Y6096000D02*
X12700000Y8636000D01*
X10160000Y8636000D02*
X10160000Y11176000D01*
X12700000Y8636000D02*
X12700000Y11176000D01*
X12700000Y11176000D02*
X10160000Y11176000D01*
%TO.C,J3*%
X33020000Y11430000D02*
X35560000Y11430000D01*
X38100000Y11430000D02*
X35560000Y11430000D01*
X38100000Y11430000D02*
X38100000Y19050000D01*
X33020000Y13970000D02*
X33020000Y11430000D01*
X33020000Y19050000D02*
X33020000Y13970000D01*
X38100000Y19050000D02*
X33020000Y19050000D01*
%TO.C,J1*%
X7620000Y19050000D02*
X5080000Y19050000D01*
X7620000Y19050000D02*
X7620000Y13970000D01*
X2540000Y19050000D02*
X5080000Y19050000D01*
X2540000Y19050000D02*
X2540000Y13970000D01*
X2540000Y13970000D02*
X7620000Y13970000D01*
%TO.C,J2*%
X2540000Y0D02*
X5080000Y0D01*
X2540000Y0D02*
X2540000Y2540000D01*
X7620000Y0D02*
X5080000Y0D01*
X7620000Y0D02*
X7620000Y7620000D01*
X2540000Y2540000D02*
X2540000Y3810000D01*
X7620000Y5080000D02*
X7620000Y7620000D01*
X7620000Y5080000D02*
X7620000Y7620000D01*
X2540000Y6350000D02*
X2540000Y3810000D01*
X7620000Y7620000D02*
X7620000Y10160000D01*
X7620000Y7620000D02*
X7620000Y10160000D01*
X2540000Y8890000D02*
X2540000Y11430000D01*
X2540000Y8890000D02*
X2540000Y11430000D01*
X2540000Y8890000D02*
X2540000Y11430000D01*
X2540000Y8890000D02*
X2540000Y11430000D01*
X2540000Y10160000D02*
X2540000Y12700000D01*
X2540000Y10160000D02*
X2540000Y12700000D01*
X7620000Y10160000D02*
X7620000Y12700000D01*
X7620000Y10160000D02*
X7620000Y12700000D01*
X2540000Y11430000D02*
X2540000Y6350000D01*
X7620000Y12700000D02*
X2540000Y12700000D01*
X7620000Y12700000D02*
X2540000Y12700000D01*
%TO.C,J5*%
X15240000Y11176000D02*
X12700000Y11176000D01*
X15240000Y11176000D02*
X15240000Y8636000D01*
X12700000Y11176000D02*
X12700000Y8636000D01*
X15240000Y8636000D02*
X15240000Y6096000D01*
X12700000Y8636000D02*
X12700000Y6096000D01*
X12700000Y6096000D02*
X15240000Y6096000D01*
%TO.C,J6*%
X10160000Y24130000D02*
X10160000Y21590000D01*
X10160000Y24130000D02*
X12700000Y24130000D01*
X10160000Y19050000D02*
X10160000Y21590000D01*
X10160000Y19050000D02*
X17780000Y19050000D01*
X15240000Y24130000D02*
X12700000Y24130000D01*
X15240000Y24130000D02*
X12700000Y24130000D01*
X15240000Y24130000D02*
X12700000Y24130000D01*
X15240000Y24130000D02*
X12700000Y24130000D01*
X15240000Y19050000D02*
X17780000Y19050000D01*
X15240000Y19050000D02*
X17780000Y19050000D01*
X17780000Y24130000D02*
X19050000Y24130000D01*
X17780000Y24130000D02*
X20320000Y24130000D01*
X17780000Y24130000D02*
X20320000Y24130000D01*
X17780000Y24130000D02*
X20320000Y24130000D01*
X17780000Y24130000D02*
X20320000Y24130000D01*
X17780000Y19050000D02*
X20320000Y19050000D01*
X17780000Y19050000D02*
X20320000Y19050000D01*
X20320000Y24130000D02*
X15240000Y24130000D01*
X20320000Y24130000D02*
X17780000Y24130000D01*
X20320000Y24130000D02*
X17780000Y24130000D01*
X20320000Y19050000D02*
X22860000Y19050000D01*
X20320000Y19050000D02*
X22860000Y19050000D01*
X21590000Y24130000D02*
X19050000Y24130000D01*
X21590000Y24130000D02*
X19050000Y24130000D01*
X22860000Y19050000D02*
X25400000Y19050000D01*
X22860000Y19050000D02*
X25400000Y19050000D01*
X24130000Y24130000D02*
X26670000Y24130000D01*
X24130000Y24130000D02*
X26670000Y24130000D01*
X24130000Y24130000D02*
X26670000Y24130000D01*
X24130000Y24130000D02*
X26670000Y24130000D01*
X25400000Y24130000D02*
X27940000Y24130000D01*
X25400000Y24130000D02*
X27940000Y24130000D01*
X25400000Y24130000D02*
X27940000Y24130000D01*
X25400000Y24130000D02*
X27940000Y24130000D01*
X25400000Y19050000D02*
X27940000Y19050000D01*
X25400000Y19050000D02*
X27940000Y19050000D01*
X26670000Y24130000D02*
X21590000Y24130000D01*
X27940000Y24130000D02*
X30480000Y24130000D01*
X27940000Y24130000D02*
X30480000Y24130000D01*
X27940000Y24130000D02*
X30480000Y24130000D01*
X27940000Y24130000D02*
X30480000Y24130000D01*
X27940000Y19050000D02*
X30480000Y19050000D01*
X27940000Y19050000D02*
X30480000Y19050000D01*
X30480000Y19050000D02*
X30480000Y24130000D01*
X30480000Y19050000D02*
X30480000Y24130000D01*
%TO.C,J7*%
X30480000Y-3810000D02*
X30480000Y-1270000D01*
X30480000Y-3810000D02*
X27940000Y-3810000D01*
X30480000Y1270000D02*
X30480000Y-1270000D01*
X30480000Y1270000D02*
X22860000Y1270000D01*
X25400000Y-3810000D02*
X27940000Y-3810000D01*
X25400000Y-3810000D02*
X27940000Y-3810000D01*
X25400000Y-3810000D02*
X27940000Y-3810000D01*
X25400000Y-3810000D02*
X27940000Y-3810000D01*
X25400000Y1270000D02*
X22860000Y1270000D01*
X25400000Y1270000D02*
X22860000Y1270000D01*
X22860000Y-3810000D02*
X21590000Y-3810000D01*
X22860000Y-3810000D02*
X20320000Y-3810000D01*
X22860000Y-3810000D02*
X20320000Y-3810000D01*
X22860000Y-3810000D02*
X20320000Y-3810000D01*
X22860000Y-3810000D02*
X20320000Y-3810000D01*
X22860000Y1270000D02*
X20320000Y1270000D01*
X22860000Y1270000D02*
X20320000Y1270000D01*
X20320000Y-3810000D02*
X25400000Y-3810000D01*
X20320000Y-3810000D02*
X22860000Y-3810000D01*
X20320000Y-3810000D02*
X22860000Y-3810000D01*
X20320000Y1270000D02*
X17780000Y1270000D01*
X20320000Y1270000D02*
X17780000Y1270000D01*
X19050000Y-3810000D02*
X21590000Y-3810000D01*
X19050000Y-3810000D02*
X21590000Y-3810000D01*
X17780000Y1270000D02*
X15240000Y1270000D01*
X17780000Y1270000D02*
X15240000Y1270000D01*
X16510000Y-3810000D02*
X13970000Y-3810000D01*
X16510000Y-3810000D02*
X13970000Y-3810000D01*
X16510000Y-3810000D02*
X13970000Y-3810000D01*
X16510000Y-3810000D02*
X13970000Y-3810000D01*
X15240000Y-3810000D02*
X12700000Y-3810000D01*
X15240000Y-3810000D02*
X12700000Y-3810000D01*
X15240000Y-3810000D02*
X12700000Y-3810000D01*
X15240000Y-3810000D02*
X12700000Y-3810000D01*
X15240000Y1270000D02*
X12700000Y1270000D01*
X15240000Y1270000D02*
X12700000Y1270000D01*
X13970000Y-3810000D02*
X19050000Y-3810000D01*
X12700000Y-3810000D02*
X10160000Y-3810000D01*
X12700000Y-3810000D02*
X10160000Y-3810000D01*
X12700000Y-3810000D02*
X10160000Y-3810000D01*
X12700000Y-3810000D02*
X10160000Y-3810000D01*
X12700000Y1270000D02*
X10160000Y1270000D01*
X12700000Y1270000D02*
X10160000Y1270000D01*
X10160000Y1270000D02*
X10160000Y-3810000D01*
X10160000Y1270000D02*
X10160000Y-3810000D01*
%TO.C,J4*%
X31877000Y7493000D02*
X31877000Y4953000D01*
X31877000Y7493000D02*
X34417000Y7493000D01*
X31877000Y4953000D02*
X34417000Y4953000D01*
X34417000Y7493000D02*
X36957000Y7493000D01*
X34417000Y4953000D02*
X36957000Y4953000D01*
X36957000Y4953000D02*
X36957000Y7493000D01*
%TO.C,J9*%
X36957000Y2413000D02*
X36957000Y4953000D01*
X36957000Y2413000D02*
X34417000Y2413000D01*
X36957000Y4953000D02*
X34417000Y4953000D01*
X34417000Y2413000D02*
X31877000Y2413000D01*
X34417000Y4953000D02*
X31877000Y4953000D01*
X31877000Y4953000D02*
X31877000Y2413000D01*
%TD*%
D13*
%TO.C,J8*%
X11430000Y7366000D03*
X11430000Y9906000D03*
%TD*%
%TO.C,J3*%
X36830000Y12700000D03*
X36830000Y15240000D03*
X36830000Y17780000D03*
X34290000Y17780000D03*
X34290000Y15240000D03*
X34290000Y12700000D03*
%TD*%
%TO.C,J1*%
X3810000Y17780000D03*
X3810000Y15240000D03*
X6350000Y15240000D03*
X6350000Y17780000D03*
%TD*%
%TO.C,J2*%
X6350000Y1270000D03*
X6350000Y3810000D03*
X6350000Y6350000D03*
X6350000Y8890000D03*
X6350000Y11430000D03*
X3810000Y11430000D03*
X3810000Y8890000D03*
X3810000Y6350000D03*
X3810000Y3810000D03*
X3810000Y1270000D03*
%TD*%
%TO.C,J5*%
X13970000Y9906000D03*
X13970000Y7366000D03*
%TD*%
%TO.C,J6*%
X11430000Y20320000D03*
X13970000Y20320000D03*
X16510000Y20320000D03*
X19050000Y20320000D03*
X21590000Y20320000D03*
X24130000Y20320000D03*
X26670000Y20320000D03*
X29210000Y20320000D03*
X29210000Y22860000D03*
X26670000Y22860000D03*
X24130000Y22860000D03*
X21590000Y22860000D03*
X19050000Y22860000D03*
X16510000Y22860000D03*
X13970000Y22860000D03*
X11430000Y22860000D03*
%TD*%
%TO.C,J7*%
X29210000Y0D03*
X26670000Y0D03*
X24130000Y0D03*
X21590000Y0D03*
X19050000Y0D03*
X16510000Y0D03*
X13970000Y0D03*
X11430000Y0D03*
X11430000Y-2540000D03*
X13970000Y-2540000D03*
X16510000Y-2540000D03*
X19050000Y-2540000D03*
X21590000Y-2540000D03*
X24130000Y-2540000D03*
X26670000Y-2540000D03*
X29210000Y-2540000D03*
%TD*%
%TO.C,J4*%
X33147000Y6223000D03*
X35687000Y6223000D03*
%TD*%
%TO.C,J9*%
X35687000Y3683000D03*
X33147000Y3683000D03*
%TD*%
M02*
