M48
; DRILL file {KiCad 8.0.3+1} date 2024-07-16T01:17:04+0000
; FORMAT={3:3/ absolute / metric / suppress leading zeros}
; #@! TF.CreationDate,2024-07-16T01:17:04+00:00
; #@! TF.GenerationSoftware,Kicad,Pcbnew,8.0.3+1
; #@! TF.FileFunction,Plated,1,2,PTH
FMAT,2
METRIC,TZ
; #@! TA.AperFunction,Plated,PTH,ViaDrill
T1C0.635
; #@! TA.AperFunction,Plated,PTH,ComponentDrill
T2C0.900
; #@! TA.AperFunction,Plated,PTH,ComponentDrill
T3C3.000
%
G90
G05
T1
X9398Y-6096
X9652Y27432
X17780Y13716
T2
X3810Y17780
X3810Y15240
X3810Y11430
X3810Y8890
X3810Y6350
X3810Y3810
X3810Y1270
X6350Y17780
X6350Y15240
X6350Y11430
X6350Y8890
X6350Y6350
X6350Y3810
X6350Y1270
X11430Y22860
X11430Y20320
X11430Y9906
X11430Y7366
X11430Y0
X11430Y-2540
X13970Y22860
X13970Y20320
X13970Y9906
X13970Y7366
X13970Y0
X13970Y-2540
X16510Y22860
X16510Y20320
X16510Y0
X16510Y-2540
X19050Y22860
X19050Y20320
X19050Y0
X19050Y-2540
X21590Y22860
X21590Y20320
X21590Y0
X21590Y-2540
X24130Y22860
X24130Y20320
X24130Y0
X24130Y-2540
X26670Y22860
X26670Y20320
X26670Y0
X26670Y-2540
X29210Y22860
X29210Y20320
X29210Y0
X29210Y-2540
X33147Y6223
X33147Y3683
X34290Y17780
X34290Y15240
X34290Y12700
X35687Y6223
X35687Y3683
X36830Y17780
X36830Y15240
X36830Y12700
T3
X5050Y25400
X5080Y-5080
X35560Y25400
X35560Y-5080
M30
