%TF.GenerationSoftware,KiCad,Pcbnew,8.0.3+1*%
%TF.CreationDate,2024-07-16T01:17:04+00:00*%
%TF.ProjectId,I2CIO01,49324349-4f30-4312-9e6b-696361645f70,rev?*%
%TF.SameCoordinates,Original*%
%TF.FileFunction,Copper,L2,Bot*%
%TF.FilePolarity,Positive*%
%FSLAX46Y46*%
G04 Gerber Fmt 4.6, Leading zero omitted, Abs format (unit mm)*
G04 Created by KiCad (PCBNEW 8.0.3+1) date 2024-07-16 01:17:04*
%MOMM*%
%LPD*%
G01*
G04 APERTURE LIST*
%ADD10C,0.200000*%
%TA.AperFunction,NonConductor*%
%ADD11C,0.200000*%
%TD*%
%TA.AperFunction,ComponentPad*%
%ADD12R,1.651000X1.651000*%
%TD*%
%TA.AperFunction,ComponentPad*%
%ADD13C,6.000000*%
%TD*%
%TA.AperFunction,SMDPad,CuDef*%
%ADD14R,1.397000X0.889000*%
%TD*%
%TA.AperFunction,SMDPad,CuDef*%
%ADD15R,0.419100X1.470660*%
%TD*%
%TA.AperFunction,SMDPad,CuDef*%
%ADD16R,1.300480X1.699260*%
%TD*%
%TA.AperFunction,ViaPad*%
%ADD17C,0.889000*%
%TD*%
%TA.AperFunction,Conductor*%
%ADD18C,0.508000*%
%TD*%
%TA.AperFunction,Conductor*%
%ADD19C,0.381000*%
%TD*%
G04 APERTURE END LIST*
D10*
D11*
X31630719Y-2008548D02*
X30630719Y-2008548D01*
X30630719Y-2008548D02*
X31345004Y-2341881D01*
X31345004Y-2341881D02*
X30630719Y-2675214D01*
X30630719Y-2675214D02*
X31630719Y-2675214D01*
X31630719Y-3627595D02*
X31630719Y-3151405D01*
X31630719Y-3151405D02*
X30630719Y-3151405D01*
X31345004Y-3913310D02*
X31345004Y-4389500D01*
X31630719Y-3818072D02*
X30630719Y-4151405D01*
X30630719Y-4151405D02*
X31630719Y-4484738D01*
X31106909Y-5151405D02*
X31154528Y-5294262D01*
X31154528Y-5294262D02*
X31202147Y-5341881D01*
X31202147Y-5341881D02*
X31297385Y-5389500D01*
X31297385Y-5389500D02*
X31440242Y-5389500D01*
X31440242Y-5389500D02*
X31535480Y-5341881D01*
X31535480Y-5341881D02*
X31583100Y-5294262D01*
X31583100Y-5294262D02*
X31630719Y-5199024D01*
X31630719Y-5199024D02*
X31630719Y-4818072D01*
X31630719Y-4818072D02*
X30630719Y-4818072D01*
X30630719Y-4818072D02*
X30630719Y-5151405D01*
X30630719Y-5151405D02*
X30678338Y-5246643D01*
X30678338Y-5246643D02*
X30725957Y-5294262D01*
X30725957Y-5294262D02*
X30821195Y-5341881D01*
X30821195Y-5341881D02*
X30916433Y-5341881D01*
X30916433Y-5341881D02*
X31011671Y-5294262D01*
X31011671Y-5294262D02*
X31059290Y-5246643D01*
X31059290Y-5246643D02*
X31106909Y-5151405D01*
X31106909Y-5151405D02*
X31106909Y-4818072D01*
X31535480Y-5818072D02*
X31583100Y-5865691D01*
X31583100Y-5865691D02*
X31630719Y-5818072D01*
X31630719Y-5818072D02*
X31583100Y-5770453D01*
X31583100Y-5770453D02*
X31535480Y-5818072D01*
X31535480Y-5818072D02*
X31630719Y-5818072D01*
X31535480Y-6865690D02*
X31583100Y-6818071D01*
X31583100Y-6818071D02*
X31630719Y-6675214D01*
X31630719Y-6675214D02*
X31630719Y-6579976D01*
X31630719Y-6579976D02*
X31583100Y-6437119D01*
X31583100Y-6437119D02*
X31487861Y-6341881D01*
X31487861Y-6341881D02*
X31392623Y-6294262D01*
X31392623Y-6294262D02*
X31202147Y-6246643D01*
X31202147Y-6246643D02*
X31059290Y-6246643D01*
X31059290Y-6246643D02*
X30868814Y-6294262D01*
X30868814Y-6294262D02*
X30773576Y-6341881D01*
X30773576Y-6341881D02*
X30678338Y-6437119D01*
X30678338Y-6437119D02*
X30630719Y-6579976D01*
X30630719Y-6579976D02*
X30630719Y-6675214D01*
X30630719Y-6675214D02*
X30678338Y-6818071D01*
X30678338Y-6818071D02*
X30725957Y-6865690D01*
X30630719Y-7199024D02*
X30630719Y-7865690D01*
X30630719Y-7865690D02*
X31630719Y-7199024D01*
X31630719Y-7199024D02*
X31630719Y-7865690D01*
D10*
D11*
X38679046Y-706219D02*
X38679046Y293780D01*
X38250475Y198542D02*
X38202856Y246161D01*
X38202856Y246161D02*
X38107618Y293780D01*
X38107618Y293780D02*
X37869523Y293780D01*
X37869523Y293780D02*
X37774285Y246161D01*
X37774285Y246161D02*
X37726666Y198542D01*
X37726666Y198542D02*
X37679047Y103304D01*
X37679047Y103304D02*
X37679047Y8066D01*
X37679047Y8066D02*
X37726666Y-134790D01*
X37726666Y-134790D02*
X38298094Y-706219D01*
X38298094Y-706219D02*
X37679047Y-706219D01*
X36679047Y-610980D02*
X36726666Y-658600D01*
X36726666Y-658600D02*
X36869523Y-706219D01*
X36869523Y-706219D02*
X36964761Y-706219D01*
X36964761Y-706219D02*
X37107618Y-658600D01*
X37107618Y-658600D02*
X37202856Y-563361D01*
X37202856Y-563361D02*
X37250475Y-468123D01*
X37250475Y-468123D02*
X37298094Y-277647D01*
X37298094Y-277647D02*
X37298094Y-134790D01*
X37298094Y-134790D02*
X37250475Y55685D01*
X37250475Y55685D02*
X37202856Y150923D01*
X37202856Y150923D02*
X37107618Y246161D01*
X37107618Y246161D02*
X36964761Y293780D01*
X36964761Y293780D02*
X36869523Y293780D01*
X36869523Y293780D02*
X36726666Y246161D01*
X36726666Y246161D02*
X36679047Y198542D01*
X36250475Y-706219D02*
X36250475Y293780D01*
X35583809Y293780D02*
X35393333Y293780D01*
X35393333Y293780D02*
X35298095Y246161D01*
X35298095Y246161D02*
X35202857Y150923D01*
X35202857Y150923D02*
X35155238Y-39552D01*
X35155238Y-39552D02*
X35155238Y-372885D01*
X35155238Y-372885D02*
X35202857Y-563361D01*
X35202857Y-563361D02*
X35298095Y-658600D01*
X35298095Y-658600D02*
X35393333Y-706219D01*
X35393333Y-706219D02*
X35583809Y-706219D01*
X35583809Y-706219D02*
X35679047Y-658600D01*
X35679047Y-658600D02*
X35774285Y-563361D01*
X35774285Y-563361D02*
X35821904Y-372885D01*
X35821904Y-372885D02*
X35821904Y-39552D01*
X35821904Y-39552D02*
X35774285Y150923D01*
X35774285Y150923D02*
X35679047Y246161D01*
X35679047Y246161D02*
X35583809Y293780D01*
X34536190Y293780D02*
X34440952Y293780D01*
X34440952Y293780D02*
X34345714Y246161D01*
X34345714Y246161D02*
X34298095Y198542D01*
X34298095Y198542D02*
X34250476Y103304D01*
X34250476Y103304D02*
X34202857Y-87171D01*
X34202857Y-87171D02*
X34202857Y-325266D01*
X34202857Y-325266D02*
X34250476Y-515742D01*
X34250476Y-515742D02*
X34298095Y-610980D01*
X34298095Y-610980D02*
X34345714Y-658600D01*
X34345714Y-658600D02*
X34440952Y-706219D01*
X34440952Y-706219D02*
X34536190Y-706219D01*
X34536190Y-706219D02*
X34631428Y-658600D01*
X34631428Y-658600D02*
X34679047Y-610980D01*
X34679047Y-610980D02*
X34726666Y-515742D01*
X34726666Y-515742D02*
X34774285Y-325266D01*
X34774285Y-325266D02*
X34774285Y-87171D01*
X34774285Y-87171D02*
X34726666Y103304D01*
X34726666Y103304D02*
X34679047Y198542D01*
X34679047Y198542D02*
X34631428Y246161D01*
X34631428Y246161D02*
X34536190Y293780D01*
X33250476Y-706219D02*
X33821904Y-706219D01*
X33536190Y-706219D02*
X33536190Y293780D01*
X33536190Y293780D02*
X33631428Y150923D01*
X33631428Y150923D02*
X33726666Y55685D01*
X33726666Y55685D02*
X33821904Y8066D01*
X32869523Y-420504D02*
X32393333Y-420504D01*
X32964761Y-706219D02*
X32631428Y293780D01*
X32631428Y293780D02*
X32298095Y-706219D01*
D12*
%TO.P,J8,1*%
%TO.N,Net-(J2-Pad3)*%
X11430000Y7366000D03*
%TO.P,J8,2*%
%TO.N,VDD*%
X11430000Y9906000D03*
%TD*%
D13*
%TO.P,P1,1*%
%TO.N,GND*%
X5080000Y-5080000D03*
%TD*%
%TO.P,P2,1*%
%TO.N,GND*%
X35560000Y25400000D03*
%TD*%
%TO.P,P3,1*%
%TO.N,GND*%
X5050000Y25400000D03*
%TD*%
%TO.P,P4,1*%
%TO.N,GND*%
X35560000Y-5080000D03*
%TD*%
D12*
%TO.P,J3,1*%
%TO.N,GND*%
X36830000Y12700000D03*
%TO.P,J3,2*%
%TO.N,VDD*%
X36830000Y15240000D03*
%TO.P,J3,3*%
%TO.N,GND*%
X36830000Y17780000D03*
%TO.P,J3,4*%
X34290000Y17780000D03*
%TO.P,J3,5*%
%TO.N,VDD*%
X34290000Y15240000D03*
%TO.P,J3,6*%
%TO.N,GND*%
X34290000Y12700000D03*
%TD*%
%TO.P,J1,1*%
%TO.N,/#RES*%
X3810000Y17780000D03*
%TO.P,J1,2*%
%TO.N,/#INT*%
X3810000Y15240000D03*
%TO.P,J1,3*%
X6350000Y15240000D03*
%TO.P,J1,4*%
%TO.N,/#RES*%
X6350000Y17780000D03*
%TD*%
%TO.P,J2,1*%
%TO.N,GND*%
X6350000Y1270000D03*
%TO.P,J2,2*%
%TO.N,/SCL*%
X6350000Y3810000D03*
%TO.P,J2,3*%
%TO.N,Net-(J2-Pad3)*%
X6350000Y6350000D03*
%TO.P,J2,4*%
%TO.N,/SDA*%
X6350000Y8890000D03*
%TO.P,J2,5*%
%TO.N,GND*%
X6350000Y11430000D03*
%TO.P,J2,6*%
X3810000Y11430000D03*
%TO.P,J2,7*%
%TO.N,/SDA*%
X3810000Y8890000D03*
%TO.P,J2,8*%
%TO.N,Net-(J2-Pad3)*%
X3810000Y6350000D03*
%TO.P,J2,9*%
%TO.N,/SCL*%
X3810000Y3810000D03*
%TO.P,J2,10*%
%TO.N,GND*%
X3810000Y1270000D03*
%TD*%
%TO.P,J5,1*%
%TO.N,VDD*%
X13970000Y9906000D03*
%TO.P,J5,2*%
%TO.N,/Vccp*%
X13970000Y7366000D03*
%TD*%
%TO.P,J6,1*%
%TO.N,/P00*%
X11430000Y20320000D03*
%TO.P,J6,2*%
%TO.N,/P01*%
X13970000Y20320000D03*
%TO.P,J6,3*%
%TO.N,/P02*%
X16510000Y20320000D03*
%TO.P,J6,4*%
%TO.N,/P03*%
X19050000Y20320000D03*
%TO.P,J6,5*%
%TO.N,/P04*%
X21590000Y20320000D03*
%TO.P,J6,6*%
%TO.N,/P05*%
X24130000Y20320000D03*
%TO.P,J6,7*%
%TO.N,/P06*%
X26670000Y20320000D03*
%TO.P,J6,8*%
%TO.N,/P07*%
X29210000Y20320000D03*
%TO.P,J6,9*%
X29210000Y22860000D03*
%TO.P,J6,10*%
%TO.N,/P06*%
X26670000Y22860000D03*
%TO.P,J6,11*%
%TO.N,/P05*%
X24130000Y22860000D03*
%TO.P,J6,12*%
%TO.N,/P04*%
X21590000Y22860000D03*
%TO.P,J6,13*%
%TO.N,/P03*%
X19050000Y22860000D03*
%TO.P,J6,14*%
%TO.N,/P02*%
X16510000Y22860000D03*
%TO.P,J6,15*%
%TO.N,/P01*%
X13970000Y22860000D03*
%TO.P,J6,16*%
%TO.N,/P00*%
X11430000Y22860000D03*
%TD*%
%TO.P,J7,1*%
%TO.N,/P10*%
X29210000Y0D03*
%TO.P,J7,2*%
%TO.N,/P11*%
X26670000Y0D03*
%TO.P,J7,3*%
%TO.N,/P12*%
X24130000Y0D03*
%TO.P,J7,4*%
%TO.N,/P13*%
X21590000Y0D03*
%TO.P,J7,5*%
%TO.N,/P14*%
X19050000Y0D03*
%TO.P,J7,6*%
%TO.N,/P15*%
X16510000Y0D03*
%TO.P,J7,7*%
%TO.N,/P16*%
X13970000Y0D03*
%TO.P,J7,8*%
%TO.N,/P17*%
X11430000Y0D03*
%TO.P,J7,9*%
X11430000Y-2540000D03*
%TO.P,J7,10*%
%TO.N,/P16*%
X13970000Y-2540000D03*
%TO.P,J7,11*%
%TO.N,/P15*%
X16510000Y-2540000D03*
%TO.P,J7,12*%
%TO.N,/P14*%
X19050000Y-2540000D03*
%TO.P,J7,13*%
%TO.N,/P13*%
X21590000Y-2540000D03*
%TO.P,J7,14*%
%TO.N,/P12*%
X24130000Y-2540000D03*
%TO.P,J7,15*%
%TO.N,/P11*%
X26670000Y-2540000D03*
%TO.P,J7,16*%
%TO.N,/P10*%
X29210000Y-2540000D03*
%TD*%
%TO.P,J4,1*%
%TO.N,/#RES*%
X33147000Y6223000D03*
%TO.P,J4,2*%
%TO.N,GND*%
X35687000Y6223000D03*
%TD*%
%TO.P,J9,1*%
%TO.N,GND*%
X35687000Y3683000D03*
%TO.P,J9,2*%
%TO.N,/A0*%
X33147000Y3683000D03*
%TD*%
D14*
%TO.P,R1,1*%
%TO.N,Net-(J2-Pad3)*%
X8890000Y4889500D03*
%TO.P,R1,2*%
%TO.N,/SCL*%
X8890000Y2984500D03*
%TD*%
%TO.P,R2,1*%
%TO.N,VDD*%
X11303000Y12382500D03*
%TO.P,R2,2*%
%TO.N,/#INT*%
X11303000Y14287500D03*
%TD*%
%TO.P,R3,1*%
%TO.N,Net-(J2-Pad3)*%
X8890000Y6667500D03*
%TO.P,R3,2*%
%TO.N,/SDA*%
X8890000Y8572500D03*
%TD*%
%TO.P,R4,1*%
%TO.N,VDD*%
X13716000Y12382500D03*
%TO.P,R4,2*%
%TO.N,/#RES*%
X13716000Y14287500D03*
%TD*%
%TO.P,R6,1*%
%TO.N,/Vccp*%
X11430000Y-7429500D03*
%TO.P,R6,2*%
%TO.N,/P17*%
X11430000Y-5524500D03*
%TD*%
%TO.P,R7,1*%
%TO.N,/Vccp*%
X26670000Y27622500D03*
%TO.P,R7,2*%
%TO.N,/P06*%
X26670000Y25717500D03*
%TD*%
%TO.P,R8,1*%
%TO.N,/Vccp*%
X21590000Y-7429500D03*
%TO.P,R8,2*%
%TO.N,/P13*%
X21590000Y-5524500D03*
%TD*%
%TO.P,R9,1*%
%TO.N,/Vccp*%
X24130000Y27622500D03*
%TO.P,R9,2*%
%TO.N,/P05*%
X24130000Y25717500D03*
%TD*%
%TO.P,R10,1*%
%TO.N,/Vccp*%
X16510000Y-7429500D03*
%TO.P,R10,2*%
%TO.N,/P15*%
X16510000Y-5524500D03*
%TD*%
%TO.P,R12,1*%
%TO.N,/Vccp*%
X19050000Y-7429500D03*
%TO.P,R12,2*%
%TO.N,/P14*%
X19050000Y-5524500D03*
%TD*%
%TO.P,R14,1*%
%TO.N,/Vccp*%
X13970000Y-7429500D03*
%TO.P,R14,2*%
%TO.N,/P16*%
X13970000Y-5524500D03*
%TD*%
%TO.P,R16,1*%
%TO.N,/Vccp*%
X16510000Y27622500D03*
%TO.P,R16,2*%
%TO.N,/P02*%
X16510000Y25717500D03*
%TD*%
%TO.P,R18,1*%
%TO.N,/Vccp*%
X11430000Y27622500D03*
%TO.P,R18,2*%
%TO.N,/P00*%
X11430000Y25717500D03*
%TD*%
%TO.P,R20,1*%
%TO.N,/Vccp*%
X29210000Y-7493000D03*
%TO.P,R20,2*%
%TO.N,/P10*%
X29210000Y-5524500D03*
%TD*%
%TO.P,R19,1*%
%TO.N,/Vccp*%
X26670000Y-7429500D03*
%TO.P,R19,2*%
%TO.N,/P11*%
X26670000Y-5524500D03*
%TD*%
%TO.P,R15,1*%
%TO.N,/Vccp*%
X13970000Y27622500D03*
%TO.P,R15,2*%
%TO.N,/P01*%
X13970000Y25717500D03*
%TD*%
%TO.P,R17,1*%
%TO.N,/Vccp*%
X24130000Y-7429500D03*
%TO.P,R17,2*%
%TO.N,/P12*%
X24130000Y-5524500D03*
%TD*%
%TO.P,R5,1*%
%TO.N,/Vccp*%
X29210000Y27622500D03*
%TO.P,R5,2*%
%TO.N,/P07*%
X29210000Y25717500D03*
%TD*%
%TO.P,R13,1*%
%TO.N,/Vccp*%
X19050000Y27622500D03*
%TO.P,R13,2*%
%TO.N,/P03*%
X19050000Y25717500D03*
%TD*%
%TO.P,R11,1*%
%TO.N,/Vccp*%
X21590000Y27622500D03*
%TO.P,R11,2*%
%TO.N,/P04*%
X21590000Y25717500D03*
%TD*%
D15*
%TO.P,U1,1*%
%TO.N,/#INT*%
X16857980Y12197080D03*
%TO.P,U1,2*%
%TO.N,VDD*%
X17508220Y12197080D03*
%TO.P,U1,3*%
%TO.N,/#RES*%
X18155920Y12197080D03*
%TO.P,U1,4*%
%TO.N,/P00*%
X18806160Y12197080D03*
%TO.P,U1,5*%
%TO.N,/P01*%
X19456400Y12197080D03*
%TO.P,U1,6*%
%TO.N,/P02*%
X20106640Y12197080D03*
%TO.P,U1,7*%
%TO.N,/P03*%
X20756880Y12197080D03*
%TO.P,U1,8*%
%TO.N,/P04*%
X21407120Y12197080D03*
%TO.P,U1,9*%
%TO.N,/P05*%
X22057360Y12197080D03*
%TO.P,U1,10*%
%TO.N,/P06*%
X22707600Y12197080D03*
%TO.P,U1,11*%
%TO.N,/P07*%
X23357840Y12197080D03*
%TO.P,U1,12*%
%TO.N,GND*%
X24008080Y12197080D03*
%TO.P,U1,13*%
%TO.N,/P10*%
X24008080Y6598920D03*
%TO.P,U1,14*%
%TO.N,/P11*%
X23357840Y6598920D03*
%TO.P,U1,15*%
%TO.N,/P12*%
X22707600Y6598920D03*
%TO.P,U1,16*%
%TO.N,/P13*%
X22057360Y6598920D03*
%TO.P,U1,17*%
%TO.N,/P14*%
X21407120Y6598920D03*
%TO.P,U1,18*%
%TO.N,/P15*%
X20756880Y6598920D03*
%TO.P,U1,19*%
%TO.N,/P16*%
X20106640Y6598920D03*
%TO.P,U1,20*%
%TO.N,/P17*%
X19456400Y6604000D03*
%TO.P,U1,21*%
%TO.N,/A0*%
X18816320Y6604000D03*
%TO.P,U1,22*%
%TO.N,/SCL*%
X18155920Y6598920D03*
%TO.P,U1,23*%
%TO.N,/SDA*%
X17508220Y6598920D03*
%TO.P,U1,24*%
%TO.N,/Vccp*%
X16857980Y6598920D03*
%TD*%
D14*
%TO.P,R24,1*%
%TO.N,VDD*%
X27178000Y8318500D03*
%TO.P,R24,2*%
%TO.N,/A0*%
X27178000Y6413500D03*
%TD*%
%TO.P,C1,1*%
%TO.N,VDD*%
X27178000Y10223500D03*
%TO.P,C1,2*%
%TO.N,GND*%
X27178000Y12128500D03*
%TD*%
%TO.P,C2,1*%
%TO.N,VDD*%
X29972000Y10223500D03*
%TO.P,C2,2*%
%TO.N,GND*%
X29972000Y12128500D03*
%TD*%
D16*
%TO.P,D1,1*%
%TO.N,GND*%
X28221940Y16002000D03*
%TO.P,D1,2*%
%TO.N,VDD*%
X31722060Y16002000D03*
%TD*%
D17*
%TO.N,/#RES*%
X17780000Y13716000D03*
%TO.N,/Vccp*%
X9398000Y-6096000D03*
X9652000Y27432000D03*
%TD*%
D18*
%TO.N,VDD*%
X13716000Y10160000D02*
X13970000Y9906000D01*
X13970000Y12128500D02*
X13716000Y12382500D01*
X34290000Y15122501D02*
X34290000Y15240000D01*
X13970000Y9906000D02*
X11430000Y9906000D01*
X32176701Y10086999D02*
X30045001Y10086999D01*
X14160500Y10096500D02*
X13970000Y9906000D01*
X14287500Y10223500D02*
X13970000Y9906000D01*
D19*
X17508220Y11099798D02*
X17506950Y11101068D01*
D18*
X32484060Y15240000D02*
X31722060Y16002000D01*
X17508220Y10269010D02*
X17553730Y10223500D01*
X34290000Y15240000D02*
X34290000Y15122501D01*
X34290000Y15240000D02*
X32484060Y15240000D01*
X13716000Y12382500D02*
X13716000Y10160000D01*
X13716000Y10160000D02*
X13970000Y9906000D01*
X11303000Y12382500D02*
X13716000Y12382500D01*
X36830000Y15240000D02*
X34290000Y15240000D01*
X27178000Y10223500D02*
X27178000Y8318500D01*
X27178000Y10223500D02*
X17553730Y10223500D01*
X32484060Y10394358D02*
X32176701Y10086999D01*
X13970000Y9906000D02*
X13970000Y12128500D01*
D19*
X17508220Y11099798D02*
X17508220Y12197080D01*
D18*
X30045001Y10086999D02*
X30035500Y10096500D01*
X28893333Y10223500D02*
X29972000Y10223500D01*
X34290000Y15240000D02*
X34290000Y15214600D01*
X17508220Y11099798D02*
X17508220Y10269010D01*
X27178000Y10223500D02*
X28893333Y10223500D01*
X17553730Y10223500D02*
X14287500Y10223500D01*
X32484060Y15240000D02*
X32484060Y10394358D01*
D19*
%TO.N,GND*%
X25306020Y12197080D02*
X26951940Y13843000D01*
X26951940Y13843000D02*
X26951940Y14886940D01*
X24008080Y12197080D02*
X25839420Y12197080D01*
X36830000Y17780000D02*
X38036500Y17780000D01*
X36830000Y12700000D02*
X34290000Y12700000D01*
X24008080Y12197080D02*
X25306020Y12197080D01*
X34290000Y17780000D02*
X36830000Y17780000D01*
X38735000Y17081500D02*
X38735000Y13398500D01*
X38036500Y12700000D02*
X36830000Y12700000D01*
X6350000Y11430000D02*
X3888100Y11430000D01*
X30352713Y17780000D02*
X34290000Y17780000D01*
X38036500Y17780000D02*
X38735000Y17081500D01*
X26951940Y14886940D02*
X28635567Y16570567D01*
X38735000Y13398500D02*
X38036500Y12700000D01*
X28635567Y16062854D02*
X30352713Y17780000D01*
X28635567Y16062854D02*
X28635567Y16570567D01*
%TO.N,/#RES*%
X18155920Y13294362D02*
X17906238Y13544044D01*
X13716000Y14287500D02*
X13462000Y14287500D01*
X13716000Y14287500D02*
X15973659Y14287500D01*
X13462000Y14287500D02*
X9969500Y17780000D01*
X15973659Y14287500D02*
X17208500Y14287500D01*
X17208500Y14287500D02*
X17335501Y14160499D01*
X17335501Y14160499D02*
X17780000Y13716000D01*
X3810000Y17780000D02*
X6350000Y17780000D01*
X9969500Y17780000D02*
X8747677Y17780000D01*
X17162782Y14287500D02*
X17906238Y13544044D01*
X6350000Y17780000D02*
X8747677Y17780000D01*
X18155920Y12197080D02*
X18155920Y13294362D01*
X15973659Y14287500D02*
X17162782Y14287500D01*
%TO.N,/#INT*%
X16857980Y12197080D02*
X16267430Y12197080D01*
X7302500Y14287500D02*
X6350000Y15240000D01*
X3810000Y15240000D02*
X6350000Y15240000D01*
X11303000Y14287500D02*
X7302500Y14287500D01*
X15012011Y13452499D02*
X12392001Y13452499D01*
X11557000Y14287500D02*
X11303000Y14287500D01*
X16857980Y12197080D02*
X16854169Y12197080D01*
X16267430Y12197080D02*
X15012011Y13452499D01*
X12392001Y13452499D02*
X11557000Y14287500D01*
%TO.N,/SCL*%
X16376583Y3819501D02*
X9979001Y3819501D01*
X6350000Y3810000D02*
X8064500Y3810000D01*
X8064500Y3810000D02*
X8890000Y2984500D01*
X3810000Y3810000D02*
X6350000Y3810000D01*
X18155920Y6598920D02*
X18155920Y5598838D01*
X9144000Y2984500D02*
X8890000Y2984500D01*
X9979001Y3819501D02*
X9144000Y2984500D01*
X18155920Y5598838D02*
X16376583Y3819501D01*
%TO.N,/SDA*%
X17508220Y6598920D02*
X17508220Y7715250D01*
X16641469Y8582001D02*
X9979001Y8582001D01*
D18*
X8572500Y8890000D02*
X8890000Y8572500D01*
D19*
X17508220Y7715250D02*
X16641469Y8582001D01*
D18*
X6350000Y8890000D02*
X8572500Y8890000D01*
D19*
X6667500Y8572500D02*
X6350000Y8890000D01*
X3810000Y8890000D02*
X6985000Y8890000D01*
X6985000Y8890000D02*
X6350000Y8890000D01*
X9979001Y8582001D02*
X9969500Y8572500D01*
X9969500Y8572500D02*
X8890000Y8572500D01*
%TO.N,/A0*%
X27178000Y6413500D02*
X30416500Y6413500D01*
X18816320Y7720330D02*
X19477990Y8382000D01*
X24955500Y8382000D02*
X26924000Y6413500D01*
X18816320Y6604000D02*
X18816320Y7720330D01*
X26924000Y6413500D02*
X27178000Y6413500D01*
X19477990Y8382000D02*
X24955500Y8382000D01*
X30416500Y6413500D02*
X33147000Y3683000D01*
D18*
%TO.N,/Vccp*%
X29210000Y-7493000D02*
X23351235Y-7493000D01*
D19*
X11430000Y-7429500D02*
X13970000Y-7429500D01*
D18*
X13970000Y7366000D02*
X13906500Y7366000D01*
D19*
X26670000Y27622500D02*
X29210000Y27622500D01*
X16510000Y27622500D02*
X19050000Y27622500D01*
D18*
X10731500Y-7429500D02*
X9398000Y-6096000D01*
X13970000Y7366000D02*
X15303500Y7366000D01*
X11493500Y-7493000D02*
X11430000Y-7429500D01*
X11239500Y27432000D02*
X11430000Y27622500D01*
X9652000Y27432000D02*
X11239500Y27432000D01*
D19*
X21590000Y27622500D02*
X19050000Y27622500D01*
X13970000Y-7429500D02*
X16510000Y-7429500D01*
D18*
X11430000Y-7429500D02*
X10731500Y-7429500D01*
D19*
X16070580Y6598920D02*
X16857980Y6598920D01*
D18*
X23351235Y-7493000D02*
X11493500Y-7493000D01*
D19*
X16510000Y27622500D02*
X13970000Y27622500D01*
X24130000Y-7429500D02*
X26670000Y-7429500D01*
X26670000Y-7429500D02*
X29146500Y-7429500D01*
X26670000Y27622500D02*
X24130000Y27622500D01*
X29146500Y-7429500D02*
X29210000Y-7493000D01*
D18*
X11430000Y-7429500D02*
X11176000Y-7429500D01*
D19*
X21590000Y-7429500D02*
X23287735Y-7429500D01*
X23287735Y-7429500D02*
X23351235Y-7493000D01*
X19050000Y-7429500D02*
X21590000Y-7429500D01*
D18*
X15303500Y7366000D02*
X16070580Y6598920D01*
D19*
X13970000Y27622500D02*
X11430000Y27622500D01*
X13970000Y-7429500D02*
X19050000Y-7429500D01*
X24130000Y27622500D02*
X21590000Y27622500D01*
%TO.N,/P01*%
X19456400Y12197080D02*
X19456400Y14833600D01*
X19456400Y14833600D02*
X13970000Y20320000D01*
X13970000Y20320000D02*
X13970000Y25717500D01*
X13970000Y20320000D02*
X13970000Y22860000D01*
%TO.N,/P00*%
X18806160Y13313410D02*
X18806160Y12197080D01*
X14815292Y18361010D02*
X18806160Y14370142D01*
X11430000Y20320000D02*
X11430000Y19113500D01*
X11430000Y20320000D02*
X11430000Y22860000D01*
X12182490Y18361010D02*
X14815292Y18361010D01*
X11680782Y20320000D02*
X11430000Y20320000D01*
X11430000Y22860000D02*
X11430000Y25717500D01*
X11430000Y19113500D02*
X12182490Y18361010D01*
X18806160Y14370142D02*
X18806160Y13313410D01*
%TO.N,/P07*%
X29210000Y20320000D02*
X29210000Y25717500D01*
X29210000Y20320000D02*
X29210000Y22860000D01*
X23357840Y12197080D02*
X23357840Y14467840D01*
X23357840Y14467840D02*
X29210000Y20320000D01*
%TO.N,/P06*%
X26670000Y20320000D02*
X26670000Y22860000D01*
X22707600Y16357600D02*
X26670000Y20320000D01*
X22707600Y12197080D02*
X22707600Y16357600D01*
X26670000Y20320000D02*
X26670000Y25717500D01*
%TO.N,/P02*%
X16510000Y20320000D02*
X16510000Y22860000D01*
X20106640Y16723360D02*
X16510000Y20320000D01*
X20106640Y12197080D02*
X20106640Y16723360D01*
X16510000Y20320000D02*
X16510000Y25717500D01*
%TO.N,/P05*%
X22057360Y12197080D02*
X22057360Y18247360D01*
X24130000Y20320000D02*
X24130000Y22860000D01*
X24130000Y20320000D02*
X24130000Y25717500D01*
X22057360Y18247360D02*
X24130000Y20320000D01*
%TO.N,/P04*%
X21407120Y20137120D02*
X21590000Y20320000D01*
X21590000Y20320000D02*
X21590000Y22860000D01*
X21407120Y12197080D02*
X21407120Y20137120D01*
X21590000Y20320000D02*
X21590000Y25717500D01*
%TO.N,/P03*%
X19050000Y20320000D02*
X19050000Y25717500D01*
X19050000Y20320000D02*
X19050000Y22860000D01*
X20756880Y12197080D02*
X20756880Y18613120D01*
X20756880Y18613120D02*
X19050000Y20320000D01*
%TO.N,/P11*%
X23357840Y6598920D02*
X23357840Y3312160D01*
X26670000Y-2540000D02*
X26670000Y0D01*
X26670000Y0D02*
X26670000Y-5524500D01*
X23357840Y3312160D02*
X26670000Y0D01*
%TO.N,/P10*%
X29210000Y-2540000D02*
X29210000Y0D01*
X24008080Y5201920D02*
X29210000Y0D01*
X24008080Y6598920D02*
X24008080Y5201920D01*
X29210000Y0D02*
X29210000Y-5524500D01*
%TO.N,/P17*%
X11430000Y-5524500D02*
X11430000Y0D01*
X11430000Y0D02*
X11430000Y850900D01*
X11430000Y-2540000D02*
X11430000Y0D01*
X11430000Y850900D02*
X12376111Y1797011D01*
X19456400Y5740400D02*
X19456400Y6604000D01*
X12376111Y1797011D02*
X15513011Y1797011D01*
X15513011Y1797011D02*
X19456400Y5740400D01*
%TO.N,/P16*%
X13970000Y0D02*
X13995400Y0D01*
X15596385Y1216001D02*
X15262201Y1216001D01*
X13970000Y-2540000D02*
X13970000Y0D01*
X20106640Y6598920D02*
X20106640Y5482590D01*
X15840051Y1216001D02*
X15596385Y1216001D01*
X15211401Y1216001D02*
X15596385Y1216001D01*
X13970000Y0D02*
X13970000Y-5524500D01*
X20106640Y5482590D02*
X15840051Y1216001D01*
X13995400Y0D02*
X15211401Y1216001D01*
%TO.N,/P12*%
X22707600Y6598920D02*
X22707600Y1422400D01*
X24130000Y0D02*
X24130000Y-5524500D01*
X24130000Y-2540000D02*
X24130000Y0D01*
X22707600Y1422400D02*
X24130000Y0D01*
%TO.N,/P15*%
X16510000Y0D02*
X16510000Y-5524500D01*
X20756880Y4246880D02*
X20756880Y6598920D01*
X16510000Y-2540000D02*
X16510000Y0D01*
X16510000Y0D02*
X20756880Y4246880D01*
%TO.N,/P14*%
X19050000Y0D02*
X19050000Y-5524500D01*
X19050000Y-2540000D02*
X19050000Y0D01*
X21407120Y6598920D02*
X21407120Y2357120D01*
X21407120Y2357120D02*
X19050000Y0D01*
%TO.N,/P13*%
X22057360Y6598920D02*
X22057360Y467360D01*
X21590000Y-2540000D02*
X21590000Y0D01*
X22057360Y467360D02*
X21590000Y0D01*
X21590000Y0D02*
X21590000Y-5524500D01*
D18*
%TO.N,Net-(J2-Pad3)*%
X8890000Y6667500D02*
X6667500Y6667500D01*
X9588500Y7366000D02*
X8890000Y6667500D01*
D19*
X8890000Y4889500D02*
X8890000Y6667500D01*
D18*
X6667500Y6667500D02*
X6350000Y6350000D01*
X6350000Y6350000D02*
X3810000Y6350000D01*
X11430000Y7366000D02*
X9588500Y7366000D01*
%TD*%
%TA.AperFunction,Conductor*%
%TO.N,GND*%
G36*
X40275621Y30153498D02*
G01*
X40322114Y30099842D01*
X40333500Y30047500D01*
X40333500Y-9727500D01*
X40313498Y-9795621D01*
X40259842Y-9842114D01*
X40207500Y-9853500D01*
X432500Y-9853500D01*
X364379Y-9833498D01*
X317886Y-9779842D01*
X306500Y-9727500D01*
X306500Y18654149D01*
X2476000Y18654149D01*
X2476000Y16905850D01*
X2482509Y16845303D01*
X2482511Y16845295D01*
X2533610Y16708297D01*
X2533612Y16708292D01*
X2625528Y16585509D01*
X2650339Y16518989D01*
X2635248Y16449615D01*
X2625528Y16434491D01*
X2533612Y16311707D01*
X2533610Y16311702D01*
X2482511Y16174704D01*
X2482509Y16174696D01*
X2476000Y16114149D01*
X2476000Y14365850D01*
X2482509Y14305303D01*
X2482511Y14305295D01*
X2533610Y14168297D01*
X2533612Y14168292D01*
X2621238Y14051238D01*
X2738292Y13963612D01*
X2738297Y13963610D01*
X2875295Y13912511D01*
X2875303Y13912509D01*
X2935850Y13906000D01*
X2935862Y13906000D01*
X4684149Y13906000D01*
X4744696Y13912509D01*
X4744704Y13912511D01*
X4881702Y13963610D01*
X4881707Y13963612D01*
X5004491Y14055528D01*
X5071011Y14080339D01*
X5140385Y14065248D01*
X5155509Y14055528D01*
X5278292Y13963612D01*
X5278297Y13963610D01*
X5415295Y13912511D01*
X5415303Y13912509D01*
X5475850Y13906000D01*
X5475862Y13906000D01*
X6643275Y13906000D01*
X6711396Y13885998D01*
X6732370Y13869095D01*
X6856911Y13744553D01*
X6856914Y13744551D01*
X6901272Y13714912D01*
X6901271Y13714911D01*
X6971396Y13668055D01*
X7098603Y13615364D01*
X7098608Y13615362D01*
X7233651Y13588500D01*
X7233654Y13588500D01*
X7233655Y13588500D01*
X10096750Y13588500D01*
X10164871Y13568498D01*
X10197618Y13538009D01*
X10241239Y13479738D01*
X10299843Y13435867D01*
X10342389Y13379031D01*
X10347453Y13308216D01*
X10313428Y13245904D01*
X10299843Y13234133D01*
X10241239Y13190261D01*
X10153612Y13073207D01*
X10153610Y13073202D01*
X10102511Y12936204D01*
X10102509Y12936196D01*
X10096000Y12875649D01*
X10096000Y11889350D01*
X10102509Y11828803D01*
X10102511Y11828795D01*
X10153610Y11691797D01*
X10153612Y11691792D01*
X10241238Y11574738D01*
X10358292Y11487112D01*
X10358297Y11487110D01*
X10450272Y11452805D01*
X10507108Y11410258D01*
X10531918Y11343738D01*
X10516826Y11274364D01*
X10466624Y11224162D01*
X10450272Y11216695D01*
X10447192Y11215546D01*
X10358296Y11182389D01*
X10358294Y11182388D01*
X10358292Y11182387D01*
X10241238Y11094761D01*
X10153612Y10977707D01*
X10153610Y10977702D01*
X10102511Y10840704D01*
X10102509Y10840696D01*
X10096000Y10780149D01*
X10096000Y9524001D01*
X10075998Y9455880D01*
X10022342Y9409387D01*
X9952068Y9399283D01*
X9894491Y9423132D01*
X9834704Y9467889D01*
X9697701Y9518989D01*
X9697699Y9518989D01*
X9697696Y9518990D01*
X9637149Y9525499D01*
X9637145Y9525499D01*
X9637138Y9525500D01*
X9637132Y9525500D01*
X9032091Y9525500D01*
X8963970Y9545502D01*
X8962089Y9546735D01*
X8933679Y9565718D01*
X8794913Y9623197D01*
X8778730Y9626416D01*
X8647600Y9652500D01*
X8647596Y9652500D01*
X7809182Y9652500D01*
X7741061Y9672502D01*
X7694568Y9726158D01*
X7683904Y9765033D01*
X7677490Y9824696D01*
X7677488Y9824704D01*
X7646310Y9908294D01*
X7626389Y9961704D01*
X7538761Y10078761D01*
X7421704Y10166389D01*
X7284701Y10217489D01*
X7284699Y10217489D01*
X7284696Y10217490D01*
X7224149Y10223999D01*
X7224145Y10223999D01*
X7224138Y10224000D01*
X5475862Y10224000D01*
X5475855Y10223999D01*
X5475850Y10223999D01*
X5415303Y10217490D01*
X5415295Y10217488D01*
X5337375Y10188424D01*
X5278296Y10166389D01*
X5161239Y10078761D01*
X5161236Y10078758D01*
X5155510Y10074471D01*
X5088990Y10049660D01*
X5019615Y10064751D01*
X5004490Y10074471D01*
X4998763Y10078758D01*
X4998761Y10078761D01*
X4881704Y10166389D01*
X4744701Y10217489D01*
X4744699Y10217489D01*
X4744696Y10217490D01*
X4684149Y10223999D01*
X4684145Y10223999D01*
X4684138Y10224000D01*
X2935862Y10224000D01*
X2935855Y10223999D01*
X2935850Y10223999D01*
X2875303Y10217490D01*
X2875295Y10217488D01*
X2797375Y10188424D01*
X2738296Y10166389D01*
X2738294Y10166388D01*
X2738292Y10166387D01*
X2621238Y10078761D01*
X2533612Y9961707D01*
X2533610Y9961702D01*
X2482511Y9824704D01*
X2482509Y9824696D01*
X2476000Y9764149D01*
X2476000Y8015850D01*
X2482509Y7955303D01*
X2482511Y7955295D01*
X2533610Y7818297D01*
X2533612Y7818292D01*
X2625528Y7695509D01*
X2650339Y7628989D01*
X2635248Y7559615D01*
X2625528Y7544491D01*
X2533612Y7421707D01*
X2533610Y7421702D01*
X2482511Y7284704D01*
X2482509Y7284696D01*
X2476000Y7224149D01*
X2476000Y5475850D01*
X2482509Y5415303D01*
X2482511Y5415295D01*
X2533610Y5278297D01*
X2533612Y5278292D01*
X2625528Y5155509D01*
X2650339Y5088989D01*
X2635248Y5019615D01*
X2625528Y5004491D01*
X2533612Y4881707D01*
X2533610Y4881702D01*
X2482511Y4744704D01*
X2482509Y4744696D01*
X2476000Y4684149D01*
X2476000Y2935850D01*
X2482509Y2875303D01*
X2482511Y2875295D01*
X2533610Y2738297D01*
X2533612Y2738292D01*
X2621238Y2621238D01*
X2738292Y2533612D01*
X2738297Y2533610D01*
X2875295Y2482511D01*
X2875303Y2482509D01*
X2935850Y2476000D01*
X2935862Y2476000D01*
X4684149Y2476000D01*
X4744696Y2482509D01*
X4744704Y2482511D01*
X4881702Y2533610D01*
X4881707Y2533612D01*
X5004491Y2625528D01*
X5071011Y2650339D01*
X5140385Y2635248D01*
X5155509Y2625528D01*
X5278292Y2533612D01*
X5278297Y2533610D01*
X5415295Y2482511D01*
X5415303Y2482509D01*
X5475850Y2476000D01*
X5475862Y2476000D01*
X7224149Y2476000D01*
X7284696Y2482509D01*
X7284704Y2482511D01*
X7421702Y2533610D01*
X7421707Y2533612D01*
X7482198Y2578896D01*
X7548718Y2603707D01*
X7618092Y2588616D01*
X7668294Y2538414D01*
X7682985Y2491496D01*
X7689509Y2430803D01*
X7689511Y2430795D01*
X7740610Y2293797D01*
X7740612Y2293792D01*
X7828238Y2176738D01*
X7945292Y2089112D01*
X7945297Y2089110D01*
X8082295Y2038011D01*
X8082303Y2038009D01*
X8142850Y2031500D01*
X8142862Y2031500D01*
X9637149Y2031500D01*
X9697696Y2038009D01*
X9697704Y2038011D01*
X9834702Y2089110D01*
X9834707Y2089112D01*
X9951761Y2176738D01*
X10039387Y2293792D01*
X10039389Y2293797D01*
X10090488Y2430795D01*
X10090490Y2430803D01*
X10096999Y2491350D01*
X10097000Y2491367D01*
X10097000Y2896774D01*
X10117002Y2964895D01*
X10133905Y2985869D01*
X10231632Y3083596D01*
X10293944Y3117622D01*
X10320727Y3120501D01*
X15543776Y3120501D01*
X15611897Y3100499D01*
X15658390Y3046843D01*
X15668494Y2976569D01*
X15639000Y2911989D01*
X15632871Y2905406D01*
X15260381Y2532916D01*
X15198069Y2498890D01*
X15171286Y2496011D01*
X12444957Y2496011D01*
X12307265Y2496011D01*
X12172220Y2469149D01*
X12045010Y2416457D01*
X12045007Y2416455D01*
X11944054Y2349000D01*
X11944051Y2348997D01*
X11930524Y2339959D01*
X10984414Y1393849D01*
X10961470Y1370905D01*
X10899158Y1336879D01*
X10872375Y1334000D01*
X10555862Y1334000D01*
X10555855Y1333999D01*
X10555850Y1333999D01*
X10495303Y1327490D01*
X10495295Y1327488D01*
X10417375Y1298424D01*
X10358296Y1276389D01*
X10358294Y1276388D01*
X10358292Y1276387D01*
X10241238Y1188761D01*
X10153612Y1071707D01*
X10153610Y1071702D01*
X10102511Y934704D01*
X10102509Y934696D01*
X10096000Y874149D01*
X10096000Y-874149D01*
X10102509Y-934696D01*
X10102511Y-934704D01*
X10153610Y-1071702D01*
X10153612Y-1071707D01*
X10245528Y-1194491D01*
X10270339Y-1261011D01*
X10255248Y-1330385D01*
X10245528Y-1345509D01*
X10153612Y-1468292D01*
X10153610Y-1468297D01*
X10102511Y-1605295D01*
X10102509Y-1605303D01*
X10096000Y-1665850D01*
X10096000Y-3414149D01*
X10102509Y-3474696D01*
X10102511Y-3474704D01*
X10153610Y-3611702D01*
X10153612Y-3611707D01*
X10241238Y-3728761D01*
X10358292Y-3816387D01*
X10358294Y-3816388D01*
X10358296Y-3816389D01*
X10417375Y-3838424D01*
X10495295Y-3867488D01*
X10495303Y-3867490D01*
X10555850Y-3873999D01*
X10555855Y-3873999D01*
X10555862Y-3874000D01*
X10605000Y-3874000D01*
X10673121Y-3894002D01*
X10719614Y-3947658D01*
X10731000Y-4000000D01*
X10731000Y-4453144D01*
X10710998Y-4521265D01*
X10657342Y-4567758D01*
X10629767Y-4575322D01*
X10629974Y-4576197D01*
X10622295Y-4578011D01*
X10485297Y-4629110D01*
X10485292Y-4629112D01*
X10368238Y-4716738D01*
X10280612Y-4833792D01*
X10280610Y-4833797D01*
X10229511Y-4970795D01*
X10229509Y-4970803D01*
X10223000Y-5031350D01*
X10223000Y-5273814D01*
X10202998Y-5341935D01*
X10149342Y-5388428D01*
X10079068Y-5398532D01*
X10017066Y-5371213D01*
X9930020Y-5299776D01*
X9764465Y-5211284D01*
X9764459Y-5211282D01*
X9584814Y-5156787D01*
X9398003Y-5138389D01*
X9397997Y-5138389D01*
X9211186Y-5156787D01*
X9211184Y-5156787D01*
X9031540Y-5211282D01*
X9031534Y-5211284D01*
X8865979Y-5299776D01*
X8720867Y-5418867D01*
X8601776Y-5563979D01*
X8513284Y-5729534D01*
X8513282Y-5729540D01*
X8458787Y-5909184D01*
X8458787Y-5909186D01*
X8440389Y-6095996D01*
X8440389Y-6096003D01*
X8458787Y-6282813D01*
X8458787Y-6282815D01*
X8513282Y-6462459D01*
X8513284Y-6462465D01*
X8591940Y-6609618D01*
X8601776Y-6628020D01*
X8720867Y-6773133D01*
X8865980Y-6892224D01*
X9031538Y-6980717D01*
X9211179Y-7035211D01*
X9219216Y-7036002D01*
X9285048Y-7062583D01*
X9295963Y-7072301D01*
X10223601Y-7999939D01*
X10252561Y-8045001D01*
X10280610Y-8120202D01*
X10280612Y-8120207D01*
X10368238Y-8237261D01*
X10485292Y-8324887D01*
X10485294Y-8324888D01*
X10485296Y-8324889D01*
X10544375Y-8346924D01*
X10622295Y-8375988D01*
X10622303Y-8375990D01*
X10682850Y-8382499D01*
X10682855Y-8382499D01*
X10682862Y-8382500D01*
X10682868Y-8382500D01*
X12177132Y-8382500D01*
X12177138Y-8382500D01*
X12177145Y-8382499D01*
X12177149Y-8382499D01*
X12237696Y-8375990D01*
X12237699Y-8375989D01*
X12237701Y-8375989D01*
X12374704Y-8324889D01*
X12374707Y-8324887D01*
X12433825Y-8280632D01*
X12500345Y-8255821D01*
X12509334Y-8255500D01*
X12890666Y-8255500D01*
X12958787Y-8275502D01*
X12966175Y-8280632D01*
X13025292Y-8324887D01*
X13025294Y-8324888D01*
X13025296Y-8324889D01*
X13084375Y-8346924D01*
X13162295Y-8375988D01*
X13162303Y-8375990D01*
X13222850Y-8382499D01*
X13222855Y-8382499D01*
X13222862Y-8382500D01*
X13222868Y-8382500D01*
X14717132Y-8382500D01*
X14717138Y-8382500D01*
X14717145Y-8382499D01*
X14717149Y-8382499D01*
X14777696Y-8375990D01*
X14777699Y-8375989D01*
X14777701Y-8375989D01*
X14914704Y-8324889D01*
X14914707Y-8324887D01*
X14973825Y-8280632D01*
X15040345Y-8255821D01*
X15049334Y-8255500D01*
X15430666Y-8255500D01*
X15498787Y-8275502D01*
X15506175Y-8280632D01*
X15565292Y-8324887D01*
X15565294Y-8324888D01*
X15565296Y-8324889D01*
X15624375Y-8346924D01*
X15702295Y-8375988D01*
X15702303Y-8375990D01*
X15762850Y-8382499D01*
X15762855Y-8382499D01*
X15762862Y-8382500D01*
X15762868Y-8382500D01*
X17257132Y-8382500D01*
X17257138Y-8382500D01*
X17257145Y-8382499D01*
X17257149Y-8382499D01*
X17317696Y-8375990D01*
X17317699Y-8375989D01*
X17317701Y-8375989D01*
X17454704Y-8324889D01*
X17454707Y-8324887D01*
X17513825Y-8280632D01*
X17580345Y-8255821D01*
X17589334Y-8255500D01*
X17970666Y-8255500D01*
X18038787Y-8275502D01*
X18046175Y-8280632D01*
X18105292Y-8324887D01*
X18105294Y-8324888D01*
X18105296Y-8324889D01*
X18164375Y-8346924D01*
X18242295Y-8375988D01*
X18242303Y-8375990D01*
X18302850Y-8382499D01*
X18302855Y-8382499D01*
X18302862Y-8382500D01*
X18302868Y-8382500D01*
X19797132Y-8382500D01*
X19797138Y-8382500D01*
X19797145Y-8382499D01*
X19797149Y-8382499D01*
X19857696Y-8375990D01*
X19857699Y-8375989D01*
X19857701Y-8375989D01*
X19994704Y-8324889D01*
X19994707Y-8324887D01*
X20053825Y-8280632D01*
X20120345Y-8255821D01*
X20129334Y-8255500D01*
X20510666Y-8255500D01*
X20578787Y-8275502D01*
X20586175Y-8280632D01*
X20645292Y-8324887D01*
X20645294Y-8324888D01*
X20645296Y-8324889D01*
X20704375Y-8346924D01*
X20782295Y-8375988D01*
X20782303Y-8375990D01*
X20842850Y-8382499D01*
X20842855Y-8382499D01*
X20842862Y-8382500D01*
X20842868Y-8382500D01*
X22337132Y-8382500D01*
X22337138Y-8382500D01*
X22337145Y-8382499D01*
X22337149Y-8382499D01*
X22397696Y-8375990D01*
X22397699Y-8375989D01*
X22397701Y-8375989D01*
X22534704Y-8324889D01*
X22534707Y-8324887D01*
X22593825Y-8280632D01*
X22660345Y-8255821D01*
X22669334Y-8255500D01*
X23050666Y-8255500D01*
X23118787Y-8275502D01*
X23126175Y-8280632D01*
X23185292Y-8324887D01*
X23185294Y-8324888D01*
X23185296Y-8324889D01*
X23244375Y-8346924D01*
X23322295Y-8375988D01*
X23322303Y-8375990D01*
X23382850Y-8382499D01*
X23382855Y-8382499D01*
X23382862Y-8382500D01*
X23382868Y-8382500D01*
X24877132Y-8382500D01*
X24877138Y-8382500D01*
X24877145Y-8382499D01*
X24877149Y-8382499D01*
X24937696Y-8375990D01*
X24937699Y-8375989D01*
X24937701Y-8375989D01*
X25074704Y-8324889D01*
X25074707Y-8324887D01*
X25133825Y-8280632D01*
X25200345Y-8255821D01*
X25209334Y-8255500D01*
X25590666Y-8255500D01*
X25658787Y-8275502D01*
X25666175Y-8280632D01*
X25725292Y-8324887D01*
X25725294Y-8324888D01*
X25725296Y-8324889D01*
X25784375Y-8346924D01*
X25862295Y-8375988D01*
X25862303Y-8375990D01*
X25922850Y-8382499D01*
X25922855Y-8382499D01*
X25922862Y-8382500D01*
X25922868Y-8382500D01*
X27417132Y-8382500D01*
X27417138Y-8382500D01*
X27417145Y-8382499D01*
X27417149Y-8382499D01*
X27477696Y-8375990D01*
X27477699Y-8375989D01*
X27477701Y-8375989D01*
X27614704Y-8324889D01*
X27614707Y-8324887D01*
X27673825Y-8280632D01*
X27740345Y-8255821D01*
X27749334Y-8255500D01*
X28051286Y-8255500D01*
X28119407Y-8275502D01*
X28140817Y-8295437D01*
X28141866Y-8294389D01*
X28148236Y-8300759D01*
X28265292Y-8388387D01*
X28265294Y-8388388D01*
X28265296Y-8388389D01*
X28324375Y-8410424D01*
X28402295Y-8439488D01*
X28402303Y-8439490D01*
X28462850Y-8445999D01*
X28462855Y-8445999D01*
X28462862Y-8446000D01*
X28462868Y-8446000D01*
X29928110Y-8446000D01*
X29996231Y-8466002D01*
X30014908Y-8481054D01*
X30015355Y-8481054D01*
X32246083Y-8481054D01*
X32246083Y-1446864D01*
X32266085Y-1378743D01*
X32319741Y-1332250D01*
X32372083Y-1320864D01*
X39292546Y-1320864D01*
X39292546Y909144D01*
X31683450Y909144D01*
X31683450Y-1268276D01*
X31663448Y-1336397D01*
X31609792Y-1382890D01*
X31557450Y-1394276D01*
X30496630Y-1394276D01*
X30428509Y-1374274D01*
X30382016Y-1320618D01*
X30371912Y-1250344D01*
X30395762Y-1192766D01*
X30398758Y-1188762D01*
X30398761Y-1188761D01*
X30486389Y-1071704D01*
X30537489Y-934701D01*
X30544000Y-874138D01*
X30544000Y874138D01*
X30537489Y934701D01*
X30486389Y1071704D01*
X30398761Y1188761D01*
X30281704Y1276389D01*
X30144701Y1327489D01*
X30144699Y1327489D01*
X30144696Y1327490D01*
X30084149Y1333999D01*
X30084145Y1333999D01*
X30084138Y1334000D01*
X30084132Y1334000D01*
X28916726Y1334000D01*
X28848605Y1354002D01*
X28827631Y1370905D01*
X24743985Y5454550D01*
X24709959Y5516862D01*
X24707080Y5543645D01*
X24707080Y5698037D01*
X24715023Y5742066D01*
X24715928Y5744493D01*
X24719619Y5754389D01*
X24720520Y5762763D01*
X24726129Y5814940D01*
X24726130Y5814957D01*
X24726130Y7318645D01*
X24746132Y7386766D01*
X24799788Y7433259D01*
X24870062Y7443363D01*
X24934642Y7413869D01*
X24941225Y7407740D01*
X25934095Y6414870D01*
X25968121Y6352558D01*
X25971000Y6325775D01*
X25971000Y5920350D01*
X25977509Y5859803D01*
X25977511Y5859795D01*
X26028610Y5722797D01*
X26028612Y5722792D01*
X26116238Y5605738D01*
X26233292Y5518112D01*
X26233297Y5518110D01*
X26370295Y5467011D01*
X26370303Y5467009D01*
X26430850Y5460500D01*
X26430862Y5460500D01*
X27925149Y5460500D01*
X27985696Y5467009D01*
X27985704Y5467011D01*
X28122702Y5518110D01*
X28122707Y5518112D01*
X28239761Y5605738D01*
X28283382Y5664009D01*
X28340218Y5706556D01*
X28384250Y5714500D01*
X30074775Y5714500D01*
X30142896Y5694498D01*
X30163870Y5677595D01*
X31776095Y4065370D01*
X31810121Y4003058D01*
X31813000Y3976275D01*
X31813000Y2808850D01*
X31819509Y2748303D01*
X31819511Y2748295D01*
X31870610Y2611297D01*
X31870612Y2611292D01*
X31958238Y2494238D01*
X32075292Y2406612D01*
X32075297Y2406610D01*
X32212295Y2355511D01*
X32212303Y2355509D01*
X32272850Y2349000D01*
X32272862Y2349000D01*
X34021149Y2349000D01*
X34081696Y2355509D01*
X34081704Y2355511D01*
X34218702Y2406610D01*
X34218707Y2406612D01*
X34335761Y2494238D01*
X34423387Y2611292D01*
X34423389Y2611297D01*
X34427098Y2621239D01*
X34445424Y2670375D01*
X34474488Y2748295D01*
X34474490Y2748303D01*
X34480999Y2808850D01*
X34481000Y2808867D01*
X34481000Y4557132D01*
X34480999Y4557149D01*
X34474490Y4617696D01*
X34474488Y4617704D01*
X34446240Y4693439D01*
X34423389Y4754704D01*
X34335761Y4871761D01*
X34335758Y4871763D01*
X34331471Y4877490D01*
X34306660Y4944010D01*
X34321751Y5013385D01*
X34331471Y5028510D01*
X34335758Y5034236D01*
X34335761Y5034239D01*
X34423389Y5151296D01*
X34470758Y5278296D01*
X34474488Y5288295D01*
X34474490Y5288303D01*
X34480999Y5348850D01*
X34481000Y5348867D01*
X34481000Y7097132D01*
X34480999Y7097149D01*
X34474490Y7157696D01*
X34474488Y7157704D01*
X34449705Y7224149D01*
X34423389Y7294704D01*
X34402979Y7321968D01*
X34335761Y7411761D01*
X34218707Y7499387D01*
X34218706Y7499387D01*
X34218704Y7499389D01*
X34081701Y7550489D01*
X34081699Y7550489D01*
X34081696Y7550490D01*
X34021149Y7556999D01*
X34021145Y7556999D01*
X34021138Y7557000D01*
X32272862Y7557000D01*
X32272855Y7556999D01*
X32272850Y7556999D01*
X32212303Y7550490D01*
X32212295Y7550488D01*
X32180855Y7538761D01*
X32075296Y7499389D01*
X32075294Y7499388D01*
X32075292Y7499387D01*
X31958238Y7411761D01*
X31870612Y7294707D01*
X31870610Y7294702D01*
X31819511Y7157704D01*
X31819509Y7157696D01*
X31813000Y7097149D01*
X31813000Y6309725D01*
X31792998Y6241604D01*
X31739342Y6195111D01*
X31669068Y6185007D01*
X31604488Y6214501D01*
X31597905Y6220630D01*
X31335975Y6482560D01*
X30862087Y6956448D01*
X30845996Y6967199D01*
X30845995Y6967201D01*
X30796630Y7000185D01*
X30747601Y7032946D01*
X30620391Y7085638D01*
X30575758Y7094516D01*
X30485346Y7112500D01*
X30485345Y7112500D01*
X28384250Y7112500D01*
X28316129Y7132502D01*
X28283382Y7162991D01*
X28239761Y7221261D01*
X28181157Y7265132D01*
X28138610Y7321968D01*
X28133546Y7392784D01*
X28167571Y7455096D01*
X28181157Y7466868D01*
X28239761Y7510738D01*
X28327387Y7627792D01*
X28327389Y7627797D01*
X28378488Y7764795D01*
X28378490Y7764803D01*
X28384999Y7825350D01*
X28385000Y7825367D01*
X28385000Y8811632D01*
X28384999Y8811649D01*
X28378490Y8872196D01*
X28378488Y8872204D01*
X28358817Y8924943D01*
X28327389Y9009204D01*
X28293752Y9054137D01*
X28239761Y9126261D01*
X28181157Y9170132D01*
X28138610Y9226968D01*
X28133546Y9297784D01*
X28167571Y9360096D01*
X28181157Y9371868D01*
X28239763Y9415740D01*
X28246134Y9422111D01*
X28248365Y9419879D01*
X28292674Y9453053D01*
X28336714Y9461000D01*
X28813286Y9461000D01*
X28881407Y9440998D01*
X28902817Y9421062D01*
X28903866Y9422111D01*
X28910236Y9415740D01*
X29027292Y9328112D01*
X29027297Y9328110D01*
X29164295Y9277011D01*
X29164303Y9277009D01*
X29224850Y9270500D01*
X29224862Y9270500D01*
X30719149Y9270500D01*
X30779696Y9277009D01*
X30779697Y9277010D01*
X30779699Y9277010D01*
X30779701Y9277011D01*
X30885722Y9316555D01*
X30929754Y9324499D01*
X32251804Y9324499D01*
X32399115Y9353802D01*
X32399116Y9353803D01*
X32414309Y9360096D01*
X32537880Y9411281D01*
X32537881Y9411281D01*
X32537884Y9411283D01*
X32550832Y9419934D01*
X32550832Y9419935D01*
X32662763Y9494724D01*
X32662767Y9494727D01*
X33076326Y9908286D01*
X33076328Y9908289D01*
X33076332Y9908293D01*
X33159778Y10033179D01*
X33217257Y10171945D01*
X33226316Y10217489D01*
X33246560Y10319258D01*
X33246560Y13783928D01*
X33266562Y13852049D01*
X33320218Y13898542D01*
X33386024Y13909207D01*
X33415858Y13906000D01*
X33415862Y13906000D01*
X35164149Y13906000D01*
X35224696Y13912509D01*
X35224704Y13912511D01*
X35361702Y13963610D01*
X35361707Y13963612D01*
X35484491Y14055528D01*
X35551011Y14080339D01*
X35620385Y14065248D01*
X35635509Y14055528D01*
X35758292Y13963612D01*
X35758297Y13963610D01*
X35895295Y13912511D01*
X35895303Y13912509D01*
X35955850Y13906000D01*
X35955862Y13906000D01*
X37704149Y13906000D01*
X37764696Y13912509D01*
X37764704Y13912511D01*
X37901702Y13963610D01*
X37901707Y13963612D01*
X38018761Y14051238D01*
X38106387Y14168292D01*
X38106389Y14168297D01*
X38157488Y14305295D01*
X38157490Y14305303D01*
X38163999Y14365850D01*
X38164000Y14365867D01*
X38164000Y16114132D01*
X38163999Y16114149D01*
X38157490Y16174696D01*
X38157488Y16174704D01*
X38150460Y16193545D01*
X38106389Y16311704D01*
X38018761Y16428761D01*
X37901704Y16516389D01*
X37764701Y16567489D01*
X37764699Y16567489D01*
X37764696Y16567490D01*
X37704149Y16573999D01*
X37704145Y16573999D01*
X37704138Y16574000D01*
X35955862Y16574000D01*
X35955855Y16573999D01*
X35955850Y16573999D01*
X35895303Y16567490D01*
X35895295Y16567488D01*
X35817375Y16538424D01*
X35758296Y16516389D01*
X35641239Y16428761D01*
X35641238Y16428759D01*
X35635510Y16424471D01*
X35568990Y16399660D01*
X35499615Y16414751D01*
X35484490Y16424471D01*
X35478762Y16428759D01*
X35478761Y16428761D01*
X35361704Y16516389D01*
X35224701Y16567489D01*
X35224699Y16567489D01*
X35224696Y16567490D01*
X35164149Y16573999D01*
X35164145Y16573999D01*
X35164138Y16574000D01*
X33415862Y16574000D01*
X33415855Y16573999D01*
X33415850Y16573999D01*
X33355303Y16567490D01*
X33355295Y16567488D01*
X33277375Y16538424D01*
X33218296Y16516389D01*
X33218294Y16516388D01*
X33218292Y16516387D01*
X33101236Y16428759D01*
X33095895Y16423418D01*
X33033583Y16389392D01*
X32962768Y16394457D01*
X32905932Y16437004D01*
X32881121Y16503524D01*
X32880800Y16512513D01*
X32880800Y16900262D01*
X32880799Y16900279D01*
X32874290Y16960826D01*
X32874288Y16960834D01*
X32851056Y17023121D01*
X32823189Y17097834D01*
X32735561Y17214891D01*
X32618504Y17302519D01*
X32481501Y17353619D01*
X32481499Y17353619D01*
X32481496Y17353620D01*
X32420949Y17360129D01*
X32420945Y17360129D01*
X32420938Y17360130D01*
X31023182Y17360130D01*
X31023175Y17360129D01*
X31023170Y17360129D01*
X30962623Y17353620D01*
X30962615Y17353618D01*
X30884695Y17324554D01*
X30825616Y17302519D01*
X30825614Y17302518D01*
X30825612Y17302517D01*
X30708558Y17214891D01*
X30620932Y17097837D01*
X30620930Y17097832D01*
X30569831Y16960834D01*
X30569829Y16960826D01*
X30563320Y16900279D01*
X30563320Y15103720D01*
X30569829Y15043173D01*
X30569831Y15043165D01*
X30620930Y14906167D01*
X30620932Y14906162D01*
X30708558Y14789108D01*
X30825612Y14701482D01*
X30825617Y14701480D01*
X30962615Y14650381D01*
X30962623Y14650379D01*
X31023170Y14643870D01*
X31023182Y14643870D01*
X31595560Y14643870D01*
X31663681Y14623868D01*
X31710174Y14570212D01*
X31721560Y14517870D01*
X31721560Y10975499D01*
X31701558Y10907378D01*
X31647902Y10860885D01*
X31595560Y10849499D01*
X31231480Y10849499D01*
X31163359Y10869501D01*
X31127772Y10907725D01*
X31126790Y10906990D01*
X31033761Y11031261D01*
X30916707Y11118887D01*
X30916706Y11118887D01*
X30916704Y11118889D01*
X30779701Y11169989D01*
X30779699Y11169989D01*
X30779696Y11169990D01*
X30719149Y11176499D01*
X30719145Y11176499D01*
X30719138Y11176500D01*
X29224862Y11176500D01*
X29224855Y11176499D01*
X29224850Y11176499D01*
X29164303Y11169990D01*
X29164295Y11169988D01*
X29086375Y11140924D01*
X29027296Y11118889D01*
X29027294Y11118888D01*
X29027292Y11118887D01*
X28910236Y11031259D01*
X28903866Y11024889D01*
X28901634Y11027120D01*
X28857326Y10993947D01*
X28813286Y10986000D01*
X28336714Y10986000D01*
X28268593Y11006002D01*
X28247182Y11025937D01*
X28246134Y11024889D01*
X28239763Y11031259D01*
X28239761Y11031259D01*
X28239761Y11031261D01*
X28122704Y11118889D01*
X27985701Y11169989D01*
X27985699Y11169989D01*
X27985696Y11169990D01*
X27925149Y11176499D01*
X27925145Y11176499D01*
X27925138Y11176500D01*
X26430862Y11176500D01*
X26430855Y11176499D01*
X26430850Y11176499D01*
X26370303Y11169990D01*
X26370295Y11169988D01*
X26292375Y11140924D01*
X26233296Y11118889D01*
X26233294Y11118888D01*
X26233292Y11118887D01*
X26116236Y11031259D01*
X26109866Y11024889D01*
X26107634Y11027120D01*
X26063326Y10993947D01*
X26019286Y10986000D01*
X24098159Y10986000D01*
X24030038Y11006002D01*
X23983545Y11059658D01*
X23973441Y11129932D01*
X23997291Y11187510D01*
X24018279Y11215546D01*
X24018279Y11215547D01*
X24018708Y11216695D01*
X24044850Y11286785D01*
X24069378Y11352545D01*
X24069380Y11352553D01*
X24075889Y11413100D01*
X24075890Y11413117D01*
X24075890Y12981042D01*
X24075889Y12981059D01*
X24069380Y13041606D01*
X24069378Y13041614D01*
X24064785Y13053929D01*
X24056840Y13097962D01*
X24056840Y14126115D01*
X24076842Y14194236D01*
X24093745Y14215210D01*
X28827630Y18949095D01*
X28889942Y18983121D01*
X28916725Y18986000D01*
X30084149Y18986000D01*
X30144696Y18992509D01*
X30144704Y18992511D01*
X30281702Y19043610D01*
X30281707Y19043612D01*
X30398761Y19131238D01*
X30486387Y19248292D01*
X30486389Y19248297D01*
X30537488Y19385295D01*
X30537490Y19385303D01*
X30543999Y19445850D01*
X30544000Y19445867D01*
X30544000Y21194132D01*
X30543999Y21194149D01*
X30537490Y21254696D01*
X30537488Y21254704D01*
X30530460Y21273545D01*
X30486389Y21391704D01*
X30398761Y21508761D01*
X30398758Y21508763D01*
X30394471Y21514490D01*
X30369660Y21581010D01*
X30384751Y21650385D01*
X30394471Y21665510D01*
X30398758Y21671236D01*
X30398761Y21671239D01*
X30486389Y21788296D01*
X30537489Y21925299D01*
X30537490Y21925303D01*
X30543999Y21985850D01*
X30544000Y21985867D01*
X30544000Y23734132D01*
X30543999Y23734149D01*
X30537490Y23794696D01*
X30537488Y23794704D01*
X30530460Y23813545D01*
X30486389Y23931704D01*
X30398761Y24048761D01*
X30281704Y24136389D01*
X30144701Y24187489D01*
X30144699Y24187489D01*
X30144696Y24187490D01*
X30084149Y24193999D01*
X30084145Y24193999D01*
X30084138Y24194000D01*
X30084132Y24194000D01*
X30035000Y24194000D01*
X29966879Y24214002D01*
X29920386Y24267658D01*
X29909000Y24320000D01*
X29909000Y24646144D01*
X29929002Y24714265D01*
X29982658Y24760758D01*
X30010232Y24768322D01*
X30010026Y24769197D01*
X30017704Y24771011D01*
X30154702Y24822110D01*
X30154707Y24822112D01*
X30271761Y24909738D01*
X30359387Y25026792D01*
X30359389Y25026797D01*
X30410488Y25163795D01*
X30410490Y25163803D01*
X30416999Y25224350D01*
X30417000Y25224367D01*
X30417000Y26210632D01*
X30416999Y26210649D01*
X30410490Y26271196D01*
X30410488Y26271204D01*
X30386769Y26334796D01*
X30359389Y26408204D01*
X30350770Y26419717D01*
X30271761Y26525261D01*
X30213157Y26569132D01*
X30170610Y26625968D01*
X30165546Y26696784D01*
X30199571Y26759096D01*
X30213157Y26770868D01*
X30271761Y26814738D01*
X30359387Y26931792D01*
X30359389Y26931797D01*
X30410488Y27068795D01*
X30410490Y27068803D01*
X30416999Y27129350D01*
X30417000Y27129367D01*
X30417000Y28115632D01*
X30416999Y28115649D01*
X30410490Y28176196D01*
X30410488Y28176204D01*
X30403460Y28195045D01*
X30359389Y28313204D01*
X30356761Y28316714D01*
X30271761Y28430261D01*
X30154707Y28517887D01*
X30154706Y28517887D01*
X30154704Y28517889D01*
X30017701Y28568989D01*
X30017699Y28568989D01*
X30017696Y28568990D01*
X29957149Y28575499D01*
X29957145Y28575499D01*
X29957138Y28575500D01*
X28462862Y28575500D01*
X28462855Y28575499D01*
X28462850Y28575499D01*
X28402303Y28568990D01*
X28402295Y28568988D01*
X28324375Y28539924D01*
X28265296Y28517889D01*
X28265294Y28517888D01*
X28265292Y28517887D01*
X28148238Y28430261D01*
X28104618Y28371991D01*
X28047782Y28329444D01*
X28003750Y28321500D01*
X27876250Y28321500D01*
X27808129Y28341502D01*
X27775382Y28371991D01*
X27731761Y28430261D01*
X27614707Y28517887D01*
X27614706Y28517887D01*
X27614704Y28517889D01*
X27477701Y28568989D01*
X27477699Y28568989D01*
X27477696Y28568990D01*
X27417149Y28575499D01*
X27417145Y28575499D01*
X27417138Y28575500D01*
X25922862Y28575500D01*
X25922855Y28575499D01*
X25922850Y28575499D01*
X25862303Y28568990D01*
X25862295Y28568988D01*
X25784375Y28539924D01*
X25725296Y28517889D01*
X25725294Y28517888D01*
X25725292Y28517887D01*
X25608238Y28430261D01*
X25564618Y28371991D01*
X25507782Y28329444D01*
X25463750Y28321500D01*
X25336250Y28321500D01*
X25268129Y28341502D01*
X25235382Y28371991D01*
X25191761Y28430261D01*
X25074707Y28517887D01*
X25074706Y28517887D01*
X25074704Y28517889D01*
X24937701Y28568989D01*
X24937699Y28568989D01*
X24937696Y28568990D01*
X24877149Y28575499D01*
X24877145Y28575499D01*
X24877138Y28575500D01*
X23382862Y28575500D01*
X23382855Y28575499D01*
X23382850Y28575499D01*
X23322303Y28568990D01*
X23322295Y28568988D01*
X23244375Y28539924D01*
X23185296Y28517889D01*
X23185294Y28517888D01*
X23185292Y28517887D01*
X23068238Y28430261D01*
X23024618Y28371991D01*
X22967782Y28329444D01*
X22923750Y28321500D01*
X22796250Y28321500D01*
X22728129Y28341502D01*
X22695382Y28371991D01*
X22651761Y28430261D01*
X22534707Y28517887D01*
X22534706Y28517887D01*
X22534704Y28517889D01*
X22397701Y28568989D01*
X22397699Y28568989D01*
X22397696Y28568990D01*
X22337149Y28575499D01*
X22337145Y28575499D01*
X22337138Y28575500D01*
X20842862Y28575500D01*
X20842855Y28575499D01*
X20842850Y28575499D01*
X20782303Y28568990D01*
X20782295Y28568988D01*
X20704375Y28539924D01*
X20645296Y28517889D01*
X20645294Y28517888D01*
X20645292Y28517887D01*
X20528238Y28430261D01*
X20484618Y28371991D01*
X20427782Y28329444D01*
X20383750Y28321500D01*
X20256250Y28321500D01*
X20188129Y28341502D01*
X20155382Y28371991D01*
X20111761Y28430261D01*
X19994707Y28517887D01*
X19994706Y28517887D01*
X19994704Y28517889D01*
X19857701Y28568989D01*
X19857699Y28568989D01*
X19857696Y28568990D01*
X19797149Y28575499D01*
X19797145Y28575499D01*
X19797138Y28575500D01*
X18302862Y28575500D01*
X18302855Y28575499D01*
X18302850Y28575499D01*
X18242303Y28568990D01*
X18242295Y28568988D01*
X18164375Y28539924D01*
X18105296Y28517889D01*
X18105294Y28517888D01*
X18105292Y28517887D01*
X17988238Y28430261D01*
X17944618Y28371991D01*
X17887782Y28329444D01*
X17843750Y28321500D01*
X17716250Y28321500D01*
X17648129Y28341502D01*
X17615382Y28371991D01*
X17571761Y28430261D01*
X17454707Y28517887D01*
X17454706Y28517887D01*
X17454704Y28517889D01*
X17317701Y28568989D01*
X17317699Y28568989D01*
X17317696Y28568990D01*
X17257149Y28575499D01*
X17257145Y28575499D01*
X17257138Y28575500D01*
X15762862Y28575500D01*
X15762855Y28575499D01*
X15762850Y28575499D01*
X15702303Y28568990D01*
X15702295Y28568988D01*
X15624375Y28539924D01*
X15565296Y28517889D01*
X15565294Y28517888D01*
X15565292Y28517887D01*
X15448238Y28430261D01*
X15404618Y28371991D01*
X15347782Y28329444D01*
X15303750Y28321500D01*
X15176250Y28321500D01*
X15108129Y28341502D01*
X15075382Y28371991D01*
X15031761Y28430261D01*
X14914707Y28517887D01*
X14914706Y28517887D01*
X14914704Y28517889D01*
X14777701Y28568989D01*
X14777699Y28568989D01*
X14777696Y28568990D01*
X14717149Y28575499D01*
X14717145Y28575499D01*
X14717138Y28575500D01*
X13222862Y28575500D01*
X13222855Y28575499D01*
X13222850Y28575499D01*
X13162303Y28568990D01*
X13162295Y28568988D01*
X13084375Y28539924D01*
X13025296Y28517889D01*
X13025294Y28517888D01*
X13025292Y28517887D01*
X12908238Y28430261D01*
X12864618Y28371991D01*
X12807782Y28329444D01*
X12763750Y28321500D01*
X12636250Y28321500D01*
X12568129Y28341502D01*
X12535382Y28371991D01*
X12491761Y28430261D01*
X12374707Y28517887D01*
X12374706Y28517887D01*
X12374704Y28517889D01*
X12237701Y28568989D01*
X12237699Y28568989D01*
X12237696Y28568990D01*
X12177149Y28575499D01*
X12177145Y28575499D01*
X12177138Y28575500D01*
X10682862Y28575500D01*
X10682855Y28575499D01*
X10682850Y28575499D01*
X10622303Y28568990D01*
X10622295Y28568988D01*
X10544375Y28539924D01*
X10485296Y28517889D01*
X10485294Y28517888D01*
X10485292Y28517887D01*
X10368238Y28430261D01*
X10275210Y28305990D01*
X10273171Y28307516D01*
X10232516Y28266861D01*
X10163142Y28251769D01*
X10112736Y28266325D01*
X10025038Y28313202D01*
X10018468Y28316714D01*
X10018466Y28316714D01*
X10018462Y28316717D01*
X9838821Y28371211D01*
X9838815Y28371211D01*
X9838814Y28371212D01*
X9652003Y28389611D01*
X9651997Y28389611D01*
X9465186Y28371212D01*
X9465184Y28371212D01*
X9465181Y28371211D01*
X9465179Y28371211D01*
X9285538Y28316717D01*
X9285534Y28316715D01*
X9278962Y28313202D01*
X9119980Y28228224D01*
X8974867Y28109133D01*
X8855776Y27964020D01*
X8767284Y27798465D01*
X8767282Y27798459D01*
X8712787Y27618815D01*
X8712787Y27618813D01*
X8694389Y27432003D01*
X8694389Y27431996D01*
X8712787Y27245186D01*
X8712787Y27245184D01*
X8767282Y27065540D01*
X8767284Y27065534D01*
X8855776Y26899979D01*
X8974867Y26754867D01*
X9119979Y26635776D01*
X9285534Y26547284D01*
X9285540Y26547282D01*
X9465185Y26492787D01*
X9651997Y26474389D01*
X9652000Y26474389D01*
X9652003Y26474389D01*
X9838813Y26492787D01*
X9838815Y26492787D01*
X10018459Y26547282D01*
X10018465Y26547284D01*
X10128965Y26606348D01*
X10198471Y26620820D01*
X10264767Y26595416D01*
X10306805Y26538203D01*
X10311238Y26467345D01*
X10289229Y26419717D01*
X10280612Y26408207D01*
X10280610Y26408202D01*
X10229511Y26271204D01*
X10229509Y26271196D01*
X10223000Y26210649D01*
X10223000Y25224350D01*
X10229509Y25163803D01*
X10229511Y25163795D01*
X10280610Y25026797D01*
X10280612Y25026792D01*
X10368238Y24909738D01*
X10485292Y24822112D01*
X10485297Y24822110D01*
X10622295Y24771011D01*
X10629974Y24769197D01*
X10629427Y24766883D01*
X10684066Y24744249D01*
X10724554Y24685929D01*
X10731000Y24646144D01*
X10731000Y24320000D01*
X10710998Y24251879D01*
X10657342Y24205386D01*
X10605000Y24194000D01*
X10555862Y24194000D01*
X10555855Y24193999D01*
X10555850Y24193999D01*
X10495303Y24187490D01*
X10495295Y24187488D01*
X10417375Y24158424D01*
X10358296Y24136389D01*
X10358294Y24136388D01*
X10358292Y24136387D01*
X10241238Y24048761D01*
X10153612Y23931707D01*
X10153610Y23931702D01*
X10102511Y23794704D01*
X10102509Y23794696D01*
X10096000Y23734149D01*
X10096000Y21985850D01*
X10102509Y21925303D01*
X10102511Y21925295D01*
X10153610Y21788297D01*
X10153612Y21788292D01*
X10245528Y21665509D01*
X10270339Y21598989D01*
X10255248Y21529615D01*
X10245528Y21514491D01*
X10153612Y21391707D01*
X10153610Y21391702D01*
X10102511Y21254704D01*
X10102509Y21254696D01*
X10096000Y21194149D01*
X10096000Y19445850D01*
X10102509Y19385303D01*
X10102511Y19385295D01*
X10153610Y19248297D01*
X10153612Y19248292D01*
X10241238Y19131238D01*
X10358292Y19043612D01*
X10358297Y19043610D01*
X10495295Y18992511D01*
X10495303Y18992509D01*
X10555850Y18986000D01*
X10555862Y18986000D01*
X10642029Y18986000D01*
X10710150Y18965998D01*
X10756643Y18912342D01*
X10758438Y18908218D01*
X10810554Y18782398D01*
X10877659Y18681969D01*
X10887050Y18667915D01*
X10887055Y18667909D01*
X11736903Y17818060D01*
X11794145Y17779813D01*
X11851392Y17741562D01*
X11851393Y17741561D01*
X11904083Y17719736D01*
X11904082Y17719735D01*
X11978596Y17688871D01*
X11978604Y17688869D01*
X12113636Y17662010D01*
X12113644Y17662010D01*
X12113645Y17662010D01*
X14473567Y17662010D01*
X14541688Y17642008D01*
X14562662Y17625105D01*
X16986171Y15201595D01*
X17020197Y15139283D01*
X17015132Y15068467D01*
X16972585Y15011632D01*
X16906065Y14986821D01*
X16897076Y14986500D01*
X14922250Y14986500D01*
X14854129Y15006502D01*
X14821382Y15036991D01*
X14777761Y15095261D01*
X14660707Y15182887D01*
X14660706Y15182887D01*
X14660704Y15182889D01*
X14523701Y15233989D01*
X14523699Y15233989D01*
X14523696Y15233990D01*
X14463149Y15240499D01*
X14463145Y15240499D01*
X14463138Y15240500D01*
X14463132Y15240500D01*
X13549726Y15240500D01*
X13481605Y15260502D01*
X13460631Y15277405D01*
X10415092Y18322943D01*
X10415087Y18322948D01*
X10300601Y18399446D01*
X10173391Y18452138D01*
X10038346Y18479000D01*
X10038345Y18479000D01*
X7810000Y18479000D01*
X7741879Y18499002D01*
X7695386Y18552658D01*
X7684000Y18605000D01*
X7684000Y18654132D01*
X7683999Y18654149D01*
X7677490Y18714696D01*
X7677488Y18714704D01*
X7652239Y18782398D01*
X7626389Y18851704D01*
X7538761Y18968761D01*
X7516161Y18985679D01*
X7421707Y19056387D01*
X7421706Y19056387D01*
X7421704Y19056389D01*
X7284701Y19107489D01*
X7284699Y19107489D01*
X7284696Y19107490D01*
X7224149Y19113999D01*
X7224145Y19113999D01*
X7224138Y19114000D01*
X5475862Y19114000D01*
X5475855Y19113999D01*
X5475850Y19113999D01*
X5415303Y19107490D01*
X5415295Y19107488D01*
X5337375Y19078424D01*
X5278296Y19056389D01*
X5161239Y18968761D01*
X5161236Y18968758D01*
X5155510Y18964471D01*
X5088990Y18939660D01*
X5019615Y18954751D01*
X5004490Y18964471D01*
X4998763Y18968758D01*
X4998761Y18968761D01*
X4881704Y19056389D01*
X4744701Y19107489D01*
X4744699Y19107489D01*
X4744696Y19107490D01*
X4684149Y19113999D01*
X4684145Y19113999D01*
X4684138Y19114000D01*
X2935862Y19114000D01*
X2935855Y19113999D01*
X2935850Y19113999D01*
X2875303Y19107490D01*
X2875295Y19107488D01*
X2797375Y19078424D01*
X2738296Y19056389D01*
X2738294Y19056388D01*
X2738292Y19056387D01*
X2621238Y18968761D01*
X2533612Y18851707D01*
X2533610Y18851702D01*
X2482511Y18714704D01*
X2482509Y18714696D01*
X2476000Y18654149D01*
X306500Y18654149D01*
X306500Y30047500D01*
X326502Y30115621D01*
X380158Y30162114D01*
X432500Y30173500D01*
X40207500Y30173500D01*
X40275621Y30153498D01*
G37*
%TD.AperFunction*%
%TD*%
M02*
