%TF.GenerationSoftware,KiCad,Pcbnew,8.0.3+1*%
%TF.CreationDate,2024-07-16T01:17:04+00:00*%
%TF.ProjectId,I2CIO01,49324349-4f30-4312-9e6b-696361645f70,rev?*%
%TF.SameCoordinates,Original*%
%TF.FileFunction,Paste,Bot*%
%TF.FilePolarity,Positive*%
%FSLAX46Y46*%
G04 Gerber Fmt 4.6, Leading zero omitted, Abs format (unit mm)*
G04 Created by KiCad (PCBNEW 8.0.3+1) date 2024-07-16 01:17:04*
%MOMM*%
%LPD*%
G01*
G04 APERTURE LIST*
%ADD10R,1.397000X0.889000*%
%ADD11R,0.419100X1.470660*%
%ADD12R,1.300480X1.699260*%
G04 APERTURE END LIST*
D10*
%TO.C,R1*%
X8890000Y4889500D03*
X8890000Y2984500D03*
%TD*%
%TO.C,R2*%
X11303000Y12382500D03*
X11303000Y14287500D03*
%TD*%
%TO.C,R3*%
X8890000Y6667500D03*
X8890000Y8572500D03*
%TD*%
%TO.C,R4*%
X13716000Y12382500D03*
X13716000Y14287500D03*
%TD*%
%TO.C,R6*%
X11430000Y-7429500D03*
X11430000Y-5524500D03*
%TD*%
%TO.C,R7*%
X26670000Y27622500D03*
X26670000Y25717500D03*
%TD*%
%TO.C,R8*%
X21590000Y-7429500D03*
X21590000Y-5524500D03*
%TD*%
%TO.C,R9*%
X24130000Y27622500D03*
X24130000Y25717500D03*
%TD*%
%TO.C,R10*%
X16510000Y-7429500D03*
X16510000Y-5524500D03*
%TD*%
%TO.C,R12*%
X19050000Y-7429500D03*
X19050000Y-5524500D03*
%TD*%
%TO.C,R14*%
X13970000Y-7429500D03*
X13970000Y-5524500D03*
%TD*%
%TO.C,R16*%
X16510000Y27622500D03*
X16510000Y25717500D03*
%TD*%
%TO.C,R18*%
X11430000Y27622500D03*
X11430000Y25717500D03*
%TD*%
%TO.C,R20*%
X29210000Y-7493000D03*
X29210000Y-5524500D03*
%TD*%
%TO.C,R19*%
X26670000Y-7429500D03*
X26670000Y-5524500D03*
%TD*%
%TO.C,R15*%
X13970000Y27622500D03*
X13970000Y25717500D03*
%TD*%
%TO.C,R17*%
X24130000Y-7429500D03*
X24130000Y-5524500D03*
%TD*%
%TO.C,R5*%
X29210000Y27622500D03*
X29210000Y25717500D03*
%TD*%
%TO.C,R13*%
X19050000Y27622500D03*
X19050000Y25717500D03*
%TD*%
%TO.C,R11*%
X21590000Y27622500D03*
X21590000Y25717500D03*
%TD*%
D11*
%TO.C,U1*%
X16857980Y12197080D03*
X17508220Y12197080D03*
X18155920Y12197080D03*
X18806160Y12197080D03*
X19456400Y12197080D03*
X20106640Y12197080D03*
X20756880Y12197080D03*
X21407120Y12197080D03*
X22057360Y12197080D03*
X22707600Y12197080D03*
X23357840Y12197080D03*
X24008080Y12197080D03*
X24008080Y6598920D03*
X23357840Y6598920D03*
X22707600Y6598920D03*
X22057360Y6598920D03*
X21407120Y6598920D03*
X20756880Y6598920D03*
X20106640Y6598920D03*
X19456400Y6604000D03*
X18816320Y6604000D03*
X18155920Y6598920D03*
X17508220Y6598920D03*
X16857980Y6598920D03*
%TD*%
D10*
%TO.C,R24*%
X27178000Y8318500D03*
X27178000Y6413500D03*
%TD*%
%TO.C,C1*%
X27178000Y10223500D03*
X27178000Y12128500D03*
%TD*%
%TO.C,C2*%
X29972000Y10223500D03*
X29972000Y12128500D03*
%TD*%
D12*
%TO.C,D1*%
X28221940Y16002000D03*
X31722060Y16002000D03*
%TD*%
M02*
