%TF.GenerationSoftware,KiCad,Pcbnew,8.0.3+1*%
%TF.CreationDate,2024-07-16T01:17:04+00:00*%
%TF.ProjectId,I2CIO01,49324349-4f30-4312-9e6b-696361645f70,rev?*%
%TF.SameCoordinates,Original*%
%TF.FileFunction,Soldermask,Top*%
%TF.FilePolarity,Negative*%
%FSLAX46Y46*%
G04 Gerber Fmt 4.6, Leading zero omitted, Abs format (unit mm)*
G04 Created by KiCad (PCBNEW 8.0.3+1) date 2024-07-16 01:17:04*
%MOMM*%
%LPD*%
G01*
G04 APERTURE LIST*
%ADD10R,1.651000X1.651000*%
%ADD11C,6.000000*%
G04 APERTURE END LIST*
D10*
%TO.C,J8*%
X11430000Y7366000D03*
X11430000Y9906000D03*
%TD*%
D11*
%TO.C,P1*%
X5080000Y-5080000D03*
%TD*%
%TO.C,P2*%
X35560000Y25400000D03*
%TD*%
%TO.C,P3*%
X5050000Y25400000D03*
%TD*%
%TO.C,P4*%
X35560000Y-5080000D03*
%TD*%
D10*
%TO.C,J3*%
X36830000Y12700000D03*
X36830000Y15240000D03*
X36830000Y17780000D03*
X34290000Y17780000D03*
X34290000Y15240000D03*
X34290000Y12700000D03*
%TD*%
%TO.C,J1*%
X3810000Y17780000D03*
X3810000Y15240000D03*
X6350000Y15240000D03*
X6350000Y17780000D03*
%TD*%
%TO.C,J2*%
X6350000Y1270000D03*
X6350000Y3810000D03*
X6350000Y6350000D03*
X6350000Y8890000D03*
X6350000Y11430000D03*
X3810000Y11430000D03*
X3810000Y8890000D03*
X3810000Y6350000D03*
X3810000Y3810000D03*
X3810000Y1270000D03*
%TD*%
%TO.C,J5*%
X13970000Y9906000D03*
X13970000Y7366000D03*
%TD*%
%TO.C,J6*%
X11430000Y20320000D03*
X13970000Y20320000D03*
X16510000Y20320000D03*
X19050000Y20320000D03*
X21590000Y20320000D03*
X24130000Y20320000D03*
X26670000Y20320000D03*
X29210000Y20320000D03*
X29210000Y22860000D03*
X26670000Y22860000D03*
X24130000Y22860000D03*
X21590000Y22860000D03*
X19050000Y22860000D03*
X16510000Y22860000D03*
X13970000Y22860000D03*
X11430000Y22860000D03*
%TD*%
%TO.C,J7*%
X29210000Y0D03*
X26670000Y0D03*
X24130000Y0D03*
X21590000Y0D03*
X19050000Y0D03*
X16510000Y0D03*
X13970000Y0D03*
X11430000Y0D03*
X11430000Y-2540000D03*
X13970000Y-2540000D03*
X16510000Y-2540000D03*
X19050000Y-2540000D03*
X21590000Y-2540000D03*
X24130000Y-2540000D03*
X26670000Y-2540000D03*
X29210000Y-2540000D03*
%TD*%
%TO.C,J4*%
X33147000Y6223000D03*
X35687000Y6223000D03*
%TD*%
%TO.C,J9*%
X35687000Y3683000D03*
X33147000Y3683000D03*
%TD*%
M02*
