%TF.GenerationSoftware,KiCad,Pcbnew,8.0.3+1*%
%TF.CreationDate,2024-07-16T01:17:04+00:00*%
%TF.ProjectId,I2CIO01,49324349-4f30-4312-9e6b-696361645f70,rev?*%
%TF.SameCoordinates,Original*%
%TF.FileFunction,Copper,L1,Top*%
%TF.FilePolarity,Positive*%
%FSLAX46Y46*%
G04 Gerber Fmt 4.6, Leading zero omitted, Abs format (unit mm)*
G04 Created by KiCad (PCBNEW 8.0.3+1) date 2024-07-16 01:17:04*
%MOMM*%
%LPD*%
G01*
G04 APERTURE LIST*
%TA.AperFunction,ComponentPad*%
%ADD10R,1.651000X1.651000*%
%TD*%
%TA.AperFunction,ComponentPad*%
%ADD11C,6.000000*%
%TD*%
%TA.AperFunction,ViaPad*%
%ADD12C,0.889000*%
%TD*%
%TA.AperFunction,Conductor*%
%ADD13C,0.381000*%
%TD*%
%TA.AperFunction,Conductor*%
%ADD14C,0.508000*%
%TD*%
G04 APERTURE END LIST*
D10*
%TO.P,J8,1*%
%TO.N,Net-(J2-Pad3)*%
X11430000Y7366000D03*
%TO.P,J8,2*%
%TO.N,VDD*%
X11430000Y9906000D03*
%TD*%
D11*
%TO.P,P1,1*%
%TO.N,GND*%
X5080000Y-5080000D03*
%TD*%
%TO.P,P2,1*%
%TO.N,GND*%
X35560000Y25400000D03*
%TD*%
%TO.P,P3,1*%
%TO.N,GND*%
X5050000Y25400000D03*
%TD*%
%TO.P,P4,1*%
%TO.N,GND*%
X35560000Y-5080000D03*
%TD*%
D10*
%TO.P,J3,1*%
%TO.N,GND*%
X36830000Y12700000D03*
%TO.P,J3,2*%
%TO.N,VDD*%
X36830000Y15240000D03*
%TO.P,J3,3*%
%TO.N,GND*%
X36830000Y17780000D03*
%TO.P,J3,4*%
X34290000Y17780000D03*
%TO.P,J3,5*%
%TO.N,VDD*%
X34290000Y15240000D03*
%TO.P,J3,6*%
%TO.N,GND*%
X34290000Y12700000D03*
%TD*%
%TO.P,J1,1*%
%TO.N,/#RES*%
X3810000Y17780000D03*
%TO.P,J1,2*%
%TO.N,/#INT*%
X3810000Y15240000D03*
%TO.P,J1,3*%
X6350000Y15240000D03*
%TO.P,J1,4*%
%TO.N,/#RES*%
X6350000Y17780000D03*
%TD*%
%TO.P,J2,1*%
%TO.N,GND*%
X6350000Y1270000D03*
%TO.P,J2,2*%
%TO.N,/SCL*%
X6350000Y3810000D03*
%TO.P,J2,3*%
%TO.N,Net-(J2-Pad3)*%
X6350000Y6350000D03*
%TO.P,J2,4*%
%TO.N,/SDA*%
X6350000Y8890000D03*
%TO.P,J2,5*%
%TO.N,GND*%
X6350000Y11430000D03*
%TO.P,J2,6*%
X3810000Y11430000D03*
%TO.P,J2,7*%
%TO.N,/SDA*%
X3810000Y8890000D03*
%TO.P,J2,8*%
%TO.N,Net-(J2-Pad3)*%
X3810000Y6350000D03*
%TO.P,J2,9*%
%TO.N,/SCL*%
X3810000Y3810000D03*
%TO.P,J2,10*%
%TO.N,GND*%
X3810000Y1270000D03*
%TD*%
%TO.P,J5,1*%
%TO.N,VDD*%
X13970000Y9906000D03*
%TO.P,J5,2*%
%TO.N,/Vccp*%
X13970000Y7366000D03*
%TD*%
%TO.P,J6,1*%
%TO.N,/P00*%
X11430000Y20320000D03*
%TO.P,J6,2*%
%TO.N,/P01*%
X13970000Y20320000D03*
%TO.P,J6,3*%
%TO.N,/P02*%
X16510000Y20320000D03*
%TO.P,J6,4*%
%TO.N,/P03*%
X19050000Y20320000D03*
%TO.P,J6,5*%
%TO.N,/P04*%
X21590000Y20320000D03*
%TO.P,J6,6*%
%TO.N,/P05*%
X24130000Y20320000D03*
%TO.P,J6,7*%
%TO.N,/P06*%
X26670000Y20320000D03*
%TO.P,J6,8*%
%TO.N,/P07*%
X29210000Y20320000D03*
%TO.P,J6,9*%
X29210000Y22860000D03*
%TO.P,J6,10*%
%TO.N,/P06*%
X26670000Y22860000D03*
%TO.P,J6,11*%
%TO.N,/P05*%
X24130000Y22860000D03*
%TO.P,J6,12*%
%TO.N,/P04*%
X21590000Y22860000D03*
%TO.P,J6,13*%
%TO.N,/P03*%
X19050000Y22860000D03*
%TO.P,J6,14*%
%TO.N,/P02*%
X16510000Y22860000D03*
%TO.P,J6,15*%
%TO.N,/P01*%
X13970000Y22860000D03*
%TO.P,J6,16*%
%TO.N,/P00*%
X11430000Y22860000D03*
%TD*%
%TO.P,J7,1*%
%TO.N,/P10*%
X29210000Y0D03*
%TO.P,J7,2*%
%TO.N,/P11*%
X26670000Y0D03*
%TO.P,J7,3*%
%TO.N,/P12*%
X24130000Y0D03*
%TO.P,J7,4*%
%TO.N,/P13*%
X21590000Y0D03*
%TO.P,J7,5*%
%TO.N,/P14*%
X19050000Y0D03*
%TO.P,J7,6*%
%TO.N,/P15*%
X16510000Y0D03*
%TO.P,J7,7*%
%TO.N,/P16*%
X13970000Y0D03*
%TO.P,J7,8*%
%TO.N,/P17*%
X11430000Y0D03*
%TO.P,J7,9*%
X11430000Y-2540000D03*
%TO.P,J7,10*%
%TO.N,/P16*%
X13970000Y-2540000D03*
%TO.P,J7,11*%
%TO.N,/P15*%
X16510000Y-2540000D03*
%TO.P,J7,12*%
%TO.N,/P14*%
X19050000Y-2540000D03*
%TO.P,J7,13*%
%TO.N,/P13*%
X21590000Y-2540000D03*
%TO.P,J7,14*%
%TO.N,/P12*%
X24130000Y-2540000D03*
%TO.P,J7,15*%
%TO.N,/P11*%
X26670000Y-2540000D03*
%TO.P,J7,16*%
%TO.N,/P10*%
X29210000Y-2540000D03*
%TD*%
%TO.P,J4,1*%
%TO.N,/#RES*%
X33147000Y6223000D03*
%TO.P,J4,2*%
%TO.N,GND*%
X35687000Y6223000D03*
%TD*%
%TO.P,J9,1*%
%TO.N,GND*%
X35687000Y3683000D03*
%TO.P,J9,2*%
%TO.N,/A0*%
X33147000Y3683000D03*
%TD*%
D12*
%TO.N,/#RES*%
X17780000Y13716000D03*
%TO.N,/Vccp*%
X9398000Y-6096000D03*
X9652000Y27432000D03*
%TD*%
D13*
%TO.N,/#RES*%
X18224499Y13271501D02*
X17780000Y13716000D01*
X33147000Y6223000D02*
X25273000Y6223000D01*
X25273000Y6223000D02*
X18224499Y13271501D01*
D14*
%TO.N,/Vccp*%
X9652000Y19629798D02*
X9652000Y26803383D01*
X15249501Y14032297D02*
X9652000Y19629798D01*
X15249501Y8645501D02*
X15249501Y14032297D01*
X9652000Y26803383D02*
X9652000Y27432000D01*
X13970000Y7366000D02*
X13970000Y6032500D01*
X9398000Y1460500D02*
X9398000Y-6096000D01*
X13970000Y6032500D02*
X9398000Y1460500D01*
X13970000Y7366000D02*
X15249501Y8645501D01*
%TD*%
%TA.AperFunction,Conductor*%
%TO.N,GND*%
G36*
X5930667Y1443694D02*
G01*
X5900000Y1329244D01*
X5900000Y1210756D01*
X5930667Y1096306D01*
X5977032Y1016000D01*
X4182968Y1016000D01*
X4229333Y1096306D01*
X4260000Y1210756D01*
X4260000Y1329244D01*
X4229333Y1443694D01*
X4182968Y1524000D01*
X5977032Y1524000D01*
X5930667Y1443694D01*
G37*
%TD.AperFunction*%
%TA.AperFunction,Conductor*%
G36*
X5930667Y11603694D02*
G01*
X5900000Y11489244D01*
X5900000Y11370756D01*
X5930667Y11256306D01*
X5977032Y11176000D01*
X4182968Y11176000D01*
X4229333Y11256306D01*
X4260000Y11370756D01*
X4260000Y11489244D01*
X4229333Y11603694D01*
X4182968Y11684000D01*
X5977032Y11684000D01*
X5930667Y11603694D01*
G37*
%TD.AperFunction*%
%TA.AperFunction,Conductor*%
G36*
X35941000Y4055968D02*
G01*
X35860694Y4102333D01*
X35746244Y4133000D01*
X35627756Y4133000D01*
X35513306Y4102333D01*
X35433000Y4055968D01*
X35433000Y5850031D01*
X35513306Y5803667D01*
X35627756Y5773000D01*
X35746244Y5773000D01*
X35860694Y5803667D01*
X35941000Y5850031D01*
X35941000Y4055968D01*
G37*
%TD.AperFunction*%
%TA.AperFunction,Conductor*%
G36*
X36410667Y12873694D02*
G01*
X36380000Y12759244D01*
X36380000Y12640756D01*
X36410667Y12526306D01*
X36457032Y12446000D01*
X34662968Y12446000D01*
X34709333Y12526306D01*
X34740000Y12640756D01*
X34740000Y12759244D01*
X34709333Y12873694D01*
X34662968Y12954000D01*
X36457032Y12954000D01*
X36410667Y12873694D01*
G37*
%TD.AperFunction*%
%TA.AperFunction,Conductor*%
G36*
X36410667Y17953694D02*
G01*
X36380000Y17839244D01*
X36380000Y17720756D01*
X36410667Y17606306D01*
X36457032Y17526000D01*
X34662968Y17526000D01*
X34709333Y17606306D01*
X34740000Y17720756D01*
X34740000Y17839244D01*
X34709333Y17953694D01*
X34662968Y18034000D01*
X36457032Y18034000D01*
X36410667Y17953694D01*
G37*
%TD.AperFunction*%
%TA.AperFunction,Conductor*%
G36*
X40275621Y30153498D02*
G01*
X40322114Y30099842D01*
X40333500Y30047500D01*
X40333500Y-9727500D01*
X40313498Y-9795621D01*
X40259842Y-9842114D01*
X40207500Y-9853500D01*
X432500Y-9853500D01*
X364379Y-9833498D01*
X317886Y-9779842D01*
X306500Y-9727500D01*
X306500Y-6095996D01*
X8440389Y-6095996D01*
X8440389Y-6096003D01*
X8458787Y-6282813D01*
X8458787Y-6282815D01*
X8513282Y-6462459D01*
X8513284Y-6462465D01*
X8601776Y-6628020D01*
X8720867Y-6773133D01*
X8865980Y-6892224D01*
X9031538Y-6980717D01*
X9211179Y-7035211D01*
X9211183Y-7035211D01*
X9211185Y-7035212D01*
X9397997Y-7053611D01*
X9398000Y-7053611D01*
X9398003Y-7053611D01*
X9584813Y-7035212D01*
X9584815Y-7035212D01*
X9584816Y-7035211D01*
X9584821Y-7035211D01*
X9764462Y-6980717D01*
X9930020Y-6892224D01*
X10075133Y-6773133D01*
X10194224Y-6628020D01*
X10282717Y-6462462D01*
X10337211Y-6282821D01*
X10355611Y-6096000D01*
X10337212Y-5909186D01*
X10337212Y-5909184D01*
X10337211Y-5909181D01*
X10337211Y-5909179D01*
X10282717Y-5729538D01*
X10194224Y-5563980D01*
X10194222Y-5563977D01*
X10189099Y-5557734D01*
X10161347Y-5492386D01*
X10160500Y-5477803D01*
X10160500Y-3920037D01*
X10180502Y-3851916D01*
X10234158Y-3805423D01*
X10304432Y-3795319D01*
X10349364Y-3813931D01*
X10350382Y-3812068D01*
X10358293Y-3816386D01*
X10358296Y-3816389D01*
X10417375Y-3838424D01*
X10495295Y-3867488D01*
X10495303Y-3867490D01*
X10555850Y-3873999D01*
X10555855Y-3873999D01*
X10555862Y-3874000D01*
X10555868Y-3874000D01*
X12304132Y-3874000D01*
X12304138Y-3874000D01*
X12304145Y-3873999D01*
X12304149Y-3873999D01*
X12364696Y-3867490D01*
X12364699Y-3867489D01*
X12364701Y-3867489D01*
X12501704Y-3816389D01*
X12618761Y-3728761D01*
X12618763Y-3728758D01*
X12624490Y-3724471D01*
X12691010Y-3699660D01*
X12760385Y-3714751D01*
X12775510Y-3724471D01*
X12781236Y-3728758D01*
X12781239Y-3728761D01*
X12870150Y-3795319D01*
X12898296Y-3816389D01*
X13035295Y-3867488D01*
X13035303Y-3867490D01*
X13095850Y-3873999D01*
X13095855Y-3873999D01*
X13095862Y-3874000D01*
X13095868Y-3874000D01*
X14844132Y-3874000D01*
X14844138Y-3874000D01*
X14844145Y-3873999D01*
X14844149Y-3873999D01*
X14904696Y-3867490D01*
X14904699Y-3867489D01*
X14904701Y-3867489D01*
X15041704Y-3816389D01*
X15158761Y-3728761D01*
X15158763Y-3728758D01*
X15164490Y-3724471D01*
X15231010Y-3699660D01*
X15300385Y-3714751D01*
X15315510Y-3724471D01*
X15321236Y-3728758D01*
X15321239Y-3728761D01*
X15410150Y-3795319D01*
X15438296Y-3816389D01*
X15575295Y-3867488D01*
X15575303Y-3867490D01*
X15635850Y-3873999D01*
X15635855Y-3873999D01*
X15635862Y-3874000D01*
X15635868Y-3874000D01*
X17384132Y-3874000D01*
X17384138Y-3874000D01*
X17384145Y-3873999D01*
X17384149Y-3873999D01*
X17444696Y-3867490D01*
X17444699Y-3867489D01*
X17444701Y-3867489D01*
X17581704Y-3816389D01*
X17698761Y-3728761D01*
X17698763Y-3728758D01*
X17704490Y-3724471D01*
X17771010Y-3699660D01*
X17840385Y-3714751D01*
X17855510Y-3724471D01*
X17861236Y-3728758D01*
X17861239Y-3728761D01*
X17950150Y-3795319D01*
X17978296Y-3816389D01*
X18115295Y-3867488D01*
X18115303Y-3867490D01*
X18175850Y-3873999D01*
X18175855Y-3873999D01*
X18175862Y-3874000D01*
X18175868Y-3874000D01*
X19924132Y-3874000D01*
X19924138Y-3874000D01*
X19924145Y-3873999D01*
X19924149Y-3873999D01*
X19984696Y-3867490D01*
X19984699Y-3867489D01*
X19984701Y-3867489D01*
X20121704Y-3816389D01*
X20238761Y-3728761D01*
X20238763Y-3728758D01*
X20244490Y-3724471D01*
X20311010Y-3699660D01*
X20380385Y-3714751D01*
X20395510Y-3724471D01*
X20401236Y-3728758D01*
X20401239Y-3728761D01*
X20490150Y-3795319D01*
X20518296Y-3816389D01*
X20655295Y-3867488D01*
X20655303Y-3867490D01*
X20715850Y-3873999D01*
X20715855Y-3873999D01*
X20715862Y-3874000D01*
X20715868Y-3874000D01*
X22464132Y-3874000D01*
X22464138Y-3874000D01*
X22464145Y-3873999D01*
X22464149Y-3873999D01*
X22524696Y-3867490D01*
X22524699Y-3867489D01*
X22524701Y-3867489D01*
X22661704Y-3816389D01*
X22778761Y-3728761D01*
X22778763Y-3728758D01*
X22784490Y-3724471D01*
X22851010Y-3699660D01*
X22920385Y-3714751D01*
X22935510Y-3724471D01*
X22941236Y-3728758D01*
X22941239Y-3728761D01*
X23030150Y-3795319D01*
X23058296Y-3816389D01*
X23195295Y-3867488D01*
X23195303Y-3867490D01*
X23255850Y-3873999D01*
X23255855Y-3873999D01*
X23255862Y-3874000D01*
X23255868Y-3874000D01*
X25004132Y-3874000D01*
X25004138Y-3874000D01*
X25004145Y-3873999D01*
X25004149Y-3873999D01*
X25064696Y-3867490D01*
X25064699Y-3867489D01*
X25064701Y-3867489D01*
X25201704Y-3816389D01*
X25318761Y-3728761D01*
X25318763Y-3728758D01*
X25324490Y-3724471D01*
X25391010Y-3699660D01*
X25460385Y-3714751D01*
X25475510Y-3724471D01*
X25481236Y-3728758D01*
X25481239Y-3728761D01*
X25570150Y-3795319D01*
X25598296Y-3816389D01*
X25735295Y-3867488D01*
X25735303Y-3867490D01*
X25795850Y-3873999D01*
X25795855Y-3873999D01*
X25795862Y-3874000D01*
X25795868Y-3874000D01*
X27544132Y-3874000D01*
X27544138Y-3874000D01*
X27544145Y-3873999D01*
X27544149Y-3873999D01*
X27604696Y-3867490D01*
X27604699Y-3867489D01*
X27604701Y-3867489D01*
X27741704Y-3816389D01*
X27858761Y-3728761D01*
X27858763Y-3728758D01*
X27864490Y-3724471D01*
X27931010Y-3699660D01*
X28000385Y-3714751D01*
X28015510Y-3724471D01*
X28021236Y-3728758D01*
X28021239Y-3728761D01*
X28110150Y-3795319D01*
X28138296Y-3816389D01*
X28275295Y-3867488D01*
X28275303Y-3867490D01*
X28335850Y-3873999D01*
X28335855Y-3873999D01*
X28335862Y-3874000D01*
X28335868Y-3874000D01*
X30084132Y-3874000D01*
X30084138Y-3874000D01*
X30084145Y-3873999D01*
X30084149Y-3873999D01*
X30144696Y-3867490D01*
X30144699Y-3867489D01*
X30144701Y-3867489D01*
X30281704Y-3816389D01*
X30284988Y-3813931D01*
X30398761Y-3728761D01*
X30486387Y-3611707D01*
X30486387Y-3611706D01*
X30486389Y-3611704D01*
X30537489Y-3474701D01*
X30544000Y-3414138D01*
X30544000Y-1665862D01*
X30543999Y-1665850D01*
X30537490Y-1605303D01*
X30537488Y-1605295D01*
X30486389Y-1468297D01*
X30486389Y-1468296D01*
X30479500Y-1459093D01*
X30398761Y-1351239D01*
X30398758Y-1351236D01*
X30394471Y-1345510D01*
X30369660Y-1278990D01*
X30384751Y-1209615D01*
X30394471Y-1194490D01*
X30398758Y-1188763D01*
X30398761Y-1188761D01*
X30486389Y-1071704D01*
X30537489Y-934701D01*
X30544000Y-874138D01*
X30544000Y874138D01*
X30543999Y874149D01*
X30537490Y934696D01*
X30537488Y934704D01*
X30530460Y953545D01*
X30486389Y1071704D01*
X30479500Y1080906D01*
X30398761Y1188761D01*
X30281707Y1276387D01*
X30281706Y1276387D01*
X30281704Y1276389D01*
X30144701Y1327489D01*
X30144699Y1327489D01*
X30144696Y1327490D01*
X30084149Y1333999D01*
X30084145Y1333999D01*
X30084138Y1334000D01*
X28335862Y1334000D01*
X28335855Y1333999D01*
X28335850Y1333999D01*
X28275303Y1327490D01*
X28275295Y1327488D01*
X28197375Y1298424D01*
X28138296Y1276389D01*
X28021239Y1188761D01*
X28021236Y1188758D01*
X28015510Y1184471D01*
X27948990Y1159660D01*
X27879615Y1174751D01*
X27864490Y1184471D01*
X27858763Y1188758D01*
X27858761Y1188761D01*
X27741704Y1276389D01*
X27604701Y1327489D01*
X27604699Y1327489D01*
X27604696Y1327490D01*
X27544149Y1333999D01*
X27544145Y1333999D01*
X27544138Y1334000D01*
X25795862Y1334000D01*
X25795855Y1333999D01*
X25795850Y1333999D01*
X25735303Y1327490D01*
X25735295Y1327488D01*
X25657375Y1298424D01*
X25598296Y1276389D01*
X25481239Y1188761D01*
X25481236Y1188758D01*
X25475510Y1184471D01*
X25408990Y1159660D01*
X25339615Y1174751D01*
X25324490Y1184471D01*
X25318763Y1188758D01*
X25318761Y1188761D01*
X25201704Y1276389D01*
X25064701Y1327489D01*
X25064699Y1327489D01*
X25064696Y1327490D01*
X25004149Y1333999D01*
X25004145Y1333999D01*
X25004138Y1334000D01*
X23255862Y1334000D01*
X23255855Y1333999D01*
X23255850Y1333999D01*
X23195303Y1327490D01*
X23195295Y1327488D01*
X23117375Y1298424D01*
X23058296Y1276389D01*
X22941239Y1188761D01*
X22941236Y1188758D01*
X22935510Y1184471D01*
X22868990Y1159660D01*
X22799615Y1174751D01*
X22784490Y1184471D01*
X22778763Y1188758D01*
X22778761Y1188761D01*
X22661704Y1276389D01*
X22524701Y1327489D01*
X22524699Y1327489D01*
X22524696Y1327490D01*
X22464149Y1333999D01*
X22464145Y1333999D01*
X22464138Y1334000D01*
X20715862Y1334000D01*
X20715855Y1333999D01*
X20715850Y1333999D01*
X20655303Y1327490D01*
X20655295Y1327488D01*
X20577375Y1298424D01*
X20518296Y1276389D01*
X20401239Y1188761D01*
X20401236Y1188758D01*
X20395510Y1184471D01*
X20328990Y1159660D01*
X20259615Y1174751D01*
X20244490Y1184471D01*
X20238763Y1188758D01*
X20238761Y1188761D01*
X20121704Y1276389D01*
X19984701Y1327489D01*
X19984699Y1327489D01*
X19984696Y1327490D01*
X19924149Y1333999D01*
X19924145Y1333999D01*
X19924138Y1334000D01*
X18175862Y1334000D01*
X18175855Y1333999D01*
X18175850Y1333999D01*
X18115303Y1327490D01*
X18115295Y1327488D01*
X18037375Y1298424D01*
X17978296Y1276389D01*
X17861239Y1188761D01*
X17861236Y1188758D01*
X17855510Y1184471D01*
X17788990Y1159660D01*
X17719615Y1174751D01*
X17704490Y1184471D01*
X17698763Y1188758D01*
X17698761Y1188761D01*
X17581704Y1276389D01*
X17444701Y1327489D01*
X17444699Y1327489D01*
X17444696Y1327490D01*
X17384149Y1333999D01*
X17384145Y1333999D01*
X17384138Y1334000D01*
X15635862Y1334000D01*
X15635855Y1333999D01*
X15635850Y1333999D01*
X15575303Y1327490D01*
X15575295Y1327488D01*
X15497375Y1298424D01*
X15438296Y1276389D01*
X15321239Y1188761D01*
X15321236Y1188758D01*
X15315510Y1184471D01*
X15248990Y1159660D01*
X15179615Y1174751D01*
X15164490Y1184471D01*
X15158763Y1188758D01*
X15158761Y1188761D01*
X15041704Y1276389D01*
X14904701Y1327489D01*
X14904699Y1327489D01*
X14904696Y1327490D01*
X14844149Y1333999D01*
X14844145Y1333999D01*
X14844138Y1334000D01*
X13095862Y1334000D01*
X13095855Y1333999D01*
X13095850Y1333999D01*
X13035303Y1327490D01*
X13035295Y1327488D01*
X12957375Y1298424D01*
X12898296Y1276389D01*
X12781239Y1188761D01*
X12781236Y1188758D01*
X12775510Y1184471D01*
X12708990Y1159660D01*
X12639615Y1174751D01*
X12624490Y1184471D01*
X12618763Y1188758D01*
X12618761Y1188761D01*
X12501704Y1276389D01*
X12364701Y1327489D01*
X12364699Y1327489D01*
X12364696Y1327490D01*
X12304149Y1333999D01*
X12304145Y1333999D01*
X12304138Y1334000D01*
X10654028Y1334000D01*
X10585907Y1354002D01*
X10539414Y1407658D01*
X10529310Y1477932D01*
X10558804Y1542512D01*
X10564933Y1549095D01*
X14562269Y5546432D01*
X14562272Y5546435D01*
X14645718Y5671321D01*
X14703197Y5810087D01*
X14727200Y5930757D01*
X14760108Y5993666D01*
X14821803Y6028798D01*
X14840794Y6031528D01*
X14840783Y6031639D01*
X14843874Y6031971D01*
X14844039Y6031995D01*
X14844149Y6032000D01*
X14904696Y6038509D01*
X14904704Y6038511D01*
X15041702Y6089610D01*
X15041707Y6089612D01*
X15158761Y6177238D01*
X15246387Y6294292D01*
X15246389Y6294297D01*
X15297488Y6431295D01*
X15297490Y6431303D01*
X15303999Y6491850D01*
X15304000Y6491867D01*
X15304000Y7569472D01*
X15324002Y7637593D01*
X15340905Y7658567D01*
X15841771Y8159433D01*
X15841774Y8159436D01*
X15925220Y8284322D01*
X15982698Y8423089D01*
X16012001Y8570402D01*
X16012001Y8720601D01*
X16012001Y13716003D01*
X16822389Y13716003D01*
X16822389Y13715996D01*
X16840787Y13529186D01*
X16840787Y13529184D01*
X16895282Y13349540D01*
X16895284Y13349534D01*
X16983776Y13183979D01*
X17102867Y13038867D01*
X17247979Y12919776D01*
X17413534Y12831284D01*
X17413540Y12831282D01*
X17593186Y12776787D01*
X17700831Y12766185D01*
X17736804Y12751658D01*
X17757940Y12745453D01*
X17763731Y12740785D01*
X17766663Y12739602D01*
X17777542Y12729921D01*
X17778880Y12728584D01*
X17778876Y12728580D01*
X17778914Y12728550D01*
X24827407Y5680055D01*
X24827413Y5680050D01*
X24884655Y5641803D01*
X24941900Y5603553D01*
X25069103Y5550864D01*
X25069108Y5550862D01*
X25091345Y5546439D01*
X25136632Y5537431D01*
X25153512Y5534073D01*
X25204151Y5524000D01*
X25204154Y5524000D01*
X25204155Y5524000D01*
X31687000Y5524000D01*
X31755121Y5503998D01*
X31801614Y5450342D01*
X31813000Y5398000D01*
X31813000Y5348850D01*
X31819509Y5288303D01*
X31819511Y5288295D01*
X31870610Y5151297D01*
X31870612Y5151292D01*
X31962528Y5028509D01*
X31987339Y4961989D01*
X31972248Y4892615D01*
X31962528Y4877491D01*
X31870612Y4754707D01*
X31870610Y4754702D01*
X31819511Y4617704D01*
X31819509Y4617696D01*
X31813000Y4557149D01*
X31813000Y2808850D01*
X31819509Y2748303D01*
X31819511Y2748295D01*
X31870610Y2611297D01*
X31870612Y2611292D01*
X31958238Y2494238D01*
X32075292Y2406612D01*
X32075297Y2406610D01*
X32212295Y2355511D01*
X32212303Y2355509D01*
X32272850Y2349000D01*
X32272862Y2349000D01*
X34021149Y2349000D01*
X34081696Y2355509D01*
X34081704Y2355511D01*
X34218702Y2406610D01*
X34218703Y2406610D01*
X34245634Y2426771D01*
X34335761Y2494239D01*
X34335762Y2494240D01*
X34341906Y2498840D01*
X34408427Y2523651D01*
X34477801Y2508560D01*
X34492925Y2498840D01*
X34615534Y2407055D01*
X34752406Y2356005D01*
X34812902Y2349500D01*
X35433000Y2349500D01*
X35433000Y3310031D01*
X35513306Y3263667D01*
X35627756Y3233000D01*
X35746244Y3233000D01*
X35860694Y3263667D01*
X35941000Y3310031D01*
X35941000Y2349500D01*
X36561097Y2349500D01*
X36621593Y2356005D01*
X36758464Y2407055D01*
X36758465Y2407055D01*
X36875404Y2494595D01*
X36962944Y2611534D01*
X36962944Y2611535D01*
X37013994Y2748406D01*
X37020499Y2808902D01*
X37020500Y2808914D01*
X37020500Y3429000D01*
X36059968Y3429000D01*
X36106333Y3509306D01*
X36137000Y3623756D01*
X36137000Y3742244D01*
X36106333Y3856694D01*
X36059968Y3937000D01*
X37020500Y3937000D01*
X37020500Y4557085D01*
X37020499Y4557097D01*
X37013994Y4617593D01*
X36962945Y4754463D01*
X36870847Y4877490D01*
X36846036Y4944010D01*
X36861127Y5013385D01*
X36870847Y5028510D01*
X36962945Y5151536D01*
X37013994Y5288406D01*
X37020499Y5348902D01*
X37020500Y5348914D01*
X37020500Y5969000D01*
X36059968Y5969000D01*
X36106333Y6049306D01*
X36137000Y6163756D01*
X36137000Y6282244D01*
X36106333Y6396694D01*
X36059968Y6477000D01*
X37020500Y6477000D01*
X37020500Y7097085D01*
X37020499Y7097097D01*
X37013994Y7157593D01*
X36962944Y7294464D01*
X36962944Y7294465D01*
X36875404Y7411404D01*
X36758465Y7498944D01*
X36621593Y7549994D01*
X36561097Y7556499D01*
X36561085Y7556500D01*
X35941000Y7556500D01*
X35941000Y6595968D01*
X35860694Y6642333D01*
X35746244Y6673000D01*
X35627756Y6673000D01*
X35513306Y6642333D01*
X35433000Y6595968D01*
X35433000Y7556500D01*
X34812915Y7556500D01*
X34812902Y7556499D01*
X34752406Y7549994D01*
X34615535Y7498944D01*
X34615534Y7498944D01*
X34492925Y7407159D01*
X34426405Y7382348D01*
X34357031Y7397439D01*
X34341906Y7407160D01*
X34335762Y7411759D01*
X34335761Y7411761D01*
X34218704Y7499389D01*
X34081701Y7550489D01*
X34081699Y7550489D01*
X34081696Y7550490D01*
X34021149Y7556999D01*
X34021145Y7556999D01*
X34021138Y7557000D01*
X32272862Y7557000D01*
X32272855Y7556999D01*
X32272850Y7556999D01*
X32212303Y7550490D01*
X32212295Y7550488D01*
X32180855Y7538761D01*
X32075296Y7499389D01*
X32075294Y7499388D01*
X32075292Y7499387D01*
X31958238Y7411761D01*
X31870612Y7294707D01*
X31870610Y7294702D01*
X31819511Y7157704D01*
X31819509Y7157696D01*
X31813000Y7097149D01*
X31813000Y7048000D01*
X31792998Y6979879D01*
X31739342Y6933386D01*
X31687000Y6922000D01*
X25614726Y6922000D01*
X25546605Y6942002D01*
X25525631Y6958905D01*
X24468669Y8015867D01*
X18777820Y13706713D01*
X18777817Y13706718D01*
X18767448Y13717086D01*
X18767448Y13717088D01*
X18766112Y13718423D01*
X18755897Y13737128D01*
X18754222Y13739454D01*
X18754218Y13739462D01*
X18754536Y13739621D01*
X18732087Y13780732D01*
X18729813Y13795171D01*
X18719212Y13902812D01*
X18719212Y13902815D01*
X18719211Y13902816D01*
X18719211Y13902821D01*
X18664717Y14082462D01*
X18576224Y14248020D01*
X18457133Y14393133D01*
X18312020Y14512224D01*
X18146462Y14600717D01*
X17966821Y14655211D01*
X17966815Y14655211D01*
X17966814Y14655212D01*
X17780003Y14673611D01*
X17779997Y14673611D01*
X17593186Y14655212D01*
X17593184Y14655212D01*
X17593181Y14655211D01*
X17593179Y14655211D01*
X17413538Y14600717D01*
X17247980Y14512224D01*
X17102867Y14393133D01*
X16989268Y14254712D01*
X16983776Y14248020D01*
X16895284Y14082465D01*
X16895282Y14082459D01*
X16840787Y13902815D01*
X16840787Y13902813D01*
X16822389Y13716003D01*
X16012001Y13716003D01*
X16012001Y14107397D01*
X15982698Y14254710D01*
X15925219Y14393476D01*
X15857060Y14495484D01*
X15841774Y14518362D01*
X14245987Y16114149D01*
X32956000Y16114149D01*
X32956000Y14365850D01*
X32962509Y14305303D01*
X32962511Y14305295D01*
X33013610Y14168297D01*
X33013612Y14168292D01*
X33105840Y14045092D01*
X33130651Y13978572D01*
X33115560Y13909198D01*
X33105840Y13894074D01*
X33014055Y13771465D01*
X33014055Y13771464D01*
X32963005Y13634593D01*
X32956500Y13574097D01*
X32956500Y12954000D01*
X33917032Y12954000D01*
X33870667Y12873694D01*
X33840000Y12759244D01*
X33840000Y12640756D01*
X33870667Y12526306D01*
X33917032Y12446000D01*
X32956500Y12446000D01*
X32956500Y11825902D01*
X32963005Y11765406D01*
X33014055Y11628535D01*
X33014055Y11628534D01*
X33101595Y11511595D01*
X33218534Y11424055D01*
X33355406Y11373005D01*
X33415902Y11366500D01*
X34036000Y11366500D01*
X34036000Y12327031D01*
X34116306Y12280667D01*
X34230756Y12250000D01*
X34349244Y12250000D01*
X34463694Y12280667D01*
X34544000Y12327031D01*
X34544000Y11366500D01*
X35164097Y11366500D01*
X35224593Y11373005D01*
X35361464Y11424055D01*
X35361465Y11424055D01*
X35484491Y11516152D01*
X35551011Y11540963D01*
X35620385Y11525872D01*
X35635509Y11516152D01*
X35758534Y11424055D01*
X35895406Y11373005D01*
X35955902Y11366500D01*
X36576000Y11366500D01*
X36576000Y12327031D01*
X36656306Y12280667D01*
X36770756Y12250000D01*
X36889244Y12250000D01*
X37003694Y12280667D01*
X37084000Y12327031D01*
X37084000Y11366500D01*
X37704097Y11366500D01*
X37764593Y11373005D01*
X37901464Y11424055D01*
X37901465Y11424055D01*
X38018404Y11511595D01*
X38105944Y11628534D01*
X38105944Y11628535D01*
X38156994Y11765406D01*
X38163499Y11825902D01*
X38163500Y11825914D01*
X38163500Y12446000D01*
X37202968Y12446000D01*
X37249333Y12526306D01*
X37280000Y12640756D01*
X37280000Y12759244D01*
X37249333Y12873694D01*
X37202968Y12954000D01*
X38163500Y12954000D01*
X38163500Y13574085D01*
X38163499Y13574097D01*
X38156994Y13634593D01*
X38105944Y13771464D01*
X38105943Y13771466D01*
X38014160Y13894072D01*
X37989348Y13960592D01*
X38004439Y14029966D01*
X38014159Y14045091D01*
X38106387Y14168292D01*
X38106389Y14168297D01*
X38157488Y14305295D01*
X38157490Y14305303D01*
X38163999Y14365850D01*
X38164000Y14365867D01*
X38164000Y16114132D01*
X38163999Y16114149D01*
X38157490Y16174696D01*
X38157488Y16174704D01*
X38150460Y16193545D01*
X38106389Y16311704D01*
X38018761Y16428761D01*
X38018759Y16428762D01*
X38014160Y16434906D01*
X37989348Y16501426D01*
X38004439Y16570800D01*
X38014159Y16585925D01*
X38105944Y16708534D01*
X38105944Y16708535D01*
X38156994Y16845406D01*
X38163499Y16905902D01*
X38163500Y16905914D01*
X38163500Y17526000D01*
X37202968Y17526000D01*
X37249333Y17606306D01*
X37280000Y17720756D01*
X37280000Y17839244D01*
X37249333Y17953694D01*
X37202968Y18034000D01*
X38163500Y18034000D01*
X38163500Y18654085D01*
X38163499Y18654097D01*
X38156994Y18714593D01*
X38105944Y18851464D01*
X38105944Y18851465D01*
X38018404Y18968404D01*
X37901465Y19055944D01*
X37764593Y19106994D01*
X37704097Y19113499D01*
X37704085Y19113500D01*
X37084000Y19113500D01*
X37084000Y18152968D01*
X37003694Y18199333D01*
X36889244Y18230000D01*
X36770756Y18230000D01*
X36656306Y18199333D01*
X36576000Y18152968D01*
X36576000Y19113500D01*
X35955915Y19113500D01*
X35955902Y19113499D01*
X35895406Y19106994D01*
X35758536Y19055945D01*
X35635510Y18963847D01*
X35568990Y18939036D01*
X35499615Y18954127D01*
X35484490Y18963847D01*
X35361463Y19055945D01*
X35224593Y19106994D01*
X35164097Y19113499D01*
X35164085Y19113500D01*
X34544000Y19113500D01*
X34544000Y18152968D01*
X34463694Y18199333D01*
X34349244Y18230000D01*
X34230756Y18230000D01*
X34116306Y18199333D01*
X34036000Y18152968D01*
X34036000Y19113500D01*
X33415915Y19113500D01*
X33415902Y19113499D01*
X33355406Y19106994D01*
X33218535Y19055944D01*
X33218534Y19055944D01*
X33101595Y18968404D01*
X33014055Y18851465D01*
X33014055Y18851464D01*
X32963005Y18714593D01*
X32956500Y18654097D01*
X32956500Y18034000D01*
X33917032Y18034000D01*
X33870667Y17953694D01*
X33840000Y17839244D01*
X33840000Y17720756D01*
X33870667Y17606306D01*
X33917032Y17526000D01*
X32956500Y17526000D01*
X32956500Y16905902D01*
X32963005Y16845406D01*
X33014055Y16708535D01*
X33014055Y16708534D01*
X33105840Y16585925D01*
X33130651Y16519405D01*
X33115559Y16450030D01*
X33105840Y16434906D01*
X33101240Y16428762D01*
X33101239Y16428761D01*
X33033771Y16338634D01*
X33013610Y16311703D01*
X33013610Y16311702D01*
X32962511Y16174704D01*
X32962509Y16174696D01*
X32956000Y16114149D01*
X14245987Y16114149D01*
X11589231Y18770905D01*
X11555205Y18833217D01*
X11560270Y18904032D01*
X11602817Y18960868D01*
X11669337Y18985679D01*
X11678326Y18986000D01*
X12304149Y18986000D01*
X12364696Y18992509D01*
X12364704Y18992511D01*
X12501702Y19043610D01*
X12501707Y19043612D01*
X12624491Y19135528D01*
X12691011Y19160339D01*
X12760385Y19145248D01*
X12775509Y19135528D01*
X12898292Y19043612D01*
X12898297Y19043610D01*
X13035295Y18992511D01*
X13035303Y18992509D01*
X13095850Y18986000D01*
X13095862Y18986000D01*
X14844149Y18986000D01*
X14904696Y18992509D01*
X14904704Y18992511D01*
X15041702Y19043610D01*
X15041707Y19043612D01*
X15164491Y19135528D01*
X15231011Y19160339D01*
X15300385Y19145248D01*
X15315509Y19135528D01*
X15438292Y19043612D01*
X15438297Y19043610D01*
X15575295Y18992511D01*
X15575303Y18992509D01*
X15635850Y18986000D01*
X15635862Y18986000D01*
X17384149Y18986000D01*
X17444696Y18992509D01*
X17444704Y18992511D01*
X17581702Y19043610D01*
X17581707Y19043612D01*
X17704491Y19135528D01*
X17771011Y19160339D01*
X17840385Y19145248D01*
X17855509Y19135528D01*
X17978292Y19043612D01*
X17978297Y19043610D01*
X18115295Y18992511D01*
X18115303Y18992509D01*
X18175850Y18986000D01*
X18175862Y18986000D01*
X19924149Y18986000D01*
X19984696Y18992509D01*
X19984704Y18992511D01*
X20121702Y19043610D01*
X20121707Y19043612D01*
X20244491Y19135528D01*
X20311011Y19160339D01*
X20380385Y19145248D01*
X20395509Y19135528D01*
X20518292Y19043612D01*
X20518297Y19043610D01*
X20655295Y18992511D01*
X20655303Y18992509D01*
X20715850Y18986000D01*
X20715862Y18986000D01*
X22464149Y18986000D01*
X22524696Y18992509D01*
X22524704Y18992511D01*
X22661702Y19043610D01*
X22661707Y19043612D01*
X22784491Y19135528D01*
X22851011Y19160339D01*
X22920385Y19145248D01*
X22935509Y19135528D01*
X23058292Y19043612D01*
X23058297Y19043610D01*
X23195295Y18992511D01*
X23195303Y18992509D01*
X23255850Y18986000D01*
X23255862Y18986000D01*
X25004149Y18986000D01*
X25064696Y18992509D01*
X25064704Y18992511D01*
X25201702Y19043610D01*
X25201707Y19043612D01*
X25324491Y19135528D01*
X25391011Y19160339D01*
X25460385Y19145248D01*
X25475509Y19135528D01*
X25598292Y19043612D01*
X25598297Y19043610D01*
X25735295Y18992511D01*
X25735303Y18992509D01*
X25795850Y18986000D01*
X25795862Y18986000D01*
X27544149Y18986000D01*
X27604696Y18992509D01*
X27604704Y18992511D01*
X27741702Y19043610D01*
X27741707Y19043612D01*
X27864491Y19135528D01*
X27931011Y19160339D01*
X28000385Y19145248D01*
X28015509Y19135528D01*
X28138292Y19043612D01*
X28138297Y19043610D01*
X28275295Y18992511D01*
X28275303Y18992509D01*
X28335850Y18986000D01*
X28335862Y18986000D01*
X30084149Y18986000D01*
X30144696Y18992509D01*
X30144704Y18992511D01*
X30281702Y19043610D01*
X30281707Y19043612D01*
X30398761Y19131238D01*
X30486387Y19248292D01*
X30486389Y19248297D01*
X30537488Y19385295D01*
X30537490Y19385303D01*
X30543999Y19445850D01*
X30544000Y19445867D01*
X30544000Y21194132D01*
X30543999Y21194149D01*
X30537490Y21254696D01*
X30537488Y21254704D01*
X30530460Y21273545D01*
X30486389Y21391704D01*
X30398761Y21508761D01*
X30398758Y21508763D01*
X30394471Y21514490D01*
X30369660Y21581010D01*
X30384751Y21650385D01*
X30394471Y21665510D01*
X30398758Y21671236D01*
X30398761Y21671239D01*
X30486389Y21788296D01*
X30537489Y21925299D01*
X30537490Y21925303D01*
X30543999Y21985850D01*
X30544000Y21985867D01*
X30544000Y23734132D01*
X30543999Y23734149D01*
X30537490Y23794696D01*
X30537488Y23794704D01*
X30530460Y23813545D01*
X30486389Y23931704D01*
X30398761Y24048761D01*
X30281704Y24136389D01*
X30144701Y24187489D01*
X30144699Y24187489D01*
X30144696Y24187490D01*
X30084149Y24193999D01*
X30084145Y24193999D01*
X30084138Y24194000D01*
X28335862Y24194000D01*
X28335855Y24193999D01*
X28335850Y24193999D01*
X28275303Y24187490D01*
X28275295Y24187488D01*
X28197375Y24158424D01*
X28138296Y24136389D01*
X28021239Y24048761D01*
X28021236Y24048758D01*
X28015510Y24044471D01*
X27948990Y24019660D01*
X27879615Y24034751D01*
X27864490Y24044471D01*
X27858763Y24048758D01*
X27858761Y24048761D01*
X27741704Y24136389D01*
X27604701Y24187489D01*
X27604699Y24187489D01*
X27604696Y24187490D01*
X27544149Y24193999D01*
X27544145Y24193999D01*
X27544138Y24194000D01*
X25795862Y24194000D01*
X25795855Y24193999D01*
X25795850Y24193999D01*
X25735303Y24187490D01*
X25735295Y24187488D01*
X25657375Y24158424D01*
X25598296Y24136389D01*
X25481239Y24048761D01*
X25481236Y24048758D01*
X25475510Y24044471D01*
X25408990Y24019660D01*
X25339615Y24034751D01*
X25324490Y24044471D01*
X25318763Y24048758D01*
X25318761Y24048761D01*
X25201704Y24136389D01*
X25064701Y24187489D01*
X25064699Y24187489D01*
X25064696Y24187490D01*
X25004149Y24193999D01*
X25004145Y24193999D01*
X25004138Y24194000D01*
X23255862Y24194000D01*
X23255855Y24193999D01*
X23255850Y24193999D01*
X23195303Y24187490D01*
X23195295Y24187488D01*
X23117375Y24158424D01*
X23058296Y24136389D01*
X22941239Y24048761D01*
X22941236Y24048758D01*
X22935510Y24044471D01*
X22868990Y24019660D01*
X22799615Y24034751D01*
X22784490Y24044471D01*
X22778763Y24048758D01*
X22778761Y24048761D01*
X22661704Y24136389D01*
X22524701Y24187489D01*
X22524699Y24187489D01*
X22524696Y24187490D01*
X22464149Y24193999D01*
X22464145Y24193999D01*
X22464138Y24194000D01*
X20715862Y24194000D01*
X20715855Y24193999D01*
X20715850Y24193999D01*
X20655303Y24187490D01*
X20655295Y24187488D01*
X20577375Y24158424D01*
X20518296Y24136389D01*
X20401239Y24048761D01*
X20401236Y24048758D01*
X20395510Y24044471D01*
X20328990Y24019660D01*
X20259615Y24034751D01*
X20244490Y24044471D01*
X20238763Y24048758D01*
X20238761Y24048761D01*
X20121704Y24136389D01*
X19984701Y24187489D01*
X19984699Y24187489D01*
X19984696Y24187490D01*
X19924149Y24193999D01*
X19924145Y24193999D01*
X19924138Y24194000D01*
X18175862Y24194000D01*
X18175855Y24193999D01*
X18175850Y24193999D01*
X18115303Y24187490D01*
X18115295Y24187488D01*
X18037375Y24158424D01*
X17978296Y24136389D01*
X17861239Y24048761D01*
X17861236Y24048758D01*
X17855510Y24044471D01*
X17788990Y24019660D01*
X17719615Y24034751D01*
X17704490Y24044471D01*
X17698763Y24048758D01*
X17698761Y24048761D01*
X17581704Y24136389D01*
X17444701Y24187489D01*
X17444699Y24187489D01*
X17444696Y24187490D01*
X17384149Y24193999D01*
X17384145Y24193999D01*
X17384138Y24194000D01*
X15635862Y24194000D01*
X15635855Y24193999D01*
X15635850Y24193999D01*
X15575303Y24187490D01*
X15575295Y24187488D01*
X15497375Y24158424D01*
X15438296Y24136389D01*
X15321239Y24048761D01*
X15321236Y24048758D01*
X15315510Y24044471D01*
X15248990Y24019660D01*
X15179615Y24034751D01*
X15164490Y24044471D01*
X15158763Y24048758D01*
X15158761Y24048761D01*
X15041704Y24136389D01*
X14904701Y24187489D01*
X14904699Y24187489D01*
X14904696Y24187490D01*
X14844149Y24193999D01*
X14844145Y24193999D01*
X14844138Y24194000D01*
X13095862Y24194000D01*
X13095855Y24193999D01*
X13095850Y24193999D01*
X13035303Y24187490D01*
X13035295Y24187488D01*
X12957375Y24158424D01*
X12898296Y24136389D01*
X12781239Y24048761D01*
X12781236Y24048758D01*
X12775510Y24044471D01*
X12708990Y24019660D01*
X12639615Y24034751D01*
X12624490Y24044471D01*
X12618763Y24048758D01*
X12618761Y24048761D01*
X12501704Y24136389D01*
X12364701Y24187489D01*
X12364699Y24187489D01*
X12364696Y24187490D01*
X12304149Y24193999D01*
X12304145Y24193999D01*
X12304138Y24194000D01*
X10555862Y24194000D01*
X10553984Y24193798D01*
X10553552Y24193875D01*
X10552489Y24193819D01*
X10552475Y24194070D01*
X10484115Y24206394D01*
X10432146Y24254766D01*
X10414500Y24319074D01*
X10414500Y26813803D01*
X10434502Y26881924D01*
X10443099Y26893734D01*
X10448222Y26899977D01*
X10536715Y27065534D01*
X10536717Y27065538D01*
X10591211Y27245179D01*
X10591211Y27245181D01*
X10591212Y27245184D01*
X10591212Y27245186D01*
X10609611Y27431996D01*
X10609611Y27432003D01*
X10591212Y27618813D01*
X10591212Y27618815D01*
X10591211Y27618816D01*
X10591211Y27618821D01*
X10536717Y27798462D01*
X10448224Y27964020D01*
X10329133Y28109133D01*
X10184020Y28228224D01*
X10018462Y28316717D01*
X9838821Y28371211D01*
X9838815Y28371211D01*
X9838814Y28371212D01*
X9652003Y28389611D01*
X9651997Y28389611D01*
X9465186Y28371212D01*
X9465184Y28371212D01*
X9465181Y28371211D01*
X9465179Y28371211D01*
X9285538Y28316717D01*
X9119980Y28228224D01*
X8974867Y28109133D01*
X8855776Y27964020D01*
X8767284Y27798465D01*
X8767282Y27798459D01*
X8712787Y27618815D01*
X8712787Y27618813D01*
X8694389Y27432003D01*
X8694389Y27431996D01*
X8712787Y27245186D01*
X8712787Y27245184D01*
X8767282Y27065540D01*
X8767284Y27065534D01*
X8855777Y26899977D01*
X8860901Y26893734D01*
X8888653Y26828386D01*
X8889500Y26813803D01*
X8889500Y19554694D01*
X8918803Y19407383D01*
X8918804Y19407382D01*
X8976282Y19268618D01*
X9059727Y19143732D01*
X9059730Y19143728D01*
X14450096Y13753363D01*
X14484122Y13691051D01*
X14487001Y13664268D01*
X14487001Y11366000D01*
X14466999Y11297879D01*
X14413343Y11251386D01*
X14361001Y11240000D01*
X13095862Y11240000D01*
X13095855Y11239999D01*
X13095850Y11239999D01*
X13035303Y11233490D01*
X13035295Y11233488D01*
X12957375Y11204424D01*
X12898296Y11182389D01*
X12781239Y11094761D01*
X12781236Y11094758D01*
X12775510Y11090471D01*
X12708990Y11065660D01*
X12639615Y11080751D01*
X12624490Y11090471D01*
X12618763Y11094758D01*
X12618761Y11094761D01*
X12501704Y11182389D01*
X12364701Y11233489D01*
X12364699Y11233489D01*
X12364696Y11233490D01*
X12304149Y11239999D01*
X12304145Y11239999D01*
X12304138Y11240000D01*
X10555862Y11240000D01*
X10555855Y11239999D01*
X10555850Y11239999D01*
X10495303Y11233490D01*
X10495295Y11233488D01*
X10417375Y11204424D01*
X10358296Y11182389D01*
X10358294Y11182388D01*
X10358292Y11182387D01*
X10241238Y11094761D01*
X10153612Y10977707D01*
X10153610Y10977702D01*
X10102511Y10840704D01*
X10102509Y10840696D01*
X10096000Y10780149D01*
X10096000Y9031850D01*
X10102509Y8971303D01*
X10102511Y8971295D01*
X10153610Y8834297D01*
X10153612Y8834292D01*
X10245528Y8711509D01*
X10270339Y8644989D01*
X10255248Y8575615D01*
X10245528Y8560491D01*
X10153612Y8437707D01*
X10153610Y8437702D01*
X10102511Y8300704D01*
X10102509Y8300696D01*
X10096000Y8240149D01*
X10096000Y6491850D01*
X10102509Y6431303D01*
X10102511Y6431295D01*
X10153610Y6294297D01*
X10153612Y6294292D01*
X10241238Y6177238D01*
X10358292Y6089612D01*
X10358297Y6089610D01*
X10495295Y6038511D01*
X10495303Y6038509D01*
X10555850Y6032000D01*
X10555862Y6032000D01*
X12304149Y6032000D01*
X12364696Y6038509D01*
X12364704Y6038511D01*
X12501702Y6089610D01*
X12501707Y6089612D01*
X12624491Y6181528D01*
X12691011Y6206339D01*
X12760385Y6191248D01*
X12775510Y6181528D01*
X12781238Y6177239D01*
X12781239Y6177239D01*
X12799250Y6163756D01*
X12810757Y6155142D01*
X12853303Y6098306D01*
X12858367Y6027490D01*
X12824342Y5965179D01*
X8805730Y1946569D01*
X8805727Y1946565D01*
X8722282Y1821679D01*
X8664804Y1682915D01*
X8664803Y1682914D01*
X8635500Y1535603D01*
X8635500Y-5477803D01*
X8615498Y-5545924D01*
X8606901Y-5557734D01*
X8601777Y-5563977D01*
X8513284Y-5729534D01*
X8513282Y-5729540D01*
X8458787Y-5909184D01*
X8458787Y-5909186D01*
X8440389Y-6095996D01*
X306500Y-6095996D01*
X306500Y9764149D01*
X2476000Y9764149D01*
X2476000Y8015850D01*
X2482509Y7955303D01*
X2482511Y7955295D01*
X2533610Y7818297D01*
X2533612Y7818292D01*
X2625528Y7695509D01*
X2650339Y7628989D01*
X2635248Y7559615D01*
X2625528Y7544491D01*
X2533612Y7421707D01*
X2533610Y7421702D01*
X2482511Y7284704D01*
X2482509Y7284696D01*
X2476000Y7224149D01*
X2476000Y5475850D01*
X2482509Y5415303D01*
X2482511Y5415295D01*
X2533610Y5278297D01*
X2533612Y5278292D01*
X2625528Y5155509D01*
X2650339Y5088989D01*
X2635248Y5019615D01*
X2625528Y5004491D01*
X2533612Y4881707D01*
X2533610Y4881702D01*
X2482511Y4744704D01*
X2482509Y4744696D01*
X2476000Y4684149D01*
X2476000Y2935850D01*
X2482509Y2875303D01*
X2482511Y2875295D01*
X2533610Y2738297D01*
X2533612Y2738292D01*
X2625840Y2615092D01*
X2650651Y2548572D01*
X2635560Y2479198D01*
X2625840Y2464074D01*
X2534055Y2341465D01*
X2534055Y2341464D01*
X2483005Y2204593D01*
X2476500Y2144097D01*
X2476500Y1524000D01*
X3437032Y1524000D01*
X3390667Y1443694D01*
X3360000Y1329244D01*
X3360000Y1210756D01*
X3390667Y1096306D01*
X3437032Y1016000D01*
X2476500Y1016000D01*
X2476500Y395902D01*
X2483005Y335406D01*
X2534055Y198535D01*
X2534055Y198534D01*
X2621595Y81595D01*
X2738534Y-5944D01*
X2875406Y-56994D01*
X2935902Y-63499D01*
X2935915Y-63500D01*
X3556000Y-63500D01*
X3556000Y897031D01*
X3636306Y850667D01*
X3750756Y820000D01*
X3869244Y820000D01*
X3983694Y850667D01*
X4064000Y897031D01*
X4064000Y-63500D01*
X4684085Y-63500D01*
X4684097Y-63499D01*
X4744593Y-56994D01*
X4881463Y-5945D01*
X5004490Y86153D01*
X5071010Y110964D01*
X5140385Y95873D01*
X5155510Y86153D01*
X5278536Y-5945D01*
X5415406Y-56994D01*
X5475902Y-63499D01*
X5475915Y-63500D01*
X6096000Y-63500D01*
X6096000Y897031D01*
X6176306Y850667D01*
X6290756Y820000D01*
X6409244Y820000D01*
X6523694Y850667D01*
X6604000Y897031D01*
X6604000Y-63500D01*
X7224085Y-63500D01*
X7224097Y-63499D01*
X7284593Y-56994D01*
X7421464Y-5944D01*
X7421465Y-5944D01*
X7538404Y81595D01*
X7625944Y198534D01*
X7625944Y198535D01*
X7676994Y335406D01*
X7683499Y395902D01*
X7683500Y395914D01*
X7683500Y1016000D01*
X6722968Y1016000D01*
X6769333Y1096306D01*
X6800000Y1210756D01*
X6800000Y1329244D01*
X6769333Y1443694D01*
X6722968Y1524000D01*
X7683500Y1524000D01*
X7683500Y2144085D01*
X7683499Y2144097D01*
X7676994Y2204593D01*
X7625944Y2341464D01*
X7625943Y2341466D01*
X7534160Y2464072D01*
X7509348Y2530592D01*
X7524439Y2599966D01*
X7534159Y2615091D01*
X7626387Y2738292D01*
X7626389Y2738297D01*
X7677488Y2875295D01*
X7677490Y2875303D01*
X7683999Y2935850D01*
X7684000Y2935867D01*
X7684000Y4684132D01*
X7683999Y4684149D01*
X7677490Y4744696D01*
X7677488Y4744704D01*
X7670460Y4763545D01*
X7626389Y4881704D01*
X7538761Y4998761D01*
X7538758Y4998763D01*
X7534471Y5004490D01*
X7509660Y5071010D01*
X7524751Y5140385D01*
X7534471Y5155510D01*
X7538758Y5161236D01*
X7538761Y5161239D01*
X7626389Y5278296D01*
X7677489Y5415299D01*
X7677490Y5415303D01*
X7683999Y5475850D01*
X7684000Y5475867D01*
X7684000Y7224132D01*
X7683999Y7224149D01*
X7677490Y7284696D01*
X7677488Y7284704D01*
X7635439Y7397439D01*
X7626389Y7421704D01*
X7538761Y7538761D01*
X7538758Y7538763D01*
X7534471Y7544490D01*
X7509660Y7611010D01*
X7524751Y7680385D01*
X7534471Y7695510D01*
X7538758Y7701236D01*
X7538761Y7701239D01*
X7626389Y7818296D01*
X7677489Y7955299D01*
X7677490Y7955303D01*
X7683999Y8015850D01*
X7684000Y8015867D01*
X7684000Y9764132D01*
X7683999Y9764149D01*
X7677490Y9824696D01*
X7677488Y9824704D01*
X7670460Y9843545D01*
X7626389Y9961704D01*
X7538761Y10078761D01*
X7538759Y10078762D01*
X7534160Y10084906D01*
X7509348Y10151426D01*
X7524439Y10220800D01*
X7534159Y10235925D01*
X7625944Y10358534D01*
X7625944Y10358535D01*
X7676994Y10495406D01*
X7683499Y10555902D01*
X7683500Y10555914D01*
X7683500Y11176000D01*
X6722968Y11176000D01*
X6769333Y11256306D01*
X6800000Y11370756D01*
X6800000Y11489244D01*
X6769333Y11603694D01*
X6722968Y11684000D01*
X7683500Y11684000D01*
X7683500Y12304085D01*
X7683499Y12304097D01*
X7676994Y12364593D01*
X7625944Y12501464D01*
X7625944Y12501465D01*
X7538404Y12618404D01*
X7421465Y12705944D01*
X7284593Y12756994D01*
X7224097Y12763499D01*
X7224085Y12763500D01*
X6604000Y12763500D01*
X6604000Y11802968D01*
X6523694Y11849333D01*
X6409244Y11880000D01*
X6290756Y11880000D01*
X6176306Y11849333D01*
X6096000Y11802968D01*
X6096000Y12763500D01*
X5475915Y12763500D01*
X5475902Y12763499D01*
X5415406Y12756994D01*
X5278536Y12705945D01*
X5155510Y12613847D01*
X5088990Y12589036D01*
X5019615Y12604127D01*
X5004490Y12613847D01*
X4881463Y12705945D01*
X4744593Y12756994D01*
X4684097Y12763499D01*
X4684085Y12763500D01*
X4064000Y12763500D01*
X4064000Y11802968D01*
X3983694Y11849333D01*
X3869244Y11880000D01*
X3750756Y11880000D01*
X3636306Y11849333D01*
X3556000Y11802968D01*
X3556000Y12763500D01*
X2935915Y12763500D01*
X2935902Y12763499D01*
X2875406Y12756994D01*
X2738535Y12705944D01*
X2738534Y12705944D01*
X2621595Y12618404D01*
X2534055Y12501465D01*
X2534055Y12501464D01*
X2483005Y12364593D01*
X2476500Y12304097D01*
X2476500Y11684000D01*
X3437032Y11684000D01*
X3390667Y11603694D01*
X3360000Y11489244D01*
X3360000Y11370756D01*
X3390667Y11256306D01*
X3437032Y11176000D01*
X2476500Y11176000D01*
X2476500Y10555902D01*
X2483005Y10495406D01*
X2534055Y10358535D01*
X2534055Y10358534D01*
X2625840Y10235925D01*
X2650651Y10169405D01*
X2635559Y10100030D01*
X2625840Y10084906D01*
X2621240Y10078762D01*
X2621239Y10078761D01*
X2553771Y9988634D01*
X2533610Y9961703D01*
X2533610Y9961702D01*
X2482511Y9824704D01*
X2482509Y9824696D01*
X2476000Y9764149D01*
X306500Y9764149D01*
X306500Y18654149D01*
X2476000Y18654149D01*
X2476000Y16905850D01*
X2482509Y16845303D01*
X2482511Y16845295D01*
X2533610Y16708297D01*
X2533612Y16708292D01*
X2625528Y16585509D01*
X2650339Y16518989D01*
X2635248Y16449615D01*
X2625528Y16434491D01*
X2533612Y16311707D01*
X2533610Y16311702D01*
X2482511Y16174704D01*
X2482509Y16174696D01*
X2476000Y16114149D01*
X2476000Y14365850D01*
X2482509Y14305303D01*
X2482511Y14305295D01*
X2533610Y14168297D01*
X2533612Y14168292D01*
X2621238Y14051238D01*
X2738292Y13963612D01*
X2738297Y13963610D01*
X2875295Y13912511D01*
X2875303Y13912509D01*
X2935850Y13906000D01*
X2935862Y13906000D01*
X4684149Y13906000D01*
X4744696Y13912509D01*
X4744704Y13912511D01*
X4881702Y13963610D01*
X4881707Y13963612D01*
X5004491Y14055528D01*
X5071011Y14080339D01*
X5140385Y14065248D01*
X5155509Y14055528D01*
X5278292Y13963612D01*
X5278297Y13963610D01*
X5415295Y13912511D01*
X5415303Y13912509D01*
X5475850Y13906000D01*
X5475862Y13906000D01*
X7224149Y13906000D01*
X7284696Y13912509D01*
X7284704Y13912511D01*
X7421702Y13963610D01*
X7421707Y13963612D01*
X7538761Y14051238D01*
X7626387Y14168292D01*
X7626389Y14168297D01*
X7677488Y14305295D01*
X7677490Y14305303D01*
X7683999Y14365850D01*
X7684000Y14365867D01*
X7684000Y16114132D01*
X7683999Y16114149D01*
X7677490Y16174696D01*
X7677488Y16174704D01*
X7670460Y16193545D01*
X7626389Y16311704D01*
X7538761Y16428761D01*
X7538758Y16428763D01*
X7534471Y16434490D01*
X7509660Y16501010D01*
X7524751Y16570385D01*
X7534471Y16585510D01*
X7538758Y16591236D01*
X7538761Y16591239D01*
X7626389Y16708296D01*
X7677489Y16845299D01*
X7677490Y16845303D01*
X7683999Y16905850D01*
X7684000Y16905867D01*
X7684000Y18654132D01*
X7683999Y18654149D01*
X7677490Y18714696D01*
X7677488Y18714704D01*
X7633284Y18833217D01*
X7626389Y18851704D01*
X7538761Y18968761D01*
X7516161Y18985679D01*
X7421707Y19056387D01*
X7421706Y19056387D01*
X7421704Y19056389D01*
X7284701Y19107489D01*
X7284699Y19107489D01*
X7284696Y19107490D01*
X7224149Y19113999D01*
X7224145Y19113999D01*
X7224138Y19114000D01*
X5475862Y19114000D01*
X5475855Y19113999D01*
X5475850Y19113999D01*
X5415303Y19107490D01*
X5415295Y19107488D01*
X5337375Y19078424D01*
X5278296Y19056389D01*
X5161239Y18968761D01*
X5161236Y18968758D01*
X5155510Y18964471D01*
X5088990Y18939660D01*
X5019615Y18954751D01*
X5004490Y18964471D01*
X4998763Y18968758D01*
X4998761Y18968761D01*
X4881704Y19056389D01*
X4744701Y19107489D01*
X4744699Y19107489D01*
X4744696Y19107490D01*
X4684149Y19113999D01*
X4684145Y19113999D01*
X4684138Y19114000D01*
X2935862Y19114000D01*
X2935855Y19113999D01*
X2935850Y19113999D01*
X2875303Y19107490D01*
X2875295Y19107488D01*
X2797375Y19078424D01*
X2738296Y19056389D01*
X2738294Y19056388D01*
X2738292Y19056387D01*
X2621238Y18968761D01*
X2533612Y18851707D01*
X2533610Y18851702D01*
X2482511Y18714704D01*
X2482509Y18714696D01*
X2476000Y18654149D01*
X306500Y18654149D01*
X306500Y30047500D01*
X326502Y30115621D01*
X380158Y30162114D01*
X432500Y30173500D01*
X40207500Y30173500D01*
X40275621Y30153498D01*
G37*
%TD.AperFunction*%
%TD*%
M02*
