%TF.GenerationSoftware,KiCad,Pcbnew,8.0.3+1*%
%TF.CreationDate,2024-07-16T01:17:04+00:00*%
%TF.ProjectId,I2CIO01,49324349-4f30-4312-9e6b-696361645f70,rev?*%
%TF.SameCoordinates,Original*%
%TF.FileFunction,Legend,Bot*%
%TF.FilePolarity,Positive*%
%FSLAX46Y46*%
G04 Gerber Fmt 4.6, Leading zero omitted, Abs format (unit mm)*
G04 Created by KiCad (PCBNEW 8.0.3+1) date 2024-07-16 01:17:04*
%MOMM*%
%LPD*%
G01*
G04 APERTURE LIST*
%ADD10C,0.109220*%
%ADD11C,0.099060*%
%ADD12C,0.304800*%
%ADD13C,0.150000*%
%ADD14C,0.127000*%
%ADD15R,1.651000X1.651000*%
G04 APERTURE END LIST*
D10*
X8798305Y4020396D02*
X8560029Y4187189D01*
X8798305Y4306327D02*
X8297925Y4306327D01*
X8297925Y4306327D02*
X8297925Y4115706D01*
X8297925Y4115706D02*
X8321753Y4068051D01*
X8321753Y4068051D02*
X8345580Y4044224D01*
X8345580Y4044224D02*
X8393236Y4020396D01*
X8393236Y4020396D02*
X8464718Y4020396D01*
X8464718Y4020396D02*
X8512374Y4044224D01*
X8512374Y4044224D02*
X8536201Y4068051D01*
X8536201Y4068051D02*
X8560029Y4115706D01*
X8560029Y4115706D02*
X8560029Y4306327D01*
X8798305Y3543844D02*
X8798305Y3829775D01*
X8798305Y3686809D02*
X8297925Y3686809D01*
X8297925Y3686809D02*
X8369408Y3734465D01*
X8369408Y3734465D02*
X8417063Y3782120D01*
X8417063Y3782120D02*
X8440891Y3829775D01*
X9496805Y4234845D02*
X9496805Y4520776D01*
X9496805Y4377810D02*
X8996425Y4377810D01*
X8996425Y4377810D02*
X9067908Y4425466D01*
X9067908Y4425466D02*
X9115563Y4473121D01*
X9115563Y4473121D02*
X9139391Y4520776D01*
X8996425Y3925086D02*
X8996425Y3877431D01*
X8996425Y3877431D02*
X9020253Y3829775D01*
X9020253Y3829775D02*
X9044080Y3805948D01*
X9044080Y3805948D02*
X9091736Y3782120D01*
X9091736Y3782120D02*
X9187046Y3758293D01*
X9187046Y3758293D02*
X9306184Y3758293D01*
X9306184Y3758293D02*
X9401495Y3782120D01*
X9401495Y3782120D02*
X9449150Y3805948D01*
X9449150Y3805948D02*
X9472978Y3829775D01*
X9472978Y3829775D02*
X9496805Y3877431D01*
X9496805Y3877431D02*
X9496805Y3925086D01*
X9496805Y3925086D02*
X9472978Y3972741D01*
X9472978Y3972741D02*
X9449150Y3996569D01*
X9449150Y3996569D02*
X9401495Y4020396D01*
X9401495Y4020396D02*
X9306184Y4044224D01*
X9306184Y4044224D02*
X9187046Y4044224D01*
X9187046Y4044224D02*
X9091736Y4020396D01*
X9091736Y4020396D02*
X9044080Y3996569D01*
X9044080Y3996569D02*
X9020253Y3972741D01*
X9020253Y3972741D02*
X8996425Y3925086D01*
X9496805Y3543844D02*
X8996425Y3543844D01*
X9306184Y3496189D02*
X9496805Y3353223D01*
X9163218Y3353223D02*
X9353839Y3543844D01*
X11846305Y13418396D02*
X11608029Y13585189D01*
X11846305Y13704327D02*
X11345925Y13704327D01*
X11345925Y13704327D02*
X11345925Y13513706D01*
X11345925Y13513706D02*
X11369753Y13466051D01*
X11369753Y13466051D02*
X11393580Y13442224D01*
X11393580Y13442224D02*
X11441236Y13418396D01*
X11441236Y13418396D02*
X11512718Y13418396D01*
X11512718Y13418396D02*
X11560374Y13442224D01*
X11560374Y13442224D02*
X11584201Y13466051D01*
X11584201Y13466051D02*
X11608029Y13513706D01*
X11608029Y13513706D02*
X11608029Y13704327D01*
X11393580Y13227775D02*
X11369753Y13203947D01*
X11369753Y13203947D02*
X11345925Y13156292D01*
X11345925Y13156292D02*
X11345925Y13037154D01*
X11345925Y13037154D02*
X11369753Y12989499D01*
X11369753Y12989499D02*
X11393580Y12965671D01*
X11393580Y12965671D02*
X11441236Y12941844D01*
X11441236Y12941844D02*
X11488891Y12941844D01*
X11488891Y12941844D02*
X11560374Y12965671D01*
X11560374Y12965671D02*
X11846305Y13251603D01*
X11846305Y13251603D02*
X11846305Y12941844D01*
X11147805Y13632845D02*
X11147805Y13918776D01*
X11147805Y13775810D02*
X10647425Y13775810D01*
X10647425Y13775810D02*
X10718908Y13823466D01*
X10718908Y13823466D02*
X10766563Y13871121D01*
X10766563Y13871121D02*
X10790391Y13918776D01*
X10647425Y13323086D02*
X10647425Y13275431D01*
X10647425Y13275431D02*
X10671253Y13227775D01*
X10671253Y13227775D02*
X10695080Y13203948D01*
X10695080Y13203948D02*
X10742736Y13180120D01*
X10742736Y13180120D02*
X10838046Y13156293D01*
X10838046Y13156293D02*
X10957184Y13156293D01*
X10957184Y13156293D02*
X11052495Y13180120D01*
X11052495Y13180120D02*
X11100150Y13203948D01*
X11100150Y13203948D02*
X11123978Y13227775D01*
X11123978Y13227775D02*
X11147805Y13275431D01*
X11147805Y13275431D02*
X11147805Y13323086D01*
X11147805Y13323086D02*
X11123978Y13370741D01*
X11123978Y13370741D02*
X11100150Y13394569D01*
X11100150Y13394569D02*
X11052495Y13418396D01*
X11052495Y13418396D02*
X10957184Y13442224D01*
X10957184Y13442224D02*
X10838046Y13442224D01*
X10838046Y13442224D02*
X10742736Y13418396D01*
X10742736Y13418396D02*
X10695080Y13394569D01*
X10695080Y13394569D02*
X10671253Y13370741D01*
X10671253Y13370741D02*
X10647425Y13323086D01*
X11147805Y12941844D02*
X10647425Y12941844D01*
X10957184Y12894189D02*
X11147805Y12751223D01*
X10814218Y12751223D02*
X11004839Y12941844D01*
X9433305Y7703396D02*
X9195029Y7870189D01*
X9433305Y7989327D02*
X8932925Y7989327D01*
X8932925Y7989327D02*
X8932925Y7798706D01*
X8932925Y7798706D02*
X8956753Y7751051D01*
X8956753Y7751051D02*
X8980580Y7727224D01*
X8980580Y7727224D02*
X9028236Y7703396D01*
X9028236Y7703396D02*
X9099718Y7703396D01*
X9099718Y7703396D02*
X9147374Y7727224D01*
X9147374Y7727224D02*
X9171201Y7751051D01*
X9171201Y7751051D02*
X9195029Y7798706D01*
X9195029Y7798706D02*
X9195029Y7989327D01*
X8932925Y7536603D02*
X8932925Y7226844D01*
X8932925Y7226844D02*
X9123546Y7393637D01*
X9123546Y7393637D02*
X9123546Y7322154D01*
X9123546Y7322154D02*
X9147374Y7274499D01*
X9147374Y7274499D02*
X9171201Y7250671D01*
X9171201Y7250671D02*
X9218857Y7226844D01*
X9218857Y7226844D02*
X9337995Y7226844D01*
X9337995Y7226844D02*
X9385650Y7250671D01*
X9385650Y7250671D02*
X9409478Y7274499D01*
X9409478Y7274499D02*
X9433305Y7322154D01*
X9433305Y7322154D02*
X9433305Y7465120D01*
X9433305Y7465120D02*
X9409478Y7512775D01*
X9409478Y7512775D02*
X9385650Y7536603D01*
X8734805Y7917845D02*
X8734805Y8203776D01*
X8734805Y8060810D02*
X8234425Y8060810D01*
X8234425Y8060810D02*
X8305908Y8108466D01*
X8305908Y8108466D02*
X8353563Y8156121D01*
X8353563Y8156121D02*
X8377391Y8203776D01*
X8234425Y7608086D02*
X8234425Y7560431D01*
X8234425Y7560431D02*
X8258253Y7512775D01*
X8258253Y7512775D02*
X8282080Y7488948D01*
X8282080Y7488948D02*
X8329736Y7465120D01*
X8329736Y7465120D02*
X8425046Y7441293D01*
X8425046Y7441293D02*
X8544184Y7441293D01*
X8544184Y7441293D02*
X8639495Y7465120D01*
X8639495Y7465120D02*
X8687150Y7488948D01*
X8687150Y7488948D02*
X8710978Y7512775D01*
X8710978Y7512775D02*
X8734805Y7560431D01*
X8734805Y7560431D02*
X8734805Y7608086D01*
X8734805Y7608086D02*
X8710978Y7655741D01*
X8710978Y7655741D02*
X8687150Y7679569D01*
X8687150Y7679569D02*
X8639495Y7703396D01*
X8639495Y7703396D02*
X8544184Y7727224D01*
X8544184Y7727224D02*
X8425046Y7727224D01*
X8425046Y7727224D02*
X8329736Y7703396D01*
X8329736Y7703396D02*
X8282080Y7679569D01*
X8282080Y7679569D02*
X8258253Y7655741D01*
X8258253Y7655741D02*
X8234425Y7608086D01*
X8734805Y7226844D02*
X8234425Y7226844D01*
X8544184Y7179189D02*
X8734805Y7036223D01*
X8401218Y7036223D02*
X8591839Y7226844D01*
X14259305Y13418396D02*
X14021029Y13585189D01*
X14259305Y13704327D02*
X13758925Y13704327D01*
X13758925Y13704327D02*
X13758925Y13513706D01*
X13758925Y13513706D02*
X13782753Y13466051D01*
X13782753Y13466051D02*
X13806580Y13442224D01*
X13806580Y13442224D02*
X13854236Y13418396D01*
X13854236Y13418396D02*
X13925718Y13418396D01*
X13925718Y13418396D02*
X13973374Y13442224D01*
X13973374Y13442224D02*
X13997201Y13466051D01*
X13997201Y13466051D02*
X14021029Y13513706D01*
X14021029Y13513706D02*
X14021029Y13704327D01*
X13925718Y12989499D02*
X14259305Y12989499D01*
X13735098Y13108637D02*
X14092512Y13227775D01*
X14092512Y13227775D02*
X14092512Y12918016D01*
X13560805Y13632845D02*
X13560805Y13918776D01*
X13560805Y13775810D02*
X13060425Y13775810D01*
X13060425Y13775810D02*
X13131908Y13823466D01*
X13131908Y13823466D02*
X13179563Y13871121D01*
X13179563Y13871121D02*
X13203391Y13918776D01*
X13060425Y13323086D02*
X13060425Y13275431D01*
X13060425Y13275431D02*
X13084253Y13227775D01*
X13084253Y13227775D02*
X13108080Y13203948D01*
X13108080Y13203948D02*
X13155736Y13180120D01*
X13155736Y13180120D02*
X13251046Y13156293D01*
X13251046Y13156293D02*
X13370184Y13156293D01*
X13370184Y13156293D02*
X13465495Y13180120D01*
X13465495Y13180120D02*
X13513150Y13203948D01*
X13513150Y13203948D02*
X13536978Y13227775D01*
X13536978Y13227775D02*
X13560805Y13275431D01*
X13560805Y13275431D02*
X13560805Y13323086D01*
X13560805Y13323086D02*
X13536978Y13370741D01*
X13536978Y13370741D02*
X13513150Y13394569D01*
X13513150Y13394569D02*
X13465495Y13418396D01*
X13465495Y13418396D02*
X13370184Y13442224D01*
X13370184Y13442224D02*
X13251046Y13442224D01*
X13251046Y13442224D02*
X13155736Y13418396D01*
X13155736Y13418396D02*
X13108080Y13394569D01*
X13108080Y13394569D02*
X13084253Y13370741D01*
X13084253Y13370741D02*
X13060425Y13323086D01*
X13560805Y12941844D02*
X13060425Y12941844D01*
X13370184Y12894189D02*
X13560805Y12751223D01*
X13227218Y12751223D02*
X13417839Y12941844D01*
X11973305Y-6393603D02*
X11735029Y-6226810D01*
X11973305Y-6107672D02*
X11472925Y-6107672D01*
X11472925Y-6107672D02*
X11472925Y-6298293D01*
X11472925Y-6298293D02*
X11496753Y-6345948D01*
X11496753Y-6345948D02*
X11520580Y-6369775D01*
X11520580Y-6369775D02*
X11568236Y-6393603D01*
X11568236Y-6393603D02*
X11639718Y-6393603D01*
X11639718Y-6393603D02*
X11687374Y-6369775D01*
X11687374Y-6369775D02*
X11711201Y-6345948D01*
X11711201Y-6345948D02*
X11735029Y-6298293D01*
X11735029Y-6298293D02*
X11735029Y-6107672D01*
X11472925Y-6822500D02*
X11472925Y-6727190D01*
X11472925Y-6727190D02*
X11496753Y-6679534D01*
X11496753Y-6679534D02*
X11520580Y-6655707D01*
X11520580Y-6655707D02*
X11592063Y-6608052D01*
X11592063Y-6608052D02*
X11687374Y-6584224D01*
X11687374Y-6584224D02*
X11877995Y-6584224D01*
X11877995Y-6584224D02*
X11925650Y-6608052D01*
X11925650Y-6608052D02*
X11949478Y-6631879D01*
X11949478Y-6631879D02*
X11973305Y-6679534D01*
X11973305Y-6679534D02*
X11973305Y-6774845D01*
X11973305Y-6774845D02*
X11949478Y-6822500D01*
X11949478Y-6822500D02*
X11925650Y-6846328D01*
X11925650Y-6846328D02*
X11877995Y-6870155D01*
X11877995Y-6870155D02*
X11758857Y-6870155D01*
X11758857Y-6870155D02*
X11711201Y-6846328D01*
X11711201Y-6846328D02*
X11687374Y-6822500D01*
X11687374Y-6822500D02*
X11663546Y-6774845D01*
X11663546Y-6774845D02*
X11663546Y-6679534D01*
X11663546Y-6679534D02*
X11687374Y-6631879D01*
X11687374Y-6631879D02*
X11711201Y-6608052D01*
X11711201Y-6608052D02*
X11758857Y-6584224D01*
X11084184Y-6286379D02*
X11084184Y-6667621D01*
X26578305Y26753396D02*
X26340029Y26920189D01*
X26578305Y27039327D02*
X26077925Y27039327D01*
X26077925Y27039327D02*
X26077925Y26848706D01*
X26077925Y26848706D02*
X26101753Y26801051D01*
X26101753Y26801051D02*
X26125580Y26777224D01*
X26125580Y26777224D02*
X26173236Y26753396D01*
X26173236Y26753396D02*
X26244718Y26753396D01*
X26244718Y26753396D02*
X26292374Y26777224D01*
X26292374Y26777224D02*
X26316201Y26801051D01*
X26316201Y26801051D02*
X26340029Y26848706D01*
X26340029Y26848706D02*
X26340029Y27039327D01*
X26077925Y26586603D02*
X26077925Y26253016D01*
X26077925Y26253016D02*
X26578305Y26467465D01*
X27276805Y26967845D02*
X27276805Y27253776D01*
X27276805Y27110810D02*
X26776425Y27110810D01*
X26776425Y27110810D02*
X26847908Y27158466D01*
X26847908Y27158466D02*
X26895563Y27206121D01*
X26895563Y27206121D02*
X26919391Y27253776D01*
X26776425Y26658086D02*
X26776425Y26610431D01*
X26776425Y26610431D02*
X26800253Y26562775D01*
X26800253Y26562775D02*
X26824080Y26538948D01*
X26824080Y26538948D02*
X26871736Y26515120D01*
X26871736Y26515120D02*
X26967046Y26491293D01*
X26967046Y26491293D02*
X27086184Y26491293D01*
X27086184Y26491293D02*
X27181495Y26515120D01*
X27181495Y26515120D02*
X27229150Y26538948D01*
X27229150Y26538948D02*
X27252978Y26562775D01*
X27252978Y26562775D02*
X27276805Y26610431D01*
X27276805Y26610431D02*
X27276805Y26658086D01*
X27276805Y26658086D02*
X27252978Y26705741D01*
X27252978Y26705741D02*
X27229150Y26729569D01*
X27229150Y26729569D02*
X27181495Y26753396D01*
X27181495Y26753396D02*
X27086184Y26777224D01*
X27086184Y26777224D02*
X26967046Y26777224D01*
X26967046Y26777224D02*
X26871736Y26753396D01*
X26871736Y26753396D02*
X26824080Y26729569D01*
X26824080Y26729569D02*
X26800253Y26705741D01*
X26800253Y26705741D02*
X26776425Y26658086D01*
X27276805Y26276844D02*
X26776425Y26276844D01*
X27086184Y26229189D02*
X27276805Y26086223D01*
X26943218Y26086223D02*
X27133839Y26276844D01*
X22133305Y-6393603D02*
X21895029Y-6226810D01*
X22133305Y-6107672D02*
X21632925Y-6107672D01*
X21632925Y-6107672D02*
X21632925Y-6298293D01*
X21632925Y-6298293D02*
X21656753Y-6345948D01*
X21656753Y-6345948D02*
X21680580Y-6369775D01*
X21680580Y-6369775D02*
X21728236Y-6393603D01*
X21728236Y-6393603D02*
X21799718Y-6393603D01*
X21799718Y-6393603D02*
X21847374Y-6369775D01*
X21847374Y-6369775D02*
X21871201Y-6345948D01*
X21871201Y-6345948D02*
X21895029Y-6298293D01*
X21895029Y-6298293D02*
X21895029Y-6107672D01*
X21847374Y-6679534D02*
X21823546Y-6631879D01*
X21823546Y-6631879D02*
X21799718Y-6608052D01*
X21799718Y-6608052D02*
X21752063Y-6584224D01*
X21752063Y-6584224D02*
X21728236Y-6584224D01*
X21728236Y-6584224D02*
X21680580Y-6608052D01*
X21680580Y-6608052D02*
X21656753Y-6631879D01*
X21656753Y-6631879D02*
X21632925Y-6679534D01*
X21632925Y-6679534D02*
X21632925Y-6774845D01*
X21632925Y-6774845D02*
X21656753Y-6822500D01*
X21656753Y-6822500D02*
X21680580Y-6846328D01*
X21680580Y-6846328D02*
X21728236Y-6870155D01*
X21728236Y-6870155D02*
X21752063Y-6870155D01*
X21752063Y-6870155D02*
X21799718Y-6846328D01*
X21799718Y-6846328D02*
X21823546Y-6822500D01*
X21823546Y-6822500D02*
X21847374Y-6774845D01*
X21847374Y-6774845D02*
X21847374Y-6679534D01*
X21847374Y-6679534D02*
X21871201Y-6631879D01*
X21871201Y-6631879D02*
X21895029Y-6608052D01*
X21895029Y-6608052D02*
X21942684Y-6584224D01*
X21942684Y-6584224D02*
X22037995Y-6584224D01*
X22037995Y-6584224D02*
X22085650Y-6608052D01*
X22085650Y-6608052D02*
X22109478Y-6631879D01*
X22109478Y-6631879D02*
X22133305Y-6679534D01*
X22133305Y-6679534D02*
X22133305Y-6774845D01*
X22133305Y-6774845D02*
X22109478Y-6822500D01*
X22109478Y-6822500D02*
X22085650Y-6846328D01*
X22085650Y-6846328D02*
X22037995Y-6870155D01*
X22037995Y-6870155D02*
X21942684Y-6870155D01*
X21942684Y-6870155D02*
X21895029Y-6846328D01*
X21895029Y-6846328D02*
X21871201Y-6822500D01*
X21871201Y-6822500D02*
X21847374Y-6774845D01*
X21244184Y-6286379D02*
X21244184Y-6667621D01*
X24038305Y26753396D02*
X23800029Y26920189D01*
X24038305Y27039327D02*
X23537925Y27039327D01*
X23537925Y27039327D02*
X23537925Y26848706D01*
X23537925Y26848706D02*
X23561753Y26801051D01*
X23561753Y26801051D02*
X23585580Y26777224D01*
X23585580Y26777224D02*
X23633236Y26753396D01*
X23633236Y26753396D02*
X23704718Y26753396D01*
X23704718Y26753396D02*
X23752374Y26777224D01*
X23752374Y26777224D02*
X23776201Y26801051D01*
X23776201Y26801051D02*
X23800029Y26848706D01*
X23800029Y26848706D02*
X23800029Y27039327D01*
X24038305Y26515120D02*
X24038305Y26419809D01*
X24038305Y26419809D02*
X24014478Y26372154D01*
X24014478Y26372154D02*
X23990650Y26348326D01*
X23990650Y26348326D02*
X23919167Y26300671D01*
X23919167Y26300671D02*
X23823857Y26276844D01*
X23823857Y26276844D02*
X23633236Y26276844D01*
X23633236Y26276844D02*
X23585580Y26300671D01*
X23585580Y26300671D02*
X23561753Y26324499D01*
X23561753Y26324499D02*
X23537925Y26372154D01*
X23537925Y26372154D02*
X23537925Y26467465D01*
X23537925Y26467465D02*
X23561753Y26515120D01*
X23561753Y26515120D02*
X23585580Y26538947D01*
X23585580Y26538947D02*
X23633236Y26562775D01*
X23633236Y26562775D02*
X23752374Y26562775D01*
X23752374Y26562775D02*
X23800029Y26538947D01*
X23800029Y26538947D02*
X23823857Y26515120D01*
X23823857Y26515120D02*
X23847684Y26467465D01*
X23847684Y26467465D02*
X23847684Y26372154D01*
X23847684Y26372154D02*
X23823857Y26324499D01*
X23823857Y26324499D02*
X23800029Y26300671D01*
X23800029Y26300671D02*
X23752374Y26276844D01*
X24736805Y26967845D02*
X24736805Y27253776D01*
X24736805Y27110810D02*
X24236425Y27110810D01*
X24236425Y27110810D02*
X24307908Y27158466D01*
X24307908Y27158466D02*
X24355563Y27206121D01*
X24355563Y27206121D02*
X24379391Y27253776D01*
X24236425Y26658086D02*
X24236425Y26610431D01*
X24236425Y26610431D02*
X24260253Y26562775D01*
X24260253Y26562775D02*
X24284080Y26538948D01*
X24284080Y26538948D02*
X24331736Y26515120D01*
X24331736Y26515120D02*
X24427046Y26491293D01*
X24427046Y26491293D02*
X24546184Y26491293D01*
X24546184Y26491293D02*
X24641495Y26515120D01*
X24641495Y26515120D02*
X24689150Y26538948D01*
X24689150Y26538948D02*
X24712978Y26562775D01*
X24712978Y26562775D02*
X24736805Y26610431D01*
X24736805Y26610431D02*
X24736805Y26658086D01*
X24736805Y26658086D02*
X24712978Y26705741D01*
X24712978Y26705741D02*
X24689150Y26729569D01*
X24689150Y26729569D02*
X24641495Y26753396D01*
X24641495Y26753396D02*
X24546184Y26777224D01*
X24546184Y26777224D02*
X24427046Y26777224D01*
X24427046Y26777224D02*
X24331736Y26753396D01*
X24331736Y26753396D02*
X24284080Y26729569D01*
X24284080Y26729569D02*
X24260253Y26705741D01*
X24260253Y26705741D02*
X24236425Y26658086D01*
X24736805Y26276844D02*
X24236425Y26276844D01*
X24546184Y26229189D02*
X24736805Y26086223D01*
X24403218Y26086223D02*
X24593839Y26276844D01*
X17053305Y-6155327D02*
X16815029Y-5988534D01*
X17053305Y-5869396D02*
X16552925Y-5869396D01*
X16552925Y-5869396D02*
X16552925Y-6060017D01*
X16552925Y-6060017D02*
X16576753Y-6107672D01*
X16576753Y-6107672D02*
X16600580Y-6131499D01*
X16600580Y-6131499D02*
X16648236Y-6155327D01*
X16648236Y-6155327D02*
X16719718Y-6155327D01*
X16719718Y-6155327D02*
X16767374Y-6131499D01*
X16767374Y-6131499D02*
X16791201Y-6107672D01*
X16791201Y-6107672D02*
X16815029Y-6060017D01*
X16815029Y-6060017D02*
X16815029Y-5869396D01*
X17053305Y-6631879D02*
X17053305Y-6345948D01*
X17053305Y-6488914D02*
X16552925Y-6488914D01*
X16552925Y-6488914D02*
X16624408Y-6441258D01*
X16624408Y-6441258D02*
X16672063Y-6393603D01*
X16672063Y-6393603D02*
X16695891Y-6345948D01*
X16552925Y-6941638D02*
X16552925Y-6989293D01*
X16552925Y-6989293D02*
X16576753Y-7036949D01*
X16576753Y-7036949D02*
X16600580Y-7060776D01*
X16600580Y-7060776D02*
X16648236Y-7084604D01*
X16648236Y-7084604D02*
X16743546Y-7108431D01*
X16743546Y-7108431D02*
X16862684Y-7108431D01*
X16862684Y-7108431D02*
X16957995Y-7084604D01*
X16957995Y-7084604D02*
X17005650Y-7060776D01*
X17005650Y-7060776D02*
X17029478Y-7036949D01*
X17029478Y-7036949D02*
X17053305Y-6989293D01*
X17053305Y-6989293D02*
X17053305Y-6941638D01*
X17053305Y-6941638D02*
X17029478Y-6893983D01*
X17029478Y-6893983D02*
X17005650Y-6870155D01*
X17005650Y-6870155D02*
X16957995Y-6846328D01*
X16957995Y-6846328D02*
X16862684Y-6822500D01*
X16862684Y-6822500D02*
X16743546Y-6822500D01*
X16743546Y-6822500D02*
X16648236Y-6846328D01*
X16648236Y-6846328D02*
X16600580Y-6870155D01*
X16600580Y-6870155D02*
X16576753Y-6893983D01*
X16576753Y-6893983D02*
X16552925Y-6941638D01*
X16164184Y-6286379D02*
X16164184Y-6667621D01*
X19593305Y-6155327D02*
X19355029Y-5988534D01*
X19593305Y-5869396D02*
X19092925Y-5869396D01*
X19092925Y-5869396D02*
X19092925Y-6060017D01*
X19092925Y-6060017D02*
X19116753Y-6107672D01*
X19116753Y-6107672D02*
X19140580Y-6131499D01*
X19140580Y-6131499D02*
X19188236Y-6155327D01*
X19188236Y-6155327D02*
X19259718Y-6155327D01*
X19259718Y-6155327D02*
X19307374Y-6131499D01*
X19307374Y-6131499D02*
X19331201Y-6107672D01*
X19331201Y-6107672D02*
X19355029Y-6060017D01*
X19355029Y-6060017D02*
X19355029Y-5869396D01*
X19593305Y-6631879D02*
X19593305Y-6345948D01*
X19593305Y-6488914D02*
X19092925Y-6488914D01*
X19092925Y-6488914D02*
X19164408Y-6441258D01*
X19164408Y-6441258D02*
X19212063Y-6393603D01*
X19212063Y-6393603D02*
X19235891Y-6345948D01*
X19140580Y-6822500D02*
X19116753Y-6846328D01*
X19116753Y-6846328D02*
X19092925Y-6893983D01*
X19092925Y-6893983D02*
X19092925Y-7013121D01*
X19092925Y-7013121D02*
X19116753Y-7060776D01*
X19116753Y-7060776D02*
X19140580Y-7084604D01*
X19140580Y-7084604D02*
X19188236Y-7108431D01*
X19188236Y-7108431D02*
X19235891Y-7108431D01*
X19235891Y-7108431D02*
X19307374Y-7084604D01*
X19307374Y-7084604D02*
X19593305Y-6798672D01*
X19593305Y-6798672D02*
X19593305Y-7108431D01*
X18704184Y-6286379D02*
X18704184Y-6667621D01*
X14513305Y-6155327D02*
X14275029Y-5988534D01*
X14513305Y-5869396D02*
X14012925Y-5869396D01*
X14012925Y-5869396D02*
X14012925Y-6060017D01*
X14012925Y-6060017D02*
X14036753Y-6107672D01*
X14036753Y-6107672D02*
X14060580Y-6131499D01*
X14060580Y-6131499D02*
X14108236Y-6155327D01*
X14108236Y-6155327D02*
X14179718Y-6155327D01*
X14179718Y-6155327D02*
X14227374Y-6131499D01*
X14227374Y-6131499D02*
X14251201Y-6107672D01*
X14251201Y-6107672D02*
X14275029Y-6060017D01*
X14275029Y-6060017D02*
X14275029Y-5869396D01*
X14513305Y-6631879D02*
X14513305Y-6345948D01*
X14513305Y-6488914D02*
X14012925Y-6488914D01*
X14012925Y-6488914D02*
X14084408Y-6441258D01*
X14084408Y-6441258D02*
X14132063Y-6393603D01*
X14132063Y-6393603D02*
X14155891Y-6345948D01*
X14179718Y-7060776D02*
X14513305Y-7060776D01*
X13989098Y-6941638D02*
X14346512Y-6822500D01*
X14346512Y-6822500D02*
X14346512Y-7132259D01*
X13624184Y-6286379D02*
X13624184Y-6667621D01*
X16418305Y26991672D02*
X16180029Y27158465D01*
X16418305Y27277603D02*
X15917925Y27277603D01*
X15917925Y27277603D02*
X15917925Y27086982D01*
X15917925Y27086982D02*
X15941753Y27039327D01*
X15941753Y27039327D02*
X15965580Y27015500D01*
X15965580Y27015500D02*
X16013236Y26991672D01*
X16013236Y26991672D02*
X16084718Y26991672D01*
X16084718Y26991672D02*
X16132374Y27015500D01*
X16132374Y27015500D02*
X16156201Y27039327D01*
X16156201Y27039327D02*
X16180029Y27086982D01*
X16180029Y27086982D02*
X16180029Y27277603D01*
X16418305Y26515120D02*
X16418305Y26801051D01*
X16418305Y26658085D02*
X15917925Y26658085D01*
X15917925Y26658085D02*
X15989408Y26705741D01*
X15989408Y26705741D02*
X16037063Y26753396D01*
X16037063Y26753396D02*
X16060891Y26801051D01*
X15917925Y26086223D02*
X15917925Y26181533D01*
X15917925Y26181533D02*
X15941753Y26229189D01*
X15941753Y26229189D02*
X15965580Y26253016D01*
X15965580Y26253016D02*
X16037063Y26300671D01*
X16037063Y26300671D02*
X16132374Y26324499D01*
X16132374Y26324499D02*
X16322995Y26324499D01*
X16322995Y26324499D02*
X16370650Y26300671D01*
X16370650Y26300671D02*
X16394478Y26276844D01*
X16394478Y26276844D02*
X16418305Y26229189D01*
X16418305Y26229189D02*
X16418305Y26133878D01*
X16418305Y26133878D02*
X16394478Y26086223D01*
X16394478Y26086223D02*
X16370650Y26062395D01*
X16370650Y26062395D02*
X16322995Y26038568D01*
X16322995Y26038568D02*
X16203857Y26038568D01*
X16203857Y26038568D02*
X16156201Y26062395D01*
X16156201Y26062395D02*
X16132374Y26086223D01*
X16132374Y26086223D02*
X16108546Y26133878D01*
X16108546Y26133878D02*
X16108546Y26229189D01*
X16108546Y26229189D02*
X16132374Y26276844D01*
X16132374Y26276844D02*
X16156201Y26300671D01*
X16156201Y26300671D02*
X16203857Y26324499D01*
X17116805Y26967845D02*
X17116805Y27253776D01*
X17116805Y27110810D02*
X16616425Y27110810D01*
X16616425Y27110810D02*
X16687908Y27158466D01*
X16687908Y27158466D02*
X16735563Y27206121D01*
X16735563Y27206121D02*
X16759391Y27253776D01*
X16616425Y26658086D02*
X16616425Y26610431D01*
X16616425Y26610431D02*
X16640253Y26562775D01*
X16640253Y26562775D02*
X16664080Y26538948D01*
X16664080Y26538948D02*
X16711736Y26515120D01*
X16711736Y26515120D02*
X16807046Y26491293D01*
X16807046Y26491293D02*
X16926184Y26491293D01*
X16926184Y26491293D02*
X17021495Y26515120D01*
X17021495Y26515120D02*
X17069150Y26538948D01*
X17069150Y26538948D02*
X17092978Y26562775D01*
X17092978Y26562775D02*
X17116805Y26610431D01*
X17116805Y26610431D02*
X17116805Y26658086D01*
X17116805Y26658086D02*
X17092978Y26705741D01*
X17092978Y26705741D02*
X17069150Y26729569D01*
X17069150Y26729569D02*
X17021495Y26753396D01*
X17021495Y26753396D02*
X16926184Y26777224D01*
X16926184Y26777224D02*
X16807046Y26777224D01*
X16807046Y26777224D02*
X16711736Y26753396D01*
X16711736Y26753396D02*
X16664080Y26729569D01*
X16664080Y26729569D02*
X16640253Y26705741D01*
X16640253Y26705741D02*
X16616425Y26658086D01*
X17116805Y26276844D02*
X16616425Y26276844D01*
X16926184Y26229189D02*
X17116805Y26086223D01*
X16783218Y26086223D02*
X16973839Y26276844D01*
X11338305Y26991672D02*
X11100029Y27158465D01*
X11338305Y27277603D02*
X10837925Y27277603D01*
X10837925Y27277603D02*
X10837925Y27086982D01*
X10837925Y27086982D02*
X10861753Y27039327D01*
X10861753Y27039327D02*
X10885580Y27015500D01*
X10885580Y27015500D02*
X10933236Y26991672D01*
X10933236Y26991672D02*
X11004718Y26991672D01*
X11004718Y26991672D02*
X11052374Y27015500D01*
X11052374Y27015500D02*
X11076201Y27039327D01*
X11076201Y27039327D02*
X11100029Y27086982D01*
X11100029Y27086982D02*
X11100029Y27277603D01*
X11338305Y26515120D02*
X11338305Y26801051D01*
X11338305Y26658085D02*
X10837925Y26658085D01*
X10837925Y26658085D02*
X10909408Y26705741D01*
X10909408Y26705741D02*
X10957063Y26753396D01*
X10957063Y26753396D02*
X10980891Y26801051D01*
X11052374Y26229189D02*
X11028546Y26276844D01*
X11028546Y26276844D02*
X11004718Y26300671D01*
X11004718Y26300671D02*
X10957063Y26324499D01*
X10957063Y26324499D02*
X10933236Y26324499D01*
X10933236Y26324499D02*
X10885580Y26300671D01*
X10885580Y26300671D02*
X10861753Y26276844D01*
X10861753Y26276844D02*
X10837925Y26229189D01*
X10837925Y26229189D02*
X10837925Y26133878D01*
X10837925Y26133878D02*
X10861753Y26086223D01*
X10861753Y26086223D02*
X10885580Y26062395D01*
X10885580Y26062395D02*
X10933236Y26038568D01*
X10933236Y26038568D02*
X10957063Y26038568D01*
X10957063Y26038568D02*
X11004718Y26062395D01*
X11004718Y26062395D02*
X11028546Y26086223D01*
X11028546Y26086223D02*
X11052374Y26133878D01*
X11052374Y26133878D02*
X11052374Y26229189D01*
X11052374Y26229189D02*
X11076201Y26276844D01*
X11076201Y26276844D02*
X11100029Y26300671D01*
X11100029Y26300671D02*
X11147684Y26324499D01*
X11147684Y26324499D02*
X11242995Y26324499D01*
X11242995Y26324499D02*
X11290650Y26300671D01*
X11290650Y26300671D02*
X11314478Y26276844D01*
X11314478Y26276844D02*
X11338305Y26229189D01*
X11338305Y26229189D02*
X11338305Y26133878D01*
X11338305Y26133878D02*
X11314478Y26086223D01*
X11314478Y26086223D02*
X11290650Y26062395D01*
X11290650Y26062395D02*
X11242995Y26038568D01*
X11242995Y26038568D02*
X11147684Y26038568D01*
X11147684Y26038568D02*
X11100029Y26062395D01*
X11100029Y26062395D02*
X11076201Y26086223D01*
X11076201Y26086223D02*
X11052374Y26133878D01*
X12036805Y26967845D02*
X12036805Y27253776D01*
X12036805Y27110810D02*
X11536425Y27110810D01*
X11536425Y27110810D02*
X11607908Y27158466D01*
X11607908Y27158466D02*
X11655563Y27206121D01*
X11655563Y27206121D02*
X11679391Y27253776D01*
X11536425Y26658086D02*
X11536425Y26610431D01*
X11536425Y26610431D02*
X11560253Y26562775D01*
X11560253Y26562775D02*
X11584080Y26538948D01*
X11584080Y26538948D02*
X11631736Y26515120D01*
X11631736Y26515120D02*
X11727046Y26491293D01*
X11727046Y26491293D02*
X11846184Y26491293D01*
X11846184Y26491293D02*
X11941495Y26515120D01*
X11941495Y26515120D02*
X11989150Y26538948D01*
X11989150Y26538948D02*
X12012978Y26562775D01*
X12012978Y26562775D02*
X12036805Y26610431D01*
X12036805Y26610431D02*
X12036805Y26658086D01*
X12036805Y26658086D02*
X12012978Y26705741D01*
X12012978Y26705741D02*
X11989150Y26729569D01*
X11989150Y26729569D02*
X11941495Y26753396D01*
X11941495Y26753396D02*
X11846184Y26777224D01*
X11846184Y26777224D02*
X11727046Y26777224D01*
X11727046Y26777224D02*
X11631736Y26753396D01*
X11631736Y26753396D02*
X11584080Y26729569D01*
X11584080Y26729569D02*
X11560253Y26705741D01*
X11560253Y26705741D02*
X11536425Y26658086D01*
X12036805Y26276844D02*
X11536425Y26276844D01*
X11846184Y26229189D02*
X12036805Y26086223D01*
X11703218Y26086223D02*
X11893839Y26276844D01*
X29753305Y-6155327D02*
X29515029Y-5988534D01*
X29753305Y-5869396D02*
X29252925Y-5869396D01*
X29252925Y-5869396D02*
X29252925Y-6060017D01*
X29252925Y-6060017D02*
X29276753Y-6107672D01*
X29276753Y-6107672D02*
X29300580Y-6131499D01*
X29300580Y-6131499D02*
X29348236Y-6155327D01*
X29348236Y-6155327D02*
X29419718Y-6155327D01*
X29419718Y-6155327D02*
X29467374Y-6131499D01*
X29467374Y-6131499D02*
X29491201Y-6107672D01*
X29491201Y-6107672D02*
X29515029Y-6060017D01*
X29515029Y-6060017D02*
X29515029Y-5869396D01*
X29300580Y-6345948D02*
X29276753Y-6369776D01*
X29276753Y-6369776D02*
X29252925Y-6417431D01*
X29252925Y-6417431D02*
X29252925Y-6536569D01*
X29252925Y-6536569D02*
X29276753Y-6584224D01*
X29276753Y-6584224D02*
X29300580Y-6608052D01*
X29300580Y-6608052D02*
X29348236Y-6631879D01*
X29348236Y-6631879D02*
X29395891Y-6631879D01*
X29395891Y-6631879D02*
X29467374Y-6608052D01*
X29467374Y-6608052D02*
X29753305Y-6322120D01*
X29753305Y-6322120D02*
X29753305Y-6631879D01*
X29252925Y-6941638D02*
X29252925Y-6989293D01*
X29252925Y-6989293D02*
X29276753Y-7036949D01*
X29276753Y-7036949D02*
X29300580Y-7060776D01*
X29300580Y-7060776D02*
X29348236Y-7084604D01*
X29348236Y-7084604D02*
X29443546Y-7108431D01*
X29443546Y-7108431D02*
X29562684Y-7108431D01*
X29562684Y-7108431D02*
X29657995Y-7084604D01*
X29657995Y-7084604D02*
X29705650Y-7060776D01*
X29705650Y-7060776D02*
X29729478Y-7036949D01*
X29729478Y-7036949D02*
X29753305Y-6989293D01*
X29753305Y-6989293D02*
X29753305Y-6941638D01*
X29753305Y-6941638D02*
X29729478Y-6893983D01*
X29729478Y-6893983D02*
X29705650Y-6870155D01*
X29705650Y-6870155D02*
X29657995Y-6846328D01*
X29657995Y-6846328D02*
X29562684Y-6822500D01*
X29562684Y-6822500D02*
X29443546Y-6822500D01*
X29443546Y-6822500D02*
X29348236Y-6846328D01*
X29348236Y-6846328D02*
X29300580Y-6870155D01*
X29300580Y-6870155D02*
X29276753Y-6893983D01*
X29276753Y-6893983D02*
X29252925Y-6941638D01*
X28864184Y-6286379D02*
X28864184Y-6667621D01*
X27213305Y-6155327D02*
X26975029Y-5988534D01*
X27213305Y-5869396D02*
X26712925Y-5869396D01*
X26712925Y-5869396D02*
X26712925Y-6060017D01*
X26712925Y-6060017D02*
X26736753Y-6107672D01*
X26736753Y-6107672D02*
X26760580Y-6131499D01*
X26760580Y-6131499D02*
X26808236Y-6155327D01*
X26808236Y-6155327D02*
X26879718Y-6155327D01*
X26879718Y-6155327D02*
X26927374Y-6131499D01*
X26927374Y-6131499D02*
X26951201Y-6107672D01*
X26951201Y-6107672D02*
X26975029Y-6060017D01*
X26975029Y-6060017D02*
X26975029Y-5869396D01*
X27213305Y-6631879D02*
X27213305Y-6345948D01*
X27213305Y-6488914D02*
X26712925Y-6488914D01*
X26712925Y-6488914D02*
X26784408Y-6441258D01*
X26784408Y-6441258D02*
X26832063Y-6393603D01*
X26832063Y-6393603D02*
X26855891Y-6345948D01*
X27213305Y-6870155D02*
X27213305Y-6965466D01*
X27213305Y-6965466D02*
X27189478Y-7013121D01*
X27189478Y-7013121D02*
X27165650Y-7036949D01*
X27165650Y-7036949D02*
X27094167Y-7084604D01*
X27094167Y-7084604D02*
X26998857Y-7108431D01*
X26998857Y-7108431D02*
X26808236Y-7108431D01*
X26808236Y-7108431D02*
X26760580Y-7084604D01*
X26760580Y-7084604D02*
X26736753Y-7060776D01*
X26736753Y-7060776D02*
X26712925Y-7013121D01*
X26712925Y-7013121D02*
X26712925Y-6917810D01*
X26712925Y-6917810D02*
X26736753Y-6870155D01*
X26736753Y-6870155D02*
X26760580Y-6846328D01*
X26760580Y-6846328D02*
X26808236Y-6822500D01*
X26808236Y-6822500D02*
X26927374Y-6822500D01*
X26927374Y-6822500D02*
X26975029Y-6846328D01*
X26975029Y-6846328D02*
X26998857Y-6870155D01*
X26998857Y-6870155D02*
X27022684Y-6917810D01*
X27022684Y-6917810D02*
X27022684Y-7013121D01*
X27022684Y-7013121D02*
X26998857Y-7060776D01*
X26998857Y-7060776D02*
X26975029Y-7084604D01*
X26975029Y-7084604D02*
X26927374Y-7108431D01*
X26324184Y-6286379D02*
X26324184Y-6667621D01*
X13878305Y26991672D02*
X13640029Y27158465D01*
X13878305Y27277603D02*
X13377925Y27277603D01*
X13377925Y27277603D02*
X13377925Y27086982D01*
X13377925Y27086982D02*
X13401753Y27039327D01*
X13401753Y27039327D02*
X13425580Y27015500D01*
X13425580Y27015500D02*
X13473236Y26991672D01*
X13473236Y26991672D02*
X13544718Y26991672D01*
X13544718Y26991672D02*
X13592374Y27015500D01*
X13592374Y27015500D02*
X13616201Y27039327D01*
X13616201Y27039327D02*
X13640029Y27086982D01*
X13640029Y27086982D02*
X13640029Y27277603D01*
X13878305Y26515120D02*
X13878305Y26801051D01*
X13878305Y26658085D02*
X13377925Y26658085D01*
X13377925Y26658085D02*
X13449408Y26705741D01*
X13449408Y26705741D02*
X13497063Y26753396D01*
X13497063Y26753396D02*
X13520891Y26801051D01*
X13377925Y26062395D02*
X13377925Y26300671D01*
X13377925Y26300671D02*
X13616201Y26324499D01*
X13616201Y26324499D02*
X13592374Y26300671D01*
X13592374Y26300671D02*
X13568546Y26253016D01*
X13568546Y26253016D02*
X13568546Y26133878D01*
X13568546Y26133878D02*
X13592374Y26086223D01*
X13592374Y26086223D02*
X13616201Y26062395D01*
X13616201Y26062395D02*
X13663857Y26038568D01*
X13663857Y26038568D02*
X13782995Y26038568D01*
X13782995Y26038568D02*
X13830650Y26062395D01*
X13830650Y26062395D02*
X13854478Y26086223D01*
X13854478Y26086223D02*
X13878305Y26133878D01*
X13878305Y26133878D02*
X13878305Y26253016D01*
X13878305Y26253016D02*
X13854478Y26300671D01*
X13854478Y26300671D02*
X13830650Y26324499D01*
X14576805Y26967845D02*
X14576805Y27253776D01*
X14576805Y27110810D02*
X14076425Y27110810D01*
X14076425Y27110810D02*
X14147908Y27158466D01*
X14147908Y27158466D02*
X14195563Y27206121D01*
X14195563Y27206121D02*
X14219391Y27253776D01*
X14076425Y26658086D02*
X14076425Y26610431D01*
X14076425Y26610431D02*
X14100253Y26562775D01*
X14100253Y26562775D02*
X14124080Y26538948D01*
X14124080Y26538948D02*
X14171736Y26515120D01*
X14171736Y26515120D02*
X14267046Y26491293D01*
X14267046Y26491293D02*
X14386184Y26491293D01*
X14386184Y26491293D02*
X14481495Y26515120D01*
X14481495Y26515120D02*
X14529150Y26538948D01*
X14529150Y26538948D02*
X14552978Y26562775D01*
X14552978Y26562775D02*
X14576805Y26610431D01*
X14576805Y26610431D02*
X14576805Y26658086D01*
X14576805Y26658086D02*
X14552978Y26705741D01*
X14552978Y26705741D02*
X14529150Y26729569D01*
X14529150Y26729569D02*
X14481495Y26753396D01*
X14481495Y26753396D02*
X14386184Y26777224D01*
X14386184Y26777224D02*
X14267046Y26777224D01*
X14267046Y26777224D02*
X14171736Y26753396D01*
X14171736Y26753396D02*
X14124080Y26729569D01*
X14124080Y26729569D02*
X14100253Y26705741D01*
X14100253Y26705741D02*
X14076425Y26658086D01*
X14576805Y26276844D02*
X14076425Y26276844D01*
X14386184Y26229189D02*
X14576805Y26086223D01*
X14243218Y26086223D02*
X14433839Y26276844D01*
X24673305Y-6155327D02*
X24435029Y-5988534D01*
X24673305Y-5869396D02*
X24172925Y-5869396D01*
X24172925Y-5869396D02*
X24172925Y-6060017D01*
X24172925Y-6060017D02*
X24196753Y-6107672D01*
X24196753Y-6107672D02*
X24220580Y-6131499D01*
X24220580Y-6131499D02*
X24268236Y-6155327D01*
X24268236Y-6155327D02*
X24339718Y-6155327D01*
X24339718Y-6155327D02*
X24387374Y-6131499D01*
X24387374Y-6131499D02*
X24411201Y-6107672D01*
X24411201Y-6107672D02*
X24435029Y-6060017D01*
X24435029Y-6060017D02*
X24435029Y-5869396D01*
X24673305Y-6631879D02*
X24673305Y-6345948D01*
X24673305Y-6488914D02*
X24172925Y-6488914D01*
X24172925Y-6488914D02*
X24244408Y-6441258D01*
X24244408Y-6441258D02*
X24292063Y-6393603D01*
X24292063Y-6393603D02*
X24315891Y-6345948D01*
X24172925Y-6798672D02*
X24172925Y-7132259D01*
X24172925Y-7132259D02*
X24673305Y-6917810D01*
X23784184Y-6286379D02*
X23784184Y-6667621D01*
X29118305Y26753396D02*
X28880029Y26920189D01*
X29118305Y27039327D02*
X28617925Y27039327D01*
X28617925Y27039327D02*
X28617925Y26848706D01*
X28617925Y26848706D02*
X28641753Y26801051D01*
X28641753Y26801051D02*
X28665580Y26777224D01*
X28665580Y26777224D02*
X28713236Y26753396D01*
X28713236Y26753396D02*
X28784718Y26753396D01*
X28784718Y26753396D02*
X28832374Y26777224D01*
X28832374Y26777224D02*
X28856201Y26801051D01*
X28856201Y26801051D02*
X28880029Y26848706D01*
X28880029Y26848706D02*
X28880029Y27039327D01*
X28617925Y26300671D02*
X28617925Y26538947D01*
X28617925Y26538947D02*
X28856201Y26562775D01*
X28856201Y26562775D02*
X28832374Y26538947D01*
X28832374Y26538947D02*
X28808546Y26491292D01*
X28808546Y26491292D02*
X28808546Y26372154D01*
X28808546Y26372154D02*
X28832374Y26324499D01*
X28832374Y26324499D02*
X28856201Y26300671D01*
X28856201Y26300671D02*
X28903857Y26276844D01*
X28903857Y26276844D02*
X29022995Y26276844D01*
X29022995Y26276844D02*
X29070650Y26300671D01*
X29070650Y26300671D02*
X29094478Y26324499D01*
X29094478Y26324499D02*
X29118305Y26372154D01*
X29118305Y26372154D02*
X29118305Y26491292D01*
X29118305Y26491292D02*
X29094478Y26538947D01*
X29094478Y26538947D02*
X29070650Y26562775D01*
X29816805Y26967845D02*
X29816805Y27253776D01*
X29816805Y27110810D02*
X29316425Y27110810D01*
X29316425Y27110810D02*
X29387908Y27158466D01*
X29387908Y27158466D02*
X29435563Y27206121D01*
X29435563Y27206121D02*
X29459391Y27253776D01*
X29316425Y26658086D02*
X29316425Y26610431D01*
X29316425Y26610431D02*
X29340253Y26562775D01*
X29340253Y26562775D02*
X29364080Y26538948D01*
X29364080Y26538948D02*
X29411736Y26515120D01*
X29411736Y26515120D02*
X29507046Y26491293D01*
X29507046Y26491293D02*
X29626184Y26491293D01*
X29626184Y26491293D02*
X29721495Y26515120D01*
X29721495Y26515120D02*
X29769150Y26538948D01*
X29769150Y26538948D02*
X29792978Y26562775D01*
X29792978Y26562775D02*
X29816805Y26610431D01*
X29816805Y26610431D02*
X29816805Y26658086D01*
X29816805Y26658086D02*
X29792978Y26705741D01*
X29792978Y26705741D02*
X29769150Y26729569D01*
X29769150Y26729569D02*
X29721495Y26753396D01*
X29721495Y26753396D02*
X29626184Y26777224D01*
X29626184Y26777224D02*
X29507046Y26777224D01*
X29507046Y26777224D02*
X29411736Y26753396D01*
X29411736Y26753396D02*
X29364080Y26729569D01*
X29364080Y26729569D02*
X29340253Y26705741D01*
X29340253Y26705741D02*
X29316425Y26658086D01*
X29816805Y26276844D02*
X29316425Y26276844D01*
X29626184Y26229189D02*
X29816805Y26086223D01*
X29483218Y26086223D02*
X29673839Y26276844D01*
X18958305Y26991672D02*
X18720029Y27158465D01*
X18958305Y27277603D02*
X18457925Y27277603D01*
X18457925Y27277603D02*
X18457925Y27086982D01*
X18457925Y27086982D02*
X18481753Y27039327D01*
X18481753Y27039327D02*
X18505580Y27015500D01*
X18505580Y27015500D02*
X18553236Y26991672D01*
X18553236Y26991672D02*
X18624718Y26991672D01*
X18624718Y26991672D02*
X18672374Y27015500D01*
X18672374Y27015500D02*
X18696201Y27039327D01*
X18696201Y27039327D02*
X18720029Y27086982D01*
X18720029Y27086982D02*
X18720029Y27277603D01*
X18958305Y26515120D02*
X18958305Y26801051D01*
X18958305Y26658085D02*
X18457925Y26658085D01*
X18457925Y26658085D02*
X18529408Y26705741D01*
X18529408Y26705741D02*
X18577063Y26753396D01*
X18577063Y26753396D02*
X18600891Y26801051D01*
X18457925Y26348327D02*
X18457925Y26038568D01*
X18457925Y26038568D02*
X18648546Y26205361D01*
X18648546Y26205361D02*
X18648546Y26133878D01*
X18648546Y26133878D02*
X18672374Y26086223D01*
X18672374Y26086223D02*
X18696201Y26062395D01*
X18696201Y26062395D02*
X18743857Y26038568D01*
X18743857Y26038568D02*
X18862995Y26038568D01*
X18862995Y26038568D02*
X18910650Y26062395D01*
X18910650Y26062395D02*
X18934478Y26086223D01*
X18934478Y26086223D02*
X18958305Y26133878D01*
X18958305Y26133878D02*
X18958305Y26276844D01*
X18958305Y26276844D02*
X18934478Y26324499D01*
X18934478Y26324499D02*
X18910650Y26348327D01*
X19656805Y26967845D02*
X19656805Y27253776D01*
X19656805Y27110810D02*
X19156425Y27110810D01*
X19156425Y27110810D02*
X19227908Y27158466D01*
X19227908Y27158466D02*
X19275563Y27206121D01*
X19275563Y27206121D02*
X19299391Y27253776D01*
X19156425Y26658086D02*
X19156425Y26610431D01*
X19156425Y26610431D02*
X19180253Y26562775D01*
X19180253Y26562775D02*
X19204080Y26538948D01*
X19204080Y26538948D02*
X19251736Y26515120D01*
X19251736Y26515120D02*
X19347046Y26491293D01*
X19347046Y26491293D02*
X19466184Y26491293D01*
X19466184Y26491293D02*
X19561495Y26515120D01*
X19561495Y26515120D02*
X19609150Y26538948D01*
X19609150Y26538948D02*
X19632978Y26562775D01*
X19632978Y26562775D02*
X19656805Y26610431D01*
X19656805Y26610431D02*
X19656805Y26658086D01*
X19656805Y26658086D02*
X19632978Y26705741D01*
X19632978Y26705741D02*
X19609150Y26729569D01*
X19609150Y26729569D02*
X19561495Y26753396D01*
X19561495Y26753396D02*
X19466184Y26777224D01*
X19466184Y26777224D02*
X19347046Y26777224D01*
X19347046Y26777224D02*
X19251736Y26753396D01*
X19251736Y26753396D02*
X19204080Y26729569D01*
X19204080Y26729569D02*
X19180253Y26705741D01*
X19180253Y26705741D02*
X19156425Y26658086D01*
X19656805Y26276844D02*
X19156425Y26276844D01*
X19466184Y26229189D02*
X19656805Y26086223D01*
X19323218Y26086223D02*
X19513839Y26276844D01*
X21498305Y26991672D02*
X21260029Y27158465D01*
X21498305Y27277603D02*
X20997925Y27277603D01*
X20997925Y27277603D02*
X20997925Y27086982D01*
X20997925Y27086982D02*
X21021753Y27039327D01*
X21021753Y27039327D02*
X21045580Y27015500D01*
X21045580Y27015500D02*
X21093236Y26991672D01*
X21093236Y26991672D02*
X21164718Y26991672D01*
X21164718Y26991672D02*
X21212374Y27015500D01*
X21212374Y27015500D02*
X21236201Y27039327D01*
X21236201Y27039327D02*
X21260029Y27086982D01*
X21260029Y27086982D02*
X21260029Y27277603D01*
X21498305Y26515120D02*
X21498305Y26801051D01*
X21498305Y26658085D02*
X20997925Y26658085D01*
X20997925Y26658085D02*
X21069408Y26705741D01*
X21069408Y26705741D02*
X21117063Y26753396D01*
X21117063Y26753396D02*
X21140891Y26801051D01*
X21498305Y26038568D02*
X21498305Y26324499D01*
X21498305Y26181533D02*
X20997925Y26181533D01*
X20997925Y26181533D02*
X21069408Y26229189D01*
X21069408Y26229189D02*
X21117063Y26276844D01*
X21117063Y26276844D02*
X21140891Y26324499D01*
X22196805Y26967845D02*
X22196805Y27253776D01*
X22196805Y27110810D02*
X21696425Y27110810D01*
X21696425Y27110810D02*
X21767908Y27158466D01*
X21767908Y27158466D02*
X21815563Y27206121D01*
X21815563Y27206121D02*
X21839391Y27253776D01*
X21696425Y26658086D02*
X21696425Y26610431D01*
X21696425Y26610431D02*
X21720253Y26562775D01*
X21720253Y26562775D02*
X21744080Y26538948D01*
X21744080Y26538948D02*
X21791736Y26515120D01*
X21791736Y26515120D02*
X21887046Y26491293D01*
X21887046Y26491293D02*
X22006184Y26491293D01*
X22006184Y26491293D02*
X22101495Y26515120D01*
X22101495Y26515120D02*
X22149150Y26538948D01*
X22149150Y26538948D02*
X22172978Y26562775D01*
X22172978Y26562775D02*
X22196805Y26610431D01*
X22196805Y26610431D02*
X22196805Y26658086D01*
X22196805Y26658086D02*
X22172978Y26705741D01*
X22172978Y26705741D02*
X22149150Y26729569D01*
X22149150Y26729569D02*
X22101495Y26753396D01*
X22101495Y26753396D02*
X22006184Y26777224D01*
X22006184Y26777224D02*
X21887046Y26777224D01*
X21887046Y26777224D02*
X21791736Y26753396D01*
X21791736Y26753396D02*
X21744080Y26729569D01*
X21744080Y26729569D02*
X21720253Y26705741D01*
X21720253Y26705741D02*
X21696425Y26658086D01*
X22196805Y26276844D02*
X21696425Y26276844D01*
X22006184Y26229189D02*
X22196805Y26086223D01*
X21863218Y26086223D02*
X22053839Y26276844D01*
D11*
X21463241Y10180046D02*
X21463241Y9774976D01*
X21463241Y9774976D02*
X21439414Y9727321D01*
X21439414Y9727321D02*
X21415586Y9703494D01*
X21415586Y9703494D02*
X21367931Y9679666D01*
X21367931Y9679666D02*
X21272620Y9679666D01*
X21272620Y9679666D02*
X21224965Y9703494D01*
X21224965Y9703494D02*
X21201138Y9727321D01*
X21201138Y9727321D02*
X21177310Y9774976D01*
X21177310Y9774976D02*
X21177310Y10180046D01*
X20676930Y9679666D02*
X20962861Y9679666D01*
X20819895Y9679666D02*
X20819895Y10180046D01*
X20819895Y10180046D02*
X20867551Y10108563D01*
X20867551Y10108563D02*
X20915206Y10060908D01*
X20915206Y10060908D02*
X20962861Y10037080D01*
X22857156Y8529046D02*
X22571225Y8529046D01*
X22714191Y8028666D02*
X22714191Y8529046D01*
X22118500Y8076321D02*
X22142328Y8052494D01*
X22142328Y8052494D02*
X22213810Y8028666D01*
X22213810Y8028666D02*
X22261466Y8028666D01*
X22261466Y8028666D02*
X22332949Y8052494D01*
X22332949Y8052494D02*
X22380604Y8100149D01*
X22380604Y8100149D02*
X22404431Y8147804D01*
X22404431Y8147804D02*
X22428259Y8243114D01*
X22428259Y8243114D02*
X22428259Y8314597D01*
X22428259Y8314597D02*
X22404431Y8409908D01*
X22404431Y8409908D02*
X22380604Y8457563D01*
X22380604Y8457563D02*
X22332949Y8505218D01*
X22332949Y8505218D02*
X22261466Y8529046D01*
X22261466Y8529046D02*
X22213810Y8529046D01*
X22213810Y8529046D02*
X22142328Y8505218D01*
X22142328Y8505218D02*
X22118500Y8481391D01*
X21927879Y8171632D02*
X21689603Y8171632D01*
X21975534Y8028666D02*
X21808741Y8529046D01*
X21808741Y8529046D02*
X21641948Y8028666D01*
X21260706Y8529046D02*
X21356016Y8529046D01*
X21356016Y8529046D02*
X21403672Y8505218D01*
X21403672Y8505218D02*
X21427499Y8481391D01*
X21427499Y8481391D02*
X21475154Y8409908D01*
X21475154Y8409908D02*
X21498982Y8314597D01*
X21498982Y8314597D02*
X21498982Y8123976D01*
X21498982Y8123976D02*
X21475154Y8076321D01*
X21475154Y8076321D02*
X21451327Y8052494D01*
X21451327Y8052494D02*
X21403672Y8028666D01*
X21403672Y8028666D02*
X21308361Y8028666D01*
X21308361Y8028666D02*
X21260706Y8052494D01*
X21260706Y8052494D02*
X21236878Y8076321D01*
X21236878Y8076321D02*
X21213051Y8123976D01*
X21213051Y8123976D02*
X21213051Y8243114D01*
X21213051Y8243114D02*
X21236878Y8290770D01*
X21236878Y8290770D02*
X21260706Y8314597D01*
X21260706Y8314597D02*
X21308361Y8338425D01*
X21308361Y8338425D02*
X21403672Y8338425D01*
X21403672Y8338425D02*
X21451327Y8314597D01*
X21451327Y8314597D02*
X21475154Y8290770D01*
X21475154Y8290770D02*
X21498982Y8243114D01*
X20784154Y8362253D02*
X20784154Y8028666D01*
X20903292Y8552874D02*
X21022430Y8195459D01*
X21022430Y8195459D02*
X20712671Y8195459D01*
X20259947Y8028666D02*
X20545878Y8028666D01*
X20402912Y8028666D02*
X20402912Y8529046D01*
X20402912Y8529046D02*
X20450568Y8457563D01*
X20450568Y8457563D02*
X20498223Y8409908D01*
X20498223Y8409908D02*
X20545878Y8386080D01*
X19831050Y8529046D02*
X19926360Y8529046D01*
X19926360Y8529046D02*
X19974016Y8505218D01*
X19974016Y8505218D02*
X19997843Y8481391D01*
X19997843Y8481391D02*
X20045498Y8409908D01*
X20045498Y8409908D02*
X20069326Y8314597D01*
X20069326Y8314597D02*
X20069326Y8123976D01*
X20069326Y8123976D02*
X20045498Y8076321D01*
X20045498Y8076321D02*
X20021671Y8052494D01*
X20021671Y8052494D02*
X19974016Y8028666D01*
X19974016Y8028666D02*
X19878705Y8028666D01*
X19878705Y8028666D02*
X19831050Y8052494D01*
X19831050Y8052494D02*
X19807222Y8076321D01*
X19807222Y8076321D02*
X19783395Y8123976D01*
X19783395Y8123976D02*
X19783395Y8243114D01*
X19783395Y8243114D02*
X19807222Y8290770D01*
X19807222Y8290770D02*
X19831050Y8314597D01*
X19831050Y8314597D02*
X19878705Y8338425D01*
X19878705Y8338425D02*
X19974016Y8338425D01*
X19974016Y8338425D02*
X20021671Y8314597D01*
X20021671Y8314597D02*
X20045498Y8290770D01*
X20045498Y8290770D02*
X20069326Y8243114D01*
X19592774Y8171632D02*
X19354498Y8171632D01*
X19640429Y8028666D02*
X19473636Y8529046D01*
X19473636Y8529046D02*
X19306843Y8028666D01*
D10*
X27086305Y7687672D02*
X26848029Y7854465D01*
X27086305Y7973603D02*
X26585925Y7973603D01*
X26585925Y7973603D02*
X26585925Y7782982D01*
X26585925Y7782982D02*
X26609753Y7735327D01*
X26609753Y7735327D02*
X26633580Y7711500D01*
X26633580Y7711500D02*
X26681236Y7687672D01*
X26681236Y7687672D02*
X26752718Y7687672D01*
X26752718Y7687672D02*
X26800374Y7711500D01*
X26800374Y7711500D02*
X26824201Y7735327D01*
X26824201Y7735327D02*
X26848029Y7782982D01*
X26848029Y7782982D02*
X26848029Y7973603D01*
X26633580Y7497051D02*
X26609753Y7473223D01*
X26609753Y7473223D02*
X26585925Y7425568D01*
X26585925Y7425568D02*
X26585925Y7306430D01*
X26585925Y7306430D02*
X26609753Y7258775D01*
X26609753Y7258775D02*
X26633580Y7234947D01*
X26633580Y7234947D02*
X26681236Y7211120D01*
X26681236Y7211120D02*
X26728891Y7211120D01*
X26728891Y7211120D02*
X26800374Y7234947D01*
X26800374Y7234947D02*
X27086305Y7520879D01*
X27086305Y7520879D02*
X27086305Y7211120D01*
X26752718Y6782223D02*
X27086305Y6782223D01*
X26562098Y6901361D02*
X26919512Y7020499D01*
X26919512Y7020499D02*
X26919512Y6710740D01*
X27784805Y7663845D02*
X27784805Y7949776D01*
X27784805Y7806810D02*
X27284425Y7806810D01*
X27284425Y7806810D02*
X27355908Y7854466D01*
X27355908Y7854466D02*
X27403563Y7902121D01*
X27403563Y7902121D02*
X27427391Y7949776D01*
X27284425Y7354086D02*
X27284425Y7306431D01*
X27284425Y7306431D02*
X27308253Y7258775D01*
X27308253Y7258775D02*
X27332080Y7234948D01*
X27332080Y7234948D02*
X27379736Y7211120D01*
X27379736Y7211120D02*
X27475046Y7187293D01*
X27475046Y7187293D02*
X27594184Y7187293D01*
X27594184Y7187293D02*
X27689495Y7211120D01*
X27689495Y7211120D02*
X27737150Y7234948D01*
X27737150Y7234948D02*
X27760978Y7258775D01*
X27760978Y7258775D02*
X27784805Y7306431D01*
X27784805Y7306431D02*
X27784805Y7354086D01*
X27784805Y7354086D02*
X27760978Y7401741D01*
X27760978Y7401741D02*
X27737150Y7425569D01*
X27737150Y7425569D02*
X27689495Y7449396D01*
X27689495Y7449396D02*
X27594184Y7473224D01*
X27594184Y7473224D02*
X27475046Y7473224D01*
X27475046Y7473224D02*
X27379736Y7449396D01*
X27379736Y7449396D02*
X27332080Y7425569D01*
X27332080Y7425569D02*
X27308253Y7401741D01*
X27308253Y7401741D02*
X27284425Y7354086D01*
X27784805Y6972844D02*
X27284425Y6972844D01*
X27594184Y6925189D02*
X27784805Y6782223D01*
X27451218Y6782223D02*
X27641839Y6972844D01*
X27673650Y11259396D02*
X27697478Y11283224D01*
X27697478Y11283224D02*
X27721305Y11354706D01*
X27721305Y11354706D02*
X27721305Y11402362D01*
X27721305Y11402362D02*
X27697478Y11473845D01*
X27697478Y11473845D02*
X27649822Y11521500D01*
X27649822Y11521500D02*
X27602167Y11545327D01*
X27602167Y11545327D02*
X27506857Y11569155D01*
X27506857Y11569155D02*
X27435374Y11569155D01*
X27435374Y11569155D02*
X27340063Y11545327D01*
X27340063Y11545327D02*
X27292408Y11521500D01*
X27292408Y11521500D02*
X27244753Y11473845D01*
X27244753Y11473845D02*
X27220925Y11402362D01*
X27220925Y11402362D02*
X27220925Y11354706D01*
X27220925Y11354706D02*
X27244753Y11283224D01*
X27244753Y11283224D02*
X27268580Y11259396D01*
X27721305Y10782844D02*
X27721305Y11068775D01*
X27721305Y10925809D02*
X27220925Y10925809D01*
X27220925Y10925809D02*
X27292408Y10973465D01*
X27292408Y10973465D02*
X27340063Y11021120D01*
X27340063Y11021120D02*
X27363891Y11068775D01*
X27022805Y11712121D02*
X27022805Y11998052D01*
X27022805Y11855086D02*
X26522425Y11855086D01*
X26522425Y11855086D02*
X26593908Y11902742D01*
X26593908Y11902742D02*
X26641563Y11950397D01*
X26641563Y11950397D02*
X26665391Y11998052D01*
X26522425Y11402362D02*
X26522425Y11354707D01*
X26522425Y11354707D02*
X26546253Y11307051D01*
X26546253Y11307051D02*
X26570080Y11283224D01*
X26570080Y11283224D02*
X26617736Y11259396D01*
X26617736Y11259396D02*
X26713046Y11235569D01*
X26713046Y11235569D02*
X26832184Y11235569D01*
X26832184Y11235569D02*
X26927495Y11259396D01*
X26927495Y11259396D02*
X26975150Y11283224D01*
X26975150Y11283224D02*
X26998978Y11307051D01*
X26998978Y11307051D02*
X27022805Y11354707D01*
X27022805Y11354707D02*
X27022805Y11402362D01*
X27022805Y11402362D02*
X26998978Y11450017D01*
X26998978Y11450017D02*
X26975150Y11473845D01*
X26975150Y11473845D02*
X26927495Y11497672D01*
X26927495Y11497672D02*
X26832184Y11521500D01*
X26832184Y11521500D02*
X26713046Y11521500D01*
X26713046Y11521500D02*
X26617736Y11497672D01*
X26617736Y11497672D02*
X26570080Y11473845D01*
X26570080Y11473845D02*
X26546253Y11450017D01*
X26546253Y11450017D02*
X26522425Y11402362D01*
X26689218Y10806672D02*
X27022805Y10806672D01*
X26689218Y11021120D02*
X26951322Y11021120D01*
X26951322Y11021120D02*
X26998978Y10997293D01*
X26998978Y10997293D02*
X27022805Y10949638D01*
X27022805Y10949638D02*
X27022805Y10878155D01*
X27022805Y10878155D02*
X26998978Y10830499D01*
X26998978Y10830499D02*
X26975150Y10806672D01*
X26760701Y10401602D02*
X26760701Y10568395D01*
X27022805Y10568395D02*
X26522425Y10568395D01*
X26522425Y10568395D02*
X26522425Y10330119D01*
X30467650Y11259396D02*
X30491478Y11283224D01*
X30491478Y11283224D02*
X30515305Y11354706D01*
X30515305Y11354706D02*
X30515305Y11402362D01*
X30515305Y11402362D02*
X30491478Y11473845D01*
X30491478Y11473845D02*
X30443822Y11521500D01*
X30443822Y11521500D02*
X30396167Y11545327D01*
X30396167Y11545327D02*
X30300857Y11569155D01*
X30300857Y11569155D02*
X30229374Y11569155D01*
X30229374Y11569155D02*
X30134063Y11545327D01*
X30134063Y11545327D02*
X30086408Y11521500D01*
X30086408Y11521500D02*
X30038753Y11473845D01*
X30038753Y11473845D02*
X30014925Y11402362D01*
X30014925Y11402362D02*
X30014925Y11354706D01*
X30014925Y11354706D02*
X30038753Y11283224D01*
X30038753Y11283224D02*
X30062580Y11259396D01*
X30062580Y11068775D02*
X30038753Y11044947D01*
X30038753Y11044947D02*
X30014925Y10997292D01*
X30014925Y10997292D02*
X30014925Y10878154D01*
X30014925Y10878154D02*
X30038753Y10830499D01*
X30038753Y10830499D02*
X30062580Y10806671D01*
X30062580Y10806671D02*
X30110236Y10782844D01*
X30110236Y10782844D02*
X30157891Y10782844D01*
X30157891Y10782844D02*
X30229374Y10806671D01*
X30229374Y10806671D02*
X30515305Y11092603D01*
X30515305Y11092603D02*
X30515305Y10782844D01*
X29816805Y11950397D02*
X29816805Y12236328D01*
X29816805Y12093362D02*
X29316425Y12093362D01*
X29316425Y12093362D02*
X29387908Y12141018D01*
X29387908Y12141018D02*
X29435563Y12188673D01*
X29435563Y12188673D02*
X29459391Y12236328D01*
X29316425Y11640638D02*
X29316425Y11592983D01*
X29316425Y11592983D02*
X29340253Y11545327D01*
X29340253Y11545327D02*
X29364080Y11521500D01*
X29364080Y11521500D02*
X29411736Y11497672D01*
X29411736Y11497672D02*
X29507046Y11473845D01*
X29507046Y11473845D02*
X29626184Y11473845D01*
X29626184Y11473845D02*
X29721495Y11497672D01*
X29721495Y11497672D02*
X29769150Y11521500D01*
X29769150Y11521500D02*
X29792978Y11545327D01*
X29792978Y11545327D02*
X29816805Y11592983D01*
X29816805Y11592983D02*
X29816805Y11640638D01*
X29816805Y11640638D02*
X29792978Y11688293D01*
X29792978Y11688293D02*
X29769150Y11712121D01*
X29769150Y11712121D02*
X29721495Y11735948D01*
X29721495Y11735948D02*
X29626184Y11759776D01*
X29626184Y11759776D02*
X29507046Y11759776D01*
X29507046Y11759776D02*
X29411736Y11735948D01*
X29411736Y11735948D02*
X29364080Y11712121D01*
X29364080Y11712121D02*
X29340253Y11688293D01*
X29340253Y11688293D02*
X29316425Y11640638D01*
X29316425Y11164086D02*
X29316425Y11116431D01*
X29316425Y11116431D02*
X29340253Y11068775D01*
X29340253Y11068775D02*
X29364080Y11044948D01*
X29364080Y11044948D02*
X29411736Y11021120D01*
X29411736Y11021120D02*
X29507046Y10997293D01*
X29507046Y10997293D02*
X29626184Y10997293D01*
X29626184Y10997293D02*
X29721495Y11021120D01*
X29721495Y11021120D02*
X29769150Y11044948D01*
X29769150Y11044948D02*
X29792978Y11068775D01*
X29792978Y11068775D02*
X29816805Y11116431D01*
X29816805Y11116431D02*
X29816805Y11164086D01*
X29816805Y11164086D02*
X29792978Y11211741D01*
X29792978Y11211741D02*
X29769150Y11235569D01*
X29769150Y11235569D02*
X29721495Y11259396D01*
X29721495Y11259396D02*
X29626184Y11283224D01*
X29626184Y11283224D02*
X29507046Y11283224D01*
X29507046Y11283224D02*
X29411736Y11259396D01*
X29411736Y11259396D02*
X29364080Y11235569D01*
X29364080Y11235569D02*
X29340253Y11211741D01*
X29340253Y11211741D02*
X29316425Y11164086D01*
X29483218Y10782844D02*
X29816805Y10782844D01*
X29530874Y10782844D02*
X29507046Y10759017D01*
X29507046Y10759017D02*
X29483218Y10711362D01*
X29483218Y10711362D02*
X29483218Y10639879D01*
X29483218Y10639879D02*
X29507046Y10592223D01*
X29507046Y10592223D02*
X29554701Y10568396D01*
X29554701Y10568396D02*
X29816805Y10568396D01*
X29554701Y10163326D02*
X29554701Y10330119D01*
X29816805Y10330119D02*
X29316425Y10330119D01*
X29316425Y10330119D02*
X29316425Y10091843D01*
D12*
X31350856Y13026818D02*
X31350856Y14550818D01*
X31350856Y14550818D02*
X30987999Y14550818D01*
X30987999Y14550818D02*
X30770285Y14478247D01*
X30770285Y14478247D02*
X30625142Y14333104D01*
X30625142Y14333104D02*
X30552571Y14187961D01*
X30552571Y14187961D02*
X30479999Y13897675D01*
X30479999Y13897675D02*
X30479999Y13679961D01*
X30479999Y13679961D02*
X30552571Y13389675D01*
X30552571Y13389675D02*
X30625142Y13244532D01*
X30625142Y13244532D02*
X30770285Y13099390D01*
X30770285Y13099390D02*
X30987999Y13026818D01*
X30987999Y13026818D02*
X31350856Y13026818D01*
X29028571Y13026818D02*
X29899428Y13026818D01*
X29463999Y13026818D02*
X29463999Y14550818D01*
X29463999Y14550818D02*
X29609142Y14333104D01*
X29609142Y14333104D02*
X29754285Y14187961D01*
X29754285Y14187961D02*
X29899428Y14115390D01*
D11*
X28290277Y17468032D02*
X28052001Y17468032D01*
X28337932Y17325066D02*
X28171139Y17825446D01*
X28171139Y17825446D02*
X28004346Y17325066D01*
X31903911Y17325066D02*
X31903911Y17825446D01*
X31617980Y17325066D02*
X31832429Y17610997D01*
X31617980Y17825446D02*
X31903911Y17539514D01*
%TO.C,R1*%
X9652000Y5461000D02*
X8128000Y5461000D01*
X8128000Y5461000D02*
X8128000Y4445000D01*
X9652000Y4445000D02*
X9652000Y5461000D01*
X8128000Y3429000D02*
X8128000Y2413000D01*
X9652000Y2413000D02*
X9652000Y3429000D01*
X8128000Y2413000D02*
X9652000Y2413000D01*
X9779000Y5588000D02*
G75*
G02*
X9525000Y5588000I-127000J0D01*
G01*
X9525000Y5588000D02*
G75*
G02*
X9779000Y5588000I127000J0D01*
G01*
%TO.C,R2*%
X10541000Y11811000D02*
X12065000Y11811000D01*
X12065000Y11811000D02*
X12065000Y12827000D01*
X10541000Y12827000D02*
X10541000Y11811000D01*
X12065000Y13843000D02*
X12065000Y14859000D01*
X10541000Y14859000D02*
X10541000Y13843000D01*
X12065000Y14859000D02*
X10541000Y14859000D01*
X10668000Y11684000D02*
G75*
G02*
X10414000Y11684000I-127000J0D01*
G01*
X10414000Y11684000D02*
G75*
G02*
X10668000Y11684000I127000J0D01*
G01*
%TO.C,R3*%
X8128000Y6096000D02*
X9652000Y6096000D01*
X9652000Y6096000D02*
X9652000Y7112000D01*
X8128000Y7112000D02*
X8128000Y6096000D01*
X9652000Y8128000D02*
X9652000Y9144000D01*
X8128000Y9144000D02*
X8128000Y8128000D01*
X9652000Y9144000D02*
X8128000Y9144000D01*
X8255000Y5969000D02*
G75*
G02*
X8001000Y5969000I-127000J0D01*
G01*
X8001000Y5969000D02*
G75*
G02*
X8255000Y5969000I127000J0D01*
G01*
%TO.C,R4*%
X12954000Y11811000D02*
X14478000Y11811000D01*
X14478000Y11811000D02*
X14478000Y12827000D01*
X12954000Y12827000D02*
X12954000Y11811000D01*
X14478000Y13843000D02*
X14478000Y14859000D01*
X12954000Y14859000D02*
X12954000Y13843000D01*
X14478000Y14859000D02*
X12954000Y14859000D01*
X13081000Y11684000D02*
G75*
G02*
X12827000Y11684000I-127000J0D01*
G01*
X12827000Y11684000D02*
G75*
G02*
X13081000Y11684000I127000J0D01*
G01*
%TO.C,R6*%
X10668000Y-8001000D02*
X12192000Y-8001000D01*
X12192000Y-8001000D02*
X12192000Y-6985000D01*
X10668000Y-6985000D02*
X10668000Y-8001000D01*
X12192000Y-5969000D02*
X12192000Y-4953000D01*
X10668000Y-4953000D02*
X10668000Y-5969000D01*
X12192000Y-4953000D02*
X10668000Y-4953000D01*
X10795000Y-8128000D02*
G75*
G02*
X10541000Y-8128000I-127000J0D01*
G01*
X10541000Y-8128000D02*
G75*
G02*
X10795000Y-8128000I127000J0D01*
G01*
%TO.C,R7*%
X27432000Y28194000D02*
X25908000Y28194000D01*
X25908000Y28194000D02*
X25908000Y27178000D01*
X27432000Y27178000D02*
X27432000Y28194000D01*
X25908000Y26162000D02*
X25908000Y25146000D01*
X27432000Y25146000D02*
X27432000Y26162000D01*
X25908000Y25146000D02*
X27432000Y25146000D01*
X27559000Y28321000D02*
G75*
G02*
X27305000Y28321000I-127000J0D01*
G01*
X27305000Y28321000D02*
G75*
G02*
X27559000Y28321000I127000J0D01*
G01*
%TO.C,R8*%
X20828000Y-8001000D02*
X22352000Y-8001000D01*
X22352000Y-8001000D02*
X22352000Y-6985000D01*
X20828000Y-6985000D02*
X20828000Y-8001000D01*
X22352000Y-5969000D02*
X22352000Y-4953000D01*
X20828000Y-4953000D02*
X20828000Y-5969000D01*
X22352000Y-4953000D02*
X20828000Y-4953000D01*
X20955000Y-8128000D02*
G75*
G02*
X20701000Y-8128000I-127000J0D01*
G01*
X20701000Y-8128000D02*
G75*
G02*
X20955000Y-8128000I127000J0D01*
G01*
%TO.C,R9*%
X24892000Y28194000D02*
X23368000Y28194000D01*
X23368000Y28194000D02*
X23368000Y27178000D01*
X24892000Y27178000D02*
X24892000Y28194000D01*
X23368000Y26162000D02*
X23368000Y25146000D01*
X24892000Y25146000D02*
X24892000Y26162000D01*
X23368000Y25146000D02*
X24892000Y25146000D01*
X25019000Y28321000D02*
G75*
G02*
X24765000Y28321000I-127000J0D01*
G01*
X24765000Y28321000D02*
G75*
G02*
X25019000Y28321000I127000J0D01*
G01*
%TO.C,R10*%
X15748000Y-8001000D02*
X17272000Y-8001000D01*
X17272000Y-8001000D02*
X17272000Y-6985000D01*
X15748000Y-6985000D02*
X15748000Y-8001000D01*
X17272000Y-5969000D02*
X17272000Y-4953000D01*
X15748000Y-4953000D02*
X15748000Y-5969000D01*
X17272000Y-4953000D02*
X15748000Y-4953000D01*
X15875000Y-8128000D02*
G75*
G02*
X15621000Y-8128000I-127000J0D01*
G01*
X15621000Y-8128000D02*
G75*
G02*
X15875000Y-8128000I127000J0D01*
G01*
%TO.C,R12*%
X18288000Y-8001000D02*
X19812000Y-8001000D01*
X19812000Y-8001000D02*
X19812000Y-6985000D01*
X18288000Y-6985000D02*
X18288000Y-8001000D01*
X19812000Y-5969000D02*
X19812000Y-4953000D01*
X18288000Y-4953000D02*
X18288000Y-5969000D01*
X19812000Y-4953000D02*
X18288000Y-4953000D01*
X18415000Y-8128000D02*
G75*
G02*
X18161000Y-8128000I-127000J0D01*
G01*
X18161000Y-8128000D02*
G75*
G02*
X18415000Y-8128000I127000J0D01*
G01*
%TO.C,R14*%
X13208000Y-8001000D02*
X14732000Y-8001000D01*
X14732000Y-8001000D02*
X14732000Y-6985000D01*
X13208000Y-6985000D02*
X13208000Y-8001000D01*
X14732000Y-5969000D02*
X14732000Y-4953000D01*
X13208000Y-4953000D02*
X13208000Y-5969000D01*
X14732000Y-4953000D02*
X13208000Y-4953000D01*
X13335000Y-8128000D02*
G75*
G02*
X13081000Y-8128000I-127000J0D01*
G01*
X13081000Y-8128000D02*
G75*
G02*
X13335000Y-8128000I127000J0D01*
G01*
%TO.C,R16*%
X17272000Y28194000D02*
X15748000Y28194000D01*
X15748000Y28194000D02*
X15748000Y27178000D01*
X17272000Y27178000D02*
X17272000Y28194000D01*
X15748000Y26162000D02*
X15748000Y25146000D01*
X17272000Y25146000D02*
X17272000Y26162000D01*
X15748000Y25146000D02*
X17272000Y25146000D01*
X17399000Y28321000D02*
G75*
G02*
X17145000Y28321000I-127000J0D01*
G01*
X17145000Y28321000D02*
G75*
G02*
X17399000Y28321000I127000J0D01*
G01*
%TO.C,R18*%
X12192000Y28194000D02*
X10668000Y28194000D01*
X10668000Y28194000D02*
X10668000Y27178000D01*
X12192000Y27178000D02*
X12192000Y28194000D01*
X10668000Y26162000D02*
X10668000Y25146000D01*
X12192000Y25146000D02*
X12192000Y26162000D01*
X10668000Y25146000D02*
X12192000Y25146000D01*
X12319000Y28321000D02*
G75*
G02*
X12065000Y28321000I-127000J0D01*
G01*
X12065000Y28321000D02*
G75*
G02*
X12319000Y28321000I127000J0D01*
G01*
%TO.C,R20*%
X28448000Y-8001000D02*
X29972000Y-8001000D01*
X29972000Y-8001000D02*
X29972000Y-6985000D01*
X28448000Y-6985000D02*
X28448000Y-8001000D01*
X29972000Y-5969000D02*
X29972000Y-4953000D01*
X28448000Y-4953000D02*
X28448000Y-5969000D01*
X29972000Y-4953000D02*
X28448000Y-4953000D01*
X28575000Y-8128000D02*
G75*
G02*
X28321000Y-8128000I-127000J0D01*
G01*
X28321000Y-8128000D02*
G75*
G02*
X28575000Y-8128000I127000J0D01*
G01*
%TO.C,R19*%
X25908000Y-8001000D02*
X27432000Y-8001000D01*
X27432000Y-8001000D02*
X27432000Y-6985000D01*
X25908000Y-6985000D02*
X25908000Y-8001000D01*
X27432000Y-5969000D02*
X27432000Y-4953000D01*
X25908000Y-4953000D02*
X25908000Y-5969000D01*
X27432000Y-4953000D02*
X25908000Y-4953000D01*
X26035000Y-8128000D02*
G75*
G02*
X25781000Y-8128000I-127000J0D01*
G01*
X25781000Y-8128000D02*
G75*
G02*
X26035000Y-8128000I127000J0D01*
G01*
%TO.C,R15*%
X14732000Y28194000D02*
X13208000Y28194000D01*
X13208000Y28194000D02*
X13208000Y27178000D01*
X14732000Y27178000D02*
X14732000Y28194000D01*
X13208000Y26162000D02*
X13208000Y25146000D01*
X14732000Y25146000D02*
X14732000Y26162000D01*
X13208000Y25146000D02*
X14732000Y25146000D01*
X14859000Y28321000D02*
G75*
G02*
X14605000Y28321000I-127000J0D01*
G01*
X14605000Y28321000D02*
G75*
G02*
X14859000Y28321000I127000J0D01*
G01*
%TO.C,R17*%
X23368000Y-8001000D02*
X24892000Y-8001000D01*
X24892000Y-8001000D02*
X24892000Y-6985000D01*
X23368000Y-6985000D02*
X23368000Y-8001000D01*
X24892000Y-5969000D02*
X24892000Y-4953000D01*
X23368000Y-4953000D02*
X23368000Y-5969000D01*
X24892000Y-4953000D02*
X23368000Y-4953000D01*
X23495000Y-8128000D02*
G75*
G02*
X23241000Y-8128000I-127000J0D01*
G01*
X23241000Y-8128000D02*
G75*
G02*
X23495000Y-8128000I127000J0D01*
G01*
%TO.C,R5*%
X29972000Y28194000D02*
X28448000Y28194000D01*
X28448000Y28194000D02*
X28448000Y27178000D01*
X29972000Y27178000D02*
X29972000Y28194000D01*
X28448000Y26162000D02*
X28448000Y25146000D01*
X29972000Y25146000D02*
X29972000Y26162000D01*
X28448000Y25146000D02*
X29972000Y25146000D01*
X30099000Y28321000D02*
G75*
G02*
X29845000Y28321000I-127000J0D01*
G01*
X29845000Y28321000D02*
G75*
G02*
X30099000Y28321000I127000J0D01*
G01*
%TO.C,R13*%
X19812000Y28194000D02*
X18288000Y28194000D01*
X18288000Y28194000D02*
X18288000Y27178000D01*
X19812000Y27178000D02*
X19812000Y28194000D01*
X18288000Y26162000D02*
X18288000Y25146000D01*
X19812000Y25146000D02*
X19812000Y26162000D01*
X18288000Y25146000D02*
X19812000Y25146000D01*
X19939000Y28321000D02*
G75*
G02*
X19685000Y28321000I-127000J0D01*
G01*
X19685000Y28321000D02*
G75*
G02*
X19939000Y28321000I127000J0D01*
G01*
%TO.C,R11*%
X22352000Y28194000D02*
X20828000Y28194000D01*
X20828000Y28194000D02*
X20828000Y27178000D01*
X22352000Y27178000D02*
X22352000Y28194000D01*
X20828000Y26162000D02*
X20828000Y25146000D01*
X22352000Y25146000D02*
X22352000Y26162000D01*
X20828000Y25146000D02*
X22352000Y25146000D01*
X22479000Y28321000D02*
G75*
G02*
X22225000Y28321000I-127000J0D01*
G01*
X22225000Y28321000D02*
G75*
G02*
X22479000Y28321000I127000J0D01*
G01*
D13*
%TO.C,U1*%
X16129000Y11176000D02*
X24892000Y11176000D01*
D14*
X16129000Y7620000D02*
X16129000Y11176000D01*
D13*
X16129000Y7620000D02*
X24892000Y7620000D01*
D14*
X24892000Y7620000D02*
X24892000Y11176000D01*
X17174981Y10414000D02*
G75*
G02*
X16607019Y10414000I-283981J0D01*
G01*
X16607019Y10414000D02*
G75*
G02*
X17174981Y10414000I283981J0D01*
G01*
D13*
%TO.C,R24*%
X27940000Y8890000D02*
X26416000Y8890000D01*
X26416000Y8890000D02*
X26416000Y7874000D01*
X27940000Y7874000D02*
X27940000Y8890000D01*
X26416000Y6858000D02*
X26416000Y5842000D01*
X27940000Y5842000D02*
X27940000Y6858000D01*
X26416000Y5842000D02*
X27940000Y5842000D01*
X28067000Y9017000D02*
G75*
G02*
X27813000Y9017000I-127000J0D01*
G01*
X27813000Y9017000D02*
G75*
G02*
X28067000Y9017000I127000J0D01*
G01*
%TO.C,C1*%
X26416000Y9652000D02*
X27940000Y9652000D01*
X27940000Y9652000D02*
X27940000Y10668000D01*
X26416000Y10668000D02*
X26416000Y9652000D01*
X27940000Y11684000D02*
X27940000Y12700000D01*
X26416000Y12700000D02*
X26416000Y11684000D01*
X27940000Y12700000D02*
X26416000Y12700000D01*
X26543000Y9525000D02*
G75*
G02*
X26289000Y9525000I-127000J0D01*
G01*
X26289000Y9525000D02*
G75*
G02*
X26543000Y9525000I127000J0D01*
G01*
%TO.C,C2*%
X29210000Y9652000D02*
X30734000Y9652000D01*
X30734000Y9652000D02*
X30734000Y10668000D01*
X29210000Y10668000D02*
X29210000Y9652000D01*
X30734000Y11684000D02*
X30734000Y12700000D01*
X29210000Y12700000D02*
X29210000Y11684000D01*
X30734000Y12700000D02*
X29210000Y12700000D01*
X29337000Y9525000D02*
G75*
G02*
X29083000Y9525000I-127000J0D01*
G01*
X29083000Y9525000D02*
G75*
G02*
X29337000Y9525000I127000J0D01*
G01*
%TO.C,D1*%
X29621480Y17002760D02*
X30622240Y16002000D01*
X29621480Y15001240D02*
X29621480Y17002760D01*
X30622240Y16052800D02*
X29621480Y15001240D01*
X30622240Y14952980D02*
X30622240Y17051020D01*
%TD*%
D15*
%TO.C,J2*%
X6350000Y11430000D03*
%TD*%
%TO.C,J6*%
X21590000Y20320000D03*
X21590000Y22860000D03*
%TD*%
%TO.C,J7*%
X19050000Y0D03*
X19050000Y-2540000D03*
%TD*%
M02*
